<?xml version="1.0" standalone="no"?>
<!DOCTYPE svg PUBLIC "-//W3C//DTD SVG 1.1//EN" "http://www.w3.org/Graphics/SVG/1.1/DTD/svg11.dtd" >
<svg xmlns="http://www.w3.org/2000/svg">
<metadata>
This is a custom SVG webfont generated by Font Squirrel.
Designer    : httpwwwunderwarenl
Foundry URL : httpwwwunderwarenl
</metadata>
<defs>
<font id="webfontIjJmGjW6" horiz-adv-x="1399" >
<font-face units-per-em="2048" ascent="1577" descent="-471" />
<missing-glyph horiz-adv-x="391" />
<glyph unicode=" "  horiz-adv-x="391" />
<glyph unicode="&#x09;" horiz-adv-x="391" />
<glyph unicode="&#xa0;" horiz-adv-x="391" />
<glyph unicode="!" horiz-adv-x="522" d="M196 0v133h154v-133h-154zM322 370h-96l-7 1026h109z" />
<glyph unicode="&#x22;" horiz-adv-x="848" d="M178 882v492h100v-487zM570 882v492h100v-487z" />
<glyph unicode="#" horiz-adv-x="1100" d="M989 1034h-193l-71 -264h187l-9 -82h-201l-69 -250h-97l70 250h-229l-70 -250h-96l69 250h-176l8 82h193l72 264h-187l8 84h202l71 256h94l-69 -256h229l71 256h95l-70 -256h175zM471 1034l-71 -264h231l71 264h-231z" />
<glyph unicode="$" horiz-adv-x="975" d="M842 385q0 -62 -20 -116.5t-60 -96.5t-100 -70t-142 -38v-310h-104v304q-44 0 -92.5 6t-93.5 16t-84 23t-66 28l36 86q32 -14 72 -26.5t83.5 -21.5t88 -14t84.5 -5q75 0 130.5 17t90.5 47t52.5 69t17.5 81q0 30 -4.5 56t-15.5 49.5t-32 45t-53.5 42.5t-79 43t-110.5 47 q-88 34 -147.5 70t-96 77.5t-52 90.5t-15.5 111q0 63 18.5 117t56.5 96.5t95 70.5t135 39v305h104v-297q40 0 79 -6.5t73 -16t65 -22t56 -24.5l-37 -86q-30 14 -64 25.5t-68 19.5t-66 12t-58 4q-76 0 -130.5 -16.5t-88.5 -46t-49.5 -69t-15.5 -85.5q0 -32 4 -58.5t14 -50 t29 -44.5t48.5 -41.5t72 -41t98.5 -42.5q103 -40 169 -79t104.5 -81t53.5 -89.5t15 -103.5z" />
<glyph unicode="%" horiz-adv-x="1657" d="M438 0h-114l888 1374h117zM668 1030q0 -92 -22 -163.5t-60 -121t-91 -76t-116 -26.5q-58 0 -107.5 18.5t-85.5 61.5t-57 112t-21 171q0 80 19.5 150t56.5 122t91.5 82t124.5 30q132 0 200 -92t68 -268zM570 1020q0 67 -11 119.5t-33 88.5t-55 55t-78 19 q-46 0 -80.5 -19.5t-58.5 -57t-35.5 -91.5t-11.5 -122q0 -76 11.5 -131t34 -89t56 -49.5t78.5 -15.5q43 0 77 18.5t57.5 55.5t36 92t12.5 127zM1548 372q0 -92 -21 -163t-59.5 -121t-91 -76t-114.5 -26q-58 0 -108 18.5t-86 61t-56.5 112t-20.5 170.5q0 80 19.5 150.5 t56 122.5t90.5 82t123 30q134 0 201 -92t67 -269zM1452 362q0 67 -11 119.5t-33 89t-55 55.5t-77 19q-46 0 -81 -19.5t-58.5 -57.5t-35 -92t-11.5 -122q0 -77 11 -130.5t34 -88t57 -50t78 -15.5q86 0 134 74t48 218z" />
<glyph unicode="&#x26;" horiz-adv-x="1474" d="M612 1394q72 0 124.5 -18.5t86 -52t50 -80.5t16.5 -105q0 -48 -15.5 -95t-54.5 -98t-105 -109t-167 -130l299 -476q29 28 56.5 67t51.5 88t44 105t34 118h381l-8 -88h-303q-16 -58 -35.5 -109t-44 -96t-56 -85t-71.5 -78l59 -89q25 -37 44 -62.5t34.5 -40.5t30 -23 t30 -10.5t35.5 -2.5q22 0 52 7t63 16l23 -84q-42 -19 -82.5 -27t-71.5 -8q-36 0 -64 5t-52 17.5t-45 32t-43.5 47.5t-47.5 67l-55 87q-29 -21 -68.5 -38.5t-85 -29.5t-94.5 -19t-98 -7q-96 0 -166.5 21t-117 62t-69 99t-22.5 133q0 34 5 64.5t18 61.5t36.5 63t60 67 t88.5 75.5t122 88.5q-38 59 -64.5 107t-43 90t-23.5 79.5t-7 75.5q0 73 23 132t66 100t105.5 63t141.5 22zM780 1110q0 94 -47 143t-141 49q-54 0 -93.5 -15t-66 -43t-39 -67t-12.5 -85q0 -24 1.5 -46t6.5 -43t13.5 -43t22 -49t31.5 -59l44 -74q76 54 129 98.5t86.5 84 t49 75.5t15.5 74zM456 654q-54 -38 -95 -72t-70 -63t-48 -55t-30.5 -49.5t-16 -46t-4.5 -44.5q0 -64 21 -111t59 -77t92 -44t122 -14q38 0 76 7t74 18t68 26t56 31z" />
<glyph unicode="'" horiz-adv-x="456" d="M178 882v492h100v-487z" />
<glyph unicode="(" horiz-adv-x="604" d="M547 -500q-40 7 -78.5 20.5t-74.5 37.5t-68.5 61t-60 90t-49.5 125t-38 167.5t-24 216t-8 270.5t8 270.5t24 216t38 167.5t49.5 125.5t60 90t68.5 60.5t74 37t79 21l16 -67q-33 -14 -64 -32.5t-59 -43.5t-53 -60.5t-46 -85t-37 -114.5t-28 -150t-18 -193t-6 -242t6 -242 t18 -193.5t28.5 -150.5t37.5 -113.5t45.5 -83.5t53.5 -60.5t60 -43t64 -31.5z" />
<glyph unicode=")" horiz-adv-x="602" d="M58 1476q40 -8 78.5 -21t74 -37t67.5 -60.5t59.5 -90t49.5 -125.5t37.5 -167.5t23.5 -216t8 -270.5t-8 -270.5t-23.5 -216t-37.5 -167.5t-49.5 -125t-59.5 -90t-67.5 -61t-74 -37t-78.5 -21l-19 70q33 14 64 31.5t59 43t53 60.5t46 83.5t37 113.5t28 150.5t18 193.5 t6 242t-6 242t-18 193t-28 150t-37 114.5t-46 85t-53 60.5t-59 43t-64 33z" />
<glyph unicode="*" horiz-adv-x="952" d="M540 1004l185 -314l-82 -43l-176 315l-248 -260l-69 62l254 256l-320 139l41 88l309 -149l45 350l95 -10l-46 -350l340 65l16 -90z" />
<glyph unicode="+" horiz-adv-x="1073" d="M938 631h-358v-336l-107 -9v345h-344l8 94h336v348l107 4v-352h364z" />
<glyph unicode="," horiz-adv-x="508" d="M358 -43q0 -54 -15.5 -95.5t-49 -74.5t-84.5 -62t-123 -59l-33 68q60 28 99.5 53t62.5 48.5t32 47t9 47.5q0 20 -4 47t-11 57.5t-16.5 62t-19.5 61.5l77 14q16 -18 30 -43t24.5 -54t16 -59.5t5.5 -58.5z" />
<glyph unicode="-" horiz-adv-x="696" d="M618 473h-546l6 82h544z" />
<glyph unicode="." horiz-adv-x="499" d="M170 0v140h162v-140h-162z" />
<glyph unicode="/" horiz-adv-x="741" d="M146 0h-103l553 1374h102z" />
<glyph unicode="0" horiz-adv-x="1245" d="M1112 710q0 -98 -12 -189.5t-37 -172t-65 -147.5t-96.5 -115.5t-130 -75t-165.5 -26.5q-120 0 -209 37.5t-147.5 119.5t-87.5 211.5t-29 313.5q0 102 12.5 195t38.5 174t67 147t97 113t129 72t164 25q122 0 211 -41t146.5 -125t85.5 -212.5t28 -303.5zM1006 700 q0 164 -26 279t-74 186t-117 103t-156 32q-102 0 -176.5 -42t-122.5 -122t-71 -196t-23 -264q0 -161 22 -274.5t69 -185.5t117 -105t166 -33q88 0 160 34.5t123.5 109t80 192.5t28.5 286z" />
<glyph unicode="1" horiz-adv-x="874" d="M102 80l344 14v1184h-327v78l436 18v-1280l260 -14v-80h-713v80z" />
<glyph unicode="2" horiz-adv-x="995" d="M520 1300q-36 0 -76 -6.5t-83 -21t-88 -37.5t-89 -55l-49 74q47 37 94 63.5t96 43.5t102 25t113 8q93 0 162.5 -27t116.5 -72t70 -103.5t23 -122.5q0 -42 -5 -80.5t-16 -76.5t-30 -76t-47.5 -80t-67 -89t-88.5 -102l-432 -473h677l-6 -92h-791l-16 84l478 528 q47 52 82.5 95t61.5 80t43 69.5t27 63t14.5 61.5t4.5 63q0 56 -18.5 103t-54.5 81t-88 53t-120 19z" />
<glyph unicode="3" horiz-adv-x="1020" d="M488 1300q-71 0 -153.5 -28t-168.5 -90l-47 72q46 38 94.5 65t97.5 44t99 24t100 7q87 0 153.5 -25.5t111 -69t67 -100.5t22.5 -119q0 -32 -3 -62t-12 -60t-25 -62t-40 -68t-58 -78t-79 -90q72 -22 120.5 -53t78 -68t42.5 -81t13 -92q0 -54 -15.5 -104t-44.5 -92t-71 -77 t-94 -59t-113 -37t-129 -13q-50 0 -102 5t-101 14.5t-91 23t-72 29.5l30 90q40 -16 84 -28t89 -20.5t89 -13t84 -4.5q88 0 154 22t110 59.5t65 87t21 103.5q0 39 -10 71.5t-33.5 60t-64 50t-100.5 40.5t-142.5 33t-191.5 28l14 94q42 -2 85 -7t81.5 -11t70.5 -12.5l52 -10.5 q56 61 93.5 112.5t61 97t34 87.5t10.5 84q0 47 -16.5 89t-49.5 74t-82.5 50t-117.5 18z" />
<glyph unicode="4" horiz-adv-x="1112" d="M1038 299h-219v-299h-98v299h-659l-11 82l672 1003l96 -14v-981h227zM721 1231l-561 -842h561v842z" />
<glyph unicode="5" horiz-adv-x="1052" d="M254 680q-10 0 -23.5 -0.5t-25.5 -1.5l-29 -2v698h708l-10 -90h-606v-514q133 0 234 -13t174 -37t121.5 -57.5t77.5 -74t41 -87.5t12 -97q0 -58 -15.5 -112t-44 -100.5t-69.5 -85t-92 -65.5t-111 -42t-127 -15q-56 0 -107.5 4.5t-98.5 14t-87 22.5t-72 31l33 92 q42 -18 82.5 -31t81.5 -21t84 -12t90 -4q70 0 132.5 20t109.5 59t74.5 96.5t27.5 133.5q0 42 -11.5 80.5t-37.5 70.5t-68.5 58t-105 44t-147.5 28t-195 10z" />
<glyph unicode="6" horiz-adv-x="1106" d="M979 1250q-34 12 -66.5 21t-66 15.5t-69 10t-75.5 3.5q-108 0 -185 -33.5t-130.5 -98t-85.5 -159.5t-49 -215q143 0 252 -12t189.5 -35t134.5 -56t87 -75.5t46.5 -93t13.5 -108.5t-12 -112t-35.5 -102t-58.5 -87t-81 -67.5t-103 -44t-124 -15.5q-103 0 -183 33.5 t-134 105.5t-82.5 184.5t-28.5 270.5q0 192 35.5 342t107.5 255t182 160t257 55q91 0 165 -16t126 -38zM868 402q0 50 -13 91t-43.5 74.5t-79 59t-117.5 42.5t-161 25t-210 8q0 -18 -2 -40v-44.5v-56.5q0 -132 23 -224.5t66 -149.5t103 -83t134 -26q70 0 125.5 22t94.5 64 t59.5 102t20.5 136z" />
<glyph unicode="7" horiz-adv-x="983" d="M250 0h-115l695 1284h-736l10 90h840l10 -68z" />
<glyph unicode="8" horiz-adv-x="1122" d="M207 1075q0 73 28 132t78.5 100t122 63t158.5 22q80 0 148 -19t117 -58t76 -98.5t27 -139.5q0 -46 -12 -92.5t-37 -95.5t-64 -104t-95 -119q74 -48 122 -89.5t76 -79.5t39 -75.5t11 -77.5q0 -53 -15.5 -100.5t-43.5 -87.5t-67.5 -71.5t-88.5 -53.5t-105.5 -33.5 t-118.5 -11.5q-100 0 -181.5 23t-139.5 67t-89.5 108.5t-31.5 147.5q0 26 3.5 53t14 56t28.5 63t46.5 75.5t69.5 92l96 114.5q-37 27 -68.5 59.5t-54.5 68.5t-36 76.5t-13 84.5zM228 346q0 -46 13 -84t36 -67.5t55 -51.5t70 -36.5t81 -21.5t87 -7q73 0 133 19t103.5 53 t67 81t23.5 103q0 20 -3.5 38t-12.5 36t-24.5 37t-41 40.5t-60.5 47t-83 57.5l-218 143l-82 -99q-36 -44 -61 -80t-41 -65t-26 -53.5t-13 -46t-3 -43.5zM858 1065q0 54 -19.5 98t-55 74.5t-84.5 46.5t-109 16q-68 0 -121 -15t-88 -43t-53.5 -68t-18.5 -88q0 -69 44.5 -129.5 t134.5 -120.5l194 -126q50 61 84 111.5t54 93.5t29 80t9 70z" />
<glyph unicode="9" horiz-adv-x="1106" d="M129 129q34 -12 66 -21.5t65 -16t68.5 -10t75.5 -3.5q108 0 185 33.5t130.5 98t86 158.5t50.5 214q-144 0 -253 12t-189 35t-134 57t-87 76.5t-46.5 93t-13.5 108.5t12 112.5t35.5 102t58.5 86.5t81 67.5t103 44t124 15.5q102 0 181.5 -33.5t134.5 -106t83.5 -185.5 t28.5 -271q0 -191 -35.5 -341.5t-108 -254.5t-182 -159t-258.5 -55q-91 0 -164 16t-125 39zM240 977q0 -50 13 -91.5t43 -75.5t77.5 -59t117 -42t161.5 -26t210 -9q2 18 2 41v45v57q0 132 -23 224.5t-65 149.5t-103 83t-135 26q-70 0 -125 -22t-94 -63.5t-59 -101.5 t-20 -136z" />
<glyph unicode=":" horiz-adv-x="499" d="M170 131v137h162v-137h-162zM170 660v136h162v-136h-162z" />
<glyph unicode=";" horiz-adv-x="508" d="M358 -43q0 -54 -15.5 -95.5t-49 -74.5t-84.5 -62t-123 -59l-33 68q60 28 99.5 53t62.5 48.5t32 47t9 47.5q0 20 -4 47t-11 57.5t-16.5 62t-19.5 61.5l77 14q16 -18 30 -43t24.5 -54t16 -59.5t5.5 -58.5zM162 660v136h162v-136h-162z" />
<glyph unicode="&#x3c;" horiz-adv-x="971" d="M830 998l-600 -322l579 -324l-8 -108l-695 382l13 95l719 389z" />
<glyph unicode="=" horiz-adv-x="975" d="M834 828h-701l11 94h698zM834 442h-701l11 94h698z" />
<glyph unicode="&#x3e;" horiz-adv-x="997" d="M144 354l598 322l-580 326l10 108l692 -383l-10 -94l-721 -389z" />
<glyph unicode="?" horiz-adv-x="786" d="M230 0v133h155v-133h-155zM721 1018q0 -64 -13.5 -113t-44.5 -87t-81 -66t-123 -52q-58 -20 -93.5 -35t-54.5 -31t-25 -33t-6 -38q0 -48 7 -95.5t16 -86.5l-88 -17q-8 18 -15.5 44t-13.5 52.5t-9 52.5t-3 46q0 27 4 49t14 40t29 34t48 31.5t71 32t98 34.5q54 18 88.5 40 t54.5 48t27.5 56.5t7.5 66.5q0 70 -25.5 125.5t-82.5 93.5t-148.5 58t-222.5 20h-41l12 84l55.5 4t53.5 2q122 0 215.5 -25t157.5 -72t97.5 -113.5t33.5 -149.5z" />
<glyph unicode="@" horiz-adv-x="1782" d="M1059 196l-74 -74q-32 -32 -58.5 -54.5t-48.5 -37t-42 -23.5t-39 -12t-41 -3q-33 0 -64.5 14t-56.5 46.5t-40 85t-15 130.5q0 86 11 162.5t33 141t54 115.5t73 87t91 55t106 19q30 0 63 -3t67 -8t67 -13t63 -17l-51 -533l-4.5 -54t-4 -58.5t-2.5 -52t-1 -35.5 q63 8 120 36t105.5 72t88 100t67 120t42.5 134t15 140q0 133 -40 232.5t-116.5 165.5t-188.5 99t-257 33q-114 0 -215.5 -27t-187 -79t-154 -127t-115.5 -170t-72.5 -210t-25.5 -247q0 -150 24.5 -266t79.5 -195.5t143 -120t216 -40.5q88 0 181 15t183 40l14 -76 q-45 -17 -94.5 -29.5t-100.5 -21t-103 -12.5t-102 -4q-126 0 -227 38.5t-170 121.5t-106 213.5t-37 314.5q0 164 33 300t92 243t141 187t180 133t209 79t227 26q176 0 304 -43t211 -122.5t123.5 -191t40.5 -247.5q0 -88 -20.5 -174t-57.5 -163.5t-89 -143.5t-114.5 -114.5 t-134 -75.5t-147.5 -27q-19 0 -31.5 4.5t-20.5 13t-11 21.5t-3 29q0 22 4.5 57zM676 266q0 -49 7.5 -84.5t21 -58.5t33.5 -34t44 -11q14 0 27.5 3t29 12t35 24t46.5 40l62 59l83 83l45 445q-37 9 -79.5 15.5t-82.5 6.5q-48 0 -87 -18t-69 -51t-52 -78.5t-36 -101t-21 -119.5 t-7 -132z" />
<glyph unicode="A" horiz-adv-x="1216" d="M1050 0l-166 461h-550l-182 -461h-101l531 1374h94l488 -1374h-114zM362 547h496l-213 619q-10 32 -16.5 61t-6.5 49q0 -10 -1.5 -23t-5 -28t-8.5 -30t-11 -29z" />
<glyph unicode="B" horiz-adv-x="1118" d="M1006 412q0 -90 -30 -166t-89.5 -131t-150.5 -85t-214 -30h-336v1374h320q102 0 174 -23t117 -65t66 -99t21 -124q0 -39 -7 -75.5t-23.5 -75.5t-44 -83.5t-67.5 -99.5q74 -18 124 -49.5t81 -73.5t45 -91.5t14 -102.5zM780 1046q0 54 -16 99.5t-51.5 77.5t-93 49.5 t-140.5 17.5h-186v-548h363q36 50 59 92t38 78t21 68.5t6 65.5zM897 393q0 60 -18 108t-56 82.5t-97 53.5q-58 19 -140 19h-293v-572h245q66 0 118.5 12t92.5 32.5t68 49.5t45.5 63.5t26 73t8.5 78.5z" />
<glyph unicode="C" horiz-adv-x="1183" d="M936 1254q-38 13 -71 21.5t-65 14.5t-66 8t-72 2q-108 0 -192 -45t-141 -128t-86.5 -201t-29.5 -264q0 -110 15 -195.5t43 -150t68 -108.5t89.5 -72t108.5 -40t125 -12q110 0 214 40t199 110l39 -70q-46 -42 -98 -74.5t-110 -55t-121 -34.5t-131 -12q-134 0 -236.5 38 t-172 118t-105.5 205.5t-36 299.5q0 110 17 207.5t49 179.5t80 148t111 112t140 70t169 24q66 0 118 -4t96 -13t83 -23.5t79 -34.5l-22 -361l-88 -6v306z" />
<glyph unicode="D" horiz-adv-x="1290" d="M1186 702q0 -94 -15 -183t-48 -167t-83 -143t-120.5 -111t-162 -72t-204.5 -26h-367v1374h406q84 0 160 -14t142 -45t120 -82t92 -126t59 -175t21 -230zM295 1290v-1204h258q92 0 166.5 21t132.5 60t100 95t69.5 126t40.5 152.5t13 174.5q0 86 -13 162.5t-40 140.5 t-68.5 114.5t-98.5 85.5t-130.5 53.5t-163.5 18.5h-266z" />
<glyph unicode="E" horiz-adv-x="1087" d="M186 0v1374h785l-7 -86h-671v-528h581v-88h-581v-586h671l7 -86h-785z" />
<glyph unicode="F" horiz-adv-x="1003" d="M952 1288h-657v-553h594l-7 -88h-587v-647h-109v1374h776z" />
<glyph unicode="G" horiz-adv-x="1265" d="M670 1390q66 0 121 -5.5t103 -16.5t92 -27.5t87 -38.5l-35 -84q-44 20 -87 35t-89 26t-96 16q-48 5 -104 5q-108 0 -192 -44.5t-141 -127t-86.5 -200.5t-29.5 -262q0 -110 15.5 -196t43.5 -151t68 -109.5t90.5 -72.5t110 -40.5t125.5 -12.5q46 0 89 5.5t84.5 16.5 t83.5 28q43 17 87 40v360h-340l4 86h442v-491q-47 -30 -99.5 -55.5t-110.5 -45t-120 -30.5q-62 -10 -130 -10q-134 0 -237 38t-173 119t-106 207t-36 302q0 109 17 205.5t49 178.5t80 147.5t111 111t140.5 69.5t168.5 24z" />
<glyph unicode="H" horiz-adv-x="1409" d="M1114 0v676h-821v-676h-107v1374h107v-610h821v610h108v-1374h-108z" />
<glyph unicode="I" horiz-adv-x="686" d="M608 1298l-210 -8v-1206l210 -6v-78h-530v78l206 6v1206l-206 8v76h530v-76z" />
<glyph unicode="J" horiz-adv-x="626" d="M86 1298v76h477v-76l-143 -8v-1280q0 -83 -18 -144.5t-55 -102.5t-95 -62t-136 -21q-24 0 -50 3t-52 8t-50 12t-46 17l24 84q20 -6 44.5 -12t50 -10t50.5 -7t46 -3q48 0 81.5 12.5t54.5 39t30.5 68.5t9.5 100v1298z" />
<glyph unicode="K" horiz-adv-x="1157" d="M985 0l-497 727l-193 -199v-528h-109v1374h109v-720l673 720h118l-518 -565l548 -809h-131z" />
<glyph unicode="L" horiz-adv-x="1036" d="M186 0v1374h109v-1288h661l8 -86h-778z" />
<glyph unicode="M" horiz-adv-x="1708" d="M1386 1374h136l10 -1374h-104l-2 1284q-2 -31 -10 -58.5t-20 -51.5l-509 -1156h-86l-473 1114l-10.5 29t-7.5 26t-4.5 26.5t-2.5 29.5l-19 -1243h-98l25 1374h127l510 -1224z" />
<glyph unicode="N" horiz-adv-x="1415" d="M1132 0l-804 1132q-5 8 -11.5 20t-12.5 24.5t-11 25l-9 22.5v-1224h-98v1374h105l780 -1106q10 -14 19.5 -29t18 -31t15 -31t8.5 -27v1224h99v-1374h-99z" />
<glyph unicode="O" d="M1284 710q0 -96 -17 -187t-50 -172t-83 -148.5t-117 -116t-151 -75.5t-184 -27q-135 0 -241.5 38t-179.5 120t-112 211t-39 313q0 106 19.5 200t56 175t89.5 145.5t120 110t148 69.5t172 24q136 0 241.5 -38.5t178.5 -121t111 -211.5t38 -309zM1174 700q0 86 -10.5 164.5 t-33 145t-58.5 120.5t-87.5 92t-119.5 58q-69 20 -155 20q-78 0 -144 -21t-121 -61t-97 -96t-71 -125t-43.5 -150t-14.5 -171q0 -143 26 -254.5t82.5 -188.5t145.5 -117t215 -40q108 0 197 42t153 122t100 196t36 264z" />
<glyph unicode="P" horiz-adv-x="1034" d="M938 983q0 -72 -12 -137t-37 -121t-63 -101.5t-88 -77.5t-113 -49.5t-139 -17.5q-60 0 -109.5 4.5t-83.5 14.5v-498h-107v1374h361q70 0 126.5 -13t100.5 -38t75 -59.5t51 -78t29 -94.5t9 -108zM832 968q0 68 -17 127t-54 102.5t-96 68t-143 24.5h-229v-700 q16 -4 37.5 -8t48 -6.5t56 -4t59.5 -1.5q62 0 111 14.5t86.5 41t64 63t43.5 81t25 94.5t8 104z" />
<glyph unicode="Q" d="M1284 710q0 -109 -21.5 -211.5t-64.5 -190.5t-107.5 -157.5t-150.5 -111.5q14 -61 27 -107t28 -79t33 -54t40 -34t49 -18t61 -5q40 0 88 8t106 24l20 -86q-20 -8 -48 -16t-59 -14t-62 -9t-57 -3q-46 0 -84.5 6t-70 22t-56.5 42t-46.5 65t-40 93t-34.5 126q-36 -8 -74 -12 t-78 -4q-135 0 -241.5 38t-179.5 120t-112 211t-39 313q0 106 19.5 200t56 175t89.5 145.5t120 110t148 69.5t172 24q136 0 241.5 -38.5t178.5 -121t111 -211.5t38 -309zM1174 700q0 86 -10.5 164.5t-33 145t-58.5 120.5t-87.5 92t-119.5 58q-69 20 -155 20q-78 0 -144 -21 t-121 -61t-97 -96t-71 -125t-43.5 -150t-14.5 -171q0 -143 26 -254.5t82.5 -188.5t145.5 -117t215 -40q108 0 197 42t153 122t100 196t36 264z" />
<glyph unicode="R" horiz-adv-x="1116" d="M910 0l-322 568h-295v-568h-107v1374h350q110 0 189 -23.5t130 -68.5t75 -110t24 -148q0 -47 -11.5 -94.5t-41 -99t-78.5 -110t-125 -128.5l338 -592h-126zM844 1016q0 74 -24.5 126t-69 85t-106.5 48t-136 15h-215v-634h350q56 56 94.5 102.5t62 89.5t34 84t10.5 84z " />
<glyph unicode="S" horiz-adv-x="1052" d="M922 348q0 -82 -32 -149t-93 -114t-151 -72t-206 -25q-112 0 -201 21t-159 59l36 92q36 -16 78 -30.5t89 -25t96.5 -16.5t99.5 -6q84 0 146 18.5t102.5 51t61 77.5t20.5 99q0 36 -4.5 65t-17.5 55t-36 49.5t-60 47t-90 48.5t-126 54q-96 38 -162 76.5t-105.5 82.5t-57 97 t-17.5 121q0 50 10.5 97t33 88t57.5 75t84 58t112.5 37t143.5 13q94 0 173.5 -19.5t141.5 -59.5l-35 -89q-34 17 -72 30.5t-76 22.5t-75 13t-68 4q-92 0 -153.5 -17.5t-98.5 -50.5t-53 -79.5t-16 -104.5q0 -35 5 -64.5t17.5 -55.5t34.5 -49.5t56 -46t81.5 -45.5t110.5 -48 q75 -29 132 -57.5t99 -57t69.5 -59t44 -64t23.5 -69.5t7 -78z" />
<glyph unicode="T" horiz-adv-x="1114" d="M1086 1288h-472v-1288h-106v1288h-490l6 86h1068z" />
<glyph unicode="U" horiz-adv-x="1380" d="M1206 549q0 -124 -30 -227.5t-94 -177.5t-164 -115t-238 -41q-96 0 -170.5 15t-131 45t-95.5 75t-63 103.5t-35 130.5t-11 157v860h104v-842q0 -113 21 -197.5t69 -141.5t125 -86t191 -29q118 0 198.5 31t130 91.5t71.5 149.5t22 205v819h100v-825z" />
<glyph unicode="V" horiz-adv-x="1145" d="M536 205q4 -12 8 -27t6 -29.5t3.5 -28.5t1.5 -24q0 20 6.5 50t18.5 59l440 1169h110l-534 -1374h-90l-492 1374h117z" />
<glyph unicode="W" horiz-adv-x="1681" d="M467 0h-97l-344 1374h114l276 -1151q8 -34 10 -60q2 -27 2 -47q0 20 6 49t14 58l340 1020h122l314 -1020q4 -13 7.5 -27.5t6 -29t4 -27.5t1.5 -23q0 20 5.5 49t13.5 58l286 1151h107l-357 -1374h-102l-26 82l-32 96l-34 108l-36 115l-38 117l-37 114l-133 414 q-9 30 -13.5 58.5t-4.5 48.5q0 -20 -6 -48.5t-15 -58.5z" />
<glyph unicode="X" horiz-adv-x="1140" d="M626 686l437 -686h-119l-383 602l-389 -602h-114l442 680l-430 694h122l373 -606l406 606h115z" />
<glyph unicode="Y" horiz-adv-x="1048" d="M553 614v-614h-105v596l-434 778h119l369 -662l420 662h112z" />
<glyph unicode="Z" horiz-adv-x="1022" d="M968 1306l-790 -1220h738l-8 -86h-838l-17 68l779 1220h-724l4 86h850z" />
<glyph unicode="[" horiz-adv-x="628" d="M570 1346h-273v-1721h271l-5 -90h-371v1901h384z" />
<glyph unicode="\" horiz-adv-x="768" d="M600 0l-557 1378h105l558 -1378h-106z" />
<glyph unicode="]" horiz-adv-x="622" d="M53 -465l5 90h270v1721h-266l4 90h364v-1901h-377z" />
<glyph unicode="^" horiz-adv-x="848" d="M654 836l-193 497q-16 40 -22.5 67.5t-6.5 37.5l-242 -602h-100l301 720l88 6l281 -726h-106z" />
<glyph unicode="_" horiz-adv-x="620" d="M563 0h-524l10 78h519z" />
<glyph unicode="`" horiz-adv-x="481" d="M307 1138l-268 342l105 26l241 -336z" />
<glyph unicode="a" horiz-adv-x="997" d="M674 400q-126 -8 -215 -21t-145 -32t-81.5 -46t-25.5 -63q0 -38 10.5 -70t32.5 -55t54 -35t75 -12q40 0 82.5 13.5t82 36t73 50.5t55.5 57zM801 -8q-34 0 -58.5 8.5t-39.5 26t-22 43.5t-7 61q-65 -72 -148.5 -109.5t-177.5 -37.5q-49 0 -93.5 14t-77.5 43t-53 75t-20 110 q0 32 7.5 61t29 55t60.5 48t103 39.5t155 31t217 21.5l2 220v9q0 39 -8 68q-9 32 -28 52.5t-48.5 29.5t-69.5 9q-39 0 -81 -7.5t-84 -22.5t-81.5 -36.5t-74.5 -47.5l-51 72q43 32 86 56t90.5 40.5t101.5 25t117 8.5q60 0 104 -16t72 -47t41.5 -77t13.5 -106l-2 -568 q0 -18 2 -30t7 -20t15 -11t28 -3q31 0 63.5 4t60.5 10l6 -76q-31 -11 -71 -18.5t-86 -7.5z" />
<glyph unicode="b" horiz-adv-x="1052" d="M950 502q0 -72 -12.5 -139t-38 -124t-62.5 -104t-86.5 -80t-111 -51t-133.5 -18q-46 0 -86 3.5t-79 12t-78 22.5t-81 34v1380l100 10v-624q30 29 65 53.5t74 42.5t82.5 28t90.5 10q356 0 356 -456zM846 496q0 82 -15 150.5t-47.5 119t-83 78.5t-120.5 28q-39 0 -79 -11 t-78.5 -32t-73.5 -49t-67 -63v-607q30 -13 56 -21.5t53 -14.5t56 -8t63 -2q80 0 143 30t106 86t65 136t22 180z" />
<glyph unicode="c" horiz-adv-x="856" d="M796 76q-68 -43 -147 -65.5t-174 -22.5q-86 0 -154.5 23.5t-116.5 76.5t-74 138t-26 208q0 129 34 227t94 164.5t144 99.5t185 33q58 0 104 -8q47 -8 89 -24l-27 -88q-22 8 -45.5 13.5t-46.5 9t-44 5.5t-38 2q-176 0 -262 -107t-86 -321q0 -93 17.5 -160.5t54.5 -111.5 t94 -65t135 -21q66 0 130 20t124 56z" />
<glyph unicode="d" horiz-adv-x="1046" d="M782 -4q-10 17 -15 49.5t-5 75.5q-24 -27 -57 -51t-72 -42.5t-85 -29.5q-48 -10 -100 -10q-62 0 -109 12t-82.5 34.5t-61 52t-42 64.5t-26.5 73t-15 76t-6.5 75t-1.5 69q0 130 34 227t94 160.5t142.5 95t180.5 31.5q66 0 119.5 -10t87.5 -30v520l102 8v-1444zM762 830 q-20 10 -45.5 18t-53.5 14t-57.5 9t-56.5 3q-166 0 -252 -106t-86 -322q0 -95 14.5 -164.5t46 -115.5t80 -68t117.5 -22q47 0 91 13.5t82 34t69 44t51 43.5v619z" />
<glyph unicode="e" horiz-adv-x="962" d="M860 116q-39 -30 -80 -54t-86.5 -40.5t-96.5 -25t-109 -8.5q-80 0 -150.5 23t-122 74t-81.5 133t-30 200q0 132 31 232.5t89 169t140 103.5t183 35q76 0 133.5 -24t96 -69t58 -108t19.5 -141q0 -14 -1 -31l-2 -34t-2.5 -32t-2.5 -23h-639q-2 -31 -2 -49.5v-30.5 q0 -90 23 -153.5t64.5 -103.5t99 -58.5t126.5 -18.5q74 0 146 28q73 28 153 82zM752 606q0 63 -14.5 112.5t-42 83.5t-68.5 52t-95 18q-62 0 -115 -18t-94.5 -55t-68.5 -93q-28 -54 -39 -128h537v28z" />
<glyph unicode="f" horiz-adv-x="567" d="M596 1346q-8 3 -25.5 5.5t-38 4.5t-40.5 3t-33 1q-46 0 -77.5 -12t-50.5 -36.5t-27.5 -63t-8.5 -91.5v-221h211l-6 -88h-205v-848h-99v846l-138 10l8 70l130 10v213q0 76 18 131.5t51 92.5t82 55t112 18q18 0 41.5 -2t45.5 -5t42 -7t32 -8z" />
<glyph unicode="g" horiz-adv-x="1011" d="M994 966l-32.5 4t-32 3.5t-29.5 2.5t-24 1q-23 0 -39 -5.5t-29.5 -19.5t-25.5 -38q-12 -25 -28 -64q18 -16 32 -40t24 -52t16 -57t6 -56q0 -74 -23.5 -137.5t-69 -109.5t-112.5 -72.5t-156 -26.5q-13 0 -27 1l-28 1q-14 1 -25 2t-19 2q-9 -14 -15.5 -29.5t-11.5 -31.5 t-7 -32t-2 -30q0 -24 4 -39.5t11 -24t17.5 -11.5t22.5 -3h299q73 0 121.5 -15t78.5 -42t42 -64t12 -79t-17 -83.5t-49 -78t-78 -68t-104 -54t-127.5 -35.5t-148.5 -13q-82 0 -146 12t-107.5 38t-66 67t-22.5 98q0 50 16.5 89.5t44 71.5t61.5 59l72 55q-8 8 -14.5 18.5 t-11 23t-6.5 24.5t-2 22q0 18 3 39t10.5 44t18 46t25.5 45q-38 14 -68.5 37.5t-51 57.5t-31.5 79.5t-11 103.5q0 86 26.5 150.5t75.5 108t116 65.5t149 22q36 0 67 -5t56 -13t44 -17t29 -16q20 50 37 83.5t36 53t41 27.5t54 8q13 0 31.5 -1.5t37.5 -5t38 -8t33 -10.5z M723 639q0 48 -14.5 88.5t-43.5 70.5t-72 47t-101 17q-128 0 -191 -65t-63 -189q0 -60 16 -102t47 -68.5t77 -38.5t104 -12q54 0 98.5 15.5t76 46.5t49 78.5t17.5 111.5zM844 -110q0 28 -8 50t-27.5 38t-54 25t-86.5 9h-328q-48 -31 -79 -56.5t-48 -50.5t-24 -50t-7 -53 q0 -74 64 -107t194 -33q93 0 167.5 20t127.5 53t81 74t28 81z" />
<glyph unicode="h" horiz-adv-x="1071" d="M792 0v700q0 34 -6.5 66t-24 56t-47 38t-75.5 14q-34 0 -77 -12t-89.5 -36t-94.5 -59.5t-94 -82.5v-684h-102v1438l102 8v-668q54 52 104.5 86.5t98 55.5t93.5 30q46 8 90 8q64 0 107 -16t69.5 -47t37.5 -78t11 -109v-708h-103z" />
<glyph unicode="i" horiz-adv-x="467" d="M182 0v942l102 8v-950h-102zM164 1178v112h133v-112h-133z" />
<glyph unicode="j" horiz-adv-x="467" d="M164 1178v112h133v-112h-133zM280 -112q0 -77 -13 -130t-44.5 -87.5t-82 -53.5t-124.5 -29l-14 80q50 10 84 22.5t54 35t28 57t8 88.5v1071l104 8v-1062z" />
<glyph unicode="k" horiz-adv-x="923" d="M756 -4l-451 492l416 452h127l-416 -438l459 -500zM182 0v1438l102 8v-1446h-102z" />
<glyph unicode="l" horiz-adv-x="497" d="M176 1438l102 8v-1306q0 -17 2 -29t7 -19.5t15 -10.5t26 -3q32 0 64 3q30 3 60 9l7 -76q-31 -11 -70 -16.5t-86 -5.5q-34 0 -58.5 8t-39.5 26t-22 45.5t-7 65.5v1301z" />
<glyph unicode="m" horiz-adv-x="1609" d="M1329 0v700q0 34 -6.5 66t-23.5 56t-46 38t-75 14q-68 0 -147 -42t-169 -130v-702h-100v706q0 36 -5 67t-20 53t-43 35t-74 13q-33 0 -72.5 -12t-82.5 -36t-89 -59.5t-92 -82.5v-684h-102v940l84 12q4 -10 8 -27t6 -40t3 -50t1 -57q54 52 102 86.5t92.5 55.5t87.5 30 q44 8 88 8q46 0 82 -9t63 -29t43 -52t20 -76q48 46 92 78t85 51.5t83 28t86 8.5q64 0 108 -16t70 -47t37 -78t11 -109v-708h-105z" />
<glyph unicode="n" horiz-adv-x="1071" d="M792 0v700q0 34 -6.5 66t-23.5 56t-46.5 38t-74.5 14q-34 0 -77 -12t-89.5 -36t-95.5 -59.5t-95 -82.5v-684h-102v940l84 12q4 -10 8 -27t6 -40t3 -50t1 -57q54 52 104.5 86.5t98 55.5t93.5 30q46 8 90 8q64 0 107 -16t69.5 -47t37.5 -78t11 -109v-708h-103z" />
<glyph unicode="o" horiz-adv-x="1032" d="M928 494q0 -114 -28 -208t-81.5 -160.5t-132 -103t-180.5 -36.5q-98 0 -173 27.5t-125.5 84.5t-77 144.5t-26.5 205.5q0 113 30 207t86 161.5t136 104.5t178 37q94 0 168 -26t124 -83t76 -144.5t26 -210.5zM821 479q0 86 -16.5 158.5t-52.5 125.5t-93 82t-139 29 q-72 0 -130 -28t-99 -81t-62.5 -130t-21.5 -176q0 -110 23.5 -184.5t65.5 -119.5t99 -64t123 -19q74 0 130.5 29.5t95 83t58 129t19.5 165.5z" />
<glyph unicode="p" horiz-adv-x="1052" d="M950 502q0 -72 -12 -139t-37 -124t-61.5 -104t-86 -80t-110.5 -51t-135 -18q-36 0 -66.5 2.5t-57 9t-50.5 16t-48 23.5v-430l-104 -7v1340l82 12q4 -10 8 -24.5t7 -32t4 -36.5t1 -35q30 30 65 54.5t75 42t83 27.5t87 10q176 0 266 -113.5t90 -342.5zM844 496 q0 82 -15 150.5t-47 119t-82 78.5t-120 28q-45 0 -87.5 -13t-80.5 -34t-70 -48t-56 -56v-590q48 -26 108 -43.5t126 -17.5q78 0 138.5 29t102 84t62.5 134t21 179z" />
<glyph unicode="q" horiz-adv-x="1046" d="M762 -398v517q-28 -29 -62.5 -53t-74.5 -42t-84.5 -27t-92.5 -9q-62 0 -109 12t-82.5 34.5t-61 52t-42 64.5t-26.5 73t-15 76t-6.5 75t-1.5 69q0 130 34 227t94 160.5t142.5 95t180.5 31.5q32 0 62.5 -2t58 -5t51 -8t41.5 -11l96 16v-1341zM762 842q-20 7 -45 12.5 t-53 10.5t-58 7t-57 2q-166 0 -252 -106t-86 -322q0 -95 14.5 -164.5t46 -115.5t80 -68t117.5 -22q36 0 75 10t77.5 28t74.5 42.5t66 54.5v631z" />
<glyph unicode="r" horiz-adv-x="667" d="M635 868h-47q-26 0 -47 -3t-41 -14t-40 -32.5t-45 -59t-57 -92.5l-74 -135v-532h-102v940l78 12q6 -12 10.5 -38.5t7 -64t3.5 -84.5t1 -97q30 62 54.5 107t46 77t42 53t41 33t42.5 16t47 4q30 0 52.5 -2t35.5 -6z" />
<glyph unicode="s" horiz-adv-x="856" d="M752 240q0 -48 -18.5 -94t-60 -81.5t-109.5 -57t-166 -21.5q-88 0 -165 21t-143 63l35 88q39 -20 76 -36t73 -27t71.5 -17t72.5 -6q63 0 106.5 12t70 33t38.5 48.5t12 57.5q0 22 -3 41t-11.5 35.5t-25 32.5t-43 31t-64.5 31t-92 34q-82 28 -134 55t-83 59t-42.5 70 t-11.5 88q0 53 21 99.5t63.5 81.5t106 55t149.5 20q90 0 155.5 -16.5t111.5 -44.5l-36 -88q-20 10 -47.5 20.5t-60 18t-69.5 12t-75 4.5q-64 0 -105.5 -12t-66 -33t-34.5 -49q-10 -30 -10 -62q0 -35 8 -60.5t33 -47t70 -42t120 -44.5q61 -20 105.5 -40.5t76 -41.5 t51.5 -42.5t31 -45.5t15 -49t4 -53z" />
<glyph unicode="t" horiz-adv-x="698" d="M660 56q-59 -36 -123 -53q-63 -17 -133 -17q-54 0 -93 13t-64.5 39t-38 67.5t-12.5 97.5v651l-134 4l8 72l126 8l19 314l84 8v-320h334l-7 -90h-327v-637q0 -38 7 -64t22 -42.5t38.5 -23.5t57.5 -7q51 0 103.5 16t103.5 43z" />
<glyph unicode="u" horiz-adv-x="1065" d="M801 -8q-4 10 -7.5 27t-6 38t-4 44t-1.5 47q-54 -49 -101 -81t-92 -50.5t-88 -25.5t-87 -7q-69 0 -115 19.5t-73.5 55t-38.5 84.5t-11 107v690l104 8v-710q0 -34 8.5 -65t27.5 -54.5t50 -36.5q30 -14 76 -14q34 0 74.5 10t84 31t89.5 55q44 34 90 80v694l104 10v-950z " />
<glyph unicode="v" horiz-adv-x="915" d="M432 184q11 -30 13.5 -52t2.5 -42q0 20 5 43t16 51l309 756h102l-394 -940h-84l-365 940h107z" />
<glyph unicode="w" horiz-adv-x="1446" d="M428 0h-92l-299 940h107l231 -748q9 -31 12.5 -52.5t3.5 -41.5q0 20 5.5 44t15.5 50l254 750l94 8l264 -758q11 -31 14.5 -52.5t3.5 -41.5q0 20 5 44t14 50l254 748h94l-329 -940h-89l-54 155l-50 143l-45 128l-39 110l-76 214q-9 25 -13 49.5t-4 44.5q0 -20 -5 -43 t-15 -51z" />
<glyph unicode="x" horiz-adv-x="909" d="M514 475l307 -475h-113l-264 400l-252 -400h-108l303 467l-301 473h114l252 -395l260 395h112z" />
<glyph unicode="y" horiz-adv-x="915" d="M430 186q6 -16 9 -28t5 -24t2 -22v-20q0 20 5 43t16 51l309 754h104l-491 -1166q-19 -44 -43 -75.5t-59 -52.5t-86 -32.5t-125 -15.5l-10 82q58 6 95.5 14t63 21.5t41.5 34.5q16 22 31 54l92 214l-352 922h107z" />
<glyph unicode="z" horiz-adv-x="874" d="M780 872l-546 -788h542l-10 -84h-660l-12 62l560 794h-506l12 84h608z" />
<glyph unicode="{" horiz-adv-x="657" d="M641 1366q-80 -19 -130.5 -40.5t-79.5 -50.5t-39.5 -70.5t-10.5 -100.5q0 -40 5.5 -88t12.5 -95l13 -91t6 -78q0 -42 -6 -80t-24 -72t-50 -64t-82 -57q42 -18 71.5 -43.5t49 -56.5t28.5 -66t9 -71q0 -48 -6 -100l-12 -104l-12 -99q-6 -49 -5 -89q0 -54 12.5 -91.5 t42.5 -64t81 -46.5t128 -39l-25 -80q-64 13 -113.5 27t-87 32t-63.5 41t-42 52.5t-23 68t-7 86.5q0 25 3 56.5t7 65.5t9 71t9 72t7 68t3 61q0 44 -11 78t-38 58.5t-71 41t-110 26.5l6 68q64 14 108 35.5t70 51t37 67.5t11 86q0 39 -6 83.5t-14 91.5t-14 96t-6 97 q0 78 20 134t62 95t106 63t152 40z" />
<glyph unicode="|" horiz-adv-x="547" d="M223 -400v1846h99v-1846h-99z" />
<glyph unicode="}" horiz-adv-x="659" d="M563 469q-64 -16 -107.5 -37t-69.5 -49.5t-37 -66.5t-11 -86q0 -40 6 -85t13.5 -92t13.5 -96t6 -97q0 -79 -20 -135t-61.5 -95t-105.5 -63.5t-153 -39.5l-19 75q54 13 94 26.5t69 29.5t48 36t30 44.5t15 56t4 70.5q0 40 -5.5 88t-12.5 95.5t-12.5 91.5t-5.5 77 q0 42 6 80.5t24 73t50 65t82 56.5q-42 17 -72 42.5t-49 56.5t-28 66t-9 72q0 48 5.5 99.5t11.5 102.5l12 99q5 48 5 88q0 56 -12 94t-42 65t-82 46t-130 37l27 80q96 -18 160.5 -41t103.5 -58t55.5 -84t16.5 -121q0 -26 -2.5 -57.5t-6.5 -66t-9 -70.5t-9 -72t-7 -69t-3 -61 q0 -44 11 -78t37.5 -58.5t71 -42t110.5 -27.5z" />
<glyph unicode="~" horiz-adv-x="854" d="M774 1411q-8 -50 -24 -87.5t-40 -62.5t-54 -38t-66 -13q-26 0 -57 4t-63 11l-65 13l-63 13q-30 6 -57 10.5t-47 4.5q-19 0 -34 -6t-26.5 -20t-21.5 -38t-19 -62l-69 15q8 46 21.5 82.5t34 62.5t49.5 40t69 14q24 0 52 -4t59 -10l63 -12l61 -12q30 -6 56.5 -10t46.5 -4 q24 0 42 6t32 21t25 40t19 63z" />
<glyph unicode="&#xa1;" horiz-adv-x="522" d="M326 940v-133h-154v133h154zM200 570h97l6 -1026h-109z" />
<glyph unicode="&#xa2;" horiz-adv-x="938" d="M846 320q-34 -24 -67.5 -43.5t-68 -33t-71.5 -22.5t-78 -14v-305h-105v303q-80 3 -145 29t-111 79.5t-71 137t-25 203.5q0 112 26 200t72 152.5t111.5 105t145.5 56.5v304h104v-294q78 0 137.5 -16t100.5 -38l-35 -86q-21 9 -45.5 17.5t-51.5 15.5t-56.5 11t-59.5 4 q-348 0 -348 -428q0 -184 75 -273.5t230 -89.5q37 0 72.5 5.5t71.5 17t73 29t78 42.5z" />
<glyph unicode="&#xa3;" horiz-adv-x="1110" d="M1032 198q-16 -50 -40.5 -88.5t-58 -65t-76.5 -40.5t-97 -14q-32 0 -80 1t-104.5 2.5t-119.5 3.5t-126 3.5t-123.5 2.5t-110.5 1l-6 78l213 8q7 16 12 37.5t9 46t6 51.5t2 55q0 16 -0.5 37t-1.5 45t-2.5 49t-2.5 49q-3 56 -7 118h-185l7 82h172q-6 94 -9 161l-5 115 t-2.5 80t-0.5 57q0 70 22.5 127.5t65.5 99t106 64t146 22.5q80 0 150.5 -16t136.5 -55l-35 -80q-30 14 -64.5 25.5t-68.5 20t-66 13t-60 4.5q-54 0 -96 -12.5t-71 -39t-44 -65.5t-15 -93q0 -37 0.5 -77.5t3 -91l5.5 -114t9 -145.5h416l-4 -82h-406l8 -104q2 -21 3 -43l2 -42 t1 -36.5v-28.5q0 -32 -2 -64t-6 -63t-11 -59t-15 -52q78 -2 148 -4q30 0 62 -1l59 -2q28 -1 52.5 -1h40.5q32 0 59 8t50 27t43 50t38 75z" />
<glyph unicode="&#xa4;" horiz-adv-x="1165" d="M786 1298q-88 0 -157 -28t-120 -82t-84.5 -131t-49.5 -175h565l-10 -88h-566q-2 -32 -3 -64t-1 -68v-48.5t2 -45.5h562l-10 -86h-544q12 -109 39.5 -184.5t72.5 -122.5t109.5 -68t148.5 -21q36 0 73.5 5t75.5 14t74.5 22t70.5 31l37 -88q-35 -19 -76 -34.5t-85 -26 t-90 -16t-91 -5.5q-113 0 -197 29.5t-142 90t-91 154.5t-43 220h-205l7 86h194l-1 28q0 12 -0.5 26.5t-0.5 26.5q0 77 6 145h-192l6 88h196q20 116 64 210.5t110 161t155 102.5t201 36q92 0 166 -16t126 -38l-27 -91q-34 12 -66.5 21.5t-65.5 16t-68.5 10t-74.5 3.5z" />
<glyph unicode="&#xa5;" horiz-adv-x="1048" d="M473 660v90l-391 624h121l329 -518l355 518h111l-420 -612v-102h372l-8 -90h-364v-172h364l-6 -91h-358v-307h-105v307h-381l6 91h375v172h-375l8 90h367z" />
<glyph unicode="&#xa6;" horiz-adv-x="547" d="M223 654v792h99v-792h-99zM223 -400v781h99v-781h-99z" />
<glyph unicode="&#xa7;" horiz-adv-x="938" d="M832 326q0 -72 -27 -136t-79.5 -112t-131 -76t-180.5 -28q-45 0 -88.5 5t-81.5 15.5t-72 25t-60 33.5l36 78q28 -14 62 -26t70.5 -20.5t74 -13.5t71.5 -5q22 0 43 1t39 5q0 28 -7.5 67t-24 89t-44.5 109t-68 128l-130 225l-49 86l-34.5 68t-23 56t-13 50t-6.5 48t-2 52 q0 46 12 91t36 84t59 72t81 57t104 37.5t126 13.5q45 0 88.5 -6t81.5 -16.5t71 -25.5t59 -32l-32 -78q-28 14 -62 26t-71 21t-75 14t-72 5q-23 0 -43.5 -2.5t-40.5 -6.5q2 -44 14 -92t32 -98t46 -101t54 -99l128 -228l48 -86l35 -68.5t24 -56t14 -49t7 -47.5t2 -53zM442 526 q40 -74 69 -135t47 -113t26 -97t8 -85q70 32 105.5 89t35.5 127q0 25 -2 46.5t-7.5 44.5t-14.5 47t-23 54t-35 68l-47 86l-108 192l-64.5 123t-48 109t-29 100.5t-10.5 97.5q-34 -16 -60 -39t-44 -50.5t-26.5 -59t-8.5 -66.5q0 -24 2 -46t7.5 -44.5t14.5 -46.5t23 -54 t35 -68l47 -85z" />
<glyph unicode="&#xa8;" horiz-adv-x="913" d="M618 1182v108h132v-108h-132zM219 1182v108h131v-108h-131z" />
<glyph unicode="&#xa9;" horiz-adv-x="1419" d="M1274 488q0 -87 -19 -164.5t-55 -142.5t-87.5 -116t-116 -87t-142 -55t-164.5 -19q-136 0 -239 31t-172 97t-104 170t-35 250q0 94 21 175t59 146t92 115t119.5 83t141 50t156.5 17q145 0 248 -39t169 -111t97 -173.5t31 -226.5zM1170 482q0 240 -111 357t-332 117 q-112 0 -202 -32t-154 -94t-98.5 -153t-34.5 -208q0 -130 28 -222t85 -150.5t143 -85.5t204 -27q97 0 182.5 30t150 92t102 156t37.5 220zM928 230q-20 -16 -46 -30t-56 -24t-64 -15t-68 -5q-60 0 -107 18t-79.5 55t-50 94t-17.5 133t22 136t62 101t94 63t117 22 q53 0 94 -10t70 -26l-31 -62q-13 6 -29.5 10.5t-34.5 7t-37 3.5t-38 1q-50 0 -86.5 -16t-60.5 -47.5t-36 -77t-12 -102.5q0 -62 11.5 -105.5t34 -71.5t54.5 -40t74 -12t89 13.5t100 47.5z" />
<glyph unicode="&#xaa;" horiz-adv-x="665" d="M442 1084q-60 -4 -103 -11t-71 -16t-45 -19t-25.5 -21.5t-11 -24t-2.5 -26.5q0 -48 24 -73t62 -25q28 0 54.5 9t49 22.5t39.5 31t29 35.5v118zM442 895q-46 -50 -93 -71t-99 -21q-30 0 -56.5 10.5t-46 31t-31.5 51t-12 68.5q0 24 5 45t18 39t36.5 33t61 26t91.5 19 t126 12v86q0 48 -24 69.5t-64 21.5q-18 0 -38.5 -3t-43 -10.5t-47.5 -20.5t-53 -31l-43 54q28 22 55.5 39t56.5 27t60 15t65 5q40 0 70 -10t50 -29t29 -46t9 -60v-333q0 -11 1 -18.5t3.5 -12.5t7 -7t13.5 -2q10 0 26.5 3t30.5 7l10 -54q-18 -8 -46 -14.5t-56 -6.5 q-22 0 -36 5.5t-22 16.5t-11 27.5t-3 38.5z" />
<glyph unicode="&#xab;" horiz-adv-x="1065" d="M635 465l229 -344l-96 -35l-262 366l305 406l92 -28zM244 465l229 -344l-96 -35l-265 366l308 406l92 -28z" />
<glyph unicode="&#xac;" horiz-adv-x="964" d="M717 299v334h-588l8 90h682v-418z" />
<glyph unicode="&#xad;" horiz-adv-x="696" d="M618 473h-546l6 82h544z" />
<glyph unicode="&#xae;" horiz-adv-x="1145" d="M1036 1088q0 -106 -34 -194t-97 -150.5t-150.5 -97t-193.5 -34.5q-119 0 -204.5 29t-141 86t-81.5 140t-26 190q0 116 37.5 205t102.5 149.5t153.5 91.5t190.5 31q218 0 331 -113t113 -333zM950 1080q0 94 -20 164t-64 118t-112 72t-164 24q-90 0 -164 -25.5t-126 -75 t-81 -121.5t-29 -165q0 -195 92.5 -291t282.5 -96q78 0 148.5 23.5t123 72t83 123.5t30.5 177zM682 836l-102 186h-80v-186h-70v477h164q36 0 62 -10.5t43 -27.5t25.5 -40t8.5 -49q0 -24 -6.5 -45t-18 -39t-27 -34t-34.5 -30l117 -202h-82zM662 1178q0 36 -22 58t-60 22h-80 v-183h112q24 22 37 45.5t13 57.5z" />
<glyph unicode="&#xaf;" horiz-adv-x="762" d="M668 1220h-582l10 82h578z" />
<glyph unicode="&#xb0;" horiz-adv-x="819" d="M717 1080q0 -64 -22.5 -118.5t-68.5 -99.5q-44 -44 -98 -67t-118 -23t-118 23t-100 67q-46 45 -68 99.5t-22 118.5t22 118t68 98q90 90 218 90t216 -90q45 -45 68 -98.5t23 -117.5zM633 1080q0 46 -16.5 85t-48.5 72q-32 34 -72 49.5t-86 15.5t-86 -15.5t-72 -49.5 q-34 -32 -50 -71.5t-16 -85.5t16 -86t50 -72q32 -32 72 -49t86 -17t86 17t72 49q66 66 65 158z" />
<glyph unicode="&#xb1;" horiz-adv-x="1124" d="M612 1270v-480h476v-96h-476v-475h-98v475h-477v96h477v480h98zM1088 98v-98h-1051v98h1051z" />
<glyph unicode="&#xb2;" horiz-adv-x="696" d="M588 654h-467l-9 61l250 249q40 40 65 70t38 55t18 48t5 47q0 26 -9 47t-26 36t-41 23t-54 8q-22 0 -43 -3t-43 -11t-46 -22t-54 -35l-43 63q31 25 61 42.5t60 29.5t61.5 17t65.5 5q49 0 87 -14.5t64 -40t40 -60t14 -73.5q0 -37 -7.5 -68.5t-25 -63.5t-46.5 -67t-73 -79 l-190 -191h354z" />
<glyph unicode="&#xb3;" horiz-adv-x="708" d="M590 856q0 -40 -17 -78.5t-52.5 -68t-89 -47t-126.5 -17.5q-28 0 -56 4t-54.5 10.5t-50.5 15.5t-42 19l23 72q27 -10 51 -17t46 -12t44 -7.5t46 -2.5q50 0 86 8.5t59 24t34 37.5t11 49q0 26 -12 46t-42 36t-82 28t-134 21l14 71q18 0 37.5 -1t38 -2.5t35.5 -4t28 -4.5 q44 48 63 89t19 79q0 18 -5.5 36t-18.5 32t-34 22t-51 8q-23 0 -45 -3t-44.5 -10t-46.5 -20t-50 -32l-41 61q32 26 62.5 42t60.5 25.5t60.5 13t62.5 3.5q47 0 81 -13t57 -36.5t33.5 -55t10.5 -65.5q0 -48 -24.5 -94t-82.5 -98q40 -14 67 -31t43 -37t22 -44t6 -52z" />
<glyph unicode="&#xb4;" horiz-adv-x="481" d="M174 1138l-78 32l242 336l104 -26z" />
<glyph unicode="&#xb5;" horiz-adv-x="1179" d="M950 314q0 -60 2 -103t8 -65q4 -17 12 -29.5t15 -20.5q10 -8 19 -11t20 -3q26 0 47 24t31 99h41q-8 -68 -24.5 -114.5t-40.5 -70.5q-25 -26 -56.5 -38t-69.5 -12t-66 10t-50 34q-23 22 -36.5 61t-17.5 95q-51 -58 -99.5 -96t-94.5 -62q-45 -22 -84.5 -33.5t-73.5 -11.5 q-23 0 -44.5 4.5t-43.5 14.5t-43 22t-41 29q-4 -146 24 -252q18 -79 19 -109q0 -28 -6.5 -49t-20.5 -37q-27 -32 -63 -32q-17 0 -32 7t-25 21q-16 18 -23.5 42t-7.5 52q0 14 2 32t8 38q14 48 23 89t12 75q6 62 9 112.5t3 92.5v797h168v-576q0 -104 18 -148q8 -23 23 -40 t37 -31q24 -12 45 -19.5t43 -7.5q26 0 57 8t66 25q37 16 72 40.5t73 58.5v690h166v-602z" />
<glyph unicode="&#xb6;" horiz-adv-x="1233" d="M1118 858h-229v-1245l-95 -11v1338h332zM670 258q-22 -20 -50.5 -36t-61.5 -28t-69.5 -18t-72.5 -6q-74 0 -133.5 24t-101 70t-63.5 114t-22 156q0 102 28 180t78 130.5t119 79t150 26.5q56 0 106.5 -4t92.5 -10v-678z" />
<glyph unicode="&#xb7;" horiz-adv-x="485" d="M140 398v138h163v-138h-163z" />
<glyph unicode="&#xb8;" horiz-adv-x="456" d="M318 30q8 -23 14 -51.5t11 -58.5t8 -59t3 -51q0 -24 -5.5 -48t-19 -46t-35.5 -41t-56 -33.5t-79.5 -23t-105.5 -9.5l-12 73q66 4 107.5 14t64.5 24.5t31 33.5t8 41q0 17 -2 44t-6 58t-9.5 65t-11.5 64z" />
<glyph unicode="&#xb9;" horiz-adv-x="667" d="M125 723l197 12v555h-176v70l274 20v-645l162 -12v-65h-457v65z" />
<glyph unicode="&#xba;" horiz-adv-x="635" d="M568 1102q0 -66 -18 -121t-51.5 -94t-81.5 -60.5t-108 -21.5q-122 0 -181.5 72.5t-59.5 218.5q0 64 18.5 118t52.5 93t81.5 61t105.5 22q52 0 96 -13t76.5 -46t51 -89t18.5 -140zM488 1098q0 116 -41 168.5t-123 52.5q-42 0 -75.5 -15.5t-56 -44.5t-34.5 -70t-12 -91 q0 -60 11 -103t32.5 -69.5t54 -39t74.5 -12.5q43 0 74.5 15t52.5 43.5t32 70t11 95.5z" />
<glyph unicode="&#xbb;" horiz-adv-x="1065" d="M645 86l-92 30l268 366l-229 339l96 37l264 -366zM254 86l-92 30l268 366l-230 339l97 37l264 -366z" />
<glyph unicode="&#xbc;" horiz-adv-x="1646" d="M438 0h-114l888 1374h117zM125 723l197 12v555h-176v70l274 20v-645l162 -12v-65h-457v65zM1542 160h-120v-160h-95v160h-336l-16 59l354 516l93 -8v-493h122zM1327 596l-250 -362h250v362z" />
<glyph unicode="&#xbd;" horiz-adv-x="1650" d="M438 0h-114l888 1374h117zM125 723l197 12v555h-176v70l274 20v-645l162 -12v-65h-457v65zM1512 0h-468l-8 64l250 248q40 40 64.5 70t38 55t18 48t4.5 47q0 26 -9.5 47t-26.5 36t-41 22.5t-54 7.5q-22 0 -42.5 -3t-43 -11t-46.5 -21.5t-52 -33.5l-46 63q62 48 122 71 t128 23q49 0 87.5 -15t64.5 -40.5t40 -59.5t14 -73q0 -38 -8 -70t-25.5 -64t-47 -67t-71.5 -78l-190 -190h354z" />
<glyph unicode="&#xbe;" horiz-adv-x="1687" d="M479 0h-115l890 1374h116zM1583 160h-121v-160h-94v160h-336l-16 59l354 516l92 -8v-493h123zM1368 596l-250 -362h250v362zM590 856q0 -40 -17 -78.5t-52.5 -68t-89 -47t-126.5 -17.5q-28 0 -56 4t-54.5 10.5t-50.5 15.5t-42 19l23 72q27 -10 51 -17t46 -12t44 -7.5 t46 -2.5q50 0 86 8.5t59 24t34 37.5t11 49q0 26 -12 46t-42 36t-82 28t-134 21l14 71q18 0 37.5 -1t38 -2.5t35.5 -4t28 -4.5q44 48 63 89t19 79q0 18 -5.5 36t-18.5 32t-34 22t-51 8q-23 0 -45 -3t-44.5 -10t-46.5 -20t-50 -32l-41 61q32 26 62.5 42t60.5 25.5t60.5 13 t62.5 3.5q47 0 81 -13t57 -36.5t33.5 -55t10.5 -65.5q0 -48 -24.5 -94t-82.5 -98q40 -14 67 -31t43 -37t22 -44t6 -52z" />
<glyph unicode="&#xbf;" horiz-adv-x="786" d="M559 942v-133h-157v133h157zM66 -76q0 64 13 113t44 87t81 66t122 52q60 18 95 34t54 31.5t25 33t6 38.5q0 48 -7 95.5t-15 86.5l86 17q8 -18 16 -43t14 -52t9 -52.5t3 -45.5q0 -27 -3.5 -49t-14 -40t-29 -34.5t-48 -32t-71 -32t-98.5 -35.5q-54 -18 -89 -40t-54.5 -47.5 t-27 -56t-7.5 -67.5q0 -70 27 -125.5t85 -93.5t151 -58t227 -20h28l-12 -84q-26 -2 -53 -3t-55 -1q-122 0 -215.5 25t-157 71t-96.5 112.5t-33 149.5z" />
<glyph unicode="&#xc0;" horiz-adv-x="1216" d="M1050 0l-166 461h-550l-182 -461h-101l531 1374h94l488 -1374h-114zM362 547h496l-213 619q-10 32 -16.5 61t-6.5 49q0 -10 -1.5 -23t-5 -28t-8.5 -30t-11 -29zM612 1573l-268 342l104 25l242 -336z" />
<glyph unicode="&#xc1;" horiz-adv-x="1216" d="M1050 0l-166 461h-550l-182 -461h-101l531 1374h94l488 -1374h-114zM362 547h496l-213 619q-10 32 -16.5 61t-6.5 49q0 -10 -1.5 -23t-5 -28t-8.5 -30t-11 -29zM662 1573l-78 31l242 336l104 -25z" />
<glyph unicode="&#xc2;" horiz-adv-x="1216" d="M1050 0l-166 461h-550l-182 -461h-101l531 1374h94l488 -1374h-114zM362 547h496l-213 619q-10 32 -16.5 61t-6.5 49q0 -10 -1.5 -23t-5 -28t-8.5 -30t-11 -29zM803 1575l-170 275l-185 -273l-80 21l240 342h66l221 -342z" />
<glyph unicode="&#xc3;" horiz-adv-x="1216" d="M1050 0l-166 461h-550l-182 -461h-101l531 1374h94l488 -1374h-114zM362 547h496l-213 619q-10 32 -16.5 61t-6.5 49q0 -10 -1.5 -23t-5 -28t-8.5 -30t-11 -29zM936 1880q-16 -100 -65 -149t-119 -49q-29 0 -61 2l-63 7l-62 6q-30 3 -58 3q-20 0 -34 -6t-26 -20t-22 -38 t-18 -61l-70 19q8 50 21 86t33.5 60t50 36t69.5 12q26 0 55.5 -2.5t60 -6t60.5 -5.5t54 -2t42 6t32 20t24.5 39t19.5 61z" />
<glyph unicode="&#xc4;" horiz-adv-x="1216" d="M1050 0l-166 461h-550l-182 -461h-101l531 1374h94l488 -1374h-114zM362 547h496l-213 619q-10 32 -16.5 61t-6.5 49q0 -10 -1.5 -23t-5 -28t-8.5 -30t-11 -29zM764 1616v108h131v-108h-131zM364 1616v108h132v-108h-132z" />
<glyph unicode="&#xc5;" horiz-adv-x="1216" d="M1050 0l-166 461h-550l-182 -461h-101l531 1374h94l488 -1374h-114zM362 547h496l-213 619q-10 32 -16.5 61t-6.5 49q0 -10 -1.5 -23t-5 -28t-8.5 -30t-11 -29zM807 1714q0 -38 -13.5 -69t-38 -53t-59 -34t-74.5 -12q-43 0 -74 10.5t-51.5 30t-30.5 47.5t-10 64 q0 34 13 65t36.5 53.5t57 36t74.5 13.5q170 0 170 -152zM721 1710q0 18 -5 33.5t-15.5 27t-26.5 17.5t-39 6q-21 0 -38 -5t-30 -16.5t-20 -29t-7 -43.5q0 -22 6.5 -38t18 -26t27.5 -15t34 -5q51 0 73 25t22 69z" />
<glyph unicode="&#xc6;" horiz-adv-x="1876" d="M467 461l-309 -461h-113l930 1374h784l-6 -86h-669v-528h581l-8 -88h-573v-586h669l6 -86h-784v461h-508zM975 547v671l-453 -671h453z" />
<glyph unicode="&#xc7;" horiz-adv-x="1183" d="M936 1254q-38 13 -71 21.5t-65 14.5t-66 8t-72 2q-108 0 -192 -45t-141 -128t-86.5 -201t-29.5 -264q0 -110 15 -195.5t43 -150t68 -108.5t89.5 -72t108.5 -40t125 -12q110 0 214 40t199 110l39 -70q-84 -76 -185 -120.5t-221 -53.5q6 -22 10.5 -46t8 -48t5 -46t1.5 -40 q0 -24 -5.5 -48t-19.5 -46t-36 -41t-55.5 -33.5t-79 -23t-105.5 -9.5l-12 73q66 4 107 14t64 24.5t31.5 33.5t8.5 41q0 14 -1.5 36.5t-5 48.5t-8 54t-8.5 56q-123 5 -216.5 46t-157.5 121.5t-97 202.5t-33 289q0 110 17 207.5t49 179.5t80 148t111 112t140 70t169 24 q66 0 118 -4t96 -13t83 -23.5t79 -34.5l-22 -361l-88 -6v306z" />
<glyph unicode="&#xc8;" horiz-adv-x="1087" d="M186 0v1374h785l-7 -86h-671v-528h581v-88h-581v-586h671l7 -86h-785zM572 1573l-269 342l105 25l241 -336z" />
<glyph unicode="&#xc9;" horiz-adv-x="1087" d="M186 0v1374h785l-7 -86h-671v-528h581v-88h-581v-586h671l7 -86h-785zM620 1573l-78 31l242 336l105 -25z" />
<glyph unicode="&#xca;" horiz-adv-x="1087" d="M186 0v1374h785l-7 -86h-671v-528h581v-88h-581v-586h671l7 -86h-785zM762 1575l-170 275l-184 -273l-80 21l240 342h65l221 -342z" />
<glyph unicode="&#xcb;" horiz-adv-x="1087" d="M186 0v1374h785l-7 -86h-671v-528h581v-88h-581v-586h671l7 -86h-785zM723 1616v108h131v-108h-131zM324 1616v108h130v-108h-130z" />
<glyph unicode="&#xcc;" horiz-adv-x="686" d="M608 1298l-210 -8v-1206l210 -6v-78h-530v78l206 6v1206l-206 8v76h530v-76zM322 1577l-269 342l105 25l242 -336z" />
<glyph unicode="&#xcd;" horiz-adv-x="686" d="M608 1298l-210 -8v-1206l210 -6v-78h-530v78l206 6v1206l-206 8v76h530v-76zM372 1577l-77 31l241 336l105 -25z" />
<glyph unicode="&#xce;" horiz-adv-x="686" d="M608 1298l-210 -8v-1206l210 -6v-78h-530v78l206 6v1206l-206 8v76h530v-76zM514 1579l-170 275l-184 -273l-80 21l240 342h65l221 -342z" />
<glyph unicode="&#xcf;" horiz-adv-x="686" d="M608 1298l-210 -8v-1206l210 -6v-78h-530v78l206 6v1206l-206 8v76h530v-76zM473 1620v108h131v-108h-131zM74 1620v108h131v-108h-131z" />
<glyph unicode="&#xd0;" horiz-adv-x="1253" d="M536 756l-4 -84l-266 -4v-582h258q92 0 166 21t132 60t100.5 95t70 126t40.5 152.5t13 174.5q0 130 -30 236t-92.5 181.5t-160 116.5t-231.5 41h-266v-538zM158 750v624h405q84 0 160.5 -14t142.5 -45t119.5 -82t92 -126t59 -175t20.5 -230q0 -94 -15.5 -183t-47.5 -167 t-82.5 -143t-121 -111t-161.5 -72t-205 -26h-366v666l-242 -4l6 86z" />
<glyph unicode="&#xd1;" horiz-adv-x="1415" d="M1132 0l-804 1132q-5 8 -11.5 20t-12.5 24.5t-11 25l-9 22.5v-1224h-98v1374h105l780 -1106q10 -14 19.5 -29t18 -31t15 -31t8.5 -27v1224h99v-1374h-99zM1000 1880q-16 -100 -65 -149t-120 -49q-29 0 -61 2l-63 7l-62 6q-29 3 -57 3q-20 0 -34.5 -6t-26 -20t-21.5 -38 t-19 -61l-69 19q8 50 21 86t33 60t50 36t70 12q26 0 55 -2.5t60 -6t60 -5.5t54 -2q24 0 42 6t32 20t24.5 39t20.5 61z" />
<glyph unicode="&#xd2;" d="M1284 710q0 -96 -17 -187t-50 -172t-83 -148.5t-117 -116t-151 -75.5t-184 -27q-135 0 -241.5 38t-179.5 120t-112 211t-39 313q0 106 19.5 200t56 175t89.5 145.5t120 110t148 69.5t172 24q136 0 241.5 -38.5t178.5 -121t111 -211.5t38 -309zM1174 700q0 86 -10.5 164.5 t-33 145t-58.5 120.5t-87.5 92t-120 58t-154.5 20q-78 0 -144 -21t-121 -61t-97 -96t-71 -125t-43.5 -150t-14.5 -171q0 -143 26 -254.5t82.5 -188.5t145.5 -117t215 -40q108 0 197 42t153 122t100 196t36 264zM696 1573l-268 342l104 25l242 -336z" />
<glyph unicode="&#xd3;" d="M1284 710q0 -96 -17 -187t-50 -172t-83 -148.5t-117 -116t-151 -75.5t-184 -27q-135 0 -241.5 38t-179.5 120t-112 211t-39 313q0 106 19.5 200t56 175t89.5 145.5t120 110t148 69.5t172 24q136 0 241.5 -38.5t178.5 -121t111 -211.5t38 -309zM1174 700q0 86 -10.5 164.5 t-33 145t-58.5 120.5t-87.5 92t-120 58t-154.5 20q-78 0 -144 -21t-121 -61t-97 -96t-71 -125t-43.5 -150t-14.5 -171q0 -143 26 -254.5t82.5 -188.5t145.5 -117t215 -40q108 0 197 42t153 122t100 196t36 264zM748 1573l-78 31l242 336l104 -25z" />
<glyph unicode="&#xd4;" d="M1284 710q0 -96 -17 -187t-50 -172t-83 -148.5t-117 -116t-151 -75.5t-184 -27q-135 0 -241.5 38t-179.5 120t-112 211t-39 313q0 106 19.5 200t56 175t89.5 145.5t120 110t148 69.5t172 24q136 0 241.5 -38.5t178.5 -121t111 -211.5t38 -309zM1174 700q0 86 -10.5 164.5 t-33 145t-58.5 120.5t-87.5 92t-120 58t-154.5 20q-78 0 -144 -21t-121 -61t-97 -96t-71 -125t-43.5 -150t-14.5 -171q0 -143 26 -254.5t82.5 -188.5t145.5 -117t215 -40q108 0 197 42t153 122t100 196t36 264zM887 1575l-170 275l-185 -273l-80 21l240 342h66l221 -342z " />
<glyph unicode="&#xd5;" d="M1284 710q0 -96 -17 -187t-50 -172t-83 -148.5t-117 -116t-151 -75.5t-184 -27q-135 0 -241.5 38t-179.5 120t-112 211t-39 313q0 106 19.5 200t56 175t89.5 145.5t120 110t148 69.5t172 24q136 0 241.5 -38.5t178.5 -121t111 -211.5t38 -309zM1174 700q0 86 -10.5 164.5 t-33 145t-58.5 120.5t-87.5 92t-120 58t-154.5 20q-78 0 -144 -21t-121 -61t-97 -96t-71 -125t-43.5 -150t-14.5 -171q0 -143 26 -254.5t82.5 -188.5t145.5 -117t215 -40q108 0 197 42t153 122t100 196t36 264zM1006 1880q-16 -100 -65 -149t-120 -49q-29 0 -61 2l-63 7 l-62 6q-29 3 -57 3q-19 0 -34 -6t-26.5 -20t-21.5 -38t-19 -61l-69 19q8 50 21 86t33 60t50 36t70 12q26 0 55 -2.5t60 -6t60 -5.5t54 -2q24 0 42 6t32 20t24.5 39t20.5 61z" />
<glyph unicode="&#xd6;" d="M1284 710q0 -96 -17 -187t-50 -172t-83 -148.5t-117 -116t-151 -75.5t-184 -27q-135 0 -241.5 38t-179.5 120t-112 211t-39 313q0 106 19.5 200t56 175t89.5 145.5t120 110t148 69.5t172 24q136 0 241.5 -38.5t178.5 -121t111 -211.5t38 -309zM1174 700q0 86 -10.5 164.5 t-33 145t-58.5 120.5t-87.5 92t-120 58t-154.5 20q-78 0 -144 -21t-121 -61t-97 -96t-71 -125t-43.5 -150t-14.5 -171q0 -143 26 -254.5t82.5 -188.5t145.5 -117t215 -40q108 0 197 42t153 122t100 196t36 264zM848 1616v108h131v-108h-131zM448 1616v108h132v-108h-132z " />
<glyph unicode="&#xd7;" horiz-adv-x="848" d="M492 676l272 -316l-80 -55l-260 303l-254 -303l-80 55l270 316l-276 322l82 59l260 -307l258 307l80 -61z" />
<glyph unicode="&#xd8;" d="M420 146q27 -18 56 -31t61.5 -22t70 -13t80.5 -4q114 0 204 44.5t152.5 127t96 199.5t33.5 261q0 73 -7.5 139.5t-24 125.5t-41.5 109t-63 90zM977 1227q-50 36 -113.5 54.5t-148.5 18.5q-78 0 -145 -21t-122.5 -60t-98.5 -95t-72 -125t-44.5 -149.5t-15.5 -169.5 q0 -160 32.5 -281t104.5 -199zM297 106q-46 40 -80.5 94t-58 124t-36 155t-12.5 189q0 106 20 200t56.5 174.5t90 145t120.5 109.5t148 69t172 24q90 0 167.5 -17.5t145.5 -57.5l108 178l84 -21l-122 -206q44 -38 78 -92t58 -124t36 -158t12 -196q0 -92 -17 -181t-51 -168 t-84.5 -146t-117 -115t-149.5 -75t-181 -27q-94 0 -173 18t-145 54l-114 -191l-86 23z" />
<glyph unicode="&#xd9;" horiz-adv-x="1380" d="M1206 549q0 -124 -30 -227.5t-94 -177.5t-164 -115t-238 -41q-96 0 -170.5 15t-131 45t-95.5 75t-63 103.5t-35 130.5t-11 157v860h104v-842q0 -113 21 -197.5t69 -141.5t125 -86t191 -29q118 0 198.5 31t130 91.5t71.5 149.5t22 205v819h100v-825zM672 1573l-268 342 l104 25l242 -336z" />
<glyph unicode="&#xda;" horiz-adv-x="1380" d="M1206 549q0 -124 -30 -227.5t-94 -177.5t-164 -115t-238 -41q-96 0 -170.5 15t-131 45t-95.5 75t-63 103.5t-35 130.5t-11 157v860h104v-842q0 -113 21 -197.5t69 -141.5t125 -86t191 -29q118 0 198.5 31t130 91.5t71.5 149.5t22 205v819h100v-825zM723 1573l-78 31 l242 336l104 -25z" />
<glyph unicode="&#xdb;" horiz-adv-x="1380" d="M1206 549q0 -124 -30 -227.5t-94 -177.5t-164 -115t-238 -41q-96 0 -170.5 15t-131 45t-95.5 75t-63 103.5t-35 130.5t-11 157v860h104v-842q0 -113 21 -197.5t69 -141.5t125 -86t191 -29q118 0 198.5 31t130 91.5t71.5 149.5t22 205v819h100v-825zM864 1575l-170 275 l-184 -273l-80 21l240 342h65l221 -342z" />
<glyph unicode="&#xdc;" horiz-adv-x="1380" d="M1206 549q0 -124 -30 -227.5t-94 -177.5t-164 -115t-238 -41q-96 0 -170.5 15t-131 45t-95.5 75t-63 103.5t-35 130.5t-11 157v860h104v-842q0 -113 21 -197.5t69 -141.5t125 -86t191 -29q118 0 198.5 31t130 91.5t71.5 149.5t22 205v819h100v-825zM824 1616v108h130 v-108h-130zM424 1616v108h131v-108h-131z" />
<glyph unicode="&#xdd;" horiz-adv-x="1048" d="M553 614v-614h-105v596l-434 778h119l369 -662l420 662h112zM549 1573l-78 31l241 336l105 -25z" />
<glyph unicode="&#xde;" horiz-adv-x="1034" d="M547 1170q106 0 180.5 -29.5t121.5 -81.5t68 -123.5t21 -157.5q0 -72 -12 -137t-37 -121t-63 -102t-88 -78t-113 -50t-139 -18q-60 0 -109.5 6t-83.5 15v-293h-107v1420l107 8v-258h254zM832 764q0 68 -17 126.5t-54 102t-96 68.5t-143 25h-229v-701q16 -4 37.5 -7.5 t48 -6.5t56 -5t59.5 -2q62 0 111 15t86.5 41.5t64 63t43.5 81.5t25 95t8 104z" />
<glyph unicode="&#xdf;" horiz-adv-x="1118" d="M1030 250q0 -56 -20 -104t-62 -84t-108 -56t-156 -20q-52 0 -96.5 7t-82 18.5t-69 27t-57.5 31.5l37 88q42 -22 79.5 -38.5t73.5 -27t70.5 -15.5t68.5 -5q54 0 95 13t67.5 34.5t40 51t13.5 61.5q0 33 -8 58.5t-31 49t-67 47t-118 51.5q-67 26 -113.5 50t-76 53t-43 64 t-13.5 83q0 26 4 47t15.5 45t32 54t53.5 74q36 48 58 81t33.5 59t15.5 50t4 51q0 77 -46 117t-138 40q-114 0 -168 -66t-54 -194v-1046h-104v1034q0 96 24 164t70 112t111 64t145 20q70 0 120 -17.5t82 -48t47 -72.5t15 -90q0 -36 -6.5 -68.5t-23 -68t-44.5 -77.5t-72 -98 q-19 -26 -31.5 -46t-20.5 -37t-11.5 -32t-3.5 -31q0 -24 3.5 -43t12.5 -34.5t24 -29t37 -26.5t53 -26l71 -29q56 -22 98 -43t72 -42t49 -42t30 -43.5t15 -47t4 -52.5z" />
<glyph unicode="&#xe0;" horiz-adv-x="997" d="M479 1138l-268 342l105 26l241 -336zM674 400q-126 -8 -215 -21t-145 -32t-81.5 -46t-25.5 -63q0 -38 10.5 -70t32.5 -55t54 -35t75 -12q40 0 82.5 13.5t82 36t73 50.5t55.5 57zM801 -8q-34 0 -58.5 8.5t-39.5 26t-22 43.5t-7 61q-65 -72 -148.5 -109.5t-177.5 -37.5 q-49 0 -93.5 14t-77.5 43t-53 75t-20 110q0 32 7.5 61t29 55t60.5 48t103 39.5t155 31t217 21.5l2 220q1 44 -8 76t-28 53t-48.5 30t-69.5 9q-39 0 -81 -7.5t-84 -22.5t-81.5 -36.5t-74.5 -47.5l-51 72q43 32 86 56t90.5 40.5t101.5 25t117 8.5q60 0 104 -16t72 -47 t41.5 -77t13.5 -106l-2 -568q0 -18 2 -30t7 -20t15 -11t28 -3q31 0 63.5 4t60.5 10l6 -76q-31 -11 -71 -18.5t-86 -7.5z" />
<glyph unicode="&#xe1;" horiz-adv-x="997" d="M528 1138l-78 32l242 336l104 -26zM674 400q-126 -8 -215 -21t-145 -32t-81.5 -46t-25.5 -63q0 -38 10.5 -70t32.5 -55t54 -35t75 -12q40 0 82.5 13.5t82 36t73 50.5t55.5 57zM801 -8q-34 0 -58.5 8.5t-39.5 26t-22 43.5t-7 61q-65 -72 -148.5 -109.5t-177.5 -37.5 q-49 0 -93.5 14t-77.5 43t-53 75t-20 110q0 32 7.5 61t29 55t60.5 48t103 39.5t155 31t217 21.5l2 220q1 44 -8 76t-28 53t-48.5 30t-69.5 9q-39 0 -81 -7.5t-84 -22.5t-81.5 -36.5t-74.5 -47.5l-51 72q43 32 86 56t90.5 40.5t101.5 25t117 8.5q60 0 104 -16t72 -47 t41.5 -77t13.5 -106l-2 -568q0 -18 2 -30t7 -20t15 -11t28 -3q31 0 63.5 4t60.5 10l6 -76q-31 -11 -71 -18.5t-86 -7.5z" />
<glyph unicode="&#xe2;" horiz-adv-x="997" d="M670 1140l-170 275l-184 -272l-80 21l239 342h65l222 -342zM674 400q-126 -8 -215 -21t-145 -32t-81.5 -46t-25.5 -63q0 -38 10.5 -70t32.5 -55t54 -35t75 -12q40 0 82.5 13.5t82 36t73 50.5t55.5 57zM801 -8q-34 0 -58.5 8.5t-39.5 26t-22 43.5t-7 61 q-65 -72 -148.5 -109.5t-177.5 -37.5q-49 0 -93.5 14t-77.5 43t-53 75t-20 110q0 32 7.5 61t29 55t60.5 48t103 39.5t155 31t217 21.5l2 220q1 44 -8 76t-28 53t-48.5 30t-69.5 9q-39 0 -81 -7.5t-84 -22.5t-81.5 -36.5t-74.5 -47.5l-51 72q43 32 86 56t90.5 40.5t101.5 25 t117 8.5q60 0 104 -16t72 -47t41.5 -77t13.5 -106l-2 -568q0 -18 2 -30t7 -20t15 -11t28 -3q31 0 63.5 4t60.5 10l6 -76q-31 -11 -71 -18.5t-86 -7.5z" />
<glyph unicode="&#xe3;" horiz-adv-x="997" d="M805 1446q-16 -100 -64.5 -149.5t-120.5 -49.5q-29 0 -60 3l-64 6l-62 6q-30 4 -57 4q-20 0 -34.5 -6t-26 -20t-21 -38t-19.5 -62l-69 19q8 50 21.5 86.5t33.5 60.5t49 36t70 12q26 0 55.5 -3l60 -6t60 -5t53.5 -2t42 6t32 20t25 39t20 61zM674 400q-126 -8 -215 -21 t-145 -32t-81.5 -46t-25.5 -63q0 -38 10.5 -70t32.5 -55t54 -35t75 -12q40 0 82.5 13.5t82 36t73 50.5t55.5 57zM801 -8q-34 0 -58.5 8.5t-39.5 26t-22 43.5t-7 61q-65 -72 -148.5 -109.5t-177.5 -37.5q-49 0 -93.5 14t-77.5 43t-53 75t-20 110q0 32 7.5 61t29 55t60.5 48 t103 39.5t155 31t217 21.5l2 220q1 44 -8 76t-28 53t-48.5 30t-69.5 9q-39 0 -81 -7.5t-84 -22.5t-81.5 -36.5t-74.5 -47.5l-51 72q43 32 86 56t90.5 40.5t101.5 25t117 8.5q60 0 104 -16t72 -47t41.5 -77t13.5 -106l-2 -568q0 -18 2 -30t7 -20t15 -11t28 -3q31 0 63.5 4 t60.5 10l6 -76q-31 -11 -71 -18.5t-86 -7.5z" />
<glyph unicode="&#xe4;" horiz-adv-x="997" d="M631 1182v108h131v-108h-131zM232 1182v108h130v-108h-130zM674 400q-126 -8 -215 -21t-145 -32t-81.5 -46t-25.5 -63q0 -38 10.5 -70t32.5 -55t54 -35t75 -12q40 0 82.5 13.5t82 36t73 50.5t55.5 57zM801 -8q-34 0 -58.5 8.5t-39.5 26t-22 43.5t-7 61 q-65 -72 -148.5 -109.5t-177.5 -37.5q-49 0 -93.5 14t-77.5 43t-53 75t-20 110q0 32 7.5 61t29 55t60.5 48t103 39.5t155 31t217 21.5l2 220q1 44 -8 76t-28 53t-48.5 30t-69.5 9q-39 0 -81 -7.5t-84 -22.5t-81.5 -36.5t-74.5 -47.5l-51 72q43 32 86 56t90.5 40.5t101.5 25 t117 8.5q60 0 104 -16t72 -47t41.5 -77t13.5 -106l-2 -568q0 -18 2 -30t7 -20t15 -11t28 -3q31 0 63.5 4t60.5 10l6 -76q-31 -11 -71 -18.5t-86 -7.5z" />
<glyph unicode="&#xe5;" horiz-adv-x="997" d="M674 1280q0 -38 -13.5 -69t-38 -53t-58.5 -34t-74 -12q-43 0 -74.5 10.5t-52 30t-30 47.5t-9.5 64q0 34 12 65t36 53.5t57 36t75 13.5q170 0 170 -152zM588 1276q0 18 -5 33.5t-16 27t-27 17.5t-38 6q-21 0 -38.5 -5t-29.5 -17t-19 -29t-7 -43q0 -22 6 -38t17 -26.5 t27 -15t36 -4.5q50 0 72 25t22 69zM674 400q-126 -8 -215 -21t-145 -32t-81.5 -46t-25.5 -63q0 -38 10.5 -70t32.5 -55t54 -35t75 -12q40 0 82.5 13.5t82 36t73 50.5t55.5 57zM801 -8q-34 0 -58.5 8.5t-39.5 26t-22 43.5t-7 61q-65 -72 -148.5 -109.5t-177.5 -37.5 q-49 0 -93.5 14t-77.5 43t-53 75t-20 110q0 32 7.5 61t29 55t60.5 48t103 39.5t155 31t217 21.5l2 220q1 44 -8 76t-28 53t-48.5 30t-69.5 9q-39 0 -81 -7.5t-84 -22.5t-81.5 -36.5t-74.5 -47.5l-51 72q43 32 86 56t90.5 40.5t101.5 25t117 8.5q60 0 104 -16t72 -47 t41.5 -77t13.5 -106l-2 -568q0 -18 2 -30t7 -20t15 -11t28 -3q31 0 63.5 4t60.5 10l6 -76q-31 -11 -71 -18.5t-86 -7.5z" />
<glyph unicode="&#xe6;" horiz-adv-x="1474" d="M649 198l-12.5 42t-10.5 46t-7 52t-3 60q-112 -10 -190 -23t-128 -31.5t-72.5 -44t-22.5 -61.5q0 -38 10.5 -70.5t32.5 -55.5t57 -35.5t82 -12.5q32 0 69 10.5t73 29t68 42.5t54 52zM1264 606q0 62 -14.5 111t-42 84t-68.5 53t-95 18q-64 0 -118 -19t-94.5 -56.5t-67 -92 t-37.5 -126.5h537v28zM715 416q0 -90 20.5 -154t60.5 -104t96 -59t128 -19q146 0 307 108l45 -76q-38 -30 -79 -53.5t-87.5 -39t-99 -23.5t-112.5 -8q-51 0 -96.5 8t-85 26t-72 46t-58.5 67q-29 -36 -65.5 -64.5t-78.5 -47.5t-89 -29t-95 -10q-52 0 -98.5 14t-81 43 t-55.5 75t-21 110q0 31 7 59.5t27 53.5t55 46t93 38.5t140 30.5t196 21q4 72 19 133.5t39 112.5q-4 77 -42 113t-112 36q-39 0 -81.5 -7.5t-84 -22.5t-82 -36.5t-74.5 -47.5l-50 72q42 32 85 56t90 40.5t101 25t116 8.5q86 0 138 -28t76 -88q56 56 132 86t173 30 q76 0 134 -24t96.5 -69t57.5 -108t19 -141q0 -16 -1 -33t-3 -34l-4 -31q-2 -14 -2 -22h-639q-2 -31 -2 -49.5v-30.5z" />
<glyph unicode="&#xe7;" horiz-adv-x="856" d="M796 76q-54 -34 -113 -55t-128 -27q6 -22 11 -46.5t8.5 -49t5.5 -47.5t2 -41q0 -24 -6 -48t-19.5 -46t-36 -41t-55.5 -33.5t-79 -23t-106 -9.5l-12 73q66 4 107.5 14t64 24.5t31 33.5t8.5 41q0 14 -1.5 36t-4.5 47.5t-8 53.5l-9 56q-82 2 -147 27t-110.5 78t-70 137 t-24.5 204q0 129 34 227t94 164.5t144 99.5t185 33q58 0 104.5 -8t88.5 -24l-27 -88q-22 8 -45.5 13.5t-46.5 9t-44 5.5t-38 2q-176 0 -262 -107t-86 -321q0 -93 17.5 -160.5t54.5 -111.5t94 -65t135 -21q66 0 130 20t124 56z" />
<glyph unicode="&#xe8;" horiz-adv-x="962" d="M860 116q-39 -30 -80 -54t-86.5 -40.5t-96.5 -25t-109 -8.5q-80 0 -150.5 23t-122 74t-81.5 133t-30 200q0 132 31 232.5t89 169t140 103.5t183 35q76 0 133.5 -24t96 -69t58 -108t19.5 -141q0 -14 -1 -31l-2 -34t-2.5 -32t-2.5 -23h-639q-2 -31 -2 -49.5v-30.5 q0 -90 23 -153.5t64.5 -103.5t99 -58.5t126.5 -18.5q74 0 146.5 28t152.5 82zM752 606q0 63 -14.5 112.5t-42 83.5t-68.5 52t-95 18q-62 0 -115 -18t-94.5 -55t-69 -92t-38.5 -129h537v28zM506 1138l-268 342l104 26l242 -336z" />
<glyph unicode="&#xe9;" horiz-adv-x="962" d="M860 116q-39 -30 -80 -54t-86.5 -40.5t-96.5 -25t-109 -8.5q-80 0 -150.5 23t-122 74t-81.5 133t-30 200q0 132 31 232.5t89 169t140 103.5t183 35q76 0 133.5 -24t96 -69t58 -108t19.5 -141q0 -14 -1 -31l-2 -34t-2.5 -32t-2.5 -23h-639q-2 -31 -2 -49.5v-30.5 q0 -90 23 -153.5t64.5 -103.5t99 -58.5t126.5 -18.5q74 0 146.5 28t152.5 82zM752 606q0 63 -14.5 112.5t-42 83.5t-68.5 52t-95 18q-62 0 -115 -18t-94.5 -55t-69 -92t-38.5 -129h537v28zM555 1138l-78 32l242 336l105 -26z" />
<glyph unicode="&#xea;" horiz-adv-x="962" d="M860 116q-39 -30 -80 -54t-86.5 -40.5t-96.5 -25t-109 -8.5q-80 0 -150.5 23t-122 74t-81.5 133t-30 200q0 132 31 232.5t89 169t140 103.5t183 35q76 0 133.5 -24t96 -69t58 -108t19.5 -141q0 -14 -1 -31l-2 -34t-2.5 -32t-2.5 -23h-639q-2 -31 -2 -49.5v-30.5 q0 -90 23 -153.5t64.5 -103.5t99 -58.5t126.5 -18.5q74 0 146.5 28t152.5 82zM752 606q0 63 -14.5 112.5t-42 83.5t-68.5 52t-95 18q-62 0 -115 -18t-94.5 -55t-69 -92t-38.5 -129h537v28zM682 1140l-170 275l-184 -272l-80 21l240 342h65l221 -342z" />
<glyph unicode="&#xeb;" horiz-adv-x="962" d="M860 116q-39 -30 -80 -54t-86.5 -40.5t-96.5 -25t-109 -8.5q-80 0 -150.5 23t-122 74t-81.5 133t-30 200q0 132 31 232.5t89 169t140 103.5t183 35q76 0 133.5 -24t96 -69t58 -108t19.5 -141q0 -14 -1 -31l-2 -34t-2.5 -32t-2.5 -23h-639q-2 -31 -2 -49.5v-30.5 q0 -90 23 -153.5t64.5 -103.5t99 -58.5t126.5 -18.5q74 0 146.5 28t152.5 82zM752 606q0 63 -14.5 112.5t-42 83.5t-68.5 52t-95 18q-62 0 -115 -18t-94.5 -55t-69 -92t-38.5 -129h537v28zM658 1182v108h130v-108h-130zM258 1182v108h131v-108h-131z" />
<glyph unicode="&#xec;" horiz-adv-x="467" d="M182 0v942l102 8v-950h-102zM213 1138l-269 342l105 26l242 -336z" />
<glyph unicode="&#xed;" horiz-adv-x="467" d="M182 0v942l102 8v-950h-102zM264 1138l-78 32l242 336l104 -26z" />
<glyph unicode="&#xee;" horiz-adv-x="495" d="M196 0v942l103 8v-950h-103zM418 1140l-170 275l-184 -272l-80 21l239 342h66l221 -342z" />
<glyph unicode="&#xef;" horiz-adv-x="467" d="M338 1182v108h131v-108h-131zM-8 1182v108h131v-108h-131zM182 0v942l102 8v-950h-102z" />
<glyph unicode="&#xf0;" horiz-adv-x="983" d="M712 1270q40 -64 72 -135t53 -145.5t32 -151t11 -152.5q0 -172 -29 -303t-84 -219t-137 -132t-186 -44q-96 0 -161 30.5t-104.5 86.5t-57 134.5t-17.5 172.5q0 102 25 190t78 154t134 103.5t195 37.5q58 0 113.5 -14.5t114.5 -40.5q-12 93 -48 188.5t-94 185.5l-216 -130 l-40 67l212 125q-34 46 -74 87t-84 75l66 68q52 -34 98 -79t86 -96l135 82l39 -67zM768 750q-40 17 -71 28t-59 18t-56 10t-60 3q-84 0 -143 -29.5t-96 -81.5t-54.5 -125t-17.5 -159q0 -88 15.5 -152t47 -105.5t79 -61t112.5 -19.5q42 0 80.5 12.5t72.5 40.5t62 73.5 t48 111.5t31 154t11 202v39.5t-2 40.5z" />
<glyph unicode="&#xf1;" horiz-adv-x="1071" d="M792 0v700q0 34 -6.5 66t-23.5 56t-46.5 38t-74.5 14q-34 0 -77 -12t-89.5 -36t-95.5 -59.5t-95 -82.5v-684h-102v940l84 12q4 -10 8 -27t6 -40t3 -50t1 -57q54 52 104.5 86.5t98 55.5t93.5 29.5t90 8.5q64 0 107 -16t69.5 -47t37.5 -78t11 -109v-708h-103zM852 1446 q-16 -100 -65 -149.5t-119 -49.5q-29 0 -61 3l-63 6l-62 6q-30 4 -58 4q-20 0 -34 -6t-26 -20t-22 -38t-18 -62l-70 19q8 50 21 86.5t33.5 60.5t50 36t69.5 12q26 0 55.5 -3l60 -6t60.5 -5t54 -2t42 6t32 20t24.5 39t19.5 61z" />
<glyph unicode="&#xf2;" horiz-adv-x="1032" d="M928 494q0 -114 -28 -208t-81.5 -160.5t-132 -103t-180.5 -36.5q-98 0 -173 27.5t-125.5 84.5t-77 144.5t-26.5 205.5q0 113 30 207t86 161.5t136 104.5t178 37q94 0 168 -26t124 -83t76 -144.5t26 -210.5zM821 479q0 86 -16.5 158.5t-52.5 125.5t-93 82t-139 29 q-72 0 -130 -28t-99 -81t-62.5 -130t-21.5 -176q0 -110 23.5 -184.5t65.5 -119.5t99 -64t123 -19q74 0 130.5 29.5t95 83t58 129t19.5 165.5zM506 1138l-268 342l104 26l242 -336z" />
<glyph unicode="&#xf3;" horiz-adv-x="1032" d="M928 494q0 -114 -28 -208t-81.5 -160.5t-132 -103t-180.5 -36.5q-98 0 -173 27.5t-125.5 84.5t-77 144.5t-26.5 205.5q0 113 30 207t86 161.5t136 104.5t178 37q94 0 168 -26t124 -83t76 -144.5t26 -210.5zM821 479q0 86 -16.5 158.5t-52.5 125.5t-93 82t-139 29 q-72 0 -130 -28t-99 -81t-62.5 -130t-21.5 -176q0 -110 23.5 -184.5t65.5 -119.5t99 -64t123 -19q74 0 130.5 29.5t95 83t58 129t19.5 165.5zM555 1138l-78 32l242 336l105 -26z" />
<glyph unicode="&#xf4;" horiz-adv-x="1032" d="M928 494q0 -114 -28 -208t-81.5 -160.5t-132 -103t-180.5 -36.5q-98 0 -173 27.5t-125.5 84.5t-77 144.5t-26.5 205.5q0 113 30 207t86 161.5t136 104.5t178 37q94 0 168 -26t124 -83t76 -144.5t26 -210.5zM821 479q0 86 -16.5 158.5t-52.5 125.5t-93 82t-139 29 q-72 0 -130 -28t-99 -81t-62.5 -130t-21.5 -176q0 -110 23.5 -184.5t65.5 -119.5t99 -64t123 -19q74 0 130.5 29.5t95 83t58 129t19.5 165.5zM706 1140l-170 275l-184 -272l-80 21l240 342h66l220 -342z" />
<glyph unicode="&#xf5;" horiz-adv-x="1032" d="M928 494q0 -114 -28 -208t-81.5 -160.5t-132 -103t-180.5 -36.5q-98 0 -173 27.5t-125.5 84.5t-77 144.5t-26.5 205.5q0 113 30 207t86 161.5t136 104.5t178 37q94 0 168 -26t124 -83t76 -144.5t26 -210.5zM821 479q0 86 -16.5 158.5t-52.5 125.5t-93 82t-139 29 q-72 0 -130 -28t-99 -81t-62.5 -130t-21.5 -176q0 -110 23.5 -184.5t65.5 -119.5t99 -64t123 -19q74 0 130.5 29.5t95 83t58 129t19.5 165.5zM832 1446q-16 -100 -65 -149.5t-120 -49.5q-29 0 -61 3l-63 6l-62 6q-29 4 -57 4q-19 0 -34 -6t-26.5 -20t-21.5 -38t-19 -62 l-69 19q8 50 21 86.5t33 60.5t50 36t70 12q26 0 55 -3l60 -6t60 -5t54 -2q24 0 42 6t32 20t24.5 39t20.5 61z" />
<glyph unicode="&#xf6;" horiz-adv-x="1032" d="M928 494q0 -114 -28 -208t-81.5 -160.5t-132 -103t-180.5 -36.5q-98 0 -173 27.5t-125.5 84.5t-77 144.5t-26.5 205.5q0 113 30 207t86 161.5t136 104.5t178 37q94 0 168 -26t124 -83t76 -144.5t26 -210.5zM821 479q0 86 -16.5 158.5t-52.5 125.5t-93 82t-139 29 q-72 0 -130 -28t-99 -81t-62.5 -130t-21.5 -176q0 -110 23.5 -184.5t65.5 -119.5t99 -64t123 -19q74 0 130.5 29.5t95 83t58 129t19.5 165.5zM662 1182v108h130v-108h-130zM262 1182v108h131v-108h-131z" />
<glyph unicode="&#xf7;" horiz-adv-x="1124" d="M672 844q0 -24 -9 -43t-24 -35q-16 -17 -35.5 -25t-42.5 -8t-42 8t-35 25q-17 16 -25.5 35t-8.5 43q0 23 8 42.5t26 35.5q16 17 35 24.5t42 7.5q24 0 43.5 -8t34.5 -24q16 -16 24.5 -35.5t8.5 -42.5zM1088 576v-99h-1051v99h1051zM674 205q0 -24 -9 -43.5t-24 -36.5 q-17 -16 -37 -24.5t-43 -8.5t-42 9t-35 24q-16 17 -25 37t-9 43t9 42t25 35q33 34 77 34q47 0 80 -34q16 -17 24.5 -35.5t8.5 -41.5z" />
<glyph unicode="&#xf8;" horiz-adv-x="1032" d="M362 106q28 -17 70 -25.5t86 -8.5q74 0 130.5 29.5t95 83t58 128.5t19.5 166q0 93 -20.5 171t-62.5 130zM680 834q-34 18 -74 29t-86 11q-72 0 -130 -28t-99 -81t-62.5 -130t-21.5 -176q0 -54 6.5 -99.5t18.5 -83.5t29 -68t38 -52zM246 64q-32 26 -58.5 62.5t-45 84 t-28.5 106.5t-10 131q0 113 30 207t86 161.5t136 104.5t178 37q54 0 102.5 -8t90.5 -26l92 166l80 -21l-107 -193q66 -54 101 -148t35 -234q0 -110 -27 -204t-80 -161t-133 -105t-188 -38q-52 0 -100 10t-86 26l-88 -166l-80 23z" />
<glyph unicode="&#xf9;" horiz-adv-x="1065" d="M801 -8q-4 10 -7.5 27t-6 38t-4 44t-1.5 47q-54 -49 -101 -81t-92 -50.5t-88 -25.5t-87 -7q-69 0 -115 19.5t-73.5 55t-38.5 84.5t-11 107v690l104 8v-710q0 -34 8.5 -65t27.5 -54.5t49.5 -37t76.5 -13.5q34 0 74.5 10t84 31t88.5 55t91 80v694l104 10v-950zM510 1138 l-268 342l104 26l242 -336z" />
<glyph unicode="&#xfa;" horiz-adv-x="1065" d="M801 -8q-4 10 -7.5 27t-6 38t-4 44t-1.5 47q-54 -49 -101 -81t-92 -50.5t-88 -25.5t-87 -7q-69 0 -115 19.5t-73.5 55t-38.5 84.5t-11 107v690l104 8v-710q0 -34 8.5 -65t27.5 -54.5t49.5 -37t76.5 -13.5q34 0 74.5 10t84 31t88.5 55t91 80v694l104 10v-950zM561 1138 l-77 32l241 336l105 -26z" />
<glyph unicode="&#xfb;" horiz-adv-x="1065" d="M801 -8q-4 10 -7.5 27t-6 38t-4 44t-1.5 47q-54 -49 -101 -81t-92 -50.5t-88 -25.5t-87 -7q-69 0 -115 19.5t-73.5 55t-38.5 84.5t-11 107v690l104 8v-710q0 -34 8.5 -65t27.5 -54.5t49.5 -37t76.5 -13.5q34 0 74.5 10t84 31t88.5 55t91 80v694l104 10v-950zM702 1140 l-170 275l-184 -272l-80 21l240 342h66l220 -342z" />
<glyph unicode="&#xfc;" horiz-adv-x="1065" d="M801 -8q-4 10 -7.5 27t-6 38t-4 44t-1.5 47q-54 -49 -101 -81t-92 -50.5t-88 -25.5t-87 -7q-69 0 -115 19.5t-73.5 55t-38.5 84.5t-11 107v690l104 8v-710q0 -34 8.5 -65t27.5 -54.5t49.5 -37t76.5 -13.5q34 0 74.5 10t84 31t88.5 55t91 80v694l104 10v-950zM668 1182 v108h130v-108h-130zM268 1182v108h132v-108h-132z" />
<glyph unicode="&#xfd;" horiz-adv-x="915" d="M430 186q6 -16 9 -28t5 -24t2 -22v-20q0 20 5 43t16 51l309 754h104l-491 -1166q-19 -44 -43 -75.5t-59 -52.5t-86 -32.5t-125 -15.5l-10 82q58 6 95.5 14t63 21.5t41.5 35t31 53.5l92 214l-352 922h107zM488 1138l-78 32l242 336l104 -26z" />
<glyph unicode="&#xfe;" horiz-adv-x="1050" d="M174 1266l104 8v-450q28 30 64 54.5t75.5 42t83 27.5t87.5 10q175 0 264.5 -113.5t89.5 -342.5q0 -72 -12 -139t-37 -124t-62 -104t-86 -80t-110 -51t-135 -18q-36 0 -66.5 2.5t-57 9t-50.5 16t-46 23.5v-430l-106 -7v1666zM836 496q0 82 -15 150.5t-46 119t-81 78.5 t-120 28q-46 0 -88.5 -13t-80 -34t-69.5 -48t-56 -56v-590q48 -26 107.5 -43.5t124.5 -17.5q79 0 139.5 29t101.5 84t62 134t21 179z" />
<glyph unicode="&#xff;" horiz-adv-x="915" d="M430 186q6 -16 9 -28t5 -24t2 -22v-20q0 20 5 43t16 51l309 754h104l-491 -1166q-19 -44 -43 -75.5t-59 -52.5t-86 -32.5t-125 -15.5l-10 82q58 6 95.5 14t63 21.5t41.5 35t31 53.5l92 214l-352 922h107zM594 1182v108h131v-108h-131zM194 1182v108h132v-108h-132z" />
<glyph unicode="&#x152;" horiz-adv-x="2017" d="M700 74q63 0 122 12t111.5 35t97.5 57t81 78v864q-72 88 -171 134t-226 46q-78 0 -145 -21t-122 -60t-97.5 -95t-72 -125t-44.5 -149.5t-15 -169.5q0 -144 25.5 -256.5t82.5 -190t148.5 -118.5t224.5 -41zM692 -16q-139 0 -247.5 38.5t-182.5 121t-113 212.5t-39 312 q0 106 20 200t56.5 174.5t90 145t121.5 109.5t149 69t174 24q70 0 125.5 -8t102 -24.5t86 -41t77.5 -56.5v114h788l-6 -86h-672v-528h584l-6 -88h-578v-586h672l6 -86h-788v125q-38 -32 -82 -58.5t-95.5 -44.5t-112 -28t-130.5 -10z" />
<glyph unicode="&#x153;" horiz-adv-x="1575" d="M756 186q-17 45 -28 103.5t-11 128.5q0 91 17.5 174.5t47.5 147.5q-18 30 -45 54.5t-60 42t-73 27.5t-84 10q-72 0 -130 -28t-99 -81t-62.5 -130t-21.5 -176q0 -107 23 -181t64.5 -120t98.5 -66t125 -20q36 0 70 9t65.5 25t58 36.5t44.5 43.5zM1366 606q0 63 -14.5 112.5 t-43 83.5t-69.5 52t-96 18q-60 0 -113 -18t-93.5 -55t-68.5 -92t-38 -129h536v28zM819 416q0 -90 20.5 -154t60 -104t96 -59t128.5 -19q146 0 308 108l42 -72q-40 -30 -81 -54t-87 -40.5t-98 -25t-112 -8.5q-99 0 -174.5 30t-120.5 92q-28 -28 -59.5 -50.5t-68.5 -39 t-78.5 -25.5t-88.5 -9q-102 0 -177.5 29.5t-125 88t-74.5 144.5t-25 200q0 113 30 207t86 161.5t136 104.5t178 37q56 0 102 -10t83 -27.5t66 -42t53 -54.5q58 66 140 100t181 34q77 0 134.5 -24t96 -69t57.5 -108t19 -141q0 -16 -0.5 -33t-1.5 -33t-2.5 -31t-3.5 -23h-637 q-2 -31 -2 -49.5v-30.5z" />
<glyph unicode="&#x178;" horiz-adv-x="1048" d="M553 614v-614h-105v596l-434 778h119l369 -662l420 662h112zM649 1616v108h131v-108h-131zM250 1616v108h131v-108h-131z" />
<glyph unicode="&#x2c6;" horiz-adv-x="739" d="M547 1140l-170 275l-185 -272l-80 21l240 342h66l221 -342z" />
<glyph unicode="&#x2dc;" horiz-adv-x="735" d="M666 1446q-8 -50 -24.5 -87t-40 -62t-53.5 -37.5t-66 -12.5q-29 0 -61 3l-64 6l-62 6q-29 4 -57 4q-19 0 -34 -6t-26.5 -20t-21.5 -38t-19 -62l-69 19q8 50 21 86.5t33 60.5t50 36t70 12q26 0 55 -3l60 -6t60 -5t54 -2q24 0 42 6t32 20t24.5 39t20.5 61z" />
<glyph unicode="&#x2000;" horiz-adv-x="971" />
<glyph unicode="&#x2001;" horiz-adv-x="1943" />
<glyph unicode="&#x2002;" horiz-adv-x="971" />
<glyph unicode="&#x2003;" horiz-adv-x="1943" />
<glyph unicode="&#x2004;" horiz-adv-x="647" />
<glyph unicode="&#x2005;" horiz-adv-x="485" />
<glyph unicode="&#x2006;" horiz-adv-x="323" />
<glyph unicode="&#x2007;" horiz-adv-x="323" />
<glyph unicode="&#x2008;" horiz-adv-x="242" />
<glyph unicode="&#x2009;" horiz-adv-x="388" />
<glyph unicode="&#x200a;" horiz-adv-x="107" />
<glyph unicode="&#x2010;" horiz-adv-x="696" d="M618 473h-546l6 82h544z" />
<glyph unicode="&#x2011;" horiz-adv-x="696" d="M618 473h-546l6 82h544z" />
<glyph unicode="&#x2012;" horiz-adv-x="696" d="M618 473h-546l6 82h544z" />
<glyph unicode="&#x2013;" horiz-adv-x="1087" d="M1020 471h-964l10 82h962z" />
<glyph unicode="&#x2014;" horiz-adv-x="2175" d="M2177 471h-2189l10 82h2190z" />
<glyph unicode="&#x2018;" horiz-adv-x="485" d="M106 1086q0 54 16 95t49 74t84 61t122 58l35 -68q-60 -27 -99.5 -51.5t-63 -47.5t-33 -47t-9.5 -48q0 -20 4.5 -47t11.5 -57t16 -62t19 -62l-76 -14q-17 17 -30.5 42.5t-23.5 54.5t-16 60t-6 59z" />
<glyph unicode="&#x2019;" horiz-adv-x="485" d="M387 1157q0 -54 -15.5 -95t-48.5 -74t-85 -61.5t-122 -58.5l-34 68q60 27 99 51.5t62 48t32 47t9 47.5q0 20 -4 47t-11 58t-16 62.5t-19 60.5l78 14q16 -17 30 -42t24 -54t15.5 -60t5.5 -59z" />
<glyph unicode="&#x201a;" horiz-adv-x="485" d="M370 -43q0 -54 -16 -95.5t-49 -74.5t-85 -62t-122 -59l-32 68q60 28 99 53t62 48.5t32 47t9 47.5q0 20 -4 47t-11 57.5t-16.5 62t-19.5 61.5l78 14q16 -18 30 -43t24 -54t15.5 -59.5t5.5 -58.5z" />
<glyph unicode="&#x201c;" horiz-adv-x="870" d="M106 1086q0 54 16 95t49 74t84 61t122 58l35 -68q-60 -27 -99.5 -51.5t-63 -47.5t-33 -47t-9.5 -48q0 -20 4.5 -47t11.5 -57t16 -62t19 -62l-76 -14q-17 17 -30.5 42.5t-23.5 54.5t-16 60t-6 59zM492 1086q0 54 15.5 95t48.5 74t84.5 61t121.5 58l32 -68 q-60 -27 -99 -51.5t-62 -47.5t-32 -47t-9 -48q0 -20 4 -47t11 -57t16.5 -62t19.5 -62l-78 -14q-16 17 -29.5 42.5t-23.5 54.5t-15 60t-5 59z" />
<glyph unicode="&#x201d;" horiz-adv-x="870" d="M387 1157q0 -54 -15.5 -95t-48.5 -74t-85 -61.5t-122 -58.5l-34 68q60 27 99 51.5t62 48t32 47t9 47.5q0 20 -4 47t-11 58t-16 62.5t-19 60.5l78 14q16 -17 30 -42t24 -54t15.5 -60t5.5 -59zM774 1157q0 -54 -16 -95t-49.5 -74t-85 -61.5t-121.5 -58.5l-33 68 q60 27 99 51.5t62 48t32.5 47t9.5 47.5q0 20 -4.5 47t-11.5 58t-16.5 62.5t-19.5 60.5l78 14q16 -17 30 -42t24 -54t16 -60t6 -59z" />
<glyph unicode="&#x201e;" horiz-adv-x="870" d="M370 -43q0 -54 -16 -95.5t-49 -74.5t-85 -62t-122 -59l-32 68q60 28 99 53t62 48.5t32 47t9 47.5q0 20 -4 47t-11 57.5t-16.5 62t-19.5 61.5l78 14q16 -18 30 -43t24 -54t15.5 -59.5t5.5 -58.5zM756 -43q0 -54 -16 -95.5t-49 -74.5t-84 -62t-121 -59l-34 68 q60 28 99.5 53t62.5 48.5t32.5 47t9.5 47.5q0 20 -4.5 47t-11.5 57.5t-16.5 62t-19.5 61.5l78 14q16 -18 29.5 -43t23 -54t15.5 -59.5t6 -58.5z" />
<glyph unicode="&#x2022;" horiz-adv-x="686" d="M475 596v-238h-262v238h262z" />
<glyph unicode="&#x2026;" horiz-adv-x="1681" d="M1315 0v140h161v-140h-161zM760 0v140h162v-140h-162zM205 0v140h161v-140h-161z" />
<glyph unicode="&#x202f;" horiz-adv-x="388" />
<glyph unicode="&#x2039;" horiz-adv-x="684" d="M250 465l229 -344l-98 -35l-262 366l307 406l92 -28z" />
<glyph unicode="&#x203a;" horiz-adv-x="684" d="M258 86l-92 30l268 366l-229 339l98 37l262 -366z" />
<glyph unicode="&#x205f;" horiz-adv-x="485" />
<glyph unicode="&#x20ac;" horiz-adv-x="1165" d="M786 1298q-88 0 -157 -28t-120 -82t-84.5 -131t-49.5 -175h565l-10 -88h-566q-2 -32 -3 -64t-1 -68v-48.5t2 -45.5h562l-10 -86h-544q12 -109 39.5 -184.5t72.5 -122.5t109.5 -68t148.5 -21q36 0 73.5 5t75.5 14t74.5 22t70.5 31l37 -88q-35 -19 -76 -34.5t-85 -26 t-90 -16t-91 -5.5q-113 0 -197 29.5t-142 90t-91 154.5t-43 220h-205l7 86h194l-1 28q0 12 -0.5 26.5t-0.5 26.5q0 77 6 145h-192l6 88h196q20 116 64 210.5t110 161t155 102.5t201 36q92 0 166 -16t126 -38l-27 -91q-34 12 -66.5 21.5t-65.5 16t-68.5 10t-74.5 3.5z" />
<glyph unicode="&#x2122;" horiz-adv-x="1503" d="M1243 776l-4 455l-219 -443h-66l-210 447l-6 -459h-76l12 598h90l234 -479l237 479h84l6 -598h-82zM540 1302h-200v-526h-84v526h-207l4 72h496z" />
<glyph unicode="&#xe000;" horiz-adv-x="940" d="M0 940h940v-940h-940v940z" />
<glyph unicode="&#xfb01;" horiz-adv-x="1034" d="M596 1346q-8 3 -25.5 5.5t-38 4.5t-40.5 3t-33 1q-46 0 -77.5 -12t-50.5 -36.5t-27.5 -63t-8.5 -91.5v-221h211l-6 -88h-205v-848h-99v846l-138 10l8 70l130 10v213q0 76 18 131.5t51 92.5t82 55t112 18q18 0 41.5 -2t45.5 -5t42 -7t32 -8zM746 0v942l102 8v-950h-102z M731 1178v112h133v-112h-133z" />
<glyph unicode="&#xfb02;" horiz-adv-x="1050" d="M596 1346q-8 3 -25.5 5.5t-38 4.5t-40.5 3t-33 1q-46 0 -77.5 -12t-50.5 -36.5t-27.5 -63t-8.5 -91.5v-221h211l-6 -88h-205v-848h-99v846l-138 10l8 70l130 10v213q0 76 18 131.5t51 92.5t82 55t112 18q18 0 41.5 -2t45.5 -5t42 -7t32 -8zM729 1438l103 8v-1306 q0 -17 1 -29t6.5 -19.5t15 -10.5t25.5 -3q32 0 64 3t62 9l6 -76q-30 -11 -70 -16.5t-86 -5.5q-34 0 -58.5 8t-39.5 26t-22 45.5t-7 65.5v1301z" />
<glyph unicode="&#xfb03;" horiz-adv-x="1602" d="M1317 0v942l102 8v-950h-102zM1299 1178v112h133v-112h-133zM1164 1346q-8 3 -25.5 5.5t-38 4.5t-40.5 3t-33 1q-46 0 -77.5 -12t-50.5 -36.5t-27.5 -63t-8.5 -91.5v-221h211l-6 -88h-205v-848h-99v846l-138 10l8 70l130 10v213q0 76 18 131.5t51 92.5t82 55t112 18 q18 0 41.5 -2t45.5 -5t42 -7t32 -8zM596 1346q-8 3 -25.5 5.5t-38 4.5t-40.5 3t-33 1q-46 0 -77.5 -12t-50.5 -36.5t-27.5 -63t-8.5 -91.5v-221h211l-6 -88h-205v-848h-99v846l-138 10l8 70l130 10v213q0 76 18 131.5t51 92.5t82 55t112 18q18 0 41.5 -2t45.5 -5t42 -7 t32 -8z" />
<glyph unicode="&#xfb04;" horiz-adv-x="1632" d="M1311 1438l102 8v-1306q0 -17 2 -29t7 -19.5t15 -10.5t26 -3q32 0 64 3q30 3 60 9l7 -76q-31 -11 -70 -16.5t-86 -5.5q-34 0 -58.5 8t-39.5 26t-22 45.5t-7 65.5v1301zM1164 1346q-8 3 -25.5 5.5t-38 4.5t-40.5 3t-33 1q-46 0 -77.5 -12t-50.5 -36.5t-27.5 -63 t-8.5 -91.5v-221h211l-6 -88h-205v-848h-99v846l-138 10l8 70l130 10v213q0 76 18 131.5t51 92.5t82 55t112 18q18 0 41.5 -2t45.5 -5t42 -7t32 -8zM596 1346q-8 3 -25.5 5.5t-38 4.5t-40.5 3t-33 1q-46 0 -77.5 -12t-50.5 -36.5t-27.5 -63t-8.5 -91.5v-221h211l-6 -88h-205 v-848h-99v846l-138 10l8 70l130 10v213q0 76 18 131.5t51 92.5t82 55t112 18q18 0 41.5 -2t45.5 -5t42 -7t32 -8z" />
</font>
</defs>
</svg>
