<?xml version="1.0" standalone="no"?>
<!DOCTYPE svg PUBLIC "-//W3C//DTD SVG 1.1//EN" "http://www.w3.org/Graphics/SVG/1.1/DTD/svg11.dtd" >
<svg xmlns="http://www.w3.org/2000/svg">
<metadata>
This is a custom SVG webfont generated by Font Squirrel.
Designer    : httpwwwunderwarenl
Foundry URL : httpwwwunderwarenl
</metadata>
<defs>
<font id="webfontxwNXc5qW" horiz-adv-x="1378" >
<font-face units-per-em="2048" ascent="1577" descent="-471" />
<missing-glyph horiz-adv-x="401" />
<glyph unicode=" "  horiz-adv-x="401" />
<glyph unicode="&#x09;" horiz-adv-x="401" />
<glyph unicode="&#xa0;" horiz-adv-x="401" />
<glyph unicode="!" horiz-adv-x="575" d="M492 1458l-103 -800q-4 -34 -8.5 -62t-9.5 -51l-9 -41l-10 -37l-120 15l73 778l-2 188zM168 -2l8 219q23 0 46.5 -2.5t45.5 -6.5t41 -10t33 -14l-41 -180z" />
<glyph unicode="&#x22;" horiz-adv-x="899" d="M188 858l62 532h139l-63 -524zM594 858l60 532h138l-61 -524z" />
<glyph unicode="#" horiz-adv-x="1126" d="M1010 821h-184l-62 -235h174l-8 -102h-195l-65 -244h-123l65 244h-221l-65 -244h-126l70 244h-168l12 102h185l63 235h-176l8 109h195l70 248h121l-68 -248h221l68 248h123l-68 -248h164zM484 821l-64 -235h221l63 235h-220z" />
<glyph unicode="$" horiz-adv-x="753" d="M606 809q-52 24 -94.5 35.5t-85.5 11.5q-26 0 -48.5 -8t-39 -22.5t-26 -35t-9.5 -46.5q0 -21 5.5 -41.5t20.5 -44.5t40 -53t63 -69q41 -42 70.5 -75.5t49.5 -60t32.5 -48.5t19 -41.5t8.5 -37t2 -37.5q0 -46 -15 -86.5t-45 -72t-74 -52t-101 -27.5l-23 -274h-128l32 272 q-77 6 -133.5 42t-96.5 97l89 86q22 -24 46.5 -44.5t51.5 -34.5t57.5 -22t65.5 -8q34 0 59 9t42 24t25.5 36t8.5 45q0 18 -4.5 33t-18.5 36t-42 52l-76 79q-56 57 -91 99t-54.5 76.5t-26 65.5t-6.5 66q0 40 15 79.5t43 71.5t68 55t90 32l28 272h128l-32 -272q40 -4 78 -15.5 t80 -35.5z" />
<glyph unicode="%" horiz-adv-x="1558" d="M596 733q0 -62 -17 -118.5t-50 -100.5t-82 -70t-113 -26q-102 0 -156.5 59t-54.5 183q0 68 19.5 124.5t54 98t83 65t105.5 23.5q54 0 94 -16.5t66 -47.5t38.5 -75.5t12.5 -98.5zM477 725q0 34 -6 60.5t-18.5 45.5t-31.5 29t-46 10q-24 0 -48 -11t-43.5 -36t-31.5 -64 t-12 -95q0 -40 8 -69t22 -46t34 -25t44 -8q28 0 51.5 14.5t41 41.5t27 66t9.5 87zM1436 301q0 -62 -17.5 -118.5t-51 -100.5t-82.5 -70t-111 -26q-50 0 -90 14t-67 44t-41 76t-14 108q0 68 19.5 124.5t54 98t82.5 64.5t104 23q54 0 95 -16.5t67 -47t39 -75t13 -98.5z M1317 295q0 32 -6 58.5t-18.5 45.5t-31.5 29t-47 10q-24 0 -48.5 -11t-44 -36t-32 -64t-12.5 -95q0 -40 8 -69t22.5 -47t34.5 -26t44 -8q28 0 52 15t42 42.5t27.5 67t9.5 88.5zM428 -112h-150l836 1177h150z" />
<glyph unicode="&#x26;" horiz-adv-x="1605" d="M922 1116l-19 106q108 30 195.5 52t156 35t120 20t89.5 7q60 0 113 -13.5t109 -44.5l-50 -117q-28 12 -52.5 20.5t-47 14.5t-43.5 8t-43 2q-42 0 -102 -9t-134 -25q19 -36 34.5 -76t26 -85t16 -96t5.5 -108q0 -118 -25 -224.5t-71 -197.5t-109 -165t-138 -125.5t-160 -79 t-173 -27.5q-57 0 -105.5 13t-88.5 37t-69.5 58t-47.5 74q-34 -47 -56.5 -82.5t-34.5 -65t-17 -57t-5 -57.5t7 -53.5t22 -44t41 -40.5t62 -42l-64 -98q-45 19 -81.5 46.5t-62 61.5t-39 72t-13.5 78q0 28 3 54.5t11 54t22.5 58t37.5 66t54.5 78.5t75.5 94q-2 10 -3 24.5 l-2 30.5t-1 31v29q0 94 17 177.5t47 154t72 126.5t92 95.5t108 60t119 20.5q45 0 80 -12.5t58.5 -35t36 -53.5t12.5 -67q0 -22 -3.5 -42.5t-13.5 -43.5t-27.5 -49.5t-46.5 -60t-71 -75.5l-99 -97l-221 -209q9 -40 27.5 -73.5t46.5 -57t67 -37t89 -13.5q63 0 124.5 23.5 t117.5 66.5t104 103.5t83 135.5t54.5 162t19.5 183q0 115 -22.5 202.5t-63.5 156.5zM698 922q-58 0 -109 -34t-91 -95t-63 -147t-25 -190v-32l158 150l74 73q32 32 55 57.5t38 44.5t24 35t12 30.5t3 29.5q0 36 -19.5 57t-56.5 21z" />
<glyph unicode="'" horiz-adv-x="487" d="M188 858l62 532h139l-63 -524z" />
<glyph unicode="(" horiz-adv-x="628" d="M432 -500q-51 9 -97 29.5t-83 52.5q-40 37 -69 87t-48.5 119.5t-29 161.5t-9.5 212q0 74 3.5 158.5t11 175t19.5 182.5t29 182t40 173t53 154.5t66 128t80 93.5q44 38 99 61.5t119 32.5l23 -109q-24 -9 -47.5 -19t-45.5 -22t-41.5 -26.5t-35.5 -32.5q-32 -34 -58.5 -87 t-48.5 -120t-39 -145t-30.5 -162t-23 -170t-15.5 -169.5t-9 -161t-3 -144.5q0 -89 5 -155t17 -115t30 -86.5t44 -69.5q12 -16 28.5 -30.5t35 -26.5t39.5 -22l41 -19z" />
<glyph unicode=")" horiz-adv-x="628" d="M203 1503q52 -10 96.5 -30.5t83.5 -52.5q40 -36 69.5 -86t48.5 -120t28 -162t9 -212q0 -74 -3 -158.5t-10.5 -174t-19.5 -182.5t-29.5 -182t-40.5 -172.5t-52 -155t-65 -128.5t-80 -95q-45 -39 -101.5 -60.5t-118.5 -31.5l-22 107l48 21q24 10 45.5 22t41 27t35.5 32 q32 34 58 87.5t48 120.5t39.5 145t31 161.5t23 170t16 169.5t9 161t2.5 144q0 88 -5.5 154t-16.5 115t-29 87t-43 70q-28 31 -66.5 55.5t-78.5 42.5z" />
<glyph unicode="*" horiz-adv-x="1016" d="M622 899l195 -299l-125 -66l-178 308l-236 -260l-104 90l246 252l-318 133l60 117l307 -148l31 344l147 -12l-45 -346l328 74l30 -134z" />
<glyph unicode="+" horiz-adv-x="1091" d="M940 418h-340l-35 -324l-137 -6l33 330h-317l12 118h319l35 332l137 6l-33 -338h338z" />
<glyph unicode="," horiz-adv-x="497" d="M364 -20q0 -62 -24 -113t-68 -93t-107 -75t-141 -57l-42 100q47 18 86 39.5t69 45t50.5 47.5t29.5 50l-45 260l119 25q14 -18 27.5 -44.5t23.5 -57.5t16 -63.5t6 -63.5z" />
<glyph unicode="-" horiz-adv-x="682" d="M600 438h-528l10 109h528z" />
<glyph unicode="." horiz-adv-x="491" d="M180 -2l10 221q23 0 47 -2.5t45.5 -6.5t40.5 -10t33 -14l-40 -180z" />
<glyph unicode="/" horiz-adv-x="790" d="M174 0h-141l661 1424h146z" />
<glyph unicode="0" horiz-adv-x="1005" d="M920 555q0 -78 -13 -150.5t-39.5 -136.5t-65 -116t-90.5 -89t-116 -57t-142 -20q-88 0 -156.5 26t-115.5 79.5t-71.5 134t-24.5 190.5q0 128 33 231t94 176.5t146 113.5t190 40q94 0 163.5 -28.5t115.5 -83.5t69 -133t23 -177zM764 540q0 62 -12.5 118t-40 97.5t-71.5 66 t-108 24.5q-57 0 -109.5 -24t-92.5 -74.5t-64 -130t-24 -189.5q0 -161 60 -237.5t180 -76.5q64 0 116 30t89 85t57 133.5t20 177.5z" />
<glyph unicode="1" horiz-adv-x="598" d="M385 0h-151l82 832l-250 2l12 110l397 22z" />
<glyph unicode="2" horiz-adv-x="870" d="M744 0h-699l-19 119l486 381q36 28 60.5 53.5t39 50t21 48.5t6.5 50q0 36 -12.5 64t-35.5 48t-56.5 31t-75.5 11q-33 0 -69 -10t-66 -27q-6 -12 -12 -33.5t-12 -47.5t-11 -55t-9 -55l-114 9q0 58 4 103.5t14.5 80.5t30 61t49.5 44q20 12 47 22t58 17t65 10.5t68 3.5 q72 0 126 -20.5t90 -55.5t54 -82t18 -100q0 -36 -7.5 -70.5t-25 -68t-46.5 -66t-70 -66.5l-415 -327h532z" />
<glyph unicode="3" horiz-adv-x="848" d="M426 856q-16 0 -34 -2.5t-35.5 -7.5t-34 -11.5t-31.5 -15.5q-6 -12 -12 -33.5t-12 -47.5t-11 -55t-8 -55l-115 9q0 58 3.5 103.5t14.5 80.5t31 61t50 44q20 12 46 22t57 17t65 10.5t69 3.5q73 0 127 -18.5t90 -52t54 -80t18 -101.5q0 -34 -5 -64t-15 -58.5t-26 -56.5 t-38 -58t-52 -65l-67 -75q48 -20 82.5 -48t56 -61t31.5 -70t10 -77q0 -80 -26.5 -150.5t-78.5 -122.5t-131 -82t-185 -30q-88 0 -168.5 15.5t-145.5 43.5q8 31 18 62l21 60q31 -10 68 -19.5t76 -17t77 -11.5t70 -4q58 0 103.5 13.5t76.5 41t47.5 70.5t16.5 103q0 57 -22 93 t-65 57.5t-108 30.5t-153 11l18 117l190 6q52 59 85 104t52.5 82t27 71t7.5 70q0 34 -13 62t-36.5 47t-57 29t-73.5 10z" />
<glyph unicode="4" horiz-adv-x="925" d="M844 100h-182l-34 -407h-149l37 407h-473l-19 96l570 756l152 14l-72 -743h186zM178 223h350l56 547z" />
<glyph unicode="5" horiz-adv-x="860" d="M37 -236l18 60q9 30 17 60q32 -10 68.5 -19t74 -15.5t74.5 -10t69 -3.5q56 0 100 16.5t73.5 48t45 77.5t15.5 104q0 42 -16 76t-50 58t-88 37t-129 13q-22 0 -49 -1t-50.5 -2t-40.5 -2t-19 -1l65 694h573l-10 -137h-448l-39 -419h61q105 0 180.5 -22t124.5 -60t72 -91 t23 -117q0 -86 -27 -158.5t-80 -126t-132 -84t-185 -30.5q-38 0 -78 4t-78 11.5t-72.5 17.5t-62.5 22z" />
<glyph unicode="6" horiz-adv-x="903" d="M100 438q0 121 15 228.5t44 197.5t72.5 161t102.5 120t133.5 75.5t163.5 26.5q96 0 176.5 -17.5t144.5 -49.5l-42 -117q-78 26 -151 41.5t-145 15.5q-140 0 -226 -104t-116 -314q129 -4 229.5 -22t168.5 -56t103.5 -98t35.5 -147q0 -56 -12.5 -107.5t-35 -96t-55 -81 t-73 -61.5t-88 -39t-101.5 -14q-66 0 -116.5 16.5t-89 46.5t-64.5 72.5t-42.5 93.5t-24 109t-7.5 120zM256 580q-2 -12 -2.5 -27l-1 -30t-0.5 -30v-26q0 -96 14 -164.5t42 -111.5t70 -63t99 -20q42 0 75.5 20.5t58 55t38 79.5t13.5 95q0 63 -29 104.5t-81.5 67t-127.5 37 t-168 13.5z" />
<glyph unicode="7" horiz-adv-x="798" d="M402 74l-66 -122q-30 -53 -57 -94t-53.5 -71.5t-55 -54.5t-61 -43.5t-72.5 -38.5l-67 108q30 18 55.5 36t48.5 38t44.5 44.5t43.5 56t45 70.5t49 89l372 723h-550l14 141h709l6 -94z" />
<glyph unicode="8" horiz-adv-x="917" d="M838 989q0 -44 -9.5 -85.5t-32 -86.5t-58.5 -96t-91 -117q48 -48 79.5 -87.5t50.5 -74t26.5 -67t7.5 -66.5q0 -73 -28 -132t-79.5 -101t-123.5 -65t-160 -23q-72 0 -133 17t-106 53.5t-70 92t-25 133.5q0 26 4 52t14 55t27 61.5t44 72.5t64 89l87 109q-22 24 -40 48.5 t-30.5 53.5t-19 62t-6.5 73q0 62 24 114.5t68 91t105 60t134 21.5q72 0 123.5 -21.5t85.5 -57.5t51 -82.5t17 -96.5zM698 968q0 30 -8.5 58.5t-27 50t-48.5 34.5t-72 13t-73 -12.5t-52 -34t-31.5 -50.5t-10.5 -61q0 -27 5.5 -50t19.5 -48t38 -53.5t62 -66.5l68 -68 q38 54 63 94t40 73t21 62t6 59zM652 297q0 20 -2 37.5t-8 35.5t-17 37t-29 42.5t-44 52.5l-62 66l-82 81l-64 -91q-27 -40 -45.5 -72t-30.5 -57t-19 -46t-9 -39.5t-2 -36.5q0 -92 50 -142.5t156 -50.5q50 0 89 15t65.5 40t40 58t13.5 70z" />
<glyph unicode="9" horiz-adv-x="903" d="M803 518q0 -121 -14.5 -228.5t-43.5 -197t-73 -161t-103 -120.5t-133 -75.5t-164 -26.5q-96 0 -176 17.5t-147 50.5l45 117q78 -26 151.5 -42t143.5 -16q138 0 224.5 104t114.5 312q-129 4 -228.5 23t-167.5 57t-103 98t-35 148q0 84 27 157t75 127t115 84.5t148 30.5 q66 0 116.5 -16.5t89 -47t65 -73t42.5 -93.5t23.5 -109t7.5 -120zM647 377q1 13 2 28l2 30l2 29t1 26q0 96 -14.5 164t-43 111t-71.5 63t-101 20q-40 0 -74 -20t-59 -55t-38 -80t-13 -95q0 -63 28.5 -104.5t82 -67.5t128.5 -36.5t168 -12.5z" />
<glyph unicode=":" horiz-adv-x="518" d="M176 104l10 222q23 0 47 -2.5t45.5 -6.5t40.5 -10.5t33 -13.5l-40 -181zM230 643l8 221q23 0 46.5 -2t45.5 -6t42 -10t34 -14l-44 -180z" />
<glyph unicode=";" horiz-adv-x="514" d="M375 -20q0 -62 -24.5 -113t-69.5 -93t-108 -75t-140 -57l-41 100q46 18 85 39.5t69.5 45t51 47.5t30.5 50l-46 260l119 25q14 -18 27.5 -44.5t23.5 -57.5t16.5 -63.5t6.5 -63.5zM217 643l11 221q23 0 46.5 -2t45.5 -6t41 -10t32 -14l-41 -180z" />
<glyph unicode="&#x3c;" horiz-adv-x="1009" d="M824 182l-17 -147l-688 371l14 122l772 375l-16 -149l-596 -285z" />
<glyph unicode="=" horiz-adv-x="1009" d="M891 576h-727l12 120h725zM834 254h-728l10 121h730z" />
<glyph unicode="&#x3e;" horiz-adv-x="1009" d="M186 756l19 149l686 -369l-15 -124l-772 -375l17 147l596 287z" />
<glyph unicode="?" horiz-adv-x="909" d="M186 680q0 31 5 52.5t16 35.5t30 20t47 6q23 0 54.5 -3t63.5 -7.5t62 -8t50 -3.5q42 0 73 11.5t51 33t30 53t10 70.5q0 58 -29 110t-89.5 96t-155 78.5t-224.5 57.5l37 142q158 -20 274.5 -62t193.5 -102t115 -135t38 -161q0 -72 -21 -128.5t-61.5 -96t-101 -59.5 t-140.5 -20q-12 0 -27.5 0.5t-37.5 2.5t-51 5l-66 8v-27q0 -37 3 -87t7 -110l-123 -16q-8 33 -14 68.5t-10 67.5t-6.5 60t-2.5 48zM205 -2l10 221q23 0 47 -2.5t45.5 -6.5t40.5 -10t33 -14l-41 -180z" />
<glyph unicode="@" horiz-adv-x="1837" d="M1136 -10q-26 0 -43 3.5t-27 12t-15 22.5t-5 36q0 6 1.5 20.5l3.5 33.5l5 41q2 22 5 44.5t7 43.5l7 37q-20 -32 -46.5 -67t-56.5 -67.5t-61 -61.5t-62 -50.5t-59 -34.5t-52 -13q-42 0 -73.5 21t-52.5 62t-31.5 100t-10.5 136q0 84 13 158.5t38 137.5t60 114t79 86t95 54 t109 19q22 0 40.5 -2t37.5 -8t41.5 -16t50.5 -26q2 12 7 26l10 28t11 27t12 23l108 -20l-72 -672q-2 -22 -3.5 -43.5t-2.5 -40t-1.5 -32.5t-0.5 -20q62 8 116 34t99 65t80 89.5t60 110t38 125.5t13 136q0 134 -38.5 237t-114.5 173t-189.5 106t-263.5 36q-112 0 -213 -27 t-186 -79t-152.5 -127t-115 -170.5t-72.5 -210t-25 -246.5q0 -309 112 -459.5t344 -150.5q70 0 142 18t143 52q11 -23 19.5 -46.5t19.5 -47.5q-66 -46 -154 -72.5t-190 -26.5q-86 0 -163 16.5t-141.5 52t-115.5 91.5t-86.5 135.5t-54.5 183t-19 234.5q0 163 34 300.5 t95.5 248.5t147 195t188.5 140t220 84.5t241 28.5q186 0 321.5 -46.5t224 -133t131 -208t42.5 -271.5q0 -92 -21 -178t-59.5 -162t-93 -139t-121.5 -108t-145 -70t-163 -25zM956 758q-44 0 -78.5 -19.5t-60 -52.5t-42.5 -76.5t-28 -90.5t-15.5 -95t-4.5 -90q0 -48 3.5 -84 t10.5 -62t17 -44t22 -28q20 8 44 25t50 40t53 50t54 57t52 61t47 61l36 294l-54 27q-22 10 -39 16.5t-33 8.5t-34 2z" />
<glyph unicode="A" d="M96 94q24 0 47 7t48 24t53 45.5t62 72t74 102.5l91 139l112 179l126 209l141 240l160 272l68 6l69 4l4 -638l6 -640q16 2 40.5 9t51 15.5l51 17l40.5 14.5q6 -23 13 -46l15 -44q-23 -18 -57.5 -34.5t-73 -29t-78.5 -20.5q-39 -8 -75 -8q-28 0 -46 7t-27 26t-12 53t-3 90 v280h-394l-103 -166t-88 -124.5t-79 -88t-76 -56.5t-77 -30t-83 -9q-14 0 -31 1t-34 4.5t-33 8.5t-28 12q8 26 14 53t14 55q26 -6 50 -9t48 -3zM668 561h330v508q0 37 4 69l8 64q-2 -16 -6 -29t-9 -26.5t-13 -28t-18 -30.5z" />
<glyph unicode="B" horiz-adv-x="1112" d="M1016 438q0 -76 -19.5 -137.5t-55 -111t-86 -85.5t-113 -60t-134.5 -36t-152 -12q-98 0 -176 6t-134 14l132 1242q-20 -2 -47 -5t-56 -7.5l-56 -9t-45 -9.5q-8 26 -15 54q-7 29 -16 55q42 14 96.5 25t116.5 20t131 13.5t139 4.5q126 0 210 -23.5t135 -66.5t72 -103 t21 -133q0 -83 -46 -174q-48 -91 -132 -195q66 -18 110 -45.5t71 -62t38 -74.5t11 -84zM811 1063q0 46 -14.5 83.5t-48 64.5t-89 42t-137.5 15h-34q-18 0 -48 -2l-57 -522l81 -4l76 -4q36 -2 66 -4l54 -3q38 47 66 90t47 83.5t28.5 80.5t9.5 80zM852 416q0 42 -11 72.5 t-35 52t-62 35.5t-92 23t-124 14t-160 7l-50 -487q13 -3 34.5 -5t45.5 -3t48 -1.5t44 -0.5q82 0 149 19.5t114 56.5t73 92t26 125z" />
<glyph unicode="C" horiz-adv-x="1128" d="M1014 916l-138 -6l38 342q-39 12 -84.5 19t-91.5 7q-90 0 -162 -28t-127 -78t-95 -118t-65 -147t-37 -166.5t-12 -175.5q0 -114 20 -197t58 -137.5t92 -81t122 -26.5q114 0 216 60.5t202 176.5l94 -80q-58 -74 -119 -130t-126.5 -93t-137 -55t-151.5 -18 q-102 0 -182.5 33t-137 102t-86.5 177t-30 257q0 108 18 213.5t54 201t91.5 176t130.5 139.5t169.5 92.5t210.5 33.5q52 0 97 -4.5t85 -12.5t77 -20t73 -28z" />
<glyph unicode="D" horiz-adv-x="1280" d="M1200 807q0 -189 -47 -339t-137.5 -255t-224 -161t-307.5 -56q-48 0 -97 2t-93 4.5t-82 5.5q-38 4 -66 8l132 1242q-20 -2 -47 -5t-56 -7.5l-56 -9t-45 -9.5q-8 26 -15 54q-7 29 -16 55q46 14 103 26t121 20t132.5 12.5t136.5 4.5q123 0 220 -19.5t170.5 -55.5t125.5 -89 t85 -118.5t48 -143.5t15 -166zM1034 794q0 112 -28.5 200t-91 149t-161.5 93t-239 32h-14q-6 0 -14 -0.5t-19 -1t-27 -0.5l-118 -1129q12 -2 31 -4.5t41 -4t45 -2.5t43 -1q125 0 226.5 37.5t174 118.5t112 208t39.5 305z" />
<glyph unicode="E" horiz-adv-x="1134" d="M1104 293q-16 -61 -31 -107t-34 -79t-42.5 -54t-55.5 -34t-73.5 -18t-97.5 -5h-34t-62.5 1t-78.5 1l-80 1q-38 0 -68 1h-43h-394l12 106l172 19l126 1141q-54 0 -117 -2l-129 -4q-3 26 -4 54q0 28 -2 56q37 4 78 8t84.5 6t87.5 3t88 1h622l-16 -124h-533l-59 -531h438 l-14 -125h-438l-50 -479q74 0 145 -1t133 -2t112 -2t80 -1q22 0 38 3t29.5 11.5t25 22.5t22.5 36t23 54l27 74z" />
<glyph unicode="F" horiz-adv-x="944" d="M68 1370q39 6 84.5 9.5t92.5 6t94 3.5t89 1h561l-16 -124h-494q0 -6 -3.5 -31t-7.5 -63l-10 -85l-11 -95l-11 -96l-10 -84l-7 -62l-3 -29h395l-17 -125h-392q0 -6 -4 -31l-8 -61l-10 -82l-11 -91l-11 -91l-10 -80l-8 -61q-3 -23 -4 -29q-9 -64 -26.5 -116t-48.5 -89 t-78 -57.5t-113 -20.5q-20 0 -43.5 2.5t-46.5 6t-45.5 9t-40.5 11.5l24 116l41 -8t41 -7t37 -5t29 -2q22 0 38 5.5t28 19.5t20 38.5t14 61.5q0 5 5 40l12 91l17 130l20 158l22 172l22 174l20 163l18 141l13 106q5 44 7 58q-54 0 -118 -2t-130 -6z" />
<glyph unicode="G" horiz-adv-x="1198" d="M1061 1208q-34 14 -72.5 27t-80.5 22.5t-85 15t-85 5.5q-90 0 -162 -28t-127.5 -78t-95 -117.5t-65 -146.5t-37 -165.5t-11.5 -174.5q0 -108 22.5 -191.5t65 -140t103.5 -85t139 -28.5q38 0 74 6.5t73 18.5t75 30t80 41l31 285h-293l10 120h439l-41 -466l-94 -56 q-44 -25 -83 -44.5t-76 -33.5t-74 -23t-75 -13q-40 -4 -82 -4q-108 0 -193.5 36t-145 108t-90.5 178t-31 247q0 106 17 210.5t52 200t89.5 177.5t129 142t170.5 94q98 34 216 34q119 0 210.5 -21t159.5 -63z" />
<glyph unicode="H" horiz-adv-x="1323" d="M1302 119q-26 -22 -64 -45.5t-80.5 -42.5t-87 -31t-83.5 -12q-26 0 -44.5 5t-30.5 17t-17.5 34t-5.5 54q0 24 2.5 58t7.5 76l47 420h-588l-72 -652h-159l135 1266l-198 -4l-4 110q79 11 175.5 15.5t198.5 4.5l-64 -612h590l68 610h160l-127 -1148q-3 -31 -5 -62.5 t-2 -58.5q21 4 48.5 14.5t55.5 23.5l54 26q28 13 46 24z" />
<glyph unicode="I" horiz-adv-x="635" d="M674 1282l-201 -12l-127 -1149l205 -9l-13 -112h-568l14 108l202 13l128 1149l-204 12l13 108h563z" />
<glyph unicode="J" horiz-adv-x="594" d="M-133 -116q24 -20 50.5 -38t52.5 -32.5t52 -25.5q26 -12 48 -18q66 46 104 131t52 213l124 1156l-231 12l10 108h545l-10 -110l-154 -8l-123 -1160q-12 -110 -42.5 -195.5t-76.5 -145t-103 -90.5t-122 -31q-32 0 -65 9t-64.5 25.5t-61.5 38.5q-30 21 -55 47z" />
<glyph unicode="K" horiz-adv-x="1165" d="M368 764l193 -10l172 198l66 79q28 34 47.5 62t32.5 50.5t20 44t10 42t3 44.5q0 26 -7 59t-16 61l135 26q8 -12 15 -29t12 -34t8.5 -34t3.5 -31q0 -30 -2.5 -56t-10 -54t-22 -59t-39.5 -68t-61 -82t-88 -103l-166 -182l196 -502l15 -34l14 -33l13 -27t12 -20q44 12 86 32 t92 48l43 -92q-26 -22 -59.5 -43.5t-71 -38t-77 -26.5t-77.5 -10q-24 0 -41.5 7t-31 23t-26.5 43t-28 67l-203 540l-176 11l-68 -633h-159l135 1266l-198 -4q-2 28 -3 55t-1 53q38 6 82 9.5t92 6t99 3.5t101 1z" />
<glyph unicode="L" horiz-adv-x="1028" d="M987 203q-14 -69 -33.5 -118t-48.5 -79.5t-70 -44.5t-97 -14q-20 0 -48 2t-59.5 5.5l-64.5 7.5q-33 6 -62 10l-258 38l-207 -12l-6 104l165 31l124 1137l-136 12l8 106h521l-13 -108l-223 -10l-117 -1141l218 -37q46 -8 90 -13t82 -5q14 0 29 1t26 3q16 24 32.5 63 t34.5 89l56 -14z" />
<glyph unicode="M" horiz-adv-x="1741" d="M545 1382l161 12l160 -1022l5.5 -34.5t3.5 -28.5t1 -25.5v-25.5l480 1124l164 10v-1140q0 -50 4 -87t10 -55q17 3 38 8.5l43.5 11.5t44.5 14t40 16l30 -88q-22 -16 -52 -31.5t-64 -27t-68 -18.5t-66 -7t-53 8t-34 30t-19 60t-6 96q0 184 2 359v155l1 158v150q0 72 1 130 q-2 -9 -5.5 -20.5l-8 -25.5t-10.5 -28l-12 -28l-422 -985l-138 -10l-160 995q-8 45 -10 73.5t-2 47.5l-242 -887q-22 -79 -48 -135.5t-58.5 -92t-72 -52t-87.5 -16.5q-18 0 -37 2t-37 6t-33 9t-26 11l29 108q22 -6 50 -11t54 -5q24 0 41 5t31 21t27 45t26 77z" />
<glyph unicode="N" horiz-adv-x="1282" d="M387 1378l145 18l398 -1028l21 -61.5t11 -44.5q9 102 20 210l22 215l24 211l24 196q10 76 29 140t55 111.5t94 76t146 32.5l16 -102q-36 -6 -63 -15.5t-47 -23t-34.5 -33.5t-25 -46.5t-18 -62t-14.5 -79.5l-16 -116l-19 -149l-22 -177l-23 -199l-24 -215l-25 -226 q-38 -4 -73.5 -6.5t-71.5 -5.5l-412 1040q-14 34 -20.5 58t-6.5 44l-94 -673q-15 -104 -31 -181.5t-36 -132t-44 -89t-54.5 -54.5t-68 -27t-83.5 -7q-14 0 -31 1.5t-32 4.5t-29 7.5t-23 8.5l29 108q12 -4 25 -7t27 -5t27 -3t23 -1q22 0 38.5 4t30 16.5t24.5 36.5t22 65 t22 101.5t25 145.5z" />
<glyph unicode="O" horiz-adv-x="1263" d="M1184 824q0 -114 -19 -221.5t-56 -201t-91 -171t-124 -133t-155 -85.5t-184 -30q-70 0 -133 12.5t-116 41t-95.5 74.5t-71.5 112t-45 154t-16 200q0 124 21 233t60 202t96 167t127.5 126t154.5 79.5t178 27.5q129 0 218 -42t145 -119t81 -185t25 -241zM1018 803 q0 109 -17 196t-55.5 147.5t-100 93t-151.5 32.5q-59 0 -115 -19t-106 -57t-92.5 -94t-72.5 -132t-47 -170t-17 -206q0 -134 23 -224t66 -144t105 -78q64 -23 142 -23q64 0 121.5 22t106 63.5t87.5 101.5t66.5 135t42 164.5t14.5 191.5z" />
<glyph unicode="P" horiz-adv-x="1038" d="M856 1004q0 59 -16 107.5t-52 83.5t-95 54t-144 19h-25q-16 0 -33 -0.5t-32 -1t-23 -0.5l-66 -635q18 -4 39 -6.5t42.5 -4.5t42 -3t38.5 -1q77 0 137.5 30t101.5 82.5t63 123t22 152.5zM557 1399q86 0 152.5 -12t117.5 -34.5t86 -55.5t57 -75t32 -91.5t10 -106.5 q0 -116 -36 -213t-102 -168t-157 -110t-203 -39q-23 0 -43.5 0.5t-39 2t-36.5 3.5l-37 6l-57 -506h-159l134 1258q-19 -2 -44.5 -5t-52.5 -7l-55 -8t-50 -9l-23 111q114 30 240 44.5t266 14.5z" />
<glyph unicode="Q" horiz-adv-x="1186" d="M1612 -200q-28 -72 -65 -123t-83.5 -83t-103 -47.5t-123.5 -15.5q-82 0 -170.5 19.5t-184.5 59t-198 100.5q-102 60 -209 144q-108 84 -183.5 178.5t-122.5 194.5t-68 203.5t-21 204.5q0 108 19 208t55.5 186.5t90 156.5t122 120t152 77.5t179.5 27.5q108 0 188 -32.5 t132 -94.5t78 -150t26 -198q0 -88 -31 -191.5t-96 -224t-164.5 -258.5t-234.5 -295q78 -63 162.5 -116.5t171.5 -92.5t173.5 -61.5t168.5 -22.5q37 0 67.5 8t58.5 28t56 55t58 89zM956 910q0 178 -70.5 270t-211.5 92q-58 0 -113 -18.5t-103 -54t-88 -88.5t-68.5 -121 t-44 -151t-15.5 -179q0 -92 17.5 -178.5t50 -164t78.5 -144t104 -120.5q119 137 206.5 259t144.5 229t85 199.5t28 169.5z" />
<glyph unicode="R" horiz-adv-x="1149" d="M1149 60q-29 -26 -64 -48.5t-72 -40t-75 -27.5t-74 -10q-24 0 -41.5 7t-32 25.5t-28.5 50t-33 79.5l-172 457l-193 17l-63 -570h-159l134 1258q-20 -2 -46 -5t-54 -7l-55 -9q-27 -4 -47 -8l-23 111q50 13 109.5 23.5t126 18.5t139 12.5t150.5 4.5q126 0 212 -25.5 t141 -72.5t79 -113t24 -146q0 -66 -22.5 -128t-64 -120t-100.5 -112t-133 -104l156 -396q7 -18 15 -35l15 -33q7 -16 14 -28q6 -12 12 -20q16 4 37.5 12t45.5 19t48 24t45 27zM868 1020q0 57 -15.5 102.5t-51.5 78t-94.5 50t-143.5 17.5h-21q-14 0 -31.5 -0.5t-37 -1 t-37.5 -0.5l-59 -572l264 -24q52 38 93.5 80t71.5 86.5t46 91t16 92.5z" />
<glyph unicode="S" horiz-adv-x="897" d="M813 1218q-62 25 -121 36q-58 12 -122 12q-47 0 -85.5 -13.5t-66.5 -38t-43 -60t-15 -79.5q0 -24 2.5 -44.5t8.5 -41.5t17 -42t28.5 -46t42.5 -54t59 -65l94 -101q40 -46 68.5 -84.5t47 -71.5t29.5 -63.5t15 -60t4 -61.5q0 -77 -29 -142t-84 -112.5t-135 -73.5t-180 -26 q-50 0 -101 10t-99.5 29t-94 46t-83.5 62l73 119q85 -62 170 -95.5t166 -33.5q60 0 104.5 16.5t73.5 44.5t43 64q14 38 14 78q0 21 -2 41t-10 42t-21.5 46.5t-36 54.5t-55.5 67l-77 83q-58 58 -98.5 106t-66 94.5t-37.5 93.5q-12 46 -12 100q0 70 25 133.5t73.5 111t120 76 t165.5 28.5q38 0 74 -3t70 -10t67 -19q33 -11 65 -29z" />
<glyph unicode="T" horiz-adv-x="1104" d="M1284 1286q-24 -14 -50 -25t-57 -17.5t-67 -9.5t-82 -3q-26 0 -57 1t-62 2.5t-61 4l-54 4.5l-122 -1122l244 -11l-15 -110h-592l11 98l194 21l121 1137l-167 11q-80 5 -150 5q-40 0 -71.5 -14t-53 -39.5t-32.5 -61.5t-11 -80v-25v-25t1 -28t3 -33l-117 -8q-11 32 -15 69 t-4 67q0 72 20.5 128t62 95t103.5 59t148 20q43 0 97 -2.5t113.5 -6.5l123.5 -8.5l126.5 -8.5t122 -7t109.5 -3q27 0 52.5 2t51.5 6t52 10t54 16z" />
<glyph unicode="U" horiz-adv-x="1310" d="M1052 274q-2 -18 -3.5 -39t-2 -41.5t-1.5 -39t-1 -33.5q24 6 50 15.5t52 20.5t51.5 24.5l49.5 27.5l43 -93q-32 -26 -71 -49t-80 -40.5t-83 -28t-81 -10.5q-26 0 -44.5 4.5t-30.5 17t-18 33.5t-6 53q0 58 10 129t24 145q-83 -110 -151 -184t-128 -119t-116.5 -64 t-116.5 -19q-66 0 -115 16t-81 51t-47 88t-15 127q0 16 1 42.5t4 59t7 68.5l8 70l106 760l-198 -2l-4 106q38 6 83 9.5t93 6t99 3.5t101 1l-118 -854q-6 -36 -9.5 -70t-6 -62.5t-2.5 -51.5q-1 -22 -1 -38q0 -92 35.5 -136.5t111.5 -44.5q42 0 89 22.5t104.5 73t127 132 t155.5 198.5l96 825l78 6l78 4z" />
<glyph unicode="V" horiz-adv-x="1120" d="M434 293l3 -34q1 -16 1 -30.5t-1.5 -29.5t-4.5 -31q3 16 6.5 28t7.5 24t10.5 24t16.5 28l336 524q49 76 83 137t55 111.5t30.5 94t9.5 85.5q0 44 -7 95q-8 51 -20 105l136 16q13 -26 21.5 -54.5t13.5 -57t7 -54.5t2 -47q0 -44 -10 -93.5t-35 -109.5t-67 -133 q-40 -73 -102 -166l-478 -721l-141 -8l-115 1270l-162 -2l-4 108q36 6 78.5 9.5t85 6t82.5 3.5t72 1z" />
<glyph unicode="W" horiz-adv-x="1732" d="M432 6l-146 -10l-94 1270q-11 0 -26.5 -0.5t-32.5 -0.5t-34 -0.5t-31.5 -0.5h-24.5h-13l-4 108q36 6 79 9.5t85 6t82 3.5t72 1l74 -1089q2 -26 2 -49v-19q0 -31 -6 -57q2 13 5.5 25t8.5 24.5t11.5 25.5l14.5 29l416 779l-26 323l154 6l94 -1087q2 -28 2 -52v-16 q0 -31 -4 -57l4 25t7 24.5t12 25.5l15 29l302 514l65 116q27 50 46 90t30.5 70t18 56t8.5 48t2 46q0 45 -7 96.5t-18 105.5l133 16q13 -26 21.5 -54.5t14 -57t7.5 -54.5t2 -47q0 -28 -3.5 -55t-12.5 -57t-24 -65.5t-38.5 -81.5t-56.5 -104l-78 -133l-432 -729l-144 -6 l-67 786q-3 34 -3 63v5q0 32 5 58q-2 -13 -5.5 -25.5t-8.5 -24.5t-11.5 -25.5t-15.5 -29.5z" />
<glyph unicode="X" horiz-adv-x="1247" d="M680 578l-143 -232q-63 -98 -114 -165.5t-92.5 -109t-80 -64t-76.5 -30t-82 -7.5q-16 0 -33 2t-33.5 5.5t-31 8t-24.5 10.5l28 112q28 -6 52 -9t48 -3q28 0 54 8.5t56 32t66.5 65.5t84.5 109t110 164l143 229l-206 566l-166 -4l-4 110l78.5 8t77 7t72 4t64.5 1l205 -575 l219 338q41 63 74.5 109t63.5 78t58 52t59 31.5t67.5 16t81.5 4.5l8 -114q-37 -4 -65.5 -12t-53.5 -22.5t-49 -37t-51 -57.5t-60 -83l-75 -112l-207 -312l215 -575l166 10l10 -102q-34 -8 -74.5 -14.5t-82 -11t-80 -7t-68.5 -2.5z" />
<glyph unicode="Y" horiz-adv-x="987" d="M514 0h-158l64 612l-215 654l-177 -2l-4 108q39 6 80.5 9.5t82.5 6t79 3.5t70 1l198 -616l250 385q34 54 62.5 94.5t54 70.5t50.5 52t52 36t59 23q30 9 70 15l17 -112q-30 -8 -51.5 -18t-41.5 -23.5t-38 -33t-40 -48.5t-50 -70l-64 -97l-284 -428z" />
<glyph unicode="Z" horiz-adv-x="1120" d="M236 213l52 -23l55 -26l63 -33l76 -41l100 -52q42 -21 73.5 -33.5t55 -17.5t45.5 -5q33 0 60 7t54 24t56.5 47t67.5 75l98 -73q-34 -50 -68.5 -92t-75 -72t-89.5 -46t-111 -16q-20 0 -41 2t-44 7t-49 14t-57.5 23.5t-69 34t-81.5 46.5l-79 44l-70 37l-64 32l-60 26 l-135 -122l-76 73l1018 1211h-686l10 124h876l5 -106z" />
<glyph unicode="[" horiz-adv-x="633" d="M668 1344h-291l-160 -1688h287l-12 -121h-432l180 1929h438z" />
<glyph unicode="\" horiz-adv-x="786" d="M570 0l-525 1390h149l525 -1390h-149z" />
<glyph unicode="]" horiz-adv-x="626" d="M-39 -344h291l160 1688h-285l13 120h432l-183 -1929h-438z" />
<glyph unicode="^" horiz-adv-x="907" d="M500 1575l139 8l164 -759h-160l-96 466q-6 32 -8.5 56t-2.5 42l-290 -564h-144z" />
<glyph unicode="_" horiz-adv-x="678" d="M622 0h-581l10 104h580z" />
<glyph unicode="`" horiz-adv-x="620" d="M330 1134l-214 357l130 31l192 -354z" />
<glyph unicode="a" horiz-adv-x="1003" d="M708 903q11 38 26.5 71.5t31.5 55.5l96 -16l-82 -780q-2 -22 -3.5 -40t-2.5 -33t-1.5 -28t-0.5 -27q17 3 36.5 8t40 11.5t40 13.5t37.5 15l30 -84q-26 -18 -56 -33.5t-63 -26t-67 -16.5t-66 -6q-46 0 -69 18t-23 62q0 12 3 38.5l7 62t9 75.5l12 80q-66 -92 -116.5 -156 t-92 -104t-76 -58t-67.5 -18q-46 0 -83 26.5t-62.5 76t-39.5 120.5t-14 159q0 78 12 153t36 142.5t59 124t79 97.5t98 64.5t116 23.5q26 0 49 -3.5t48 -11.5t54 -21.5t65 -35.5zM692 784q-57 34 -103.5 51t-86.5 17q-48 0 -85.5 -18.5t-66 -51t-49 -77t-33 -97t-18.5 -110.5 t-6 -117q0 -54 6 -95t18 -71.5t28 -50.5t36 -33q32 23 71.5 62.5t82 90l87.5 108.5t87 120z" />
<glyph unicode="b" horiz-adv-x="973" d="M276 168q28 -18 53 -29t46 -17t41 -9t38 -3q46 0 84 17.5t69 48t54 72.5t39 92t23.5 105t7.5 112q0 49 -5.5 92t-17.5 79t-29 62t-40 42q-32 -23 -70.5 -61.5t-81 -88t-87.5 -108.5l-88 -124zM389 1460q6 -23 9.5 -50.5t3.5 -55.5q0 -10 -1 -23.5l-2 -28t-3 -30.5l-3 -29 l-65 -602l100 135q48 62 92 106t84 68.5t78 24.5q40 0 76 -25.5t64 -76.5t44 -125t16 -172q0 -76 -14 -149t-41 -138t-66 -120t-88 -95t-108 -62t-127 -22q-23 0 -44.5 3t-43.5 11t-46.5 21t-53.5 33q-8 -20 -18 -39t-21 -35l-97 16l158 1452z" />
<glyph unicode="c" horiz-adv-x="788" d="M680 824q-34 9 -78 14.5t-90 5.5q-62 0 -111.5 -31t-84 -89.5t-53.5 -143t-19 -191.5q0 -72 10 -122t29 -81.5t44 -46t54 -14.5q32 0 62.5 13.5t65.5 43t76 77.5t93 118l90 -74q-53 -83 -104.5 -142.5t-102.5 -98t-102 -56.5t-105 -18q-59 0 -107.5 22t-83.5 68t-54 117 t-19 167q0 91 14 172.5t41 149.5t66 122.5t88 92t108 58t125 20.5q60 0 107 -10.5t80 -30.5z" />
<glyph unicode="d" horiz-adv-x="1018" d="M780 234q-2 -22 -3.5 -40t-2.5 -33t-1.5 -28t-0.5 -27q17 3 36.5 8t40 11.5t40 13.5t37.5 15l30 -84q-26 -18 -56 -33.5t-63 -26t-67 -16.5t-66 -6q-46 0 -69 18t-23 62q0 12 3 38.5l7 62t9 75.5l12 80q-66 -92 -116.5 -156t-92 -104t-76 -58t-67.5 -18q-46 0 -83 26.5 t-62.5 76t-39.5 120.5t-14 159q0 78 12 153t36 142.5t59 124t79 97.5t98 64.5t116 23.5q26 0 48.5 -3.5t47 -11.5t53.5 -22t65 -35l60 549l116 8q6 -23 9.5 -50.5t3.5 -55.5q0 -10 -0.5 -23.5t-1.5 -28t-3 -30.5l-3 -29zM692 784q-57 34 -103.5 51t-86.5 17 q-48 0 -85.5 -18.5t-66 -51t-49 -77t-33 -97t-18.5 -110.5t-6 -117q0 -54 6 -95t18 -71.5t28 -50.5t36 -33q32 23 71.5 62.5t82 90l87.5 108.5t87 120z" />
<glyph unicode="e" horiz-adv-x="856" d="M834 286q-52 -78 -105 -134t-108.5 -93t-114 -54t-121.5 -17q-70 0 -124.5 22t-92.5 68t-58 116t-20 166q0 142 32 256.5t91 194.5t142 123t183 43q51 0 88.5 -13.5t62.5 -38t37 -59t12 -78.5q0 -34 -8.5 -68t-29 -69.5t-56.5 -72t-91 -74.5t-132 -78t-179 -82 q3 -62 16 -105t35.5 -70t52.5 -38.5t68 -11.5q40 0 80 12.5t81 41t83 73.5q44 44 88 106zM596 760q0 49 -22 72.5t-72 23.5q-52 0 -98 -27t-81 -78t-57 -124t-26 -164q98 40 166 80.5t110 78.5t61 73t19 65z" />
<glyph unicode="f" horiz-adv-x="557" d="M-144 -164q62 -60 117 -96t99 -43q40 28 62.5 86.5t27.5 144.5l49 898l-131 8l8 102l129 14l15 176q14 181 90 273q74 92 202 92q54 0 118 -15.5t132 -45.5l-36 -113q-70 22 -134 36t-116 17q-26 -14 -45.5 -37t-33 -54t-21.5 -67q-8 -38 -11 -78l-13 -184h228l-14 -122 h-222l-47 -890q-4 -80 -25.5 -146t-56.5 -112.5t-80 -72t-96 -25.5q-32 0 -66 8t-68.5 26t-69.5 47t-70 71z" />
<glyph unicode="g" horiz-adv-x="977" d="M652 334q-66 -92 -118 -158t-94.5 -108t-78 -61t-70.5 -19q-46 0 -83 26.5t-62.5 76t-39.5 120.5t-14 159q0 78 12 153t36 142.5t59 124t79 97.5t98 64.5t116 23.5q26 0 49 -3.5t48 -11.5t54 -22t65 -35q11 38 26.5 71.5t31.5 55.5l96 -16l-68 -635l23 -153 q10 -66 16.5 -116.5t9.5 -86.5t3 -62q0 -55 -12 -105t-37.5 -93.5t-65 -79t-94.5 -60.5t-126 -39t-159 -14q-59 0 -111 10t-96 26t-78.5 38t-59 45.5t-37.5 48t-13 47.5q0 16 5.5 36t19.5 45.5t38.5 56.5t63.5 69l84 -50q-20 -34 -37 -66t-31 -66q26 -24 61 -44t73.5 -34.5 t79 -22.5t77.5 -8q79 0 136.5 18.5t94.5 51.5t54.5 78t17.5 98q0 26 -2 58.5t-7 77.5t-13 106zM692 784q-57 34 -103.5 51t-86.5 17q-48 0 -85.5 -18.5t-66 -51t-49 -77t-33 -97t-18.5 -110.5t-6 -117q0 -54 6 -95t18 -71.5t28 -50.5t36 -33q32 23 71.5 62.5t82 90 l87.5 108.5t87 120z" />
<glyph unicode="h" horiz-adv-x="1026" d="M123 0q-3 23 -3.5 43.5t-0.5 42.5q0 10 0.5 26t1.5 34.5t3 36.5t3 32l135 1237l117 8q6 -23 9 -50.5t3 -55.5q0 -10 -0.5 -23.5t-1.5 -28t-3 -30.5l-3 -29l-69 -643q74 109 132 181t105 114.5t85 60t70 17.5q42 0 71.5 -13.5t48 -38.5t27.5 -61t9 -80q0 -17 -1.5 -39.5 t-4.5 -48.5l-58 -458q-4 -44 -6 -74t-2 -54q46 10 84 21t76 27l31 -84q-23 -16 -52 -31t-61 -26.5t-66 -18t-67 -6.5q-22 0 -40.5 4t-31.5 16t-20.5 32.5t-7.5 53.5q0 24 2.5 56t7.5 69l57 433q3 22 4.5 39t1.5 30q0 40 -8 67q-6 28 -30 46q-28 -12 -68 -47t-88 -89.5 t-104 -128.5q-55 -73 -115 -165l-41 -404h-131z" />
<glyph unicode="i" horiz-adv-x="461" d="M254 0h-150l101 950l123 6q6 -20 9 -44.5t3 -49.5q0 -22 -2 -50l-6 -60zM236 1176l8 223q21 0 42 -2.5t41 -6.5t37.5 -9.5t31.5 -12.5l-40 -184z" />
<glyph unicode="j" horiz-adv-x="473" d="M-131 -207l34 -25l39 -26l38 -22.5t32 -16.5q32 34 54 87.5t30 123.5l113 1036l123 6q4 -20 7 -44.5t3 -49.5q0 -22 -1.5 -50t-4.5 -60l-82 -762q-12 -107 -37 -183t-59.5 -124.5t-77 -71.5t-90.5 -23q-26 0 -52 8t-51 22t-48 33t-42 42zM250 1176l8 223q21 0 42.5 -2.5 t41.5 -6.5t37 -9.5t31 -12.5l-40 -184z" />
<glyph unicode="k" horiz-adv-x="927" d="M254 0h-131q-3 23 -3.5 43.5t-0.5 42.5q0 10 0.5 26t1.5 34.5t3 36.5t3 32l135 1237l117 8q6 -23 9 -50.5t3 -55.5q0 -10 -0.5 -23.5t-1.5 -28t-3 -30.5l-3 -29l-78 -733l156 30q63 68 103 117t64 87t33 70t9 64q0 17 -1 36.5t-5 47.5l126 15q4 -10 8.5 -22.5t7 -24.5 t4 -24t1.5 -22q0 -31 -3.5 -57.5t-12.5 -52.5t-27 -54.5t-46.5 -64t-69.5 -79.5l-99 -103l105 -245q14 -36 28 -68t26 -54q39 8 82 21q42 13 78 27l31 -84q-23 -17 -53 -32t-62 -26.5t-64 -17.5t-60 -6q-24 0 -42 5t-31 15t-22 27t-18 41l-129 342l-127 -25z" />
<glyph unicode="l" horiz-adv-x="504" d="M280 234q-4 -44 -6 -74t-2 -54q46 10 84 21t76 27l31 -84q-23 -16 -52 -31t-61 -26.5t-66 -18t-67 -6.5q-22 0 -40.5 4t-32 16t-21 32.5t-7.5 53.5q0 24 3 56t8 69l135 1233l117 8q6 -23 9 -50.5t3 -55.5q0 -10 -0.5 -23.5t-1.5 -28t-3 -30.5l-3 -29z" />
<glyph unicode="m" horiz-adv-x="1542" d="M635 0q-3 23 -3.5 43.5t-0.5 42.5q0 10 0.5 26t1.5 34.5t3 36.5t3 32l26 196l18 137l11 87q4 32 6 49.5t2 25v11.5q0 40 -8 67q-6 28 -30 46q-28 -12 -67 -47t-85.5 -89.5t-100.5 -128.5q-54 -73 -114 -165l-43 -404h-131q-3 23 -3.5 43.5t-0.5 42.5q0 10 0.5 26 t1.5 34.5t3 36.5t3 32l80 735l125 6q2 -16 3 -28.5l2 -25t1 -24.5v-26q0 -10 -1 -23t-2 -28l-2 -31l-3 -28l-16 -142q72 106 129 178t103 115t84 61q36 19 70 19q42 0 71.5 -13.5t48 -38.5t27.5 -61t9 -80q0 -17 -1.5 -39.5t-4.5 -48.5l-10 -78q72 104 127 173.5t99 111 t80 57.5q36 17 70 17q42 0 71.5 -13.5t48 -38.5t27.5 -61t9 -80q0 -17 -1.5 -39.5t-4.5 -48.5l-58 -458q-4 -44 -6 -74t-2 -54q46 10 84 21t76 27l31 -84q-23 -16 -52 -31t-61 -26.5t-66 -18t-67 -6.5q-22 0 -40.5 4t-31.5 16t-20.5 32.5t-7.5 53.5q0 24 2.5 56t7.5 69 l57 433q3 22 4.5 39t1.5 30q0 40 -8 67q-6 28 -30 46q-28 -12 -67 -47t-85 -89.5t-100 -128.5q-55 -73 -115 -165l-47 -404h-131z" />
<glyph unicode="n" horiz-adv-x="1028" d="M123 0q-3 23 -3.5 43.5t-0.5 42.5q0 10 0.5 26t1.5 34.5t3 36.5t3 32l80 735l125 6q2 -16 3 -28.5l2 -25t1 -24.5v-26q0 -10 -1 -23t-2 -28l-2 -31l-3 -28l-16 -142q72 106 129.5 178t105 115t85.5 61q38 19 72 19q42 0 71.5 -13.5t48 -38.5t27.5 -61t9 -80 q0 -17 -1.5 -39.5t-4.5 -48.5l-58 -458q-4 -44 -6 -74t-2 -54q46 10 84 21t76 27l31 -84q-23 -16 -52 -31t-61 -26.5t-66 -18t-67 -6.5q-22 0 -40.5 4t-31.5 16t-20.5 32.5t-7.5 53.5q0 24 2.5 56t7.5 69l57 433q3 22 4.5 39t1.5 30q0 40 -8 67q-6 28 -30 46 q-28 -12 -68 -47t-87.5 -89.5t-102.5 -128.5q-55 -73 -115 -165l-43 -404h-131z" />
<glyph unicode="o" horiz-adv-x="932" d="M842 570q0 -72 -12 -143.5t-36 -136t-60 -120t-85 -96t-110 -63.5t-135 -23q-84 0 -143.5 23.5t-97.5 74t-55.5 128.5t-17.5 188q0 82 14 156t40.5 138t65 116t87.5 88.5t108 56.5t125 20q86 0 145 -26.5t96 -78.5t54 -127.5t17 -174.5zM688 551q0 42 -3 81t-10 72.5 t-20 60.5t-32.5 46.5t-47 30t-65.5 10.5q-52 0 -101 -27t-86 -82t-59 -137t-22 -190q0 -82 10 -140t32 -94.5t57 -54t83 -17.5q58 0 107 33t83.5 92t54 139.5t19.5 176.5z" />
<glyph unicode="p" horiz-adv-x="983" d="M444 -10q-26 0 -47 2t-42 6t-42 11t-47 17l-47 -419h-133q-3 23 -3.5 43.5t-0.5 42.5q0 10 1 26.5t2.5 34.5l3 36t3.5 32l146 1298l116 6q8 -20 11 -48t3 -54q0 -37 -6 -92l-34 -291l100 135q48 62 92 106t84 68.5t78 24.5q40 0 76 -25.5t64 -76.5t44 -125t16 -172 q0 -76 -14 -149t-41.5 -138t-66 -120t-87.5 -95t-107 -62t-122 -22zM276 168q28 -18 53 -29t46 -17t41 -9t38 -3q46 0 84 17.5t69 48t54 72.5t39 92t23.5 105t7.5 112q0 49 -5.5 92t-17.5 79t-29 62t-40 42q-32 -23 -70.5 -61.5t-81 -88t-87.5 -108.5l-88 -124z" />
<glyph unicode="q" horiz-adv-x="979" d="M641 324q-66 -92 -116.5 -156t-91.5 -104t-75 -58t-67 -18q-46 0 -83 26.5t-62.5 76t-39.5 120.5t-14 159q0 78 12 153t36 142.5t59 124t79 97.5t98 64.5t116 23.5q26 0 49 -3.5t48 -11.5t54 -22t65 -35q11 38 26.5 71.5t31.5 55.5l96 -16l-39 -352l-39 -352l-40 -353 l-38 -350h-132q-3 23 -3.5 43.5t-0.5 42.5q0 10 1 26.5l2 34.5t3 36t4 32zM692 784q-57 34 -103.5 51t-86.5 17q-48 0 -85.5 -18.5t-66 -51t-49 -77t-33 -97t-18.5 -110.5t-6 -117q0 -54 6 -95t18 -71.5t28 -50.5t36 -33q32 23 71.5 62.5t82 90l87.5 108.5t87 120z" />
<glyph unicode="r" horiz-adv-x="651" d="M332 956q2 -16 3 -28.5l2 -25t1 -24.5v-26q0 -10 -2 -31t-4 -45l-4 -47l-4 -37q43 78 77 131.5t63.5 86t57.5 47t58 14.5q70 0 116 -25l-26 -127q-23 5 -48.5 7t-53.5 2q-9 0 -19.5 -4t-23.5 -15.5t-31 -33t-44 -56.5l-60 -87l-81 -122l-55 -510h-131q-3 23 -3.5 43.5 t-0.5 42.5q0 10 0.5 26t1.5 34.5t3 36.5t3 32l80 735z" />
<glyph unicode="s" horiz-adv-x="712" d="M620 807q-52 26 -100.5 37.5t-93.5 11.5q-30 0 -54 -9t-41 -25t-25.5 -37t-8.5 -45q0 -21 4.5 -40.5t18.5 -42.5t38 -51t62 -68q54 -54 89 -94t56 -73.5t29 -65t8 -67.5q0 -56 -21 -102t-60 -79t-94 -51t-124 -18q-90 0 -161 31q-72 31 -130 93l76 101q27 -23 55 -42 t57 -32.5t59 -20.5q31 -8 61 -8q34 0 60 10t44 26.5t26 37.5q9 22 9 44t-6.5 41t-21.5 41t-40 50t-63 66t-65.5 69t-47 57t-32 48t-19.5 43t-9.5 41t-2.5 43q0 44 18.5 89t54 80.5t87.5 58t118 22.5q39 0 69.5 -3.5t57.5 -10.5t52 -18t55 -27z" />
<glyph unicode="t" horiz-adv-x="696" d="M652 834h-277l-59 -508q-2 -22 -4 -41t-3 -35t-1.5 -30t-0.5 -28q0 -25 1.5 -43.5t7.5 -34.5q58 36 116 98t117 146l92 -59q-34 -62 -79.5 -118t-94.5 -99.5t-99 -68.5q-52 -25 -96 -25q-38 0 -61 12t-36.5 34t-18 53t-4.5 67q0 40 3 82t9 94l66 504l-148 6l10 100 l152 10l59 326l123 6l-39 -332h279z" />
<glyph unicode="u" horiz-adv-x="1005" d="M200 954l132 6q3 -23 3.5 -43.5t0.5 -42.5q0 -10 -1 -26t-3 -34l-3 -36q-1 -18 -3 -32l-58 -439q-4 -22 -5 -39.5t-1 -29.5q0 -40 8 -68t31 -45q32 14 73 47t88.5 83.5t99.5 118.5q54 68 108 150l47 430l133 6q3 -23 3.5 -43.5t0.5 -42.5q0 -10 -1 -26t-2.5 -34l-3 -36 t-3.5 -32l-56 -512q-4 -44 -6 -74t-2 -54q46 10 84 21t76 27l31 -84q-23 -16 -52 -31t-61 -26.5t-66 -18t-67 -6.5q-22 0 -40.5 4t-32 16t-21 32.5t-7.5 53.5q0 10 2 29t4 42t5 49t6 48.5t6 40t5 25.5q-64 -94 -118.5 -159t-102 -106t-88.5 -59t-79 -18q-42 0 -71 13t-48 38 t-28 61t-9 80q0 17 2 39.5t4 48.5z" />
<glyph unicode="v" horiz-adv-x="866" d="M268 964l113 -780l193 312q27 44 45.5 82t30 72.5t16.5 67.5q6 32 6 66q0 22 -1.5 43t-4 41t-6.5 41q-2 21 -8 43l128 14q20 -40 29.5 -85t9.5 -89q0 -33 -6.5 -68.5t-23.5 -78.5t-46 -96t-71 -121l-270 -422l-142 -8l-139 952z" />
<glyph unicode="w" horiz-adv-x="1349" d="M364 186l283 512l-33 252l140 8l100 -772l198 304q32 48 52 87t32 74t16 67q5 32 5 66q0 22 -1.5 43t-5.5 41l-8 41l-12 43l128 14q10 -20 18 -43t13.5 -46.5t8.5 -46.5q2 -24 2 -44q0 -32 -6 -66.5t-22 -77t-45.5 -95.5t-75.5 -121l-281 -422l-132 -6l-70 532l-289 -526 l-137 -6l-121 952l143 14z" />
<glyph unicode="x" horiz-adv-x="852" d="M410 387l-68 -90q-29 -40 -50.5 -73.5t-38 -62t-28.5 -55t-21.5 -52.5t-17.5 -54h-139q5 32 12 60t19.5 57.5t33 64t51.5 79.5l76 104l107 139l-202 440l155 22l168 -374l65 88l48 69q20 30 34.5 54.5t26 48t20.5 48l19 52.5h141q-8 -30 -16.5 -57t-22 -56t-33 -62.5 t-49.5 -77t-72 -98.5l-100 -128l220 -457l-158 -24z" />
<glyph unicode="y" horiz-adv-x="866" d="M-86 -260q73 12 134.5 33t114.5 52t98 74t85 99q-14 65 -34 141.5l-43 159t-50 167.5l-55 166l-54 156l-52 138l134 40q22 -44 46 -103t49 -128l49 -145l47 -151q22 -75 41 -147q18 -70 32 -132q46 90 79 164.5t54 144.5t30 139q9 70 9 146q0 38 -5 89t-15 107l130 14 q7 -18 12.5 -42t10 -50t7 -53t2.5 -53q0 -78 -10 -153t-34 -155.5t-63.5 -170t-99.5 -195.5q-65 -114 -133 -198t-143.5 -141t-161 -90t-185.5 -46z" />
<glyph unicode="z" horiz-adv-x="852" d="M20 135l578 693h-440l8 120h612l16 -100l-600 -713q14 -2 32 -6l34 -7l37 -6l35 -8l82 -16q42 -8 80 -12t78 -4q17 0 37.5 1t35.5 3q18 34 33 74l26 80l107 -25q-13 -73 -32.5 -123t-48.5 -80t-69.5 -43.5t-95.5 -13.5q-38 0 -81.5 5.5t-100.5 17.5l-353 65z" />
<glyph unicode="{" horiz-adv-x="715" d="M746 1362q-80 -18 -135 -38t-87.5 -49.5t-46.5 -71t-14 -101.5q0 -38 1.5 -83t2.5 -90t2.5 -88t1.5 -77q0 -44 -9.5 -85t-33 -76t-62 -63t-96.5 -46q42 -14 70 -38t44 -54t23 -66t7 -74q0 -34 -6 -67.5t-15 -67l-19 -67.5l-19 -67t-15 -66t-6 -67q0 -50 10 -86t36.5 -62 t72 -45t115.5 -33l-44 -113q-92 12 -156.5 35t-105 60.5t-59.5 92.5t-19 131q0 32 6 66.5t15 69t19 68.5l19 67t15 65t6 62q0 42 -8 73t-30 53.5t-61 37t-103 22.5l10 110q68 7 115.5 25.5t77 46.5t43.5 66t14 84q0 38 -2 79l-5 87l-4 91.5t-2 92.5q0 86 22.5 149 t71.5 107.5t127 72t189 41.5z" />
<glyph unicode="|" horiz-adv-x="610" d="M142 -406l192 1914h131l-193 -1914h-130z" />
<glyph unicode="}" horiz-adv-x="715" d="M-30 -362q53 12 94.5 24t73 27t53 34t35.5 44t20 57t6 72q0 38 -1 83t-3 90t-3 88t-1 77q0 44 9.5 85t33 76t61.5 63t96 46q-42 14 -69.5 38t-44 54.5t-23 66t-6.5 72.5q0 51 12.5 101.5t27.5 101t27.5 100.5t12.5 100t-10.5 86t-37 62.5t-72 45t-113.5 32.5l42 112 q92 -12 156.5 -35t105 -60.5t58.5 -92.5t18 -131q0 -50 -12 -101.5t-27 -103t-28 -101t-13 -93.5q0 -41 8 -72t30.5 -53.5t63 -36.5t104.5 -22l-13 -111q-68 -8 -115 -26t-76.5 -46.5t-43 -65.5t-13.5 -83q0 -36 2 -79l3 -87l4 -92q2 -46 2 -92q0 -87 -22.5 -150.5 t-71.5 -107.5t-126.5 -71t-189.5 -42z" />
<glyph unicode="~" horiz-adv-x="884" d="M807 1438q-10 -62 -28 -106t-44.5 -72t-61.5 -41t-79 -13q-23 0 -50.5 3l-57.5 6t-60 7.5t-58 8t-52 6t-42 2.5t-31 -5.5t-24 -20t-20 -38.5t-19 -61l-104 22q9 61 24.5 104.5t39.5 70.5t57 40t79 13q36 0 78.5 -4.5l85.5 -9.5l82 -10q39 -4 66 -4q20 0 37 6t30 21.5 t24 40t19 60.5z" />
<glyph unicode="&#xa1;" horiz-adv-x="575" d="M84 -516l102 800q4 34 9 62t10 51l9 41l9 37l121 -14l-74 -779l2 -188zM408 944l-8 -219q-23 0 -47 2.5t-45.5 6.5t-40.5 10t-33 14l40 180z" />
<glyph unicode="&#xa2;" horiz-adv-x="788" d="M680 826q-34 9 -78 14.5t-90 5.5q-62 0 -111.5 -31t-84 -90t-53.5 -144t-19 -192q0 -72 10 -122t29 -81.5t44 -46t54 -14.5q32 0 62.5 13.5t65.5 43t76 77.5t93 118l90 -74q-86 -130 -167 -203.5t-161 -97.5l-20 -278h-129l31 268q-53 4 -96 29t-73.5 71t-46.5 113 t-16 157q0 120 24.5 222t69.5 180.5t108.5 130t141.5 71.5l27 277h129l-31 -266q51 -2 91 -12.5t69 -26.5z" />
<glyph unicode="&#xa3;" horiz-adv-x="1026" d="M938 152q-35 -104 -99.5 -158t-166.5 -54q-16 0 -38 2t-54 6t-77 11l-107 15l-141 20l-183 24l-6 105l162 4q24 46 40 101.5t21 127.5l12 156h-172l8 108h170l15 214q6 83 30 146.5t67.5 107t107 66t147.5 22.5q42 0 81 -7t75.5 -18t69 -26t58.5 -31l-53 -113 q-28 14 -57.5 26.5t-59.5 21.5t-59 14t-57 5q-46 0 -81 -10t-59.5 -34t-38.5 -64t-18 -100l-12 -220h262l-6 -108h-263l-8 -146q-2 -38 -6 -71t-11 -64t-18.5 -60t-27.5 -59l131 -20l84 -13t50.5 -6t31.5 -1q30 0 51 7t38 22.5t31 39t30 55.5z" />
<glyph unicode="&#xa4;" horiz-adv-x="1018" d="M416 568q-6 -32 -10 -68t-6 -74h362l-12 -108h-348q4 -52 17 -90t35 -62t55 -35.5t75 -11.5q32 0 69 7.5t76 24.5t79 43.5t76 63.5l70 -88q-37 -42 -82.5 -75.5t-96.5 -57t-107 -36.5t-113 -13q-148 0 -222.5 83t-82.5 247h-205l13 108h192q2 74 18 142h-180l12 108h199 q26 70 64.5 127t88.5 97t109 61.5t127 21.5q74 0 137.5 -15.5t108.5 -43.5q-11 -28 -19 -54l-18 -53q-22 8 -48.5 15t-56 12.5t-61 8.5t-61.5 3q-36 0 -69 -11t-62 -33t-53 -56t-42 -80h361l-13 -108h-376z" />
<glyph unicode="&#xa5;" horiz-adv-x="1028" d="M72 332h344l8 84l-54 110h-266l10 105h204l-156 319h164l196 -395l289 395h160l-240 -319h221l-12 -105h-286l-74 -94l-10 -100h344l-13 -104h-344l-23 -228h-153l25 228h-346z" />
<glyph unicode="&#xa6;" horiz-adv-x="610" d="M250 702l82 806h133l-82 -806h-133zM140 -406l81 814h133l-82 -814h-132z" />
<glyph unicode="&#xa7;" horiz-adv-x="985" d="M446 336q31 -70 54.5 -129t38.5 -114t23 -108.5t8 -113.5q39 16 65.5 40.5t43.5 54.5t24 65t7 71q0 28 -4 55.5t-13 59t-24 69.5t-36 86l-119 271l-53.5 128.5t-39 113.5t-23 109t-7.5 114q-39 -16 -66 -40.5t-44 -54.5t-24 -64.5t-7 -72.5q0 -28 4 -55t13 -59t24 -70 t37 -86zM731 475q28 -60 47.5 -108.5t32 -91t18 -80t5.5 -76.5q0 -86 -30 -157t-84.5 -121.5t-131 -78.5t-170.5 -28q-48 0 -97 4t-97 13.5t-95 25t-92 37.5l43 102q48 -18 90 -30t79 -19.5t72 -11t68 -3.5h9q5 0 12.5 0.5t17.5 1t24 0.5q0 54 -7 104t-20 99t-33 98t-44 101 l-116 244q-28 60 -48.5 109t-33 92t-18 82t-5.5 77q0 86 29.5 157t84.5 121.5t131 78.5t170 28q48 0 97 -4t97.5 -13.5t96 -24.5t91.5 -37l-44 -103q-48 18 -89.5 30t-79 19.5t-71.5 10.5t-68 3h-10h-12.5h-17.5t-24 -2q0 -54 7 -104t20.5 -99t33 -98t43.5 -100z" />
<glyph unicode="&#xa8;" horiz-adv-x="915" d="M211 1180l8 212q20 0 40.5 -2t39.5 -6.5t36 -10.5t29 -13l-38 -174zM626 1180l9 212q20 0 40.5 -2t39.5 -6.5t36 -10.5t29 -13l-36 -174z" />
<glyph unicode="&#xa9;" horiz-adv-x="1431" d="M856 664q-22 6 -50 11t-64 5q-33 0 -61.5 -16t-49 -48t-32 -82t-11.5 -118q0 -44 7.5 -74t21 -48t33.5 -26t46 -8q46 0 86 23t82 71l52 -61q-29 -34 -57 -58.5t-57 -40.5t-60.5 -24t-69.5 -8q-98 0 -148.5 60t-50.5 182q0 79 19.5 147t56.5 118t90 78.5t119 28.5 q40 0 75 -8t56 -22zM1272 547q0 -88 -20 -169.5t-57 -153t-90 -130t-119 -100.5t-144 -65t-166 -23q-128 0 -226 32.5t-164 96t-100 158.5t-34 221q0 96 22 179.5t62 154t96 126.5t123.5 95t145 59t159.5 20q135 0 232 -37t159.5 -104t91.5 -159t29 -201zM1166 528 q0 98 -25 177.5t-76 135t-130 85.5t-189 30q-109 0 -199 -38t-154.5 -107t-99.5 -165t-35 -212q0 -105 25.5 -186.5t79 -137.5t135 -85t194.5 -29q64 0 124 16.5t112.5 48t96 77.5t75 105t49 130.5t17.5 154.5z" />
<glyph unicode="&#xaa;" horiz-adv-x="766" d="M256 688q-30 0 -54 16.5t-40.5 46t-25.5 71.5t-9 92q0 80 18.5 148t51.5 117t81 77t107 28q16 0 29.5 -2t28 -7t30 -13l35.5 -19q2 9 5 19.5l6 20.5t7 19t6 15l86 -4l-48 -439q-2 -10 -3 -23l-2 -27t-1.5 -26t-0.5 -22q17 4 42 11t47 16l20 -59q-15 -12 -34.5 -22 t-41 -18t-44 -12t-42.5 -4q-18 0 -29 3.5t-18 11t-10 18.5t-3 27q0 7 2 22.5t5 36.5l6 42l6 42l-56.5 -76t-56 -65t-53 -45t-47.5 -17zM494 1159q-37 20 -64.5 27.5t-50.5 7.5q-37 0 -63.5 -22.5t-43 -59t-24.5 -83.5t-8 -95q0 -28 3 -50.5t10 -39t15 -29.5t18 -21 q16 12 40 36t50 54l52 61l47 61z" />
<glyph unicode="&#xab;" horiz-adv-x="1153" d="M486 116l-142 -42l-225 382l354 422l145 -36l-317 -379zM918 116l-142 -42l-223 382l355 422l144 -36l-317 -379z" />
<glyph unicode="&#xac;" horiz-adv-x="1009" d="M688 88l33 330h-586l15 118h722l-44 -442z" />
<glyph unicode="&#xad;" horiz-adv-x="682" d="M600 438h-528l10 109h528z" />
<glyph unicode="&#xae;" horiz-adv-x="1192" d="M1067 1143q0 -73 -16.5 -141t-46.5 -127t-74 -107t-98.5 -83t-119 -54t-138.5 -19q-109 0 -190.5 28t-135.5 81t-80 131.5t-26 179.5q0 79 18 148.5t51 128.5t79 105.5t102 79t120 49.5t133 17q110 0 189.5 -29.5t131.5 -84t76.5 -132t24.5 -171.5zM975 1126 q0 82 -19 147t-60 111t-106 70t-157 24q-90 0 -164 -31t-126.5 -88t-81.5 -136t-29 -175q0 -92 20 -159t63.5 -111t111.5 -66t163 -22q79 0 149 30t122.5 86t83 137t30.5 183zM682 844l-88 170l-70 6l-14 -176h-80l43 487h155q39 0 68 -10t47.5 -28t27.5 -42.5t9 -52.5 q0 -50 -28 -90t-80 -78l106 -180zM696 1190q0 16 -5 30t-16 25t-27 17t-40 6h-61l-15 -186l101 -11q17 17 29 31t20 28t11 28.5t3 31.5z" />
<glyph unicode="&#xaf;" horiz-adv-x="786" d="M676 1254l-576 -17l10 117l576 12z" />
<glyph unicode="&#xb0;" horiz-adv-x="819" d="M717 1080q0 -64 -22.5 -118.5t-68.5 -99.5q-44 -44 -98 -67t-118 -23t-118 23t-100 67q-46 45 -68 99.5t-22 118.5t22 118t68 98q90 90 218 90t216 -90q45 -45 68 -98.5t23 -117.5zM633 1080q0 46 -16.5 85t-48.5 72q-32 34 -72 49.5t-86 15.5t-86 -15.5t-72 -49.5 q-34 -32 -50 -71.5t-16 -85.5t16 -86t50 -72q32 -32 72 -49t86 -17t86 17t72 49q66 66 65 158z" />
<glyph unicode="&#xb1;" horiz-adv-x="1124" d="M612 1270v-480h476v-96h-476v-475h-98v475h-477v96h477v480h98zM1088 98v-98h-1051v98h1051z" />
<glyph unicode="&#xb2;" horiz-adv-x="661" d="M559 594l-8 -100h-457l-14 88l242 182q40 30 66 52.5t41.5 42t21 37.5t5.5 40q0 17 -5 31.5t-16 25.5t-28 17t-41 6q-18 0 -40 -3t-42 -9q-3 -8 -5.5 -22t-5.5 -29l-6 -33l-5 -33l-96 6q0 42 3 70.5t10.5 49.5t19 36t29.5 28q28 22 71 32.5t92 10.5q48 0 84.5 -11.5 t60.5 -33t37 -52.5t13 -69q0 -32 -8.5 -58.5t-27.5 -53t-50.5 -55.5t-77.5 -64l-166 -129h303z" />
<glyph unicode="&#xb3;" horiz-adv-x="649" d="M368 1122q48 0 83.5 -13t59 -35t35 -51t11.5 -63q0 -30 -5.5 -55t-19.5 -52t-38.5 -59t-63.5 -75q32 -14 54 -32.5t35 -39.5t19.5 -46t6.5 -52q0 -54 -17.5 -100.5t-52.5 -81.5t-87.5 -54.5t-121.5 -19.5q-24 0 -52 2.5t-56 8t-54 13.5t-48 19l36 98q45 -17 91.5 -26.5 t90.5 -9.5q32 0 58 8t44.5 25t29 42t10.5 57q0 26 -10 46t-33.5 34t-64 22t-101.5 9l14 90l113 4q28 34 47 62t31 51.5t17 44.5t5 43q0 17 -5 31.5t-16 26t-28 18t-41 6.5q-18 0 -40 -3t-42 -9q-3 -8 -6 -22l-6 -29l-5 -33l-5 -33l-96 6q0 42 3 70.5t10 49.5t19 36t29 29 q28 22 70.5 32t92.5 10z" />
<glyph unicode="&#xb4;" horiz-adv-x="536" d="M211 1134l-107 34l244 354l138 -31z" />
<glyph unicode="&#xb5;" horiz-adv-x="1179" d="M950 314q0 -60 2 -103t8 -65q4 -17 12 -29.5t15 -20.5q10 -8 19 -11t20 -3q26 0 47 24t31 99h41q-8 -68 -24.5 -114.5t-40.5 -70.5q-25 -26 -56.5 -38t-69.5 -12t-66 10t-50 34q-23 22 -36.5 61t-17.5 95q-51 -58 -99.5 -96t-94.5 -62q-45 -22 -84.5 -33.5t-73.5 -11.5 q-23 0 -44.5 4.5t-43.5 14.5t-43 22t-41 29q-4 -146 24 -252q18 -79 19 -109q0 -28 -6.5 -49t-20.5 -37q-27 -32 -63 -32q-17 0 -32 7t-25 21q-16 18 -23.5 42t-7.5 52q0 14 2 32t8 38q14 48 23 89t12 75q6 62 9 112.5t3 92.5v797h168v-576q0 -104 18 -148q8 -23 23 -40 t37 -31q24 -12 45 -19.5t43 -7.5q26 0 57 8t66 25q37 16 72 40.5t73 58.5v690h166v-602z" />
<glyph unicode="&#xb6;" horiz-adv-x="1356" d="M830 944h356l-12 -106l-216 -12l-122 -1180h-146zM624 258q-50 -32 -112 -49t-129 -17q-64 0 -116 21t-89 62t-57.5 102t-20.5 143q0 102 29 184t82.5 140t131.5 89t177 31q21 0 45 -1t48 -3l47 -5q22 -3 40 -5z" />
<glyph unicode="&#xb7;" horiz-adv-x="559" d="M198 375l11 221q23 0 47 -2t45.5 -6.5t40.5 -11t33 -13.5l-41 -180z" />
<glyph unicode="&#xb8;" horiz-adv-x="502" d="M362 45q10 -28 18 -59.5t14 -62.5t9 -61t3 -54q0 -28 -7 -56t-22 -52t-41 -44t-64 -35t-89 -24t-119 -11l-17 107q67 4 108 13.5t64 23.5t31 32t8 40q0 16 -2 42t-5.5 58t-9 67t-11.5 68z" />
<glyph unicode="&#xb9;" horiz-adv-x="549" d="M326 498h-128l50 500l-156 2l14 104l281 14z" />
<glyph unicode="&#xba;" horiz-adv-x="717" d="M121 944q0 73 20.5 135.5t58 109t89 73t113.5 26.5q53 0 91.5 -16t63.5 -47.5t37 -77t12 -105.5q0 -42 -8 -84.5t-24 -81.5t-39 -72.5t-54 -58.5t-69 -39t-84 -14q-104 0 -155.5 61.5t-51.5 190.5zM236 952q0 -48 8 -79.5t23 -50t34 -26.5t41 -8q30 0 57 17t48 49t33 77 t12 101q0 84 -27 123t-78 39q-27 0 -54 -14t-49 -44t-35 -75.5t-13 -108.5z" />
<glyph unicode="&#xbb;" horiz-adv-x="1153" d="M670 836l141 42l223 -380l-352 -422l-148 36l320 380zM236 836l141 42l223 -380l-352 -422l-148 36l320 380z" />
<glyph unicode="&#xbc;" horiz-adv-x="1523" d="M1401 53h-119l-18 -247h-132l25 247h-299l-12 87l352 460l135 10l-41 -456h119zM966 154h200l32 315zM398 0h-148l690 983h146zM326 498h-128l50 500l-156 2l14 104l281 14z" />
<glyph unicode="&#xbd;" horiz-adv-x="1554" d="M398 0h-148l690 983h146zM1413 100l-8 -100h-457l-14 88l242 182q40 30 66 53t41.5 42t21 37t5.5 40q0 17 -5 31.5t-16 25.5t-28 17t-41 6q-18 0 -40 -3t-42 -9q-3 -8 -5.5 -21.5l-5.5 -29.5l-6 -33l-5 -33l-96 7q0 42 3 70t10.5 49t19 36t29.5 29q28 22 71 32t92 10 q48 0 84.5 -11.5t60.5 -33t37 -52.5t13 -68q0 -32 -8.5 -58.5t-27.5 -53.5t-50.5 -55t-77.5 -64l-166 -130h303zM326 498h-128l50 500l-156 2l14 104l281 14z" />
<glyph unicode="&#xbe;" horiz-adv-x="1691" d="M1587 53h-119l-18 -247h-131l25 247h-300l-12 87l352 460l136 10l-42 -456h120zM1153 154h199l32 315zM586 0h-148l690 983h146zM368 1122q48 0 83.5 -13t59 -35t35 -51t11.5 -63q0 -30 -5.5 -55t-19.5 -52t-38.5 -59t-63.5 -75q32 -14 54 -32.5t35 -39.5t19.5 -46 t6.5 -52q0 -54 -17.5 -100.5t-52.5 -81.5t-87.5 -54.5t-121.5 -19.5q-24 0 -52 2.5t-56 8t-54 13.5t-48 19l36 98q45 -17 91.5 -26.5t90.5 -9.5q32 0 58 8t44.5 25t29 42t10.5 57q0 26 -10 46t-33.5 34t-64 22t-101.5 9l14 90l113 4q28 34 47 62t31 51.5t17 44.5t5 43 q0 17 -5 31.5t-16 26t-28 18t-41 6.5q-18 0 -40 -3t-42 -9q-3 -8 -6 -22l-6 -29l-5 -33l-5 -33l-96 6q0 42 3 70.5t10 49.5t19 36t29 29q28 22 70.5 32t92.5 10z" />
<glyph unicode="&#xbf;" horiz-adv-x="909" d="M723 262q0 -30 -4.5 -52t-15.5 -36t-30 -20t-49 -6q-23 0 -54 3t-63.5 7.5t-61.5 8t-49 3.5q-42 0 -73 -11.5t-51.5 -33t-30 -53t-9.5 -70.5q0 -58 28.5 -110t89 -96t154.5 -78.5t225 -57.5l-37 -142q-158 20 -275 62t-193.5 102t-114 135t-37.5 161q0 72 20.5 128.5 t61 96t101.5 59.5t141 20q12 0 27 -0.5t37 -2.5t51 -5l67 -8v27q0 37 -3 87t-7 110l122 16q8 -33 14 -68t10 -67.5t6.5 -60.5t2.5 -48zM704 944l-10 -221q-23 0 -46.5 2.5t-45.5 7t-41 11t-33 12.5l42 180z" />
<glyph unicode="&#xc0;" d="M96 94q24 0 47 7t48 24t53 45.5t62 72t74 102.5l91 139l112 179l126 209l141 240l160 272q34 3 68.5 5.5t68.5 4.5l4 -638l6 -640q16 2 40.5 9t51 15.5l51 17l40.5 14.5q6 -23 13 -46l15 -44q-23 -18 -57.5 -34.5t-73 -29t-78 -20.5t-75.5 -8q-28 0 -46 7t-27 26t-12 53 t-3 90v280h-394l-103 -166t-88 -124.5t-79 -88t-76 -56.5t-77 -30t-83 -9q-14 0 -31 1t-34 4.5t-33 8.5t-28 12q8 26 14 53t14 55q26 -6 50 -9t48 -3zM668 561h330v508q0 37 4 69.5l8 63.5q-2 -16 -6 -29t-9 -26.5t-13 -28t-18 -30.5zM1057 1573l-213 356l129 31l193 -354z " />
<glyph unicode="&#xc1;" d="M96 94q24 0 47 7t48 24t53 45.5t62 72t74 102.5l91 139l112 179l126 209l141 240l160 272q34 3 68.5 5.5t68.5 4.5l4 -638l6 -640q16 2 40.5 9t51 15.5l51 17l40.5 14.5q6 -23 13 -46l15 -44q-23 -18 -57.5 -34.5t-73 -29t-78 -20.5t-75.5 -8q-28 0 -46 7t-27 26t-12 53 t-3 90v280h-394l-103 -166t-88 -124.5t-79 -88t-76 -56.5t-77 -30t-83 -9q-14 0 -31 1t-34 4.5t-33 8.5t-28 12q8 26 14 53t14 55q26 -6 50 -9t48 -3zM668 561h330v508q0 37 4 69.5l8 63.5q-2 -16 -6 -29t-9 -26.5t-13 -28t-18 -30.5zM1178 1573l-107 33l244 354l137 -31z " />
<glyph unicode="&#xc2;" d="M96 94q24 0 47 7t48 24t53 45.5t62 72t74 102.5l91 139l112 179l126 209l141 240l160 272q34 3 68.5 5.5t68.5 4.5l4 -638l6 -640q16 2 40.5 9t51 15.5l51 17l40.5 14.5q6 -23 13 -46l15 -44q-23 -18 -57.5 -34.5t-73 -29t-78 -20.5t-75.5 -8q-28 0 -46 7t-27 26t-12 53 t-3 90v280h-394l-103 -166t-88 -124.5t-79 -88t-76 -56.5t-77 -30t-83 -9q-14 0 -31 1t-34 4.5t-33 8.5t-28 12q8 26 14 53t14 55q26 -6 50 -9t48 -3zM668 561h330v508q0 37 4 69.5l8 63.5q-2 -16 -6 -29t-9 -26.5t-13 -28t-18 -30.5zM1218 1960l150 -364l-127 -13l-98 250 l-177 -252l-110 15l262 360z" />
<glyph unicode="&#xc3;" d="M96 94q24 0 47 7t48 24t53 45.5t62 72t74 102.5l91 139l112 179l126 209l141 240l160 272q34 3 68.5 5.5t68.5 4.5l4 -638l6 -640q16 2 40.5 9t51 15.5l51 17l40.5 14.5q6 -23 13 -46l15 -44q-23 -18 -57.5 -34.5t-73 -29t-78 -20.5t-75.5 -8q-28 0 -46 7t-27 26t-12 53 t-3 90v280h-394l-103 -166t-88 -124.5t-79 -88t-76 -56.5t-77 -30t-83 -9q-14 0 -31 1t-34 4.5t-33 8.5t-28 12q8 26 14 53t14 55q26 -6 50 -9t48 -3zM668 561h330v508q0 37 4 69.5l8 63.5q-2 -16 -6 -29t-9 -26.5t-13 -28t-18 -30.5zM1428 1904q-10 -59 -28 -101t-44 -69 t-60 -39.5t-76 -12.5q-28 0 -58 2l-62 4l-61 5q-30 3 -54 3q-18 0 -31 -6t-23.5 -20t-20 -38t-19.5 -61l-103 21q10 58 26 100t39 70t55 42t75 14q26 0 56.5 -1.5t60.5 -3.5l59 -5q27 -2 49 -2t38 6t29 20t23.5 38t20.5 62z" />
<glyph unicode="&#xc4;" d="M96 94q24 0 47 7t48 24t53 45.5t62 72t74 102.5l91 139l112 179l126 209l141 240l160 272q34 3 68.5 5.5t68.5 4.5l4 -638l6 -640q16 2 40.5 9t51 15.5l51 17l40.5 14.5q6 -23 13 -46l15 -44q-23 -18 -57.5 -34.5t-73 -29t-78 -20.5t-75.5 -8q-28 0 -46 7t-27 26t-12 53 t-3 90v280h-394l-103 -166t-88 -124.5t-79 -88t-76 -56.5t-77 -30t-83 -9q-14 0 -31 1t-34 4.5t-33 8.5t-28 12q8 26 14 53t14 55q26 -6 50 -9t48 -3zM668 561h330v508q0 37 4 69.5l8 63.5q-2 -16 -6 -29t-9 -26.5t-13 -28t-18 -30.5zM834 1618l8 213q20 0 40 -2.5t39 -7 t36 -10.5t30 -13l-39 -174zM1250 1618l8 213q20 0 40 -2.5t39 -7t36 -10.5t30 -13l-37 -174z" />
<glyph unicode="&#xc5;" d="M96 94q24 0 47 7t48 24t53 45.5t62 72t74 102.5l91 139l112 179l126 209l141 240l160 272q34 3 68.5 5.5t68.5 4.5l4 -638l6 -640q16 2 40.5 9t51 15.5l51 17l40.5 14.5q6 -23 13 -46l15 -44q-23 -18 -57.5 -34.5t-73 -29t-78 -20.5t-75.5 -8q-28 0 -46 7t-27 26t-12 53 t-3 90v280h-394l-103 -166t-88 -124.5t-79 -88t-76 -56.5t-77 -30t-83 -9q-14 0 -31 1t-34 4.5t-33 8.5t-28 12q8 26 14 53t14 55q26 -6 50 -9t48 -3zM668 561h330v508q0 37 4 69.5l8 63.5q-2 -16 -6 -29t-9 -26.5t-13 -28t-18 -30.5zM954 1730q0 42 15 78t40.5 63t61 42.5 t76.5 15.5q42 0 73.5 -10.5t52.5 -30.5t31.5 -48t10.5 -62q0 -42 -13.5 -78.5t-39 -64t-62 -43t-82.5 -15.5q-82 0 -123 39.5t-41 113.5zM1059 1736q0 -35 15.5 -54t53.5 -19t61 27.5t23 77.5q0 16 -4 29t-13 23t-23 15.5t-32 5.5t-33 -8t-26 -22t-16.5 -33.5t-5.5 -41.5z " />
<glyph unicode="&#xc6;" horiz-adv-x="1941" d="M1124 1247q-6 -20 -18.5 -44.5t-34.5 -57.5l-387 -584h364zM1036 446h-428l-111 -172q-50 -74 -92.5 -126t-79.5 -86.5t-73 -54.5t-74 -27.5t-82 -7.5q-14 0 -31 1t-34 4.5t-33 8.5t-28 12q8 26 14 53t14 55q26 -6 50 -9t48 -3q26 0 49 6t47.5 22t52 43t61.5 70.5 t76 104.5l100 144l612 904h741l-17 -124h-532l-59 -531h438l-15 -125h-438l-48 -479q74 0 145 -1t133 -2t111 -2t79 -1q22 0 38.5 3t30 11.5t25 22.5t22.5 36t23.5 54t26.5 74l113 -31q-16 -61 -31 -107t-33.5 -79t-42.5 -54t-56 -34t-74 -18t-97 -5h-34.5t-62.5 1t-78 1 l-80 1q-38 0 -68 0.5t-44 0.5h-393l13 106l172 19z" />
<glyph unicode="&#xc7;" horiz-adv-x="1128" d="M1014 916l-138 -6l38 342q-39 12 -84.5 19t-91.5 7q-90 0 -162 -28t-127 -78t-95 -118t-65 -147t-37 -166.5t-12 -175.5q0 -114 20 -197t58 -137.5t92 -81t122 -26.5q114 0 216 60.5t202 176.5l94 -80q-49 -62 -99.5 -111t-103.5 -85t-110 -59t-119 -33q6 -24 11 -48.5 t8.5 -48.5t5.5 -46.5t2 -40.5q0 -28 -6.5 -56t-22 -52t-41 -44t-63.5 -35t-90 -24t-119 -11l-17 107q67 4 108.5 13.5t64.5 23.5t31 32t8 40q0 13 -1.5 32.5t-4 44l-5.5 52t-8 55.5q-94 6 -168 41.5t-125.5 105t-78.5 174t-27 246.5q0 108 18 213.5t54 201t91.5 176 t130.5 139.5t169.5 92.5t210.5 33.5q52 0 97 -4.5t85 -12.5t77 -20t73 -28z" />
<glyph unicode="&#xc8;" horiz-adv-x="1134" d="M1104 293q-16 -61 -31 -107t-34 -79t-42.5 -54t-55.5 -34t-73.5 -18t-97.5 -5h-34t-62.5 1t-78.5 1l-80 1q-38 0 -67.5 0.5t-43.5 0.5h-394l12 106l172 19l126 1141q-54 0 -117 -2l-129 -4q-3 26 -3.5 54t-2.5 56q37 4 78 8t84.5 6t87.5 3t88 1h622l-16 -124h-533 l-59 -531h438l-14 -125h-438l-50 -479q74 0 145 -1t133 -2t112 -2t80 -1q22 0 38 3t29.5 11.5t25 22.5t22.5 36t23 54l27 74zM658 1573l-214 356l130 31l192 -354z" />
<glyph unicode="&#xc9;" horiz-adv-x="1134" d="M1104 293q-16 -61 -31 -107t-34 -79t-42.5 -54t-55.5 -34t-73.5 -18t-97.5 -5h-34t-62.5 1t-78.5 1l-80 1q-38 0 -67.5 0.5t-43.5 0.5h-394l12 106l172 19l126 1141q-54 0 -117 -2l-129 -4q-3 26 -3.5 54t-2.5 56q37 4 78 8t84.5 6t87.5 3t88 1h622l-16 -124h-533 l-59 -531h438l-14 -125h-438l-50 -479q74 0 145 -1t133 -2t112 -2t80 -1q22 0 38 3t29.5 11.5t25 22.5t22.5 36t23 54l27 74zM733 1573l-107 33l244 354l138 -31z" />
<glyph unicode="&#xca;" horiz-adv-x="1134" d="M1104 293q-16 -61 -31 -107t-34 -79t-42.5 -54t-55.5 -34t-73.5 -18t-97.5 -5h-34t-62.5 1t-78.5 1l-80 1q-38 0 -67.5 0.5t-43.5 0.5h-394l12 106l172 19l126 1141q-54 0 -117 -2l-129 -4q-3 26 -3.5 54t-2.5 56q37 4 78 8t84.5 6t87.5 3t88 1h622l-16 -124h-533 l-59 -531h438l-14 -125h-438l-50 -479q74 0 145 -1t133 -2t112 -2t80 -1q22 0 38 3t29.5 11.5t25 22.5t22.5 36t23 54l27 74zM794 1960l150 -364l-127 -13l-98 250l-177 -252l-110 15l262 360z" />
<glyph unicode="&#xcb;" horiz-adv-x="1134" d="M1104 293q-16 -61 -31 -107t-34 -79t-42.5 -54t-55.5 -34t-73.5 -18t-97.5 -5h-34t-62.5 1t-78.5 1l-80 1q-38 0 -67.5 0.5t-43.5 0.5h-394l12 106l172 19l126 1141q-54 0 -117 -2l-129 -4q-3 26 -3.5 54t-2.5 56q37 4 78 8t84.5 6t87.5 3t88 1h622l-16 -124h-533 l-59 -531h438l-14 -125h-438l-50 -479q74 0 145 -1t133 -2t112 -2t80 -1q22 0 38 3t29.5 11.5t25 22.5t22.5 36t23 54l27 74zM440 1618l8 213q20 0 40.5 -2.5t39.5 -7t36 -10.5t30 -13l-39 -174zM856 1618l8 213q20 0 40.5 -2.5t39.5 -7t35.5 -10.5t30.5 -13l-37 -174z" />
<glyph unicode="&#xcc;" horiz-adv-x="635" d="M674 1282l-201 -12l-127 -1149l205 -9l-13 -112h-568l14 108l202 13l128 1149l-204 12l13 108h563zM379 1573l-213 356l129 31l193 -354z" />
<glyph unicode="&#xcd;" horiz-adv-x="635" d="M674 1282l-201 -12l-127 -1149l205 -9l-13 -112h-568l14 108l202 13l128 1149l-204 12l13 108h563zM502 1573l-106 33l243 354l137 -31z" />
<glyph unicode="&#xce;" horiz-adv-x="635" d="M674 1282l-201 -12l-127 -1149l205 -9l-13 -112h-568l14 108l202 13l128 1149l-204 12l13 108h563zM534 1960l150 -364l-127 -13l-98 250l-177 -252l-110 15l262 360z" />
<glyph unicode="&#xcf;" horiz-adv-x="635" d="M674 1282l-201 -12l-127 -1149l205 -9l-13 -112h-568l14 108l202 13l128 1149l-204 12l13 108h563zM160 1618l8 213q20 0 40 -2.5t39 -7t36 -10.5t31 -13l-40 -174zM576 1618l8 213q20 0 40 -2.5t39 -7t36 -10.5t30 -13l-37 -174z" />
<glyph unicode="&#xd0;" horiz-adv-x="1284" d="M1200 807q0 -189 -47 -339t-137.5 -255t-224 -161t-307.5 -56q-48 0 -97 2t-93 4.5t-82 6t-66 7.5l67 633l-233 -4l6 115l240 4l52 494q-20 -2 -47 -5t-56 -7.5l-56 -9t-45 -9.5q-8 26 -15 54.5t-16 54.5q46 14 103 26t121 20t132.5 12.5t136.5 4.5q123 0 220 -19.5 t170.5 -55.5t125.5 -89t85 -118.5t48 -143.5t15 -166zM1034 794q0 112 -28.5 200t-91 149t-161.5 93t-239 32h-14q-6 0 -14 -0.5t-19 -1t-27 -0.5l-53 -498l265 6l-7 -114l-270 -6l-53 -517q12 -2 31 -4.5t41 -4t45 -2.5t43 -1q125 0 226.5 37.5t174 118.5t112 208t39.5 305 z" />
<glyph unicode="&#xd1;" horiz-adv-x="1282" d="M387 1378l145 18l398 -1028l21 -61.5t11 -44.5q9 102 20 210l22 215l24 211l24 196q10 76 29 140t55 111.5t94 76t146 32.5l16 -102q-36 -6 -63 -15.5t-47 -23t-34.5 -33.5t-25 -46.5t-18 -62t-14.5 -79.5l-16 -116l-19 -149l-22 -177l-23 -199l-24 -215l-25 -226 q-38 -4 -73.5 -6.5t-71.5 -5.5l-412 1040q-14 34 -20.5 58t-6.5 44l-94 -673q-15 -104 -31 -181.5t-36 -132t-44 -89t-54.5 -54.5t-68 -27t-83.5 -7q-14 0 -31 1.5t-32 4.5t-29 7.5t-23 8.5l29 108q12 -4 25 -7t27 -5t27 -3t23 -1q22 0 38.5 4t30 16.5t24.5 36.5t22 65 t22 101.5t25 145.5zM1198 1886q-10 -59 -28 -101.5t-44 -69.5t-60 -39.5t-75 -12.5q-27 0 -58 2.5l-62.5 5l-61 5t-53.5 2.5q-18 0 -31 -6t-24 -20t-20 -38t-19 -62l-103 21q10 58 25.5 100.5t38.5 70.5t55 42t76 14q26 0 56 -2l61 -4l59 -4q28 -2 49 -2q22 0 38 6t28.5 20 t23.5 38t21 61z" />
<glyph unicode="&#xd2;" horiz-adv-x="1263" d="M1184 824q0 -114 -19 -221.5t-56 -201t-91 -171t-124 -133t-155 -85.5t-184 -30q-70 0 -133 12.5t-116 41t-95.5 74.5t-71.5 112t-45 154t-16 200q0 124 21 233t60 202t96 167t127.5 126t154.5 79.5t178 27.5q129 0 218 -42t145 -119t81 -185t25 -241zM1018 803 q0 109 -17 196t-55.5 147.5t-100 93t-151.5 32.5q-59 0 -115 -19t-106 -57t-92.5 -94t-72.5 -132t-47 -170t-17 -206q0 -134 23 -224t66 -144t106 -77.5t141 -23.5q64 0 121.5 22t106 63.5t87.5 101.5t66.5 135t42 164.5t14.5 191.5zM690 1573l-213 356l129 31l192 -354z " />
<glyph unicode="&#xd3;" horiz-adv-x="1263" d="M1184 824q0 -114 -19 -221.5t-56 -201t-91 -171t-124 -133t-155 -85.5t-184 -30q-70 0 -133 12.5t-116 41t-95.5 74.5t-71.5 112t-45 154t-16 200q0 124 21 233t60 202t96 167t127.5 126t154.5 79.5t178 27.5q129 0 218 -42t145 -119t81 -185t25 -241zM1018 803 q0 109 -17 196t-55.5 147.5t-100 93t-151.5 32.5q-59 0 -115 -19t-106 -57t-92.5 -94t-72.5 -132t-47 -170t-17 -206q0 -134 23 -224t66 -144t106 -77.5t141 -23.5q64 0 121.5 22t106 63.5t87.5 101.5t66.5 135t42 164.5t14.5 191.5zM815 1573l-107 33l244 354l138 -31z" />
<glyph unicode="&#xd4;" horiz-adv-x="1263" d="M1184 824q0 -114 -19 -221.5t-56 -201t-91 -171t-124 -133t-155 -85.5t-184 -30q-70 0 -133 12.5t-116 41t-95.5 74.5t-71.5 112t-45 154t-16 200q0 124 21 233t60 202t96 167t127.5 126t154.5 79.5t178 27.5q129 0 218 -42t145 -119t81 -185t25 -241zM1018 803 q0 109 -17 196t-55.5 147.5t-100 93t-151.5 32.5q-59 0 -115 -19t-106 -57t-92.5 -94t-72.5 -132t-47 -170t-17 -206q0 -134 23 -224t66 -144t106 -77.5t141 -23.5q64 0 121.5 22t106 63.5t87.5 101.5t66.5 135t42 164.5t14.5 191.5zM852 1960l150 -364l-128 -13l-98 250 l-176 -252l-110 15l262 360z" />
<glyph unicode="&#xd5;" horiz-adv-x="1263" d="M1184 824q0 -114 -19 -221.5t-56 -201t-91 -171t-124 -133t-155 -85.5t-184 -30q-70 0 -133 12.5t-116 41t-95.5 74.5t-71.5 112t-45 154t-16 200q0 124 21 233t60 202t96 167t127.5 126t154.5 79.5t178 27.5q129 0 218 -42t145 -119t81 -185t25 -241zM1018 803 q0 109 -17 196t-55.5 147.5t-100 93t-151.5 32.5q-59 0 -115 -19t-106 -57t-92.5 -94t-72.5 -132t-47 -170t-17 -206q0 -134 23 -224t66 -144t106 -77.5t141 -23.5q64 0 121.5 22t106 63.5t87.5 101.5t66.5 135t42 164.5t14.5 191.5zM1092 1904q-10 -59 -28 -101t-44 -69 t-60 -39.5t-76 -12.5q-28 0 -58 2l-62 4l-61 5q-30 3 -54 3q-18 0 -31 -6t-23.5 -20t-20 -38t-19.5 -61l-103 21q10 58 26 100t39 70t55 42t75 14q26 0 56.5 -1.5t60.5 -3.5l59 -5q27 -2 49 -2t38 6t29 20t23.5 38t20.5 62z" />
<glyph unicode="&#xd6;" horiz-adv-x="1263" d="M1184 824q0 -114 -19 -221.5t-56 -201t-91 -171t-124 -133t-155 -85.5t-184 -30q-70 0 -133 12.5t-116 41t-95.5 74.5t-71.5 112t-45 154t-16 200q0 124 21 233t60 202t96 167t127.5 126t154.5 79.5t178 27.5q129 0 218 -42t145 -119t81 -185t25 -241zM1018 803 q0 109 -17 196t-55.5 147.5t-100 93t-151.5 32.5q-59 0 -115 -19t-106 -57t-92.5 -94t-72.5 -132t-47 -170t-17 -206q0 -134 23 -224t66 -144t106 -77.5t141 -23.5q64 0 121.5 22t106 63.5t87.5 101.5t66.5 135t42 164.5t14.5 191.5zM469 1618l8 213q20 0 40.5 -2.5t39.5 -7 t36 -10.5t29 -13l-38 -174zM884 1618l9 213q20 0 40.5 -2.5t39.5 -7t36 -10.5t29 -13l-36 -174z" />
<glyph unicode="&#xd7;" horiz-adv-x="870" d="M442 578l266 280l99 -86l-285 -297l222 -303l-111 -76l-207 287l-266 -287l-96 82l284 301l-225 305l113 78z" />
<glyph unicode="&#xd8;" horiz-adv-x="1282" d="M1057 1288q37 -38 62.5 -86t42 -106t23.5 -126t7 -146q0 -114 -19.5 -221.5t-57 -201t-92.5 -171t-125 -133t-155 -85.5t-184 -30q-68 0 -129.5 11.5t-111.5 39.5l-134 -229l-120 26l159 272q-33 34 -59 80t-44 104t-27 130t-9 160q0 124 21 233t60 202t96 167t127.5 126 t154.5 79.5t178 27.5q76 0 135.5 -14.5t107.5 -40.5l132 227l120 -29zM887 1222q-34 25 -81.5 37.5t-103.5 12.5q-59 0 -115 -19t-106.5 -57t-92.5 -95t-73 -132.5t-48 -170t-17 -208.5q0 -116 19 -195.5t53 -130.5zM1024 805q0 99 -15 179t-49 138l-564 -952 q37 -25 86.5 -35t103.5 -10q96 0 176 48.5t138 137.5t91 214.5t33 279.5z" />
<glyph unicode="&#xd9;" horiz-adv-x="1310" d="M1052 274q-2 -18 -3.5 -39t-2 -41.5t-1.5 -39t-1 -33.5q24 6 50 15.5t52 20.5t51.5 24.5l49.5 27.5l43 -93q-32 -26 -71 -49t-80 -40.5t-83 -28t-81 -10.5q-26 0 -44.5 4.5t-30.5 17t-18 33.5t-6 53q0 58 10 129t24 145q-83 -110 -151 -184t-128 -119t-116.5 -64 t-116.5 -19q-66 0 -115 16t-81 51t-47 88t-15 127q0 16 1 42.5t4 59t7 68.5l8 70l106 760l-198 -2l-4 106q38 6 83 9.5t93 6t99 3.5t101 1l-118 -854q-6 -36 -9.5 -70t-6 -62.5t-3 -51t-0.5 -38.5q0 -92 35.5 -136.5t111.5 -44.5q42 0 89 22.5t104.5 73t127 132t155.5 198.5 l96 825q38 3 78 5.5t78 4.5zM717 1573l-213 356l129 31l193 -354z" />
<glyph unicode="&#xda;" horiz-adv-x="1310" d="M1052 274q-2 -18 -3.5 -39t-2 -41.5t-1.5 -39t-1 -33.5q24 6 50 15.5t52 20.5t51.5 24.5l49.5 27.5l43 -93q-32 -26 -71 -49t-80 -40.5t-83 -28t-81 -10.5q-26 0 -44.5 4.5t-30.5 17t-18 33.5t-6 53q0 58 10 129t24 145q-83 -110 -151 -184t-128 -119t-116.5 -64 t-116.5 -19q-66 0 -115 16t-81 51t-47 88t-15 127q0 16 1 42.5t4 59t7 68.5l8 70l106 760l-198 -2l-4 106q38 6 83 9.5t93 6t99 3.5t101 1l-118 -854q-6 -36 -9.5 -70t-6 -62.5t-3 -51t-0.5 -38.5q0 -92 35.5 -136.5t111.5 -44.5q42 0 89 22.5t104.5 73t127 132t155.5 198.5 l96 825q38 3 78 5.5t78 4.5zM815 1573l-107 33l244 354l138 -31z" />
<glyph unicode="&#xdb;" horiz-adv-x="1310" d="M1052 274q-2 -18 -3.5 -39t-2 -41.5t-1.5 -39t-1 -33.5q24 6 50 15.5t52 20.5t51.5 24.5l49.5 27.5l43 -93q-32 -26 -71 -49t-80 -40.5t-83 -28t-81 -10.5q-26 0 -44.5 4.5t-30.5 17t-18 33.5t-6 53q0 58 10 129t24 145q-83 -110 -151 -184t-128 -119t-116.5 -64 t-116.5 -19q-66 0 -115 16t-81 51t-47 88t-15 127q0 16 1 42.5t4 59t7 68.5l8 70l106 760l-198 -2l-4 106q38 6 83 9.5t93 6t99 3.5t101 1l-118 -854q-6 -36 -9.5 -70t-6 -62.5t-3 -51t-0.5 -38.5q0 -92 35.5 -136.5t111.5 -44.5q42 0 89 22.5t104.5 73t127 132t155.5 198.5 l96 825q38 3 78 5.5t78 4.5zM878 1960l150 -364l-127 -13l-98 250l-177 -252l-110 15l262 360z" />
<glyph unicode="&#xdc;" horiz-adv-x="1310" d="M1052 274q-2 -18 -3.5 -39t-2 -41.5t-1.5 -39t-1 -33.5q24 6 50 15.5t52 20.5t51.5 24.5l49.5 27.5l43 -93q-32 -26 -71 -49t-80 -40.5t-83 -28t-81 -10.5q-26 0 -44.5 4.5t-30.5 17t-18 33.5t-6 53q0 58 10 129t24 145q-83 -110 -151 -184t-128 -119t-116.5 -64 t-116.5 -19q-66 0 -115 16t-81 51t-47 88t-15 127q0 16 1 42.5t4 59t7 68.5l8 70l106 760l-198 -2l-4 106q38 6 83 9.5t93 6t99 3.5t101 1l-118 -854q-6 -36 -9.5 -70t-6 -62.5t-3 -51t-0.5 -38.5q0 -92 35.5 -136.5t111.5 -44.5q42 0 89 22.5t104.5 73t127 132t155.5 198.5 l96 825q38 3 78 5.5t78 4.5zM504 1618l8 213q20 0 40 -2.5t39 -7t36 -10.5t31 -13l-40 -174zM920 1618l8 213q20 0 40 -2.5t39 -7t36 -10.5t30 -13l-37 -174z" />
<glyph unicode="&#xdd;" horiz-adv-x="987" d="M514 0h-158l64 612l-215 654l-177 -2l-4 108q39 6 80.5 9.5t82.5 6t79 3.5t70 1l198 -616l250 385q34 54 62.5 94.5t54 70.5t50.5 52t52 36t58 23t71 15l17 -112q-30 -8 -51.5 -18t-41.5 -23.5t-38 -33t-40 -48.5t-50 -70l-64 -97l-284 -428zM727 1571l-107 33l244 354 l138 -31z" />
<glyph unicode="&#xde;" horiz-adv-x="1069" d="M868 805q0 58 -16.5 107t-55 84.5t-100 55t-151.5 19.5h-25q-16 0 -32 -0.5t-31 -0.5t-23 -1l-62 -602q39 -8 80.5 -11.5t77.5 -3.5q76 0 138.5 24.5t107 70t68.5 111t24 147.5zM312 1396l157 13l-21 -213q12 1 25 1l27 1h28h25q92 0 163.5 -13t123.5 -37t87.5 -58 t57 -76t30.5 -90t9 -100q0 -116 -38 -207.5t-106.5 -155t-162 -97.5t-205.5 -34q-23 0 -42.5 0.5t-37.5 2t-35 4l-37 5.5l-38 -342h-164l114 1061q-20 -2 -47 -5.5l-55 -7.5t-54 -9l-46 -9l-29 106q45 16 108.5 29t139.5 21z" />
<glyph unicode="&#xdf;" horiz-adv-x="1050" d="M209 889q12 122 55.5 220.5t110.5 167.5t153 106t184 37q68 0 118 -18t83 -49t49.5 -70.5t16.5 -82.5q0 -20 -2.5 -38t-8.5 -37t-18.5 -38.5t-33 -44t-49.5 -53.5l-71 -67q-30 -28 -50 -50t-31 -39t-16 -32t-5 -31q0 -18 3.5 -35t14 -37.5t29.5 -48t51 -69.5 q49 -62 82 -109.5t52.5 -86.5t27.5 -73.5t8 -72.5q0 -57 -21 -103.5t-60 -79t-93 -50t-118 -17.5q-88 0 -156 28t-121 86l70 103q46 -44 101 -68.5t114 -24.5q34 0 60 10t44 26t26.5 37t8.5 43t-6 44t-20.5 50t-39 63.5t-61.5 81.5q-45 57 -73 98t-43.5 73t-21 58t-5.5 54 q0 26 5.5 49t20.5 49t41.5 57t69.5 70l76.5 72t45.5 51t22 39t6 35q0 27 -9 50.5t-26 40.5t-43 27t-60 10q-66 0 -124 -27.5t-105 -83t-78 -138.5t-41 -195l-112 -1249h-132q-3 23 -3.5 43.5t-0.5 42.5q0 10 1 26.5l2 34.5l2 36t3 32z" />
<glyph unicode="&#xe0;" horiz-adv-x="1003" d="M708 903q11 38 26.5 71.5t31.5 55.5l96 -16l-82 -780q-2 -22 -3.5 -40t-2.5 -33t-1.5 -28t-0.5 -27q17 3 36.5 8t40 11.5t40 13.5t37.5 15l30 -84q-26 -18 -56 -33.5t-63 -26t-67 -16.5t-66 -6q-46 0 -69 18t-23 62q0 12 3 38.5l7 62t9 75.5l12 80q-66 -92 -116.5 -156 t-92 -104t-76 -58t-67.5 -18q-46 0 -83 26.5t-62.5 76t-39.5 120.5t-14 159q0 78 12 153t36 142.5t59 124t79 97.5t98 64.5t116 23.5q26 0 49 -3.5t48 -11.5t54 -21.5t65 -35.5zM692 784q-57 34 -103.5 51t-86.5 17q-48 0 -85.5 -18.5t-66 -51t-49 -77t-33 -97t-18.5 -110.5 t-6 -117q0 -54 6 -95t18 -71.5t28 -50.5t36 -33q32 23 71.5 62.5t82 90l87.5 108.5t87 120zM510 1134l-213 357l129 31l192 -354z" />
<glyph unicode="&#xe1;" horiz-adv-x="1003" d="M708 903q11 38 26.5 71.5t31.5 55.5l96 -16l-82 -780q-2 -22 -3.5 -40t-2.5 -33t-1.5 -28t-0.5 -27q17 3 36.5 8t40 11.5t40 13.5t37.5 15l30 -84q-26 -18 -56 -33.5t-63 -26t-67 -16.5t-66 -6q-46 0 -69 18t-23 62q0 12 3 38.5l7 62t9 75.5l12 80q-66 -92 -116.5 -156 t-92 -104t-76 -58t-67.5 -18q-46 0 -83 26.5t-62.5 76t-39.5 120.5t-14 159q0 78 12 153t36 142.5t59 124t79 97.5t98 64.5t116 23.5q26 0 49 -3.5t48 -11.5t54 -21.5t65 -35.5zM692 784q-57 34 -103.5 51t-86.5 17q-48 0 -85.5 -18.5t-66 -51t-49 -77t-33 -97t-18.5 -110.5 t-6 -117q0 -54 6 -95t18 -71.5t28 -50.5t36 -33q32 23 71.5 62.5t82 90l87.5 108.5t87 120zM633 1134l-107 34l244 354l138 -31z" />
<glyph unicode="&#xe2;" horiz-adv-x="1003" d="M708 903q11 38 26.5 71.5t31.5 55.5l96 -16l-82 -780q-2 -22 -3.5 -40t-2.5 -33t-1.5 -28t-0.5 -27q17 3 36.5 8t40 11.5t40 13.5t37.5 15l30 -84q-26 -18 -56 -33.5t-63 -26t-67 -16.5t-66 -6q-46 0 -69 18t-23 62q0 12 3 38.5l7 62t9 75.5l12 80q-66 -92 -116.5 -156 t-92 -104t-76 -58t-67.5 -18q-46 0 -83 26.5t-62.5 76t-39.5 120.5t-14 159q0 78 12 153t36 142.5t59 124t79 97.5t98 64.5t116 23.5q26 0 49 -3.5t48 -11.5t54 -21.5t65 -35.5zM692 784q-57 34 -103.5 51t-86.5 17q-48 0 -85.5 -18.5t-66 -51t-49 -77t-33 -97t-18.5 -110.5 t-6 -117q0 -54 6 -95t18 -71.5t28 -50.5t36 -33q32 23 71.5 62.5t82 90l87.5 108.5t87 120zM668 1522l149 -365l-127 -12l-98 249l-176 -251l-111 14l263 361z" />
<glyph unicode="&#xe3;" horiz-adv-x="1003" d="M708 903q11 38 26.5 71.5t31.5 55.5l96 -16l-82 -780q-2 -22 -3.5 -40t-2.5 -33t-1.5 -28t-0.5 -27q17 3 36.5 8t40 11.5t40 13.5t37.5 15l30 -84q-26 -18 -56 -33.5t-63 -26t-67 -16.5t-66 -6q-46 0 -69 18t-23 62q0 12 3 38.5l7 62t9 75.5l12 80q-66 -92 -116.5 -156 t-92 -104t-76 -58t-67.5 -18q-46 0 -83 26.5t-62.5 76t-39.5 120.5t-14 159q0 78 12 153t36 142.5t59 124t79 97.5t98 64.5t116 23.5q26 0 49 -3.5t48 -11.5t54 -21.5t65 -35.5zM692 784q-57 34 -103.5 51t-86.5 17q-48 0 -85.5 -18.5t-66 -51t-49 -77t-33 -97t-18.5 -110.5 t-6 -117q0 -54 6 -95t18 -71.5t28 -50.5t36 -33q32 23 71.5 62.5t82 90l87.5 108.5t87 120zM897 1466q-10 -59 -28 -101.5t-43.5 -69.5t-59.5 -39.5t-76 -12.5q-27 0 -58 2.5l-62.5 5l-61.5 5t-54 2.5q-18 0 -31 -6t-23.5 -20t-20 -38t-19.5 -62l-102 21q10 58 25.5 100.5 t39 70.5t55.5 42t74 14q26 0 57 -2l61 -4l58 -4q28 -2 50 -2t38 6t29 20t23 38t20 61z" />
<glyph unicode="&#xe4;" horiz-adv-x="1003" d="M708 903q11 38 26.5 71.5t31.5 55.5l96 -16l-82 -780q-2 -22 -3.5 -40t-2.5 -33t-1.5 -28t-0.5 -27q17 3 36.5 8t40 11.5t40 13.5t37.5 15l30 -84q-26 -18 -56 -33.5t-63 -26t-67 -16.5t-66 -6q-46 0 -69 18t-23 62q0 12 3 38.5l7 62t9 75.5l12 80q-66 -92 -116.5 -156 t-92 -104t-76 -58t-67.5 -18q-46 0 -83 26.5t-62.5 76t-39.5 120.5t-14 159q0 78 12 153t36 142.5t59 124t79 97.5t98 64.5t116 23.5q26 0 49 -3.5t48 -11.5t54 -21.5t65 -35.5zM692 784q-57 34 -103.5 51t-86.5 17q-48 0 -85.5 -18.5t-66 -51t-49 -77t-33 -97t-18.5 -110.5 t-6 -117q0 -54 6 -95t18 -71.5t28 -50.5t36 -33q32 23 71.5 62.5t82 90l87.5 108.5t87 120zM307 1180l9 212q20 0 40 -2t39 -6.5t36 -10.5t30 -13l-39 -174zM723 1180l8 212q20 0 40.5 -2t39.5 -6.5t36 -10.5t29 -13l-36 -174z" />
<glyph unicode="&#xe5;" horiz-adv-x="1003" d="M708 903q11 38 26.5 71.5t31.5 55.5l96 -16l-82 -780q-2 -22 -3.5 -40t-2.5 -33t-1.5 -28t-0.5 -27q17 3 36.5 8t40 11.5t40 13.5t37.5 15l30 -84q-26 -18 -56 -33.5t-63 -26t-67 -16.5t-66 -6q-46 0 -69 18t-23 62q0 12 3 38.5l7 62t9 75.5l12 80q-66 -92 -116.5 -156 t-92 -104t-76 -58t-67.5 -18q-46 0 -83 26.5t-62.5 76t-39.5 120.5t-14 159q0 78 12 153t36 142.5t59 124t79 97.5t98 64.5t116 23.5q26 0 49 -3.5t48 -11.5t54 -21.5t65 -35.5zM692 784q-57 34 -103.5 51t-86.5 17q-48 0 -85.5 -18.5t-66 -51t-49 -77t-33 -97t-18.5 -110.5 t-6 -117q0 -54 6 -95t18 -71.5t28 -50.5t36 -33q32 23 71.5 62.5t82 90l87.5 108.5t87 120zM408 1292q0 42 14 78t40 63t61 42.5t77 15.5t73 -10.5t52 -30.5t32 -48t11 -62q0 -42 -13.5 -78.5t-39 -64t-61.5 -43.5t-82 -16q-82 0 -123 40t-41 114zM512 1298q0 -36 16 -55 t54 -19q39 0 61.5 28t22.5 77q0 16 -4.5 29.5t-13 23.5t-22.5 15.5t-32 5.5t-33 -8t-26 -22t-17 -33.5t-6 -41.5z" />
<glyph unicode="&#xe6;" horiz-adv-x="1364" d="M604 400q-86 -12 -148.5 -23t-106 -22t-70.5 -23t-42 -26t-20.5 -30t-5.5 -34q0 -39 8 -65.5t23.5 -42.5t38 -23t51.5 -7q32 0 68 12t71 33t69 51t62 68q-2 24 -2 40v32q0 14 1 31t3 29zM1104 762q0 20 -5 37.5t-17 30t-29 19.5t-43 7q-56 0 -114.5 -41t-117.5 -127 l-16 -164q90 16 155 39t106.5 52.5t61 66t19.5 80.5zM750 344q3 -62 16 -105t35 -70t52.5 -38.5t68.5 -11.5q40 0 80 12.5t81 41t84 73t87 106.5l88 -66q-52 -78 -105.5 -134t-109 -93t-113.5 -54t-121 -17q-50 0 -90.5 10t-72.5 31.5t-56 54t-43 76.5q-64 -80 -149.5 -125 t-188.5 -45q-54 0 -96.5 14t-72.5 43.5t-46 76t-16 112.5q0 36 8.5 66t31 55t62.5 47t101 40t148 33t203 27l11 72q4 31 6.5 54t4 40.5t1.5 29.5q0 38 -11 65.5t-30.5 45.5t-47.5 26.5t-60 8.5t-64 -4.5t-67 -17t-76 -36.5t-89 -61l-32 46l-33 46q54 44 102.5 73.5 t96.5 47.5t99 25.5t109 7.5q50 0 88 -11.5t65.5 -30.5t45 -46t25.5 -57q32 40 65 68t68.5 46t74 26.5t80.5 8.5q47 0 83.5 -13.5t62 -37t38.5 -57t13 -73.5q0 -43 -10.5 -82.5t-33.5 -76.5t-61 -69t-93 -60t-128 -50.5t-167 -39.5q-2 -19 -2 -38v-36z" />
<glyph unicode="&#xe7;" horiz-adv-x="788" d="M680 824q-34 9 -78 14.5t-90 5.5q-62 0 -111.5 -31t-84 -89.5t-53.5 -143t-19 -191.5q0 -72 10 -122t29 -81.5t44 -46t54 -14.5q32 0 62.5 13.5t65.5 43t76 77.5t93 118l90 -74q-78 -122 -154 -194.5t-151 -100.5q7 -26 12.5 -52t9.5 -52.5t6.5 -51t2.5 -44.5 q0 -28 -7 -56t-22 -52t-41 -44t-64 -35t-89 -24t-119 -11l-17 107q67 4 108 13.5t64 23.5t31 32t8 40q0 13 -1.5 33t-4 45t-6.5 53.5l-8 56.5q-53 4 -96.5 29t-74.5 71t-48 113t-17 159q0 91 14 172.5t41 149.5t66 122.5t88 92t108 58t125 20.5q60 0 107 -10.5t80 -30.5z " />
<glyph unicode="&#xe8;" horiz-adv-x="856" d="M834 286q-52 -78 -105 -134t-108.5 -93t-114 -54t-121.5 -17q-70 0 -124.5 22t-92.5 68t-58 116t-20 166q0 142 32 256.5t91 194.5t142 123t183 43q51 0 88.5 -13.5t62.5 -38t37 -59t12 -78.5q0 -34 -8.5 -68t-29 -69.5t-56.5 -72t-91 -74.5t-132 -78t-179 -82 q3 -62 16 -105t35.5 -70t52.5 -38.5t68 -11.5q40 0 80 12.5t81 41t84 73t87 106.5zM596 760q0 49 -22 72.5t-72 23.5q-52 0 -98 -27t-81 -78t-57 -124t-26 -164q98 40 166 80.5t110 78.5t61 73t19 65zM492 1134l-214 357l130 31l192 -354z" />
<glyph unicode="&#xe9;" horiz-adv-x="856" d="M834 286q-52 -78 -105 -134t-108.5 -93t-114 -54t-121.5 -17q-70 0 -124.5 22t-92.5 68t-58 116t-20 166q0 142 32 256.5t91 194.5t142 123t183 43q51 0 88.5 -13.5t62.5 -38t37 -59t12 -78.5q0 -34 -8.5 -68t-29 -69.5t-56.5 -72t-91 -74.5t-132 -78t-179 -82 q3 -62 16 -105t35.5 -70t52.5 -38.5t68 -11.5q40 0 80 12.5t81 41t84 73t87 106.5zM596 760q0 49 -22 72.5t-72 23.5q-52 0 -98 -27t-81 -78t-57 -124t-26 -164q98 40 166 80.5t110 78.5t61 73t19 65zM594 1134l-106 34l243 354l137 -31z" />
<glyph unicode="&#xea;" horiz-adv-x="856" d="M834 286q-52 -78 -105 -134t-108.5 -93t-114 -54t-121.5 -17q-70 0 -124.5 22t-92.5 68t-58 116t-20 166q0 142 32 256.5t91 194.5t142 123t183 43q51 0 88.5 -13.5t62.5 -38t37 -59t12 -78.5q0 -34 -8.5 -68t-29 -69.5t-56.5 -72t-91 -74.5t-132 -78t-179 -82 q3 -62 16 -105t35.5 -70t52.5 -38.5t68 -11.5q40 0 80 12.5t81 41t84 73t87 106.5zM596 760q0 49 -22 72.5t-72 23.5q-52 0 -98 -27t-81 -78t-57 -124t-26 -164q98 40 166 80.5t110 78.5t61 73t19 65zM645 1522l149 -365l-126 -12l-98 249l-177 -251l-111 14l263 361z" />
<glyph unicode="&#xeb;" horiz-adv-x="856" d="M834 286q-52 -78 -105 -134t-108.5 -93t-114 -54t-121.5 -17q-70 0 -124.5 22t-92.5 68t-58 116t-20 166q0 142 32 256.5t91 194.5t142 123t183 43q51 0 88.5 -13.5t62.5 -38t37 -59t12 -78.5q0 -34 -8.5 -68t-29 -69.5t-56.5 -72t-91 -74.5t-132 -78t-179 -82 q3 -62 16 -105t35.5 -70t52.5 -38.5t68 -11.5q40 0 80 12.5t81 41t84 73t87 106.5zM596 760q0 49 -22 72.5t-72 23.5q-52 0 -98 -27t-81 -78t-57 -124t-26 -164q98 40 166 80.5t110 78.5t61 73t19 65zM276 1180l8 212q20 0 41 -2t40 -6.5t35.5 -10.5t29.5 -13l-39 -174z M692 1180l8 212q20 0 40.5 -2t39.5 -6.5t36 -10.5t30 -13l-37 -174z" />
<glyph unicode="&#xec;" horiz-adv-x="461" d="M254 0h-150l101 950l123 6q6 -20 9 -44.5t3 -49.5q0 -22 -2 -50l-6 -60zM252 1134l-213 357l129 31l192 -354z" />
<glyph unicode="&#xed;" horiz-adv-x="461" d="M254 0h-150l101 950l123 6q6 -20 9 -44.5t3 -49.5q0 -22 -2 -50l-6 -60zM354 1134l-106 34l244 354l136 -31z" />
<glyph unicode="&#xee;" horiz-adv-x="461" d="M254 0h-150l101 950l123 6q6 -20 9 -44.5t3 -49.5q0 -22 -2 -50l-6 -60zM404 1522l149 -365l-127 -12l-98 249l-176 -251l-111 14l262 361z" />
<glyph unicode="&#xef;" horiz-adv-x="461" d="M51 1180l9 212q20 0 40 -2t39 -6.5t36 -10.5t30 -13l-39 -174zM426 1180l8 212q20 0 40.5 -2t39.5 -6.5t35.5 -10.5t30.5 -13l-38 -174zM254 0h-150l101 950l123 6q6 -20 9 -44.5t3 -49.5q0 -22 -2 -50l-6 -60z" />
<glyph unicode="&#xf0;" horiz-adv-x="960" d="M576 1542q71 -54 119.5 -115t78.5 -121l190 72l36 -106l-187 -70q10 -35 18.5 -75.5t15.5 -85t11 -91t4 -94.5q0 -211 -35.5 -373.5t-101 -272.5t-157.5 -166t-206 -56q-68 0 -119.5 20t-87 64t-53.5 113t-18 167q0 123 26 219.5t75 162.5t118.5 100t155.5 34 q50 0 113.5 -18t135.5 -58q0 7 0.5 14t1 15.5t0.5 19.5v27q0 36 -3.5 75t-9 76t-11.5 71t-14 59l-256 -99l-35 107l252 97q-13 26 -31 54t-40 56t-47 54t-52 48zM702 672q-39 20 -72.5 34t-63 23t-55.5 13t-50 4q-57 0 -99 -27t-70 -76t-41 -119t-13 -158q0 -70 10 -118 t29.5 -78t49 -44t69.5 -14q58 0 110 41t93 115t68 177t35 227z" />
<glyph unicode="&#xf1;" horiz-adv-x="1028" d="M123 0q-3 23 -3.5 43.5t-0.5 42.5q0 10 0.5 26t1.5 34.5t3 36.5t3 32l80 735l125 6q2 -16 3 -28.5l2 -25t1 -24.5v-26q0 -10 -1 -23t-2 -28l-2 -31l-3 -28l-16 -142q72 106 129.5 178t105 115t85.5 61.5t72 18.5q42 0 71.5 -13.5t48 -38.5t27.5 -61t9 -80 q0 -17 -1.5 -39.5t-4.5 -48.5l-58 -458q-4 -44 -6 -74t-2 -54q46 10 84 21t76 27l31 -84q-23 -16 -52 -31t-61 -26.5t-66 -18t-67 -6.5q-22 0 -40.5 4t-31.5 16t-20.5 32.5t-7.5 53.5q0 24 2.5 56t7.5 69l57 433q3 22 4.5 39t1.5 30q0 40 -7 67.5t-31 45.5q-28 -12 -68 -47 t-87.5 -89.5t-102.5 -128t-115 -165.5l-43 -404h-131zM918 1466q-10 -59 -28 -101.5t-44 -69.5t-60 -39.5t-76 -12.5q-27 0 -57.5 2.5l-62.5 5l-61.5 5t-53.5 2.5q-18 0 -31 -6t-23.5 -20t-20 -38t-19.5 -62l-103 21q10 58 26 100.5t39 70.5t55 42t75 14q26 0 56.5 -2 l60.5 -4l59 -4q27 -2 49 -2t38 6t29 20t23.5 38t20.5 61z" />
<glyph unicode="&#xf2;" horiz-adv-x="932" d="M842 570q0 -72 -12 -143.5t-36 -136t-60 -120t-85 -96t-110 -63.5t-135 -23q-84 0 -143.5 23.5t-97.5 74t-55.5 128.5t-17.5 188q0 82 14 156t40.5 138t65 116t87.5 88.5t108 56.5t125 20q86 0 145 -26.5t96 -78.5t54 -127.5t17 -174.5zM688 551q0 42 -3 81t-10 72.5 t-20 60.5t-32.5 46.5t-47 30t-65.5 10.5q-52 0 -101 -27t-86 -82t-59 -137t-22 -190q0 -82 10 -140t32 -94.5t57 -54t83 -17.5q58 0 107 33t83.5 92t54 139.5t19.5 176.5zM504 1134l-213 357l129 31l192 -354z" />
<glyph unicode="&#xf3;" horiz-adv-x="932" d="M842 570q0 -72 -12 -143.5t-36 -136t-60 -120t-85 -96t-110 -63.5t-135 -23q-84 0 -143.5 23.5t-97.5 74t-55.5 128.5t-17.5 188q0 82 14 156t40.5 138t65 116t87.5 88.5t108 56.5t125 20q86 0 145 -26.5t96 -78.5t54 -127.5t17 -174.5zM688 551q0 42 -3 81t-10 72.5 t-20 60.5t-32.5 46.5t-47 30t-65.5 10.5q-52 0 -101 -27t-86 -82t-59 -137t-22 -190q0 -82 10 -140t32 -94.5t57 -54t83 -17.5q58 0 107 33t83.5 92t54 139.5t19.5 176.5zM628 1134l-106 34l244 354l137 -31z" />
<glyph unicode="&#xf4;" horiz-adv-x="932" d="M842 570q0 -72 -12 -143.5t-36 -136t-60 -120t-85 -96t-110 -63.5t-135 -23q-84 0 -143.5 23.5t-97.5 74t-55.5 128.5t-17.5 188q0 82 14 156t40.5 138t65 116t87.5 88.5t108 56.5t125 20q86 0 145 -26.5t96 -78.5t54 -127.5t17 -174.5zM688 551q0 42 -3 81t-10 72.5 t-20 60.5t-32.5 46.5t-47 30t-65.5 10.5q-52 0 -101 -27t-86 -82t-59 -137t-22 -190q0 -82 10 -140t32 -94.5t57 -54t83 -17.5q58 0 107 33t83.5 92t54 139.5t19.5 176.5zM658 1522l149 -365l-127 -12l-98 249l-176 -251l-111 14l262 361z" />
<glyph unicode="&#xf5;" horiz-adv-x="932" d="M842 570q0 -72 -12 -143.5t-36 -136t-60 -120t-85 -96t-110 -63.5t-135 -23q-84 0 -143.5 23.5t-97.5 74t-55.5 128.5t-17.5 188q0 82 14 156t40.5 138t65 116t87.5 88.5t108 56.5t125 20q86 0 145 -26.5t96 -78.5t54 -127.5t17 -174.5zM688 551q0 42 -3 81t-10 72.5 t-20 60.5t-32.5 46.5t-47 30t-65.5 10.5q-52 0 -101 -27t-86 -82t-59 -137t-22 -190q0 -82 10 -140t32 -94.5t57 -54t83 -17.5q58 0 107 33t83.5 92t54 139.5t19.5 176.5zM889 1466q-10 -59 -28.5 -101.5t-44 -69.5t-59 -39.5t-75.5 -12.5q-27 0 -58 2.5l-62.5 5l-61.5 5 t-54 2.5q-18 0 -31 -6t-23.5 -20t-20 -38t-19.5 -62l-102 21q10 58 25.5 100.5t39 70.5t55.5 42t74 14q26 0 57 -2l61 -4l58 -4q28 -2 50 -2t38 6t29 20t23 38t20 61z" />
<glyph unicode="&#xf6;" horiz-adv-x="932" d="M842 570q0 -72 -12 -143.5t-36 -136t-60 -120t-85 -96t-110 -63.5t-135 -23q-84 0 -143.5 23.5t-97.5 74t-55.5 128.5t-17.5 188q0 82 14 156t40.5 138t65 116t87.5 88.5t108 56.5t125 20q86 0 145 -26.5t96 -78.5t54 -127.5t17 -174.5zM688 551q0 42 -3 81t-10 72.5 t-20 60.5t-32.5 46.5t-47 30t-65.5 10.5q-52 0 -101 -27t-86 -82t-59 -137t-22 -190q0 -82 10 -140t32 -94.5t57 -54t83 -17.5q58 0 107 33t83.5 92t54 139.5t19.5 176.5zM284 1180l9 212q20 0 40.5 -2t39.5 -6.5t36 -10.5t29 -13l-38 -174zM700 1180l8 212q20 0 40.5 -2 t39.5 -6.5t36 -10.5t30 -13l-37 -174z" />
<glyph unicode="&#xf7;" horiz-adv-x="1124" d="M672 844q0 -24 -9 -43t-24 -35q-16 -17 -35.5 -25t-42.5 -8t-42 8t-35 25q-17 16 -25.5 35t-8.5 43q0 23 8 42.5t26 35.5q16 17 35 24.5t42 7.5q24 0 43.5 -8t34.5 -24q16 -16 24.5 -35.5t8.5 -42.5zM1088 576v-99h-1051v99h1051zM674 205q0 -24 -9 -43.5t-24 -36.5 q-17 -16 -37 -24.5t-43 -8.5t-42 9t-35 24q-16 17 -25 37t-9 43t9 42t25 35q33 34 77 34q47 0 80 -34q16 -17 24.5 -35.5t8.5 -41.5z" />
<glyph unicode="&#xf8;" horiz-adv-x="932" d="M758 887q44 -52 64 -131.5t20 -185.5q0 -72 -12 -143.5t-36 -136t-60 -120t-85 -96t-110 -63.5t-135 -23q-82 0 -136 20l-98 -176l-121 10l127 228q-44 50 -65 132t-21 200q0 82 14 156t40.5 138t65 116t87.5 88.5t108 56.5t125 20q38 0 72 -6.5t64 -16.5l102 184 l125 -10zM242 416q0 -120 24 -193l336 607q-18 9 -42 15.5t-50 6.5q-52 0 -101 -27t-86 -82t-59 -136.5t-22 -190.5zM688 551q0 50 -5 97.5t-15 84.5l-338 -602q19 -9 43.5 -15t50.5 -6q58 0 107 33t83.5 92t54 139.5t19.5 176.5z" />
<glyph unicode="&#xf9;" horiz-adv-x="1005" d="M200 954l132 6q3 -23 3.5 -43.5t0.5 -42.5q0 -10 -1 -26t-3 -34l-3 -36q-1 -18 -3 -32l-58 -439q-4 -22 -5 -39.5t-1 -29.5q0 -40 8 -68t31 -45q32 14 73 47t88.5 83.5t100.5 118.5t107 150l47 430l133 6q3 -23 3.5 -43.5t0.5 -42.5q0 -10 -1 -26t-2.5 -34l-3 -36 t-3.5 -32l-56 -512q-4 -44 -6 -74t-2 -54q46 10 84 21t76 27l31 -84q-23 -16 -52 -31t-61 -26.5t-66 -18t-67 -6.5q-22 0 -40.5 4t-32 16t-21 32.5t-7.5 53.5q0 10 2 29t4 42t5 49t6 48.5t6 40t5 25.5q-64 -94 -118.5 -159t-102 -106t-88.5 -59t-79 -18q-42 0 -71 13t-48 38 t-28 61t-9 80q0 17 2 39.5t4 48.5zM506 1134l-213 357l129 31l192 -354z" />
<glyph unicode="&#xfa;" horiz-adv-x="1005" d="M200 954l132 6q3 -23 3.5 -43.5t0.5 -42.5q0 -10 -1 -26t-3 -34l-3 -36q-1 -18 -3 -32l-58 -439q-4 -22 -5 -39.5t-1 -29.5q0 -40 8 -68t31 -45q32 14 73 47t88.5 83.5t100.5 118.5t107 150l47 430l133 6q3 -23 3.5 -43.5t0.5 -42.5q0 -10 -1 -26t-2.5 -34l-3 -36 t-3.5 -32l-56 -512q-4 -44 -6 -74t-2 -54q46 10 84 21t76 27l31 -84q-23 -16 -52 -31t-61 -26.5t-66 -18t-67 -6.5q-22 0 -40.5 4t-32 16t-21 32.5t-7.5 53.5q0 10 2 29t4 42t5 49t6 48.5t6 40t5 25.5q-64 -94 -118.5 -159t-102 -106t-88.5 -59t-79 -18q-42 0 -71 13t-48 38 t-28 61t-9 80q0 17 2 39.5t4 48.5zM612 1134l-106 34l244 354l137 -31z" />
<glyph unicode="&#xfb;" horiz-adv-x="1005" d="M200 954l132 6q3 -23 3.5 -43.5t0.5 -42.5q0 -10 -1 -26t-3 -34l-3 -36q-1 -18 -3 -32l-58 -439q-4 -22 -5 -39.5t-1 -29.5q0 -40 8 -68t31 -45q32 14 73 47t88.5 83.5t100.5 118.5t107 150l47 430l133 6q3 -23 3.5 -43.5t0.5 -42.5q0 -10 -1 -26t-2.5 -34l-3 -36 t-3.5 -32l-56 -512q-4 -44 -6 -74t-2 -54q46 10 84 21t76 27l31 -84q-23 -16 -52 -31t-61 -26.5t-66 -18t-67 -6.5q-22 0 -40.5 4t-32 16t-21 32.5t-7.5 53.5q0 10 2 29t4 42t5 49t6 48.5t6 40t5 25.5q-64 -94 -118.5 -159t-102 -106t-88.5 -59t-79 -18q-42 0 -71 13t-48 38 t-28 61t-9 80q0 17 2 39.5t4 48.5zM666 1522l149 -365l-127 -12l-98 249l-176 -251l-111 14l262 361z" />
<glyph unicode="&#xfc;" horiz-adv-x="1005" d="M200 954l132 6q3 -23 3.5 -43.5t0.5 -42.5q0 -10 -1 -26t-3 -34l-3 -36q-1 -18 -3 -32l-58 -439q-4 -22 -5 -39.5t-1 -29.5q0 -40 8 -68t31 -45q32 14 73 47t88.5 83.5t100.5 118.5t107 150l47 430l133 6q3 -23 3.5 -43.5t0.5 -42.5q0 -10 -1 -26t-2.5 -34l-3 -36 t-3.5 -32l-56 -512q-4 -44 -6 -74t-2 -54q46 10 84 21t76 27l31 -84q-23 -16 -52 -31t-61 -26.5t-66 -18t-67 -6.5q-22 0 -40.5 4t-32 16t-21 32.5t-7.5 53.5q0 10 2 29t4 42t5 49t6 48.5t6 40t5 25.5q-64 -94 -118.5 -159t-102 -106t-88.5 -59t-79 -18q-42 0 -71 13t-48 38 t-28 61t-9 80q0 17 2 39.5t4 48.5zM289 1180l8 212q20 0 40.5 -2t39.5 -6.5t36 -10.5t29 -13l-38 -174zM704 1180l8 212q20 0 41 -2t40 -6.5t35.5 -10.5t29.5 -13l-37 -174z" />
<glyph unicode="&#xfd;" horiz-adv-x="866" d="M-86 -260q73 12 134.5 33t114.5 52t98 74t85 99q-14 65 -34 141.5l-43 159t-50 167.5l-55 166l-54 156l-52 138l134 40q22 -44 46 -103t49 -128l49 -145l47 -151q22 -75 40.5 -146t32.5 -133q46 90 79 164.5t54 144.5t30 139.5t9 145.5q0 38 -5 89t-15 107l130 14 q7 -18 12.5 -42t10 -50t7 -53t2.5 -53q0 -78 -10 -153t-34 -155.5t-63.5 -170t-99.5 -195.5q-65 -114 -133 -198t-143.5 -141t-161 -90t-185.5 -46zM526 1134l-106 34l244 354l137 -31z" />
<glyph unicode="&#xfe;" horiz-adv-x="979" d="M444 -10q-26 0 -47 2t-42 6t-42 11t-47 17l-47 -419h-133q-3 23 -3.5 43.5t-0.5 42.5q0 10 1 26.5t2.5 34.5l3 36t3.5 32l162 1438l116 6q8 -20 11.5 -48t3.5 -54q0 -37 -6 -93l-51 -430l100 135q48 62 92 106t84 68.5t78 24.5q40 0 76 -25.5t64 -76.5t44 -125t16 -172 q0 -76 -14 -149t-41.5 -138t-66 -120t-87.5 -95t-107 -62t-122 -22zM276 168q28 -18 53 -29t46 -17t41 -9t38 -3q46 0 84 17.5t69 48t54 72.5t39 92t23.5 105t7.5 112q0 49 -5.5 92t-17.5 79t-29 62t-40 42q-32 -23 -70.5 -61.5t-81 -88t-87 -109l-88.5 -123.5z" />
<glyph unicode="&#xff;" horiz-adv-x="866" d="M-86 -260q73 12 134.5 33t114.5 52t98 74t85 99q-14 65 -34 141.5l-43 159t-50 167.5l-55 166l-54 156l-52 138l134 40q22 -44 46 -103t49 -128l49 -145l47 -151q22 -75 40.5 -146t32.5 -133q46 90 79 164.5t54 144.5t30 139.5t9 145.5q0 38 -5 89t-15 107l130 14 q7 -18 12.5 -42t10 -50t7 -53t2.5 -53q0 -78 -10 -153t-34 -155.5t-63.5 -170t-99.5 -195.5q-65 -114 -133 -198t-143.5 -141t-161 -90t-185.5 -46zM184 1180l8 212q20 0 40.5 -2t39.5 -6.5t36 -10.5t30 -13l-39 -174zM600 1180l8 212q20 0 40.5 -2t39.5 -6.5t35.5 -10.5 t30.5 -13l-37 -174z" />
<glyph unicode="&#x152;" horiz-adv-x="1835" d="M1728 1388l-16 -124h-532l-60 -531h438l-14 -125h-438l-49 -479q74 0 145 -1t133 -2t111.5 -2t79.5 -1q22 0 38 3t30 11.5t25 22.5t22 36t24 54t27 74l112 -31q-16 -61 -31 -107t-33.5 -79t-42 -54t-55.5 -34t-74 -18t-98 -5h-22t-40 0.5t-53 1t-59.5 0.5t-60.5 0.5 t-55.5 1t-45.5 0.5h-30h-226l4 45l4 40q2 21 5 36q-37 -37 -79 -63t-88 -42.5t-95 -24t-101 -7.5q-64 0 -122 13t-108 42.5t-91 76t-69.5 112t-44 152t-15.5 196.5q0 126 21.5 237t61.5 203.5t97 166t127.5 124t154 77.5t175.5 27q56 0 102 -8.5t83.5 -25t67.5 -39t54 -50.5 l12 100h694zM692 1266q-59 0 -115 -19t-106 -56t-91.5 -93t-72 -130.5t-47 -168.5t-16.5 -207q0 -88 10 -157t30 -121t48.5 -88t65.5 -58.5t82.5 -32.5t97.5 -10q50 0 95 12.5t87 35.5t81 56.5t75 75.5l86 801q-29 42 -62 72t-71 50t-81.5 29t-95.5 9z" />
<glyph unicode="&#x153;" horiz-adv-x="1390" d="M1368 286q-52 -78 -105 -134t-108 -93t-114 -54t-121 -17q-82 0 -142.5 29t-97.5 91q-28 -28 -58 -50t-64 -38t-73 -24t-83 -8q-84 0 -143 23.5t-97 74t-55 128.5t-17 188q0 82 14 156t41 138t66 116t88 88.5t108 56.5t125 20q88 0 150 -33.5t98 -93.5q57 62 130.5 94.5 t162.5 32.5q51 0 88 -13.5t62 -38t37 -59t12 -78.5q0 -34 -8 -68t-29 -69.5t-56.5 -72t-91 -74.5t-132 -78t-179.5 -82q3 -62 16.5 -105t35.5 -70t52 -38.5t68 -11.5q40 0 80 12.5t81 41t84 73t87 106.5zM424 110q63 0 115.5 35t95.5 93q-6 28 -8.5 58t-2.5 64 q0 105 17 193.5t51 161.5q-17 38 -35.5 63.5t-40.5 42.5t-47 24t-55 7q-57 0 -106.5 -29t-86.5 -84t-58 -136t-21 -187q0 -79 9.5 -136.5t31 -95.5t56.5 -56t85 -18zM1130 760q0 49 -22 72.5t-72 23.5q-52 0 -98 -27t-81 -78t-57 -124t-26 -164q98 40 166 80.5t110.5 78.5 t61 73t18.5 65z" />
<glyph unicode="&#x178;" horiz-adv-x="987" d="M514 0h-158l64 612l-215 654l-177 -2l-4 108q39 6 80.5 9.5t82.5 6t79 3.5t70 1l198 -616l250 385q34 54 62.5 94.5t54 70.5t50.5 52t52 36t58 23t71 15l17 -112q-30 -8 -51.5 -18t-41.5 -23.5t-38 -33t-40 -48.5t-50 -70l-64 -97l-284 -428zM381 1616l8 213 q20 0 40.5 -2.5t39.5 -7t36 -10.5t29 -13l-38 -174zM796 1616l9 213q20 0 40.5 -2.5t39.5 -7t36 -10.5t29 -13l-36 -174z" />
<glyph unicode="&#x2c6;" horiz-adv-x="755" d="M484 1522l149 -365l-127 -12l-98 249l-176 -251l-111 14l262 361z" />
<glyph unicode="&#x2dc;" horiz-adv-x="760" d="M696 1466q-10 -59 -28 -101.5t-44 -69.5t-59 -39.5t-75 -12.5q-27 0 -58.5 2.5l-62.5 5l-61 5t-54 2.5q-18 0 -31 -6t-24 -20t-20 -38t-19 -62l-102 21q10 58 25 100.5t38.5 70.5t55.5 42t75 14q26 0 56.5 -2l60.5 -4l59 -4q28 -2 49 -2q22 0 38 6t29 20t23.5 38t20.5 61 z" />
<glyph unicode="&#x2000;" horiz-adv-x="980" />
<glyph unicode="&#x2001;" horiz-adv-x="1960" />
<glyph unicode="&#x2002;" horiz-adv-x="980" />
<glyph unicode="&#x2003;" horiz-adv-x="1960" />
<glyph unicode="&#x2004;" horiz-adv-x="653" />
<glyph unicode="&#x2005;" horiz-adv-x="490" />
<glyph unicode="&#x2006;" horiz-adv-x="326" />
<glyph unicode="&#x2007;" horiz-adv-x="326" />
<glyph unicode="&#x2008;" horiz-adv-x="245" />
<glyph unicode="&#x2009;" horiz-adv-x="392" />
<glyph unicode="&#x200a;" horiz-adv-x="108" />
<glyph unicode="&#x2010;" horiz-adv-x="682" d="M600 438h-528l10 109h528z" />
<glyph unicode="&#x2011;" horiz-adv-x="682" d="M600 438h-528l10 109h528z" />
<glyph unicode="&#x2012;" horiz-adv-x="682" d="M600 438h-528l10 109h528z" />
<glyph unicode="&#x2013;" horiz-adv-x="1126" d="M1046 454h-980l12 111h979z" />
<glyph unicode="&#x2014;" horiz-adv-x="2242" d="M2248 454h-2266l12 111h2267z" />
<glyph unicode="&#x2018;" horiz-adv-x="510" d="M125 1086q0 60 24.5 111t69 93t108 76t140.5 60l41 -103q-47 -18 -86.5 -39.5t-69.5 -44.5t-50 -47t-30 -49l46 -263l-120 -24q-14 18 -27 44t-23 57t-16.5 64t-6.5 65z" />
<glyph unicode="&#x2019;" horiz-adv-x="510" d="M486 1182q0 -62 -25 -113t-69.5 -93t-107 -75t-140.5 -57l-42 100q46 18 85.5 39.5t69.5 45t50.5 47.5t28.5 48l-45 262l121 25q14 -18 27.5 -44t24 -56.5t16.5 -63.5t6 -65z" />
<glyph unicode="&#x201a;" horiz-adv-x="506" d="M381 -20q0 -62 -24 -113t-68.5 -93t-107.5 -75t-142 -57l-41 104q47 18 86.5 39.5t69.5 44.5t50 47.5t30 48.5l-46 258l119 25q14 -18 27.5 -44.5t24 -57.5t16.5 -63.5t6 -63.5z" />
<glyph unicode="&#x201c;" horiz-adv-x="946" d="M125 1086q0 60 24.5 111t69 93t108 76t140.5 60l41 -103q-47 -18 -86.5 -39.5t-69.5 -44.5t-50 -47t-30 -49l46 -263l-120 -24q-14 18 -27 44t-23 57t-16.5 64t-6.5 65zM559 1086q0 60 24.5 111t69.5 93t108 76t140 60l41 -103q-46 -18 -85 -39.5t-69 -44.5t-51 -47 t-31 -49l46 -263l-117 -24q-14 18 -28 44t-24.5 57t-17 64t-6.5 65z" />
<glyph unicode="&#x201d;" horiz-adv-x="946" d="M920 1182q0 -62 -24 -113t-68.5 -93t-107 -75t-140.5 -57l-44 100q47 18 86.5 39.5t69.5 45t50.5 47.5t29.5 48l-45 262l119 25q14 -18 27.5 -44t24 -56.5t16.5 -63.5t6 -65zM486 1182q0 -62 -25 -113t-69.5 -93t-107 -75t-140.5 -57l-42 100q46 18 85.5 39.5t69.5 45 t50.5 47.5t28.5 48l-45 262l121 25q14 -18 27.5 -44t24 -56.5t16.5 -63.5t6 -65z" />
<glyph unicode="&#x201e;" horiz-adv-x="936" d="M381 -20q0 -62 -24 -113t-68.5 -93t-107.5 -75t-142 -57l-41 104q47 18 86.5 39.5t69.5 44.5t50 47.5t30 48.5l-46 258l119 25q14 -18 27.5 -44.5t24 -57.5t16.5 -63.5t6 -63.5zM811 -20q0 -62 -24 -113t-68.5 -93t-107.5 -75t-140 -57l-43 104q47 18 86.5 39.5 t69.5 44.5t50 47.5t30 48.5l-46 258l120 25q14 -18 27 -44.5t23.5 -57.5t16.5 -63.5t6 -63.5z" />
<glyph unicode="&#x2022;" horiz-adv-x="659" d="M174 324l8 354q45 0 93.5 -6t93 -15t81 -21t58.5 -26l-74 -274z" />
<glyph unicode="&#x2026;" horiz-adv-x="1695" d="M198 -2l11 221q23 0 47 -2.5t45.5 -6.5t40.5 -10t33 -14l-41 -180zM758 -2l10 221q23 0 46.5 -2.5t45.5 -6.5t41 -10t33 -14l-41 -180zM1317 -2l10 221q23 0 47 -2.5t45.5 -6.5t40.5 -10t33 -14l-41 -180z" />
<glyph unicode="&#x202f;" horiz-adv-x="392" />
<glyph unicode="&#x2039;" horiz-adv-x="717" d="M484 119l-142 -43l-223 383l354 419l143 -34l-317 -379z" />
<glyph unicode="&#x203a;" horiz-adv-x="717" d="M236 836l141 42l223 -380l-352 -422l-148 36l320 380z" />
<glyph unicode="&#x205f;" horiz-adv-x="490" />
<glyph unicode="&#x20ac;" horiz-adv-x="1018" d="M416 568q-6 -32 -10 -68t-6 -74h362l-12 -108h-348q4 -52 17 -90t35 -62t55 -35.5t75 -11.5q32 0 69 7.5t76 24.5t79 43.5t76 63.5l70 -88q-37 -42 -82.5 -75.5t-96.5 -57t-107 -36.5t-113 -13q-148 0 -222.5 83t-82.5 247h-205l13 108h192q2 74 18 142h-180l12 108h199 q26 70 64.5 127t88.5 97t109 61.5t127 21.5q74 0 137.5 -15.5t108.5 -43.5q-11 -28 -19 -54l-18 -53q-22 8 -48.5 15t-56 12.5t-61 8.5t-61.5 3q-36 0 -69 -11t-62 -33t-53 -56t-42 -80h361l-13 -108h-376z" />
<glyph unicode="&#x2122;" horiz-adv-x="1513" d="M596 1302h-196l-52 -518h-108l51 518h-193l10 88h496zM725 1390h105l176 -464l270 464h100l-40 -606h-109l33 416l-232 -404h-78l-158 406l-44 -418h-94z" />
<glyph unicode="&#xe000;" horiz-adv-x="965" d="M0 965h965v-965h-965v965z" />
<glyph unicode="&#xfb01;" horiz-adv-x="995" d="M862 950q6 -20 9 -44.5t3 -49.5q0 -22 -2 -50l-6 -60l-78 -746h-149l88 828h-371l-47 -890q-4 -80 -25.5 -146t-56.5 -112.5t-80 -72t-96 -25.5q-32 0 -66 8t-68.5 26t-69.5 47t-70 71l79 102q62 -60 117 -96t99 -43q40 28 62.5 86.5t27.5 144.5l49 898l-131 8l8 102 l129 14l15 164q7 91 32 161.5t65.5 119.5t93.5 74.5t117 25.5q37 0 79.5 -7t85.5 -18.5t83.5 -27t73.5 -31.5l-20 -59l-18 -58q-47 16 -92.5 30t-87.5 24t-79 17t-67 9q-28 -18 -49 -43.5t-36 -58t-24 -70.5t-12 -80l-13 -172h498z" />
<glyph unicode="&#xfb02;" horiz-adv-x="1048" d="M786 1280q-32 10 -69 20t-76 18t-78 14t-73 8q-26 -16 -46.5 -41t-35.5 -57t-24.5 -69t-11.5 -77l-8 -146h218l-14 -122h-212l-47 -890q-4 -80 -25.5 -146t-56.5 -112.5t-80 -72t-96 -25.5q-32 0 -66 8t-68.5 26t-69.5 47t-70 71l79 102q62 -60 117 -96t99 -43 q40 28 62.5 86.5t27.5 144.5l49 898l-131 8l8 102l129 14l11 138q7 90 31.5 159.5t64.5 117t93 71.5t117 24q63 0 129.5 -15t141.5 -44q1 10 3.5 23.5t6.5 29.5l8 34q4 17 8.5 31.5l8.5 27.5t8 19l112 -14l-136 -1318q-5 -44 -7 -74t-2 -54q46 10 83.5 21t76.5 27l31 -84 q-23 -16 -52.5 -31t-61.5 -26.5t-65.5 -18t-66.5 -6.5q-22 0 -41 4t-32 16t-20 32.5t-7 53.5q0 24 3 56t7 69z" />
<glyph unicode="&#xfb03;" horiz-adv-x="1575" d="M1368 0h-150l101 950l123 6q6 -20 9 -44.5t3 -49.5q0 -22 -2 -50l-6 -60zM1350 1176l8 223q21 0 42 -2.5t41 -6.5t37.5 -9.5t31.5 -12.5l-40 -184zM413 -164q62 -60 117 -96t99 -43q40 28 62.5 86.5t27.5 144.5l49 898l-131 8l8 102l129 14l15 176q14 181 90 273 q74 92 202 92q54 0 118 -15.5t132 -45.5l-36 -113q-70 22 -134 36t-116 17q-26 -14 -45.5 -37t-33 -54t-21.5 -67q-8 -38 -11 -78l-13 -184h228l-14 -122h-222l-47 -890q-4 -80 -25.5 -146t-56.5 -112.5t-80 -72t-96 -25.5q-32 0 -66 8t-68.5 26t-69.5 47t-70 71zM-144 -164 q62 -60 117 -96t99 -43q40 28 62.5 86.5t27.5 144.5l49 898l-131 8l8 102l129 14l15 176q14 181 90 273q74 92 202 92q54 0 118 -15.5t132 -45.5l-36 -113q-70 22 -134 36t-116 17q-26 -14 -45.5 -37t-33 -54t-21.5 -67q-8 -38 -11 -78l-13 -184h228l-14 -122h-222l-47 -890 q-4 -80 -25.5 -146t-56.5 -112.5t-80 -72t-96 -25.5q-32 0 -66 8t-68.5 26t-69.5 47t-70 71z" />
<glyph unicode="&#xfb04;" horiz-adv-x="1618" d="M1394 234q-4 -44 -6 -74t-2 -54q46 10 84 21t76 27l31 -84q-23 -16 -52 -31t-61 -26.5t-66 -18t-67 -6.5q-22 0 -40.5 4t-32 16t-21 32.5t-7.5 53.5q0 24 3 56t8 69l135 1233l117 8q6 -23 9 -50.5t3 -55.5q0 -10 -0.5 -23.5t-1.5 -28t-3 -30.5l-3 -29zM413 -164 q62 -60 117 -96t99 -43q40 28 62.5 86.5t27.5 144.5l49 898l-131 8l8 102l129 14l15 176q14 181 90 273q74 92 202 92q54 0 118 -15.5t132 -45.5l-36 -113q-70 22 -134 36t-116 17q-26 -14 -45.5 -37t-33 -54t-21.5 -67q-8 -38 -11 -78l-13 -184h228l-14 -122h-222l-47 -890 q-4 -80 -25.5 -146t-56.5 -112.5t-80 -72t-96 -25.5q-32 0 -66 8t-68.5 26t-69.5 47t-70 71zM-144 -164q62 -60 117 -96t99 -43q40 28 62.5 86.5t27.5 144.5l49 898l-131 8l8 102l129 14l15 176q14 181 90 273q74 92 202 92q54 0 118 -15.5t132 -45.5l-36 -113 q-70 22 -134 36t-116 17q-26 -14 -45.5 -37t-33 -54t-21.5 -67q-8 -38 -11 -78l-13 -184h228l-14 -122h-222l-47 -890q-4 -80 -25.5 -146t-56.5 -112.5t-80 -72t-96 -25.5q-32 0 -66 8t-68.5 26t-69.5 47t-70 71z" />
</font>
</defs>
</svg>
