<?xml version="1.0" standalone="no"?>
<!DOCTYPE svg PUBLIC "-//W3C//DTD SVG 1.1//EN" "http://www.w3.org/Graphics/SVG/1.1/DTD/svg11.dtd" >
<svg xmlns="http://www.w3.org/2000/svg">
<metadata>
This is a custom SVG webfont generated by Font Squirrel.
Designer    : httpwwwunderwarenl
Foundry URL : httpwwwunderwarenl
</metadata>
<defs>
<font id="webfontdgZECqx0" horiz-adv-x="950" >
<font-face units-per-em="2048" ascent="1577" descent="-471" />
<missing-glyph horiz-adv-x="401" />
<glyph unicode=" "  horiz-adv-x="401" />
<glyph unicode="&#x09;" horiz-adv-x="401" />
<glyph unicode="&#xa0;" horiz-adv-x="401" />
<glyph unicode="!" horiz-adv-x="575" d="M356 477h-133l82 979h189zM158 0l22 196h160l-22 -196h-160z" />
<glyph unicode="&#x22;" horiz-adv-x="899" d="M194 858l52 532h139l-53 -524zM598 858l54 532h136l-50 -524z" />
<glyph unicode="#" horiz-adv-x="1126" d="M1010 821h-184l-62 -235h174l-8 -102h-195l-65 -244h-123l65 244h-221l-65 -244h-126l70 244h-168l12 102h185l63 235h-176l8 109h195l70 248h121l-68 -248h221l68 248h123l-68 -248h164zM484 821l-64 -235h221l63 235h-220z" />
<glyph unicode="$" horiz-adv-x="731" d="M606 819q-52 16 -97 23.5t-91 7.5q-34 0 -58 -9t-39.5 -25t-22.5 -37.5t-7 -45.5q0 -26 4.5 -46.5t16.5 -42t35 -45t59 -54.5q45 -38 77.5 -68.5t56 -55.5t38 -47t22.5 -43t11 -42t3 -45q0 -52 -16 -95t-47 -75.5t-75.5 -53t-100.5 -26.5l-21 -270h-126l26 268 q-54 8 -105 24t-96 44l43 118q60 -29 122.5 -45.5t115.5 -16.5q34 0 60 8.5t42 23t24.5 35.5t8.5 45t-5 43.5t-20.5 41t-43.5 47.5t-74 62q-53 42 -88.5 78t-56.5 72t-29 72.5t-8 78.5t13 82.5t40 74t68 57t95 31.5l25 275h127l-28 -275q43 -3 79.5 -10.5t73.5 -19.5z" />
<glyph unicode="%" horiz-adv-x="1550" d="M448 -112h-153l793 1177h153zM596 738q0 -73 -16 -132.5t-48.5 -101t-81 -64t-114.5 -22.5q-103 0 -155 57t-52 181q0 76 18.5 135t51.5 99t80 60.5t106 20.5q106 0 158.5 -57.5t52.5 -175.5zM477 723q0 34 -5.5 61.5t-17.5 46.5t-33 29t-51 10q-26 0 -49 -10t-41 -34.5 t-28 -64t-10 -97.5q0 -77 26.5 -112.5t81.5 -35.5q60 0 93.5 51.5t33.5 155.5zM1428 305q0 -73 -16 -132t-48.5 -101t-81 -64t-112.5 -22q-103 0 -156.5 57t-53.5 180q0 77 18.5 135.5t52 98t80.5 59.5t105 20q108 0 160 -57t52 -174zM1308 291q0 34 -5 61.5t-17 46.5 t-32 29t-50 10q-26 0 -49.5 -10.5t-41 -35t-28 -63.5t-10.5 -97q0 -78 25.5 -114t81.5 -36q62 0 94 52.5t32 156.5z" />
<glyph unicode="&#x26;" horiz-adv-x="1466" d="M889 1274q-52 10 -105.5 17t-101.5 7t-85.5 -13t-64 -41t-40 -69t-13.5 -98q0 -34 6.5 -72.5t20.5 -81t34 -91t46 -103.5l227 -479q40 42 77.5 98t73.5 127t71 160t71 195h-295l10 122h611l-10 -114l-172 -6q-38 -117 -79.5 -221.5t-88 -194t-98.5 -162.5t-112 -127 l160 -338l-162 -35l-128 291q-54 -31 -121 -46t-137 -15q-67 0 -121.5 12t-97 35t-73 54t-50.5 68t-30 80t-10 87q0 50 15.5 95t52 93t96.5 100t150 115q-24 54 -42 101.5t-29 89.5t-16 80.5t-5 74.5q0 74 20 139.5t64 113.5t112 76t164 28q63 0 120.5 -7t115.5 -23z M475 608q-66 -46 -108.5 -83t-66.5 -69t-33 -61t-9 -59q0 -49 15 -89.5t47 -70t80 -46t114 -16.5q45 0 89.5 11t82.5 35z" />
<glyph unicode="'" horiz-adv-x="487" d="M194 858l52 532h139l-53 -524z" />
<glyph unicode="(" horiz-adv-x="628" d="M436 -502q-52 11 -100.5 32.5t-85.5 53.5q-40 36 -70 86t-49.5 119t-29 161t-9.5 214q0 76 2.5 162t9 176.5t16.5 183t25.5 181.5t37 171t49 153t62 127t78.5 93q46 39 103 61t119 31l22 -109q-26 -10 -49.5 -21t-45 -23t-40.5 -26t-35 -32q-31 -34 -56.5 -86t-46 -117.5 t-36.5 -142t-28 -159.5t-20.5 -169t-13.5 -170t-7 -163.5t-2 -149.5q0 -89 5 -155t17 -116t31 -87.5t45 -69.5q12 -16 29 -30t36 -25.5t39 -21.5l39 -19z" />
<glyph unicode=")" horiz-adv-x="628" d="M192 1503q52 -10 101 -31.5t86 -54.5q40 -36 70 -85.5t49.5 -119t28.5 -161t9 -213.5q0 -76 -2 -162t-8.5 -177t-17 -183t-25.5 -181t-36 -171.5t-49 -153t-63 -127.5t-79 -93q-46 -39 -103 -60.5t-118 -31.5l-23 109q26 10 50 21t45.5 23t40 26.5t34.5 31.5 q31 34 56.5 86t46.5 117.5t37 142.5t28 160t20 169t13 170t7.5 163t2.5 149q0 89 -5.5 155.5t-17.5 116t-30.5 87t-44.5 69.5q-12 16 -29 30t-36 26t-38.5 22t-39.5 18z" />
<glyph unicode="*" horiz-adv-x="1016" d="M622 899l195 -299l-125 -66l-178 308l-236 -260l-104 90l246 252l-318 133l60 117l307 -148l31 344l147 -12l-45 -346l328 74l30 -134z" />
<glyph unicode="+" horiz-adv-x="1091" d="M940 418h-340l-28 -324l-138 -6l29 330h-319l12 118h319l29 332l137 6l-29 -338h340z" />
<glyph unicode="," horiz-adv-x="499" d="M20 -301l70 67q30 29 51 51.5t34 39.5t20 31.5t9.5 27t2.5 26.5q0 17 -3 42.5t-8.5 56.5t-12.5 67l-15 76l133 27q30 -70 43.5 -129.5t13.5 -101.5q0 -28 -3 -52t-13.5 -48.5t-28 -50t-46.5 -56.5t-69 -68t-96 -84z" />
<glyph unicode="-" horiz-adv-x="698" d="M614 461h-540l10 113h540z" />
<glyph unicode="." horiz-adv-x="491" d="M170 0l20 196h158l-22 -196h-156z" />
<glyph unicode="/" horiz-adv-x="790" d="M174 0h-141l661 1424h146z" />
<glyph unicode="0" horiz-adv-x="999" d="M905 559q0 -132 -27 -238t-82.5 -180.5t-140.5 -114.5t-199 -40q-93 0 -160.5 25t-111.5 77t-66 132t-22 190q0 139 30.5 245t87.5 177.5t138.5 108t185.5 36.5q96 0 165.5 -25.5t114 -77.5t66 -130.5t21.5 -184.5zM750 545q0 72 -11.5 128.5t-38 95.5t-70.5 60t-108 21 q-56 0 -105.5 -21.5t-86.5 -71t-58.5 -131t-21.5 -200.5q0 -84 13 -143.5t41 -97t71 -54.5t104 -17q63 0 113 26t85 79.5t54 134.5t19 191z" />
<glyph unicode="1" horiz-adv-x="575" d="M366 0h-153l84 832h-244l11 112l395 22z" />
<glyph unicode="2" horiz-adv-x="862" d="M140 897q38 18 79 33.5t83 26.5t84 17.5t81 6.5q74 0 129.5 -19.5t92 -53.5t55 -80.5t18.5 -100.5q0 -44 -10 -81.5t-32 -74.5t-57 -74t-83 -79l-344 -293h506l-15 -125h-663l-21 119l430 367q40 34 65 61t39.5 51t19.5 48t5 52q0 34 -11 62t-33 47.5t-55 30t-77 10.5 t-106.5 -15t-141.5 -51z" />
<glyph unicode="3" horiz-adv-x="846" d="M56 -108q68 -24 138.5 -39t137.5 -15q62 0 106 16t72 44t41.5 67t13.5 86q0 48 -22.5 87t-67.5 66t-112 41.5t-158 14.5l12 125q87 0 164 -6q58 46 98.5 87.5t65.5 78.5t37 72t12 69q0 32 -10 61.5t-32 52t-55 35.5t-79 13q-42 0 -103 -14t-139 -52l-43 115q78 38 160 61 t166 23q74 0 129 -22t90.5 -59.5t53.5 -86.5t18 -103q0 -42 -10 -83t-36 -85t-69 -91t-111 -101q54 -20 93 -50t64 -65t36.5 -75t11.5 -80q0 -79 -26.5 -147t-78.5 -117.5t-129 -78t-179 -28.5q-82 0 -158 15.5t-142 43.5z" />
<glyph unicode="4" horiz-adv-x="954" d="M30 209l574 743l168 14l-70 -743h182l-14 -123h-180l-32 -407h-150l34 407h-495zM178 223h375l55 561z" />
<glyph unicode="5" horiz-adv-x="819" d="M563 72q0 28 -7.5 53t-26.5 46t-52 39.5t-83 34t-121 27.5t-165 21l64 663h572l-11 -139h-447l-38 -403q138 -17 229 -44.5t144 -66t74.5 -90t21.5 -115.5q0 -87 -26.5 -158.5t-79.5 -122.5t-132 -79.5t-182 -28.5q-39 0 -79 4.5t-78 12.5t-73 18t-65 22l39 124 q33 -12 69 -21.5t72.5 -16t71 -10.5t62.5 -4q64 0 111 17t77 48t44.5 74t14.5 95z" />
<glyph unicode="6" horiz-adv-x="940" d="M844 1082q-30 9 -63 16t-66 12t-65 7.5t-60 2.5q-68 0 -119.5 -25t-89 -74t-61.5 -122t-38 -168q150 -10 254 -37.5t168 -72t92 -105t28 -135.5q0 -86 -26 -158.5t-73 -125.5t-113.5 -83t-148.5 -30q-65 0 -117 16t-91 46t-67.5 71.5t-46.5 92t-26.5 108.5t-8.5 120 q0 122 12 230t38 198t65.5 160.5t95 119.5t127.5 75t162 26q36 0 72 -3.5t70.5 -8.5t66 -13t57.5 -16zM264 600q-3 -42 -4.5 -78t-1.5 -59q0 -92 14 -158t42.5 -108.5t71 -63.5t98.5 -21q43 0 78.5 19t62 52t41 78t14.5 99t-22 96.5t-72 73t-129 48.5t-193 22z" />
<glyph unicode="7" horiz-adv-x="774" d="M234 -297l-146 21l518 1091h-528l12 141h682l8 -106z" />
<glyph unicode="8" horiz-adv-x="927" d="M817 979q0 -40 -8.5 -82.5t-28.5 -89.5t-52 -103t-81 -124q47 -45 79 -80.5t52.5 -66t29.5 -60t9 -64.5q0 -74 -28 -133.5t-79 -101.5t-122.5 -64t-159.5 -22q-78 0 -144 18t-113 55t-73 94t-26 136q0 25 3 49.5t12 51.5t25 58t39 69.5t57 84.5l76 106q-28 31 -47.5 59.5 t-33 57t-19.5 60t-6 67.5q0 63 23 116.5t65 93t103 61.5t137 22q75 0 133 -21.5t97.5 -57.5t60 -84.5t20.5 -104.5zM674 962q0 34 -12 64t-35.5 52t-56 34t-74.5 12q-43 0 -75.5 -12.5t-54 -34t-32 -51.5t-10.5 -64q0 -32 8 -59t23.5 -52t38 -49t50.5 -48l117 -100 q34 52 55.5 96t34.5 82t18 70t5 60zM658 295q0 20 -4 37.5t-12 33.5t-21.5 34t-34 38.5t-48.5 45.5l-65 56l-103 91l-51 -84l-39 -67q-16 -30 -27 -53.5t-18 -43t-9.5 -36.5t-2.5 -35q1 -48 16.5 -85t44 -62.5t69.5 -39t93 -13.5q50 0 90 15t67 40t41 57.5t14 68.5v2z" />
<glyph unicode="9" horiz-adv-x="940" d="M98 -121q30 -10 63.5 -17.5t67 -12t65.5 -7t58 -2.5q68 0 120 25t89.5 74.5t62 122t38.5 168.5q-150 10 -254 37.5t-168 72t-92.5 104.5t-28.5 136q0 86 25.5 158t72.5 125.5t114 83.5t151 30q65 0 116.5 -16.5t90.5 -46.5t67 -72t45.5 -92t26 -108t8.5 -120 q0 -122 -12 -230t-37 -198t-65 -161t-95.5 -120.5t-128 -75.5t-162.5 -26q-34 0 -70.5 3.5t-71 9t-66.5 13.5t-58 17zM678 358q4 42 5 79t1 61q0 92 -14 158t-42 108.5t-70 63t-97 20.5q-43 0 -79 -18.5t-62.5 -52t-41 -79.5t-14.5 -100q0 -53 22 -95.5t72 -73t128.5 -49 t191.5 -22.5z" />
<glyph unicode=":" horiz-adv-x="518" d="M164 112l20 200h158l-22 -200h-156zM213 658l21 198h157l-23 -198h-155z" />
<glyph unicode=";" horiz-adv-x="514" d="M213 658l21 198h157l-23 -198h-155zM20 -301l70 67q30 29 51 51.5t34 39.5t20 31.5t9.5 27t2.5 26.5q0 17 -3 42.5t-8.5 56.5t-12.5 67l-15 76l133 27q30 -70 43.5 -129.5t13.5 -101.5q0 -28 -3 -52t-13.5 -48.5t-28 -50t-46.5 -56.5t-69 -68t-96 -84z" />
<glyph unicode="&#x3c;" horiz-adv-x="1009" d="M824 182l-17 -147l-688 371l14 122l762 375l-17 -149l-585 -285z" />
<glyph unicode="=" horiz-adv-x="1011" d="M878 576h-726l10 118h725zM838 254h-728l11 121h727z" />
<glyph unicode="&#x3e;" horiz-adv-x="1009" d="M186 756l19 149l686 -369l-15 -124l-764 -375l17 147l588 287z" />
<glyph unicode="?" horiz-adv-x="909" d="M260 375l-19 78.5t-15 73.5t-9.5 64t-3.5 52q0 28 5 46t17.5 30.5t34.5 21.5t56 19l139 38q56 16 95.5 34t64.5 40t37 48t12 57q0 30 -7 56.5t-24.5 51t-48 48t-79 48t-116 51t-159.5 56.5l49 144q108 -26 191.5 -57t144.5 -64.5t102 -70t66 -75t36 -79t11 -82.5 q0 -58 -17.5 -104t-54 -83.5t-94.5 -68t-140 -56.5l-168 -53l21 -246zM190 0l21 196h157l-22 -196h-156z" />
<glyph unicode="@" horiz-adv-x="1837" d="M1059 176q-48 -47 -86.5 -81t-72.5 -56t-65 -32.5t-63 -10.5q-43 0 -79.5 15t-63.5 49.5t-42 90t-15 135.5q0 138 28 248t80 186t127 117t168 41q31 0 67 -3t74 -9t75 -14t71 -18l-52 -531q-2 -23 -4 -51l-4 -55t-3 -51t-1 -38q61 9 115.5 36.5t100 69.5t82 96 t61.5 115.5t39 129t14 137.5q0 128 -40 225.5t-117 163t-190 98.5t-261 33q-112 0 -213 -27t-186 -78.5t-153 -126.5t-116 -170.5t-73 -209.5t-25 -246q0 -154 26 -269t80 -190.5t138 -113t200 -37.5q39 0 81.5 4t86.5 11t88.5 18t87.5 23l26 -103q-42 -18 -89.5 -32.5 t-98 -24t-101.5 -14.5t-101 -5q-86 0 -162 16.5t-138.5 52t-111 91.5t-82.5 135.5t-52 183t-18 234.5q0 163 34 300.5t95 248.5t146 195t188 140t220 84.5t241 28.5q186 0 321.5 -45t224 -127.5t131 -198.5t42.5 -258q0 -92 -21 -180t-59.5 -167t-93 -146t-121.5 -116 t-144.5 -76t-163.5 -27q-27 0 -43.5 7t-25.5 20t-12 32t-3 43q0 17 1.5 38.5t5.5 45.5zM721 299q0 -92 27.5 -135t77.5 -43q16 0 35 8t46 27.5t65 53.5t91 87l45 438q-34 8 -73 13.5t-73 5.5q-64 0 -109 -35t-75 -96t-43.5 -144t-13.5 -180z" />
<glyph unicode="A" horiz-adv-x="1169" d="M20 0l629 1390h143l306 -1390h-164l-98 442h-459l-197 -442h-160zM424 561h387l-113 533q-6 34 -8 67t-2 63q0 -16 -2 -29t-4.5 -27t-7.5 -28q-4 -15 -12 -32z" />
<glyph unicode="B" horiz-adv-x="1124" d="M252 1390h338q104 0 175 -22t114 -61.5t62 -94t19 -118.5q0 -38 -8 -75.5t-27 -80t-49 -92.5t-75 -113q63 -22 105.5 -52.5t69 -69t37.5 -82.5q11 -45 11 -91q0 -108 -36.5 -190t-104.5 -137t-165.5 -83t-219.5 -28h-373zM807 1080q0 42 -13.5 76t-41.5 58.5t-72 38 t-106 13.5h-172l-48 -508h320q34 50 59 93t41.5 81t24.5 74t8 74zM858 414q0 56 -17 97t-48 69t-74 41.5t-97 13.5h-280l-43 -508h217q80 0 144 17.5t108 53t67 89.5t23 127z" />
<glyph unicode="C" horiz-adv-x="1140" d="M1050 133q-59 -30 -109 -52.5t-94.5 -39t-83.5 -28t-76.5 -18t-74 -9t-74.5 -2.5q-100 0 -181 34t-137 106t-87 183t-31 263q0 110 15.5 215t48 198.5t82.5 171.5t120 134.5t161 88t204 31.5q94 0 181.5 -12.5t158.5 -32.5l-57 -444h-134l26 338q-39 10 -83.5 14t-93.5 4 q-90 0 -159.5 -27.5t-120.5 -76t-85.5 -114t-56 -142.5t-30.5 -161.5t-9 -170.5q0 -126 23 -213t63.5 -141t95.5 -78q56 -23 120 -23q42 0 87 7.5t98 24t115 43t138 64.5z" />
<glyph unicode="D" horiz-adv-x="1286" d="M1024 778q-2 79 -11 145.5t-30 120.5t-55.5 95t-86 69t-122.5 42t-166 14h-153l-101 -1137h252q119 0 208 37.5t148 117.5t88 203t29 293zM592 1390q122 0 214 -19.5t159 -57t111 -90.5t70.5 -119.5t37.5 -145.5q10 -80 10 -168q0 -184 -38.5 -330.5t-119 -248.5 t-205.5 -156.5t-297 -54.5h-411l131 1390h338z" />
<glyph unicode="E" horiz-adv-x="1034" d="M950 129l-12 -129h-813l131 1390h727l-15 -126h-562l-48 -506h498l-14 -127h-494l-49 -502h651z" />
<glyph unicode="F" horiz-adv-x="921" d="M958 1388l-16 -124h-522l-56 -543h462l-15 -125h-461l-61 -596h-166l147 1388h688z" />
<glyph unicode="G" horiz-adv-x="1194" d="M1026 116q-74 -39 -140 -64.5t-124.5 -40.5t-111.5 -21t-103 -6q-108 0 -191.5 36t-139.5 109.5t-85 183t-29 257.5q0 110 14 215t44 198.5t78 171.5t115.5 134.5t157 88t201.5 31.5q54 0 102 -3.5t92 -10t85 -16t80 -21.5l-33 -134q-88 25 -168 37.5t-160 12.5 q-90 0 -157.5 -27t-116 -75t-80.5 -113t-51 -142t-27 -161t-8 -170q0 -112 19.5 -198t58 -144.5t96.5 -88.5q60 -30 138 -30q74 0 146 17q72 18 154 52l28 310h-290l8 120h439z" />
<glyph unicode="H" horiz-adv-x="1276" d="M1059 0h-164l59 649h-608l-62 -649h-159l127 1390h158l-54 -610h610l58 610h160z" />
<glyph unicode="I" horiz-adv-x="706" d="M712 1280l-202 -10l-108 -1149l204 -9l-10 -112h-572l11 108l203 13l106 1149l-198 12l10 108h567z" />
<glyph unicode="J" horiz-adv-x="616" d="M-106 -192q52 -16 101 -27t91 -11q26 0 47 10t38.5 36t29.5 69t18 109l117 1276l-222 12l11 108h539l-10 -110l-152 -10l-119 -1286q-8 -92 -34.5 -157.5t-66.5 -107t-90.5 -60.5t-107.5 -19q-62 0 -120 12q-60 12 -106 34z" />
<glyph unicode="K" horiz-adv-x="1110" d="M412 1388l-60 -653h190l400 659l166 -18l-438 -716l378 -660l-180 -6l-346 606h-182l-56 -600h-161l129 1388h160z" />
<glyph unicode="L" horiz-adv-x="960" d="M299 129h596l-13 -129h-757l129 1390h164z" />
<glyph unicode="M" horiz-adv-x="1648" d="M484 1388l325 -1138l510 1138h168l-15 -1388h-153l19 1155q-2 -17 -12 -46t-26 -65l-440 -997h-143l-275 947q-14 46 -21 82.5t-7 70.5l-170 -1147h-148l222 1388h166z" />
<glyph unicode="N" horiz-adv-x="1284" d="M1052 1388h140l-112 -1388h-146l-526 1036q-17 32 -25 56t-8 44l-105 -1136h-145l135 1388h144l524 -1046q18 -32 25 -56t7 -44z" />
<glyph unicode="O" horiz-adv-x="1298" d="M1204 813q0 -126 -17 -237t-51.5 -203.5t-86 -165t-118.5 -123t-151 -76.5t-184 -26q-118 0 -209.5 30t-155 101t-96.5 188t-33 289q0 189 41 340.5t119 258.5t193 164.5t262 57.5q94 0 167.5 -19.5t127.5 -56.5t91 -89.5t59 -119t32 -145.5t10 -168zM1038 790 q0 122 -17 212.5t-57 150t-104 88.5q-66 29 -160 29t-173 -39t-137 -120t-90 -206.5t-32 -298.5q0 -139 23 -231.5t66.5 -148t108.5 -78.5q64 -23 150 -23q99 0 177.5 41.5t133 124.5t83 208t28.5 291z" />
<glyph unicode="P" horiz-adv-x="1034" d="M834 996q0 62 -13.5 111.5t-46 84t-88.5 53.5t-141 19h-145l-54 -633q18 -4 44 -6.5t53 -4.5t52 -3t43 -1q76 0 131.5 29.5t92 80.5t54.5 120.5t18 149.5zM580 1390q80 0 142 -11t107.5 -33t76.5 -54t49.5 -73.5t27 -92t8.5 -110.5q0 -114 -31.5 -210t-92.5 -165 t-148 -108t-199 -39q-22 0 -47 0.5t-49 2t-47.5 4t-42.5 5.5l-48 -506h-161l127 1390h328z" />
<glyph unicode="Q" horiz-adv-x="1298" d="M1204 813q0 -150 -25 -278.5t-73.5 -229.5t-121 -172t-167.5 -109l63 -93q27 -40 48.5 -67.5t38.5 -44.5t34 -26t34 -12.5t38 -3.5q20 0 42.5 3t50.5 9.5t61 18t73 28.5l38 -125q-92 -42 -167 -60.5t-131 -18.5q-34 0 -61 4t-53 17.5t-53 38t-58.5 63.5t-69.5 95l-87 136 q-16 -2 -31 -3t-31 -1q-118 0 -209.5 30t-155 101t-96.5 188t-33 289q0 189 41 340.5t119 258.5t193 164.5t262 57.5q94 0 167.5 -19.5t127.5 -56.5t91 -89.5t59 -119t32 -145.5t10 -168zM1038 790q0 122 -17 212.5t-57 150t-104 88.5q-66 29 -160 29t-173 -39t-137 -120 t-90 -206.5t-32 -298.5q0 -139 23 -231.5t66.5 -148t108.5 -78.5q64 -23 150 -23q99 0 177.5 41.5t133 124.5t83 208t28.5 291z" />
<glyph unicode="R" horiz-adv-x="1106" d="M830 1036q0 48 -14 90t-43 72.5t-74 48t-105 17.5h-192l-48 -578h322q44 52 74 97t47.5 87t25 82.5t7.5 83.5zM856 -10l-256 567h-258l-56 -557h-161l127 1390h379q103 0 173 -26t113 -71t62 -106t19 -130q0 -53 -11 -106t-38.5 -109.5t-75 -119t-119.5 -134.5l274 -582z " />
<glyph unicode="S" horiz-adv-x="921" d="M86 223q52 -24 98 -42t88.5 -30t82 -18t75.5 -6q57 0 99.5 16t70.5 44t42 66.5t14 82.5q0 22 -3 41t-11 40t-24 44t-42 51t-63.5 63t-90.5 79q-48 40 -84 75t-62.5 67t-43.5 62t-27.5 61t-14.5 64t-4 71q0 74 23 138t68.5 111t113.5 73.5t158 26.5q42 0 78.5 -3.5 t71.5 -10.5t70 -18t73 -25l-35 -130l-75.5 22t-67.5 16t-62 9t-62 3q-47 0 -82.5 -14t-60 -39t-37 -60t-12.5 -78q0 -26 2 -47.5t8 -41.5t18 -41t31.5 -44.5t48 -51l68.5 -63.5q63 -54 109.5 -97.5t78.5 -81t52 -69.5t31.5 -63t15.5 -61t4 -64q0 -74 -24.5 -140.5 t-74.5 -116t-126 -78.5q-74 -29 -176 -29q-48 0 -97 7t-97.5 20.5t-94 32.5t-86.5 42z" />
<glyph unicode="T" d="M1032 1262h-393l-123 -1262h-164l125 1262h-415l14 128h970z" />
<glyph unicode="U" horiz-adv-x="1241" d="M404 1390l-86 -934q-2 -20 -3 -43t-1 -45q0 -58 18 -102t53.5 -75t88 -46.5t120.5 -15.5q78 0 137 23t100 65.5t65 102.5q24 58 30 132l88 938h156l-88 -940q-10 -106 -49 -191.5t-103 -145t-152 -91.5t-196 -32q-109 0 -190.5 25t-135.5 72t-81 114t-27 151v25v22t1 23 t3 24l90 944h162z" />
<glyph unicode="V" horiz-adv-x="1120" d="M484 301q8 -34 9 -67t1 -64q1 16 2 29.5t3.5 27t7.5 28.5t13 31l480 1104h161l-627 -1390h-143l-305 1390h166z" />
<glyph unicode="W" horiz-adv-x="1583" d="M1112 342q6 -28 10 -61.5t4 -61.5q1 13 4 30t7 35t9 35l9 33l321 1038h150l-436 -1390h-154l-212 1004l-365 -1004h-158l-172 1390h157l120 -1044q2 -14 3 -30t1.5 -32.5l1 -32.5t0.5 -30q1 8 2.5 18.5t5.5 22.5q4 14 10 30l12 38l340 922h134z" />
<glyph unicode="X" horiz-adv-x="1095" d="M557 586l-350 -586h-179l456 723l-318 667h182l256 -546l324 546h170l-414 -675l340 -715h-190z" />
<glyph unicode="Y" horiz-adv-x="981" d="M518 0h-164l56 618l-316 772h172l252 -628l402 628h157l-503 -772z" />
<glyph unicode="Z" horiz-adv-x="1005" d="M899 0h-860l-11 119l789 1143h-627l10 128h814l6 -112l-799 -1149h689z" />
<glyph unicode="[" horiz-adv-x="633" d="M649 1344h-289l-141 -1688h287l-14 -121h-432l163 1929h439z" />
<glyph unicode="\" horiz-adv-x="786" d="M582 0l-545 1390h149l545 -1390h-149z" />
<glyph unicode="]" horiz-adv-x="626" d="M-22 -344h290l142 1688h-285l12 120h433l-164 -1929h-436z" />
<glyph unicode="^" horiz-adv-x="907" d="M641 826l-113 454q-8 34 -11 61t-3 49l-268 -564h-146l377 749l139 8l187 -757h-162z" />
<glyph unicode="_" horiz-adv-x="678" d="M622 0h-581l8 104h582z" />
<glyph unicode="`" horiz-adv-x="620" d="M328 1134l-212 353l130 35l192 -354z" />
<glyph unicode="a" horiz-adv-x="962" d="M794 4l-147 -4l-4 200l-81 -76q-36 -32 -65 -55.5t-53 -38t-46 -23.5t-43.5 -12t-45.5 -3q-44 0 -82.5 17.5t-66.5 56t-45 100.5t-17 152q0 153 31 273.5t88 204.5t139 128t186 44q34 0 73 -3t79 -9t80 -15t76 -19l-60 -610zM692 819l-42 8.5t-43.5 7.5t-42.5 5 q-22 2 -40 2q-67 0 -117.5 -34t-84.5 -99t-51 -159t-17 -216q0 -54 8 -92.5t21 -62.5t32 -35t41 -11q20 0 43.5 9.5t56 33.5t78.5 66l111 104z" />
<glyph unicode="b" horiz-adv-x="958" d="M334 766l78 74q34 32 62 54t51 36t44.5 22t43 11t45.5 3q44 0 82 -17t67 -56t45 -101t16 -151q0 -153 -31 -274t-89 -205.5t-141 -129t-187 -44.5q-33 0 -71.5 3.5t-78.5 10t-80 16.5t-78 21l142 1413l150 10zM272 140q40 -11 85 -17.5t83 -6.5q67 0 118 34t85.5 99 t51.5 159t17 216q0 54 -7.5 93t-21 63t-32.5 35t-41 11q-21 0 -44 -10t-55.5 -34t-78.5 -65l-112 -105z" />
<glyph unicode="c" horiz-adv-x="790" d="M733 82q-53 -27 -96.5 -45.5t-83 -29t-77.5 -15t-80 -4.5q-66 0 -120.5 20.5t-94 65.5t-61.5 115.5t-22 170.5q0 146 29 261t84.5 194t135 120.5t179.5 41.5q24 0 53 -2.5t56 -6.5t51.5 -9.5t40.5 -12.5l-25 -122q-22 4 -48 7l-53 7q-27 4 -54 6t-49 2q-62 0 -107 -35 t-75 -96t-45 -145t-15 -181q0 -73 10.5 -123t32 -81t54.5 -44.5t77 -13.5q27 0 56 4t61.5 13t69.5 23.5t81 35.5z" />
<glyph unicode="d" horiz-adv-x="962" d="M254 334q0 -54 8 -92.5t21 -62.5t32 -35t41 -11q20 0 43.5 9.5t56 33.5t78.5 66l111 104l47 473l-42 8.5t-43.5 7.5t-42.5 5q-22 2 -40 2q-67 0 -117.5 -34t-84.5 -99t-51 -159t-17 -216zM98 318q0 153 31 273.5t88 204.5t139 128t186 44q76 0 160 -18l52 502l149 10 l-113 -1150l4 -308l-147 -4l-4 200l-81 -76q-36 -32 -65 -55.5t-53 -38t-46 -23.5t-43.5 -12t-45.5 -3q-44 0 -82.5 17.5t-66.5 56t-45 101t-17 151.5z" />
<glyph unicode="e" horiz-adv-x="884" d="M612 584q3 17 5.5 35t4 34.5t2 31.5t0.5 23q0 76 -33 112t-99 36q-44 0 -81 -20t-64 -58t-47 -92q-20 -55 -30 -125zM256 444q-2 -18 -2 -34v-29q0 -76 12 -126t34 -80.5t55 -43t75 -12.5q27 0 58.5 4.5t70.5 15.5t85 30t104 48l42 -117q-60 -30 -111 -51.5t-98 -35 t-92 -19.5t-89 -6q-72 0 -128 22t-94.5 68t-59 116t-20.5 166q0 91 13 172.5t37 150t59 123t81 92.5t101.5 58.5t120.5 20.5q66 0 114.5 -17t80.5 -49.5t47.5 -79.5t15.5 -108q0 -20 -2 -49.5t-6.5 -63.5t-11 -70t-13.5 -67z" />
<glyph unicode="f" horiz-adv-x="534" d="M664 1342l-45 8t-44 6.5t-39 4t-32 1.5q-28 0 -48 -10t-34.5 -33.5t-23 -62t-13.5 -95.5l-19 -211h222l-12 -120h-220l-110 -1211l-152 -12l109 1225l-125 4l10 104l125 10l19 203q8 92 28.5 156t54 104.5t80.5 59t107 18.5q51 0 96.5 -7.5t91.5 -21.5z" />
<glyph unicode="g" horiz-adv-x="946" d="M968 874l-214 -42q12 -21 21 -46t16 -51.5t11 -54.5q3 -28 3 -54q0 -74 -23 -135t-70.5 -105t-120 -68.5t-171.5 -24.5h-24q-11 0 -24 0.5t-29.5 0.5t-41.5 1q-17 -26 -25 -48.5t-8 -35.5q0 -9 2.5 -16.5t9 -13.5t17.5 -10.5t29 -8.5l313 -70q42 -9 72 -24t49 -35.5 t27.5 -46.5t8.5 -58q0 -48 -16 -92t-46 -83t-72 -71t-92 -55t-107 -36t-117 -13q-76 0 -136 16t-102 44t-64 67t-22 84q0 18 2 33.5t8 32.5t18 36t30 44t46 57l66 76q-18 8 -31 17.5t-21.5 22t-12.5 28.5t-4 38q0 17 4.5 33t13.5 34.5t24 41.5t38 53q-34 50 -53 110t-19 132 q0 86 26.5 157t75.5 122.5t116 80t149 28.5q51 0 91.5 -8.5t74.5 -25.5l280 66zM656 608q0 58 -12 102.5t-34 74t-53 44.5t-71 15q-48 0 -87.5 -18.5t-67 -52t-42.5 -80.5t-15 -105q0 -22 3 -47t8 -49.5t13 -47.5q8 -22 18 -40q16 0 27 -1t20 -1h16h17q67 0 115.5 13.5 t80.5 40t48 64.5t16 88zM643 -112q0 14 -3.5 27.5t-12 25t-23.5 19.5q-14 10 -36 14l-273 59l-47 -60q-20 -26 -33 -45.5t-20.5 -35.5t-12 -29t-5.5 -26t-1 -27q0 -22 11.5 -42t35 -35t59.5 -24.5t86 -9.5q54 0 104 14.5t88 39.5t60.5 60t22.5 75z" />
<glyph unicode="h" horiz-adv-x="983" d="M334 760l95 76q41 32 73.5 55t58 38t48.5 23t44 11t45 3q38 0 69 -8t53 -29t34 -56t12 -89q0 -9 -0.5 -21.5t-1.5 -26.5l-2 -28q-1 -14 -2 -26l-64 -682h-151l57 658q2 23 3 45.5t1 40.5q0 42 -15.5 59.5t-49.5 17.5q-21 0 -45.5 -10t-61 -34.5t-88.5 -64.5l-126 -104 l-60 -608h-152l146 1450l150 12z" />
<glyph unicode="i" horiz-adv-x="459" d="M260 0h-152l97 952h149zM228 1182l18 192h154l-19 -192h-153z" />
<glyph unicode="j" horiz-adv-x="471" d="M-137 -262q37 -8 67 -12t56 -4q24 0 43.5 9t35 30t25.5 56t16 87l107 1048h151l-104 -1046q-8 -80 -33 -139t-61.5 -97t-83 -57t-98.5 -19q-37 0 -74 5t-76 18zM236 1182l18 192h154l-19 -192h-153z" />
<glyph unicode="k" horiz-adv-x="903" d="M404 1462l-92 -922h94l319 410h159l-362 -468l316 -482h-184l-273 428h-80l-41 -428h-152l146 1450z" />
<glyph unicode="l" horiz-adv-x="469" d="M264 0h-156l146 1452l154 10z" />
<glyph unicode="m" horiz-adv-x="1487" d="M336 774l92 73q40 31 72 52.5t57 34.5t46 20.5t40.5 9.5t40.5 2q38 0 69 -8.5t53 -31t34 -59.5t12 -95l92 74q40 31 72.5 52.5t57.5 34.5t46.5 21t41 10t40.5 2q38 0 69 -8t53 -29t34 -56t12 -89q0 -10 -1 -22l-1 -26l-2 -28t-2 -26l-64 -682h-151l57 658q2 23 3 45.5 t1 40.5q0 42 -15.5 59.5t-49.5 17.5q-13 0 -26 -3.5t-30 -11.5t-39 -22t-52 -37l-68 -53l-90 -74l-58 -620h-151l57 658q2 23 3 45.5t1 40.5q0 42 -16 59.5t-50 17.5q-13 0 -26 -3.5t-29.5 -11.5t-38.5 -22l-52 -38l-69 -54l-91 -74l-56 -618h-154l93 950h149z" />
<glyph unicode="n" horiz-adv-x="983" d="M348 950l-14 -190l95 76q41 32 73.5 55t58 38t48.5 23t44 11t45 3q38 0 69 -8t53 -29t34 -56t12 -89q0 -9 -0.5 -21.5t-1.5 -26.5l-2 -28q-1 -14 -2 -26l-64 -682h-151l57 658q2 23 3 45.5t1 40.5q0 42 -15.5 59.5t-49.5 17.5q-21 0 -45.5 -10t-61 -34.5t-88.5 -64.5 l-126 -104l-56 -608h-154l93 950h145z" />
<glyph unicode="o" d="M854 574q0 -80 -12 -155t-34.5 -140t-57 -119t-82 -92t-107 -59t-133.5 -21q-82 0 -144 22t-103.5 70.5t-63 127t-21.5 190.5q0 130 29 237t84 183t135 117.5t182 41.5q88 0 150 -25.5t102 -76.5t58 -126t18 -175zM696 555q0 70 -9 125t-31.5 92.5t-58.5 56.5t-89 19 q-54 0 -101 -25t-81 -78.5t-54 -136t-20 -196.5q0 -82 11.5 -138.5t35 -92t59.5 -51.5t86 -16q60 0 107.5 30t79.5 87t48.5 138.5t16.5 185.5z" />
<glyph unicode="p" horiz-adv-x="958" d="M334 766l78 74q34 32 62 54t51 36t44.5 22t43 11t45.5 3q44 0 82 -17t67 -56t45 -101t16 -151q0 -154 -31 -274.5t-89 -204.5t-141 -128t-187 -44q-40 0 -79 4t-83 12l-41 -395l-151 -13l137 1354h145zM272 140q38 -11 83 -17.5t83 -6.5q68 0 119 34t86 98.5t52 159 t17 216.5q0 54 -7.5 93t-21 63t-32.5 35t-41 11q-21 0 -44 -10t-55.5 -34t-78.5 -65l-112 -105z" />
<glyph unicode="q" horiz-adv-x="975" d="M628 188l-78 -73q-34 -31 -61 -53t-50 -35.5t-43.5 -21t-41.5 -10.5t-45 -3q-44 0 -82.5 17.5t-66.5 56t-45 100.5t-17 152q0 153 31 273.5t88 204.5t139 128t186 44q34 0 73 -3t79 -9t80.5 -15t77.5 -19l-131 -1303l-151 -12zM692 819l-42 8.5t-43.5 7.5t-42.5 5 q-22 2 -40 2q-67 0 -117.5 -34t-84.5 -99t-51 -159t-17 -216q0 -54 8 -92.5t21 -62.5t32 -35t41 -11q20 0 43.5 9.5t56 33.5t78.5 66l111 104z" />
<glyph unicode="r" horiz-adv-x="667" d="M264 0h-154l95 952h133l-18 -242l68 99q29 41 51.5 70t40 46t34 26t32.5 12q18 3 38 3q32 0 57.5 -4t48.5 -10l-24 -137l-40 3q-18 1 -36 1q-14 0 -27 -3.5t-27 -14.5t-33 -31t-45 -53l-62 -82l-84 -115z" />
<glyph unicode="s" horiz-adv-x="690" d="M586 819q-52 16 -97 23.5t-91 7.5q-34 0 -58 -9t-40 -25t-23 -37.5t-7 -45.5q0 -26 5 -46.5t17 -42t34.5 -45t58.5 -54.5q45 -38 78 -68.5t56 -55.5t38 -47t23 -43t11 -42t3 -45q0 -57 -19.5 -104.5t-56.5 -81t-90.5 -52t-122.5 -18.5q-72 0 -142 17t-130 55l43 118 q60 -29 122 -45.5t116 -16.5q34 0 59.5 8.5t42 23t24.5 34.5q8 22 8 46t-5 43.5t-20 41t-43.5 47.5t-74.5 62q-53 42 -88 78t-56 72t-29.5 72.5t-8.5 78.5q0 48 17 92.5t51 79.5t85 57q52 21 120 21q34 0 63 -2t56 -6.5t52 -11t49 -15.5z" />
<glyph unicode="t" horiz-adv-x="647" d="M372 950h242l-14 -120h-238l-50 -512q-5 -39 -6 -74.5t-1 -59.5q0 -18 3.5 -30t10.5 -18t18 -8.5t25 -2.5q25 0 72.5 11t114.5 34l27 -114q-40 -18 -76 -30.5t-70 -20.5t-66 -11.5t-63 -3.5q-78 0 -117 40q-38 40 -38 120v29t1 32t3 38l4 46l55 537l-137 4l10 104l141 10 l49 328l128 4z" />
<glyph unicode="u" horiz-adv-x="985" d="M664 200l-98 -79q-43 -34 -77 -58t-61 -39.5t-50.5 -24.5t-45.5 -12q-24 -3 -48 -3q-38 0 -68.5 8t-52.5 29t-34.5 56.5t-12.5 88.5q0 9 1 22l2 27l2 28l2 25l63 682h152l-58 -657q-2 -24 -3 -46.5t-1 -39.5q0 -42 16 -60t50 -18q21 0 45.5 10t60.5 34.5t88 65.5l128 103 l55 608h155l-63 -638l4 -310l-145 -2z" />
<glyph unicode="v" horiz-adv-x="854" d="M244 950l133 -720q3 -18 4 -37t0 -37q2 18 6.5 37t14.5 39l313 720h147l-430 -952h-160l-184 950h156z" />
<glyph unicode="w" horiz-adv-x="1356" d="M250 950l98 -692q6 -36 6 -74q2 18 6 37q2 19 10 39l275 666h137l148 -670q3 -17 5.5 -37t2.5 -39q0 19 5 39.5t13 40.5l250 690h142l-363 -950h-143l-144 688q-5 20 -7.5 38t-2.5 34q-2 -16 -6 -36t-12 -40l-279 -684h-135l-154 950h148z" />
<glyph unicode="x" horiz-adv-x="833" d="M391 372l-213 -372h-160l306 496l-220 454h168l166 -348l201 348h157l-290 -471l236 -479h-172z" />
<glyph unicode="y" horiz-adv-x="868" d="M414 272q5 -18 5.5 -34t-1.5 -35q2 18 6 35q4 16 14 36l283 676h143l-588 -1350h-153l199 447l-232 903h158z" />
<glyph unicode="z" horiz-adv-x="792" d="M561 828h-424l11 122h602l12 -104l-555 -723h493l-10 -123h-657l-13 114z" />
<glyph unicode="{" horiz-adv-x="715" d="M738 1362q-81 -18 -135.5 -38t-88 -49.5t-48 -71t-14.5 -101.5q0 -38 4 -83l6 -90l6 -88q3 -43 3 -77q0 -44 -9.5 -85t-33 -76t-62 -63t-96.5 -46q42 -14 70 -38t44 -54t23 -66t7 -74q0 -50 -11.5 -101t-25 -101t-24.5 -100t-11 -100t10 -86t36.5 -62t72 -45t115.5 -33 l-44 -113q-92 12 -156.5 35t-105 60.5t-59.5 92.5t-19 131q0 32 5.5 66.5t13.5 69t17.5 68.5t17.5 67t13 65t5 62q0 42 -8 73t-30 53.5t-61 37t-103 22.5l10 110q68 7 115.5 25.5t77 46.5t43.5 66t14 84q0 38 -4 79l-7 87q-4 45 -7 91.5t-3 92.5q0 86 22.5 149t71.5 107.5 t126 72t189 41.5z" />
<glyph unicode="|" horiz-adv-x="610" d="M150 -406l174 1914h130l-174 -1914h-130z" />
<glyph unicode="}" horiz-adv-x="715" d="M-22 -364q80 17 134.5 36.5t88 49t47.5 72t14 102.5q0 38 -3 82l-6 90l-7 88q-2 42 -2 76q0 46 9.5 87t33 76t61.5 63t96 46q-42 14 -69.5 37t-44 54t-23 66.5t-6.5 73.5q0 51 11.5 101.5t24.5 101t24 100.5t11 98q0 50 -10 86.5t-37 63t-72 45.5t-113 33l42 112 q92 -12 156.5 -35t105 -61t58.5 -93t18 -132q0 -32 -5 -66.5t-13 -68.5t-17.5 -68t-17.5 -67t-13.5 -65t-5.5 -62q0 -41 8.5 -72.5t31 -54t62.5 -37t104 -20.5l-13 -111q-68 -8 -115 -26t-76.5 -46.5t-43 -65.5t-13.5 -83q0 -38 3 -80l6 -87q3 -45 6.5 -92t3.5 -93 q0 -86 -22 -149t-71 -107t-127 -71t-190 -42z" />
<glyph unicode="~" horiz-adv-x="884" d="M882 1438q-10 -62 -28 -106t-44 -72t-61 -41t-79 -13q-23 0 -51 3l-57.5 6t-60 7.5t-58.5 8t-52.5 6t-42.5 2.5q-17 0 -30.5 -5.5t-24.5 -20t-20 -38.5t-17 -61l-104 22q9 61 24.5 104.5t39.5 70.5t57 40t79 13q23 0 50.5 -2t55.5 -5t57 -7l56 -7q27 -3 51 -5t42 -2 q21 0 37 6t29.5 21.5t24 40t19.5 60.5z" />
<glyph unicode="&#xa1;" horiz-adv-x="575" d="M219 465h133l-82 -979h-188zM418 942l-22 -196h-160l22 196h160z" />
<glyph unicode="&#xa2;" horiz-adv-x="794" d="M723 80q-46 -23 -81.5 -38.5t-67.5 -25.5t-62 -15.5t-62 -8.5l-16 -268h-129l29 270q-54 6 -99.5 30t-78 69t-50.5 111t-18 156q0 127 23 232.5t66.5 183.5t107.5 127t147 65l24 275h128l-31 -268q22 -2 45.5 -4.5t45 -6.5t40 -9t31.5 -9l-23 -122q-22 4 -48 7l-54 7 q-27 4 -54.5 6t-49.5 2q-40 0 -74 -16t-61 -45t-47 -70.5t-33.5 -92t-20 -109.5t-6.5 -124q0 -56 8 -104t28 -83t54 -55t86 -20q26 0 55 4t61.5 13t70 23.5t81.5 35.5z" />
<glyph unicode="&#xa3;" horiz-adv-x="1026" d="M862 1012q-62 17 -120 25.5t-107 8.5q-44 0 -73.5 -12t-47.5 -37t-26 -64t-11 -93l-10 -220h305l-6 -108h-305l-9 -154q-4 -72 -13 -130t-29 -109q64 -8 111 -12.5l80 -7.5t54.5 -4t34.5 -1q30 0 53 5t45.5 19t46 38t52.5 61l90 -67q-29 -50 -60 -85.5t-66 -58t-76 -33 t-91 -10.5q-26 0 -73.5 3.5t-119.5 10.5l-169 15l-220 20l-4 107l154 8q8 26 14.5 51.5t11 53.5t7.5 58t6 64l8 158h-170l8 108h168l13 214q4 83 23 146.5t57 107t96.5 66t142.5 22.5q74 0 134.5 -12t115.5 -30z" />
<glyph unicode="&#xa4;" horiz-adv-x="1018" d="M297 672q24 76 61.5 134.5t86.5 99t109 62t130 21.5q24 0 53 -2.5t56 -6.5t51 -9t40 -13l-24 -122q-22 4 -48 8t-53 7t-54 5t-49 2q-37 0 -68 -13t-56.5 -37.5t-45.5 -59t-34 -76.5h346l-6 -100h-366q-6 -38 -10 -76t-4 -80h370l-6 -100h-360q4 -52 17 -88.5t34 -59 t51 -32t68 -9.5q27 0 55.5 4t61.5 13t70 23.5t81 35.5l35 -121q-53 -27 -97 -45.5t-83 -29t-77.5 -15t-80.5 -4.5q-62 0 -113.5 18t-90.5 58t-63 102t-30 150h-192l10 100h182q2 84 18 156h-194l8 100h211z" />
<glyph unicode="&#xa5;" horiz-adv-x="1028" d="M654 526l-72 -96l-8 -98h340l-9 -104h-342l-18 -228h-154l19 228h-342l8 104h344l8 82l-56 112h-268l10 102h204l-162 322h168l198 -389l281 389h161l-235 -322h221l-8 -102h-288z" />
<glyph unicode="&#xa6;" horiz-adv-x="610" d="M250 702l76 806h130l-73 -806h-133zM150 -406l73 814h133l-74 -814h-132z" />
<glyph unicode="&#xa7;" horiz-adv-x="985" d="M731 475q30 -60 49.5 -109.5t32 -92.5t18 -82t5.5 -77q0 -88 -30.5 -159t-85.5 -121t-132.5 -77t-171.5 -27q-86 0 -172 14.5t-166 48.5l26 115q57 -21 102.5 -33t86.5 -18.5t80 -8.5t81 -2q0 44 -8 95t-22 104t-33 105t-41 100l-118 250l-49 110.5t-33.5 92t-18.5 81 t-6 76.5q0 88 30.5 159t85.5 121t132 77.5t172 27.5q86 0 171.5 -14.5t165.5 -48.5l-26 -115q-57 21 -102.5 33t-86.5 18.5t-79.5 8t-81.5 1.5q0 -44 8 -95t22 -103.5t33 -105t41 -99.5zM508 643q-59 132 -89 246.5t-30 218.5q-38 -16 -65 -40.5t-44 -54.5t-24.5 -64.5 t-7.5 -72.5q0 -24 3.5 -49t12 -55t23.5 -68t37 -86l128 -286q59 -132 89.5 -247t30.5 -218q38 16 65 40.5t44 54.5t24 65t7 71q0 24 -3 49t-12 56t-23 68t-37 85z" />
<glyph unicode="&#xa8;" horiz-adv-x="915" d="M194 1184l21 190h145l-18 -190h-148zM610 1184l21 190h145l-18 -190h-148z" />
<glyph unicode="&#xa9;" horiz-adv-x="1431" d="M1272 547q0 -88 -20 -169.5t-56.5 -153t-89 -130t-118.5 -100.5t-144 -65t-166 -23q-128 0 -226.5 32.5t-165 96t-100.5 158.5t-34 221q0 96 22 179.5t62 154t95 126.5t123 95t145 59t159 20q134 0 231 -37t160 -104t93 -159t30 -201zM1166 528q0 98 -25 177.5t-77 135 t-131 85.5t-189 30q-73 0 -137.5 -17t-118.5 -49.5t-97 -79t-72.5 -104.5t-45 -126.5t-15.5 -145.5q0 -105 26 -186.5t79.5 -136.5t136 -84t194.5 -29q64 0 123.5 16t112 47.5t95.5 77t74.5 104.5t49 130.5t17.5 154.5zM893 226q-33 -17 -61 -29.5t-54 -20t-52 -11t-56 -3.5 q-42 0 -77.5 14t-60.5 42.5t-39 73t-14 106.5q0 90 19.5 160t55.5 118.5t88 74t116 25.5q32 0 62 -4.5t54 -13.5l-20 -88q-30 6 -56 9t-58 3q-30 0 -57 -16t-47 -49t-31 -84t-11 -123q0 -42 7 -70.5t20 -46t32 -25.5t43 -8q40 0 81 14t91 38z" />
<glyph unicode="&#xaa;" horiz-adv-x="758" d="M570 698l-105 -2l-2 117l-67 -59q-28 -24 -50 -37t-41 -19t-39 -6q-26 0 -50 11t-42.5 35t-29.5 62.5t-11 94.5q0 94 19 167.5t54.5 124.5t87.5 77t116 26q21 0 44.5 -2t49 -6t51 -10t49.5 -14l-36 -367zM492 1184q-23 6 -47.5 10t-44.5 4q-80 0 -119 -69t-39 -213 q0 -58 16 -86.5t45 -28.5q11 0 25.5 7.5t34 21.5t43.5 36l55 52z" />
<glyph unicode="&#xab;" horiz-adv-x="1153" d="M486 116l-142 -42l-225 382l354 422l145 -36l-317 -379zM918 116l-142 -42l-223 382l355 422l144 -36l-317 -379z" />
<glyph unicode="&#xac;" horiz-adv-x="1009" d="M692 88l29 330h-586l15 118h722l-40 -442z" />
<glyph unicode="&#xad;" horiz-adv-x="698" d="M614 461h-540l10 113h540z" />
<glyph unicode="&#xae;" horiz-adv-x="1192" d="M1067 1143q0 -73 -16.5 -141t-46.5 -127t-74 -107t-98.5 -83t-119 -54t-138.5 -19q-109 0 -190.5 28t-135.5 81t-80 131.5t-26 179.5q0 79 18 148.5t51 128.5t79 105.5t102 79t120 49.5t133 17q110 0 189.5 -29.5t131.5 -84t76.5 -132t24.5 -171.5zM975 1126 q0 82 -19 147t-60 111t-106 70t-157 24q-90 0 -164 -31t-126.5 -88t-81.5 -136t-29 -175q0 -92 20 -159t63.5 -111t111.5 -66t163 -22q79 0 149 30t122.5 86t83 137t30.5 183zM682 844l-86 170l-72 4l-14 -174h-80l43 487h155q39 0 68 -10t47.5 -28t27.5 -42.5t9 -52.5 q0 -50 -27 -90t-79 -78l104 -180zM696 1190q0 16 -5 30t-16 25t-27 17t-40 6h-61l-15 -188l103 -5q16 16 27.5 29.5t19.5 27t11 27.5t3 31z" />
<glyph unicode="&#xaf;" horiz-adv-x="786" d="M676 1231h-576l10 117h576z" />
<glyph unicode="&#xb0;" horiz-adv-x="819" d="M717 1080q0 -64 -22.5 -118.5t-68.5 -99.5q-44 -44 -98 -67t-118 -23t-118 23t-100 67q-46 45 -68 99.5t-22 118.5t22 118t68 98q90 90 218 90t216 -90q45 -45 68 -98.5t23 -117.5zM633 1080q0 46 -16.5 85t-48.5 72q-32 34 -72 49.5t-86 15.5t-86 -15.5t-72 -49.5 q-34 -32 -50 -71.5t-16 -85.5t16 -86t50 -72q32 -32 72 -49t86 -17t86 17t72 49q66 66 65 158z" />
<glyph unicode="&#xb1;" horiz-adv-x="1124" d="M612 1270v-480h476v-96h-476v-475h-98v475h-477v96h477v480h98zM1088 98v-98h-1051v98h1051z" />
<glyph unicode="&#xb2;" horiz-adv-x="661" d="M92 588l254 206q24 20 41.5 37t28 33t15.5 32t5 34t-5.5 33.5t-17 27t-29.5 17.5t-42 6q-31 0 -71.5 -10t-84.5 -27l-30 94q56 25 109 37t101 12q51 0 88 -13t60.5 -36t35 -54t11.5 -67q0 -26 -5.5 -49.5t-18.5 -47.5t-34 -47.5t-53 -49.5l-196 -162h305l-10 -100h-445z " />
<glyph unicode="&#xb3;" horiz-adv-x="633" d="M80 432q45 -17 92.5 -25.5t95.5 -8.5q30 0 55 8t42 24t27 40t10 56q0 26 -11 48t-37 39t-69 28t-107 13l12 92q30 0 58 -1t53 -3q31 30 52 54t34 45t19 42t6 43q0 18 -6 34t-18 28t-29 19t-41 7q-32 0 -73 -10t-83 -27l-31 94q54 25 107.5 37t101.5 12q52 0 89 -13.5 t61 -37t35 -55.5t11 -68q0 -27 -7 -53t-22.5 -52.5t-41 -55.5t-61.5 -60q32 -14 56 -34.5t39.5 -43.5t23 -49t7.5 -53q0 -54 -17.5 -99.5t-52 -79t-87 -52.5t-121.5 -19q-24 0 -50.5 2.5t-53.5 7t-52.5 12t-48.5 17.5z" />
<glyph unicode="&#xb4;" horiz-adv-x="536" d="M215 1134l-111 34l244 354l138 -35z" />
<glyph unicode="&#xb5;" horiz-adv-x="1179" d="M950 314q0 -60 2 -103t8 -65q4 -17 12 -29.5t15 -20.5q10 -8 19 -11t20 -3q26 0 47 24t31 99h41q-8 -68 -24.5 -114.5t-40.5 -70.5q-25 -26 -56.5 -38t-69.5 -12t-66 10t-50 34q-23 22 -36.5 61t-17.5 95q-51 -58 -99.5 -96t-94.5 -62q-45 -22 -84.5 -33.5t-73.5 -11.5 q-23 0 -44.5 4.5t-43.5 14.5t-43 22t-41 29q-4 -146 24 -252q18 -79 19 -109q0 -28 -6.5 -49t-20.5 -37q-27 -32 -63 -32q-17 0 -32 7t-25 21q-16 18 -23.5 42t-7.5 52q0 14 2 32t8 38q14 48 23 89t12 75q6 62 9 112.5t3 92.5v797h168v-576q0 -104 18 -148q8 -23 23 -40 t37 -31q24 -12 45 -19.5t43 -7.5q26 0 57 8t66 25q37 16 72 40.5t73 58.5v690h166v-602z" />
<glyph unicode="&#xb6;" horiz-adv-x="1356" d="M832 944h358l-12 -112l-218 -6l-112 -1180h-146zM626 258q-65 -32 -130.5 -49t-137.5 -17q-64 0 -110 21t-75.5 62.5t-44 103t-14.5 141.5q0 102 21 184t66.5 140t116 89t170.5 31q44 0 96 -4t116 -10z" />
<glyph unicode="&#xb7;" horiz-adv-x="559" d="M188 385l21 199h157l-22 -199h-156z" />
<glyph unicode="&#xb8;" horiz-adv-x="502" d="M362 45q10 -28 18 -59.5t14 -62.5t9 -61t3 -54q0 -28 -7 -56t-22 -52t-41 -44t-64 -35t-89 -24t-119 -11l-17 107q67 4 108 13.5t64 23.5t31 32t8 40q0 16 -2 42t-5.5 58t-9 67t-11.5 68z" />
<glyph unicode="&#xb9;" horiz-adv-x="549" d="M328 500h-130l48 498h-158l12 108l287 12z" />
<glyph unicode="&#xba;" horiz-adv-x="708" d="M598 1046q-2 -74 -17.5 -138t-47 -112t-80 -76t-115.5 -28q-50 0 -88 13.5t-64 43t-39.5 76.5t-13.5 115q0 79 17.5 143.5t50.5 110.5t81.5 71t110.5 25q56 0 94.5 -15t63.5 -46t36 -76.5t11 -106.5zM492 1034q0 40 -6 71t-19 52t-33.5 32t-50.5 11q-29 0 -55 -15 t-45 -46t-30 -78t-11 -113q0 -45 6 -76.5t19 -50.5t33 -28t48 -9q33 0 59.5 17t45.5 49t29 78.5t10 105.5z" />
<glyph unicode="&#xbb;" horiz-adv-x="1153" d="M670 836l141 42l223 -380l-352 -422l-148 36l320 380zM236 836l141 42l223 -380l-352 -422l-148 36l320 380z" />
<glyph unicode="&#xbc;" horiz-adv-x="1517" d="M846 146l334 454l145 10l-41 -456h117l-9 -101h-118l-18 -247h-130l23 247h-293zM958 154h199l31 321zM328 500h-130l48 498h-158l12 108l287 12zM406 0h-146l664 983h143z" />
<glyph unicode="&#xbd;" horiz-adv-x="1546" d="M328 500h-130l48 498h-158l12 108l287 12zM958 96l254 205q24 20 42 37t28.5 33t15 31.5t4.5 33.5t-5 34t-17 27.5t-30 18t-42 6.5q-31 0 -71.5 -11t-84.5 -27l-30 94q56 25 109 37.5t102 12.5q50 0 87 -13t60.5 -35.5t35.5 -53.5t12 -67q0 -26 -6 -50.5t-19 -48.5 t-34 -48t-52 -50l-197 -160h304l-9 -102h-444zM406 0h-146l664 983h143z" />
<glyph unicode="&#xbe;" horiz-adv-x="1673" d="M1020 146l334 454l145 10l-41 -456h119l-8 -101h-119l-18 -247h-132l23 247h-291zM1132 154h201l29 321zM572 0h-146l664 983h145zM80 432q45 -17 92.5 -25.5t95.5 -8.5q30 0 55 8t42 24t27 40t10 56q0 26 -11 48t-37 39t-69 28t-107 13l12 92q30 0 58 -1t53 -3 q31 30 52 54t34 45t19 42t6 43q0 18 -6 34t-18 28t-29 19t-41 7q-32 0 -73 -10t-83 -27l-31 94q54 25 107.5 37t101.5 12q52 0 89 -13.5t61 -37t35 -55.5t11 -68q0 -27 -7 -53t-22.5 -52.5t-41 -55.5t-61.5 -60q32 -14 56 -34.5t39.5 -43.5t23 -49t7.5 -53 q0 -54 -17.5 -99.5t-52 -79t-87 -52.5t-121.5 -19q-24 0 -50.5 2.5t-53.5 7t-52.5 12t-48.5 17.5z" />
<glyph unicode="&#xbf;" horiz-adv-x="909" d="M649 568q11 -40 20 -79t15 -73.5t9 -64t3 -52.5q0 -28 -5 -46t-17.5 -30.5t-34 -21.5t-55.5 -19l-140 -38q-56 -16 -95 -34t-64 -40t-37 -48t-12 -57q0 -30 6.5 -56.5t24 -51t48.5 -48t79 -48t116 -51t160 -56.5l-50 -144q-108 26 -191 57t-144 64.5t-102.5 70t-66.5 75 t-35.5 79t-10.5 82.5q0 58 17 104t54 83.5t95 68t139 56.5l167 53l-20 246zM719 942l-21 -196h-158l23 196h156z" />
<glyph unicode="&#xc0;" horiz-adv-x="1169" d="M20 0l629 1390h143l306 -1390h-164l-98 442h-459l-197 -442h-160zM424 561h387l-113 533q-6 34 -8 67t-2 63q0 -16 -2 -29t-4.5 -27t-7 -28.5t-12.5 -31.5zM692 1571l-210 352l128 35l193 -354z" />
<glyph unicode="&#xc1;" horiz-adv-x="1169" d="M20 0l629 1390h143l306 -1390h-164l-98 442h-459l-197 -442h-160zM424 561h387l-113 533q-6 34 -8 67t-2 63q0 -16 -2 -29t-4.5 -27t-7 -28.5t-12.5 -31.5zM788 1571l-110 33l244 354l137 -35z" />
<glyph unicode="&#xc2;" horiz-adv-x="1169" d="M20 0l629 1390h143l306 -1390h-164l-98 442h-459l-197 -442h-160zM424 561h387l-113 533q-6 34 -8 67t-2 63q0 -16 -2 -29t-4.5 -27t-7 -28.5t-12.5 -31.5zM828 1952l168 -356l-130 -13l-114 246l-162 -248l-117 15l248 356h107z" />
<glyph unicode="&#xc3;" horiz-adv-x="1169" d="M20 0l629 1390h143l306 -1390h-164l-98 442h-459l-197 -442h-160zM424 561h387l-113 533q-6 34 -8 67t-2 63q0 -16 -2 -29t-4.5 -27t-7 -28.5t-12.5 -31.5zM1054 1902q-10 -59 -28 -101t-43.5 -69t-59 -39.5t-75.5 -12.5q-27 0 -58 2l-63 4l-61 5q-30 3 -54 3 q-18 0 -31 -6t-23.5 -20t-20 -38t-19.5 -61l-102 20q10 58 25.5 100.5t39 70.5t55.5 42t74 14q26 0 57 -1.5t61 -3.5l58 -5q28 -2 50 -2t38 6t28.5 20t23 38t20.5 61z" />
<glyph unicode="&#xc4;" horiz-adv-x="1169" d="M20 0l629 1390h143l306 -1390h-164l-98 442h-459l-197 -442h-160zM424 561h387l-113 533q-6 34 -8 67t-2 63q0 -16 -2 -29t-4.5 -27t-7 -28.5t-12.5 -31.5zM456 1620l21 190h145l-18 -190h-148zM872 1620l21 190h145l-18 -190h-148z" />
<glyph unicode="&#xc5;" horiz-adv-x="1169" d="M20 0l629 1390h143l306 -1390h-164l-98 442h-459l-197 -442h-160zM424 561h387l-113 533q-6 34 -8 67t-2 63q0 -16 -2 -29t-4.5 -27t-7 -28.5t-12.5 -31.5zM576 1704q0 42 13 77.5t37.5 62t59.5 41.5t78 15q42 0 74 -11t54 -31t33 -48t11 -63q0 -42 -13 -77.5t-37 -62 t-60 -42t-82 -15.5q-82 0 -125 41t-43 113zM680 1712q0 -38 17 -58t55 -20q39 0 60.5 26t21.5 76q0 16 -4.5 30t-13.5 24t-23 16t-33 6q-39 0 -59.5 -27t-20.5 -73z" />
<glyph unicode="&#xc6;" horiz-adv-x="1667" d="M1577 129l-13 -129h-810l38 438h-403l-283 -438h-178l893 1390h791l-16 -126h-562l-49 -506h498l-13 -127h-495l-47 -502h649zM459 561h346l65 684q-2 -13 -5.5 -25t-9 -25.5t-14.5 -29l-20 -33.5z" />
<glyph unicode="&#xc7;" horiz-adv-x="1140" d="M1050 133q-65 -33 -119.5 -57.5t-102.5 -41.5t-91 -27.5t-83 -14.5q6 -24 11 -48.5t8 -48.5t5 -46.5t2 -40.5q0 -28 -6.5 -56t-22 -52t-41 -44t-63.5 -35t-89.5 -24t-119.5 -11l-16 107q44 2 77 7.5t56.5 12.5t38 17t23.5 21t12 24t3 27q0 13 -1 32.5t-3 43.5t-6 51 l-8 55q-95 4 -171.5 41t-129.5 109t-82 180t-29 256q0 110 15.5 215t48 198.5t82.5 171.5t120 134.5t161 88t204 31.5q94 0 181.5 -12.5t158.5 -32.5l-57 -444h-134l26 338q-39 10 -83.5 14t-93.5 4q-90 0 -159.5 -27.5t-120.5 -76t-85.5 -114t-56 -142.5t-30.5 -161.5 t-9 -170.5q0 -126 23 -213t63.5 -141t96 -77.5t119.5 -23.5q42 0 87 7.5t98 24t115 43t138 64.5z" />
<glyph unicode="&#xc8;" horiz-adv-x="1034" d="M950 129l-12 -129h-813l131 1390h727l-15 -126h-562l-48 -506h498l-14 -127h-494l-49 -502h651zM610 1575l-210 352l128 35l193 -354z" />
<glyph unicode="&#xc9;" horiz-adv-x="1034" d="M950 129l-12 -129h-813l131 1390h727l-15 -126h-562l-48 -506h498l-14 -127h-494l-49 -502h651zM696 1575l-110 33l244 354l136 -35z" />
<glyph unicode="&#xca;" horiz-adv-x="1034" d="M950 129l-12 -129h-813l131 1390h727l-15 -126h-562l-48 -506h498l-14 -127h-494l-49 -502h651zM752 1956l168 -356l-130 -13l-114 246l-162 -248l-116 15l247 356h107z" />
<glyph unicode="&#xcb;" horiz-adv-x="1034" d="M950 129l-12 -129h-813l131 1390h727l-15 -126h-562l-48 -506h498l-14 -127h-494l-49 -502h651zM364 1624l21 190h145l-18 -190h-148zM780 1624l21 190h145l-18 -190h-148z" />
<glyph unicode="&#xcc;" horiz-adv-x="706" d="M712 1280l-202 -10l-108 -1149l204 -9l-10 -112h-572l11 108l203 13l106 1149l-198 12l10 108h567zM400 1575l-212 352l130 35l192 -354z" />
<glyph unicode="&#xcd;" horiz-adv-x="706" d="M712 1280l-202 -10l-108 -1149l204 -9l-10 -112h-572l11 108l203 13l106 1149l-198 12l10 108h567zM504 1575l-111 33l244 354l137 -35z" />
<glyph unicode="&#xce;" horiz-adv-x="706" d="M712 1280l-202 -10l-108 -1149l204 -9l-10 -112h-572l11 108l203 13l106 1149l-198 12l10 108h567zM542 1956l168 -356l-128 -13l-115 246l-162 -248l-117 15l248 356h106z" />
<glyph unicode="&#xcf;" horiz-adv-x="706" d="M712 1280l-202 -10l-108 -1149l204 -9l-10 -112h-572l11 108l203 13l106 1149l-198 12l10 108h567zM172 1624l20 190h146l-18 -190h-148zM588 1624l20 190h146l-19 -190h-147z" />
<glyph unicode="&#xd0;" horiz-adv-x="1292" d="M620 1390q122 0 214.5 -19.5t159.5 -57t111 -90.5t70.5 -119.5t36.5 -146t10 -167.5q0 -184 -38 -330.5t-119 -248.5t-205.5 -156.5t-296.5 -54.5h-411l61 656h-215l8 114h217l59 620h338zM1052 778q-2 79 -11 145.5t-30 120.5t-55 95t-86 69t-123 42t-165 14h-154 l-43 -494h279l-8 -114h-281l-47 -529h252q119 0 207.5 37.5t147.5 117.5t88 203t29 293z" />
<glyph unicode="&#xd1;" horiz-adv-x="1284" d="M1052 1388h140l-112 -1388h-146l-526 1036q-17 32 -25 56t-8 44l-105 -1136h-145l135 1388h144l524 -1046q18 -32 25 -56t7 -44zM1082 1906q-10 -59 -28.5 -101t-44 -69t-59.5 -39.5t-76 -12.5q-27 0 -57.5 2t-62.5 5t-61.5 5t-53.5 2q-18 0 -31 -6t-23.5 -20t-20 -38 t-19.5 -61l-103 21q10 58 26 100t39 70t55 42t75 14q26 0 56.5 -1.5t60.5 -3.5l58 -5q28 -2 50 -2t38 6t29 20t23.5 38t20.5 62z" />
<glyph unicode="&#xd2;" horiz-adv-x="1298" d="M1204 813q0 -126 -17 -237t-51.5 -203.5t-86 -165t-118.5 -123t-151 -76.5t-184 -26q-118 0 -209.5 30t-155 101t-96.5 188t-33 289q0 189 41 340.5t119 258.5t193 164.5t262 57.5q94 0 167.5 -19.5t127.5 -56.5t91 -89.5t59 -119t32 -145.5t10 -168zM1038 790 q0 122 -17 212.5t-57 150t-105 88.5t-159 29t-173 -39t-137 -120t-90 -206.5t-32 -298.5q0 -139 23 -231.5t66.5 -148t108 -78.5t150.5 -23q99 0 177.5 41.5t133 124.5t83 208t28.5 291zM694 1575l-210 352l128 35l193 -354z" />
<glyph unicode="&#xd3;" horiz-adv-x="1298" d="M1204 813q0 -126 -17 -237t-51.5 -203.5t-86 -165t-118.5 -123t-151 -76.5t-184 -26q-118 0 -209.5 30t-155 101t-96.5 188t-33 289q0 189 41 340.5t119 258.5t193 164.5t262 57.5q94 0 167.5 -19.5t127.5 -56.5t91 -89.5t59 -119t32 -145.5t10 -168zM1038 790 q0 122 -17 212.5t-57 150t-105 88.5t-159 29t-173 -39t-137 -120t-90 -206.5t-32 -298.5q0 -139 23 -231.5t66.5 -148t108 -78.5t150.5 -23q99 0 177.5 41.5t133 124.5t83 208t28.5 291zM805 1575l-111 33l244 354l137 -35z" />
<glyph unicode="&#xd4;" horiz-adv-x="1298" d="M1204 813q0 -126 -17 -237t-51.5 -203.5t-86 -165t-118.5 -123t-151 -76.5t-184 -26q-118 0 -209.5 30t-155 101t-96.5 188t-33 289q0 189 41 340.5t119 258.5t193 164.5t262 57.5q94 0 167.5 -19.5t127.5 -56.5t91 -89.5t59 -119t32 -145.5t10 -168zM1038 790 q0 122 -17 212.5t-57 150t-105 88.5t-159 29t-173 -39t-137 -120t-90 -206.5t-32 -298.5q0 -139 23 -231.5t66.5 -148t108 -78.5t150.5 -23q99 0 177.5 41.5t133 124.5t83 208t28.5 291zM850 1956l168 -356l-129 -13l-115 246l-162 -248l-116 15l248 356h106z" />
<glyph unicode="&#xd5;" horiz-adv-x="1298" d="M1204 813q0 -126 -17 -237t-51.5 -203.5t-86 -165t-118.5 -123t-151 -76.5t-184 -26q-118 0 -209.5 30t-155 101t-96.5 188t-33 289q0 189 41 340.5t119 258.5t193 164.5t262 57.5q94 0 167.5 -19.5t127.5 -56.5t91 -89.5t59 -119t32 -145.5t10 -168zM1038 790 q0 122 -17 212.5t-57 150t-105 88.5t-159 29t-173 -39t-137 -120t-90 -206.5t-32 -298.5q0 -139 23 -231.5t66.5 -148t108 -78.5t150.5 -23q99 0 177.5 41.5t133 124.5t83 208t28.5 291zM1082 1906q-10 -59 -28.5 -101t-44 -69t-59.5 -39.5t-76 -12.5q-27 0 -57.5 2t-62.5 5 t-61.5 5t-53.5 2q-18 0 -31 -6t-23.5 -20t-20 -38t-19.5 -61l-103 21q10 58 26 100t39 70t55 42t75 14q26 0 56.5 -1.5t60.5 -3.5l58 -5q28 -2 50 -2t38 6t29 20t23.5 38t20.5 62z" />
<glyph unicode="&#xd6;" horiz-adv-x="1298" d="M1204 813q0 -126 -17 -237t-51.5 -203.5t-86 -165t-118.5 -123t-151 -76.5t-184 -26q-118 0 -209.5 30t-155 101t-96.5 188t-33 289q0 189 41 340.5t119 258.5t193 164.5t262 57.5q94 0 167.5 -19.5t127.5 -56.5t91 -89.5t59 -119t32 -145.5t10 -168zM1038 790 q0 122 -17 212.5t-57 150t-105 88.5t-159 29t-173 -39t-137 -120t-90 -206.5t-32 -298.5q0 -139 23 -231.5t66.5 -148t108 -78.5t150.5 -23q99 0 177.5 41.5t133 124.5t83 208t28.5 291zM469 1624l21 190h145l-19 -190h-147zM884 1624l21 190h145l-18 -190h-148z" />
<glyph unicode="&#xd7;" horiz-adv-x="870" d="M442 578l264 280l99 -86l-283 -297l222 -303l-109 -76l-209 287l-264 -287l-98 82l284 301l-227 305l115 78z" />
<glyph unicode="&#xd8;" horiz-adv-x="1290" d="M1204 813q0 -126 -17 -237t-51.5 -203.5t-86 -165t-118.5 -123t-151 -76.5t-184 -26q-82 0 -150 14t-124 45l-136 -231l-120 26l164 278q-32 36 -56 82.5t-40 105t-24 130.5t-8 158q0 189 41 340.5t119 258.5t193 164.5t262 57.5q77 0 138 -13.5t111 -37.5l130 223 l120 -29l-155 -260q40 -39 67.5 -89.5t44.5 -112t24 -131.5t7 -148zM1038 790q0 116 -16 203t-51 147l-571 -958q42 -31 96 -44t120 -13q99 0 177.5 41.5t133 124.5t83 208t28.5 291zM268 606q0 -112 15 -194t43 -138l561 950q-36 24 -82.5 35t-104.5 11q-94 0 -173 -39 t-137 -120t-90 -206.5t-32 -298.5z" />
<glyph unicode="&#xd9;" horiz-adv-x="1241" d="M404 1390l-86 -934q-2 -20 -3 -43t-1 -45q0 -58 18 -102t53.5 -75t88 -46.5t120.5 -15.5q78 0 137 23t100 65.5t65 101.5t30 133l88 938h156l-88 -940q-10 -106 -49 -191.5t-103 -145t-152 -91.5t-196 -32q-109 0 -190.5 25t-135.5 72t-81 114t-27 151v25v22t1 23t3 24 l90 944h162zM682 1575l-211 352l129 35l192 -354z" />
<glyph unicode="&#xda;" horiz-adv-x="1241" d="M404 1390l-86 -934q-2 -20 -3 -43t-1 -45q0 -58 18 -102t53.5 -75t88 -46.5t120.5 -15.5q78 0 137 23t100 65.5t65 101.5t30 133l88 938h156l-88 -940q-10 -106 -49 -191.5t-103 -145t-152 -91.5t-196 -32q-109 0 -190.5 25t-135.5 72t-81 114t-27 151v25v22t1 23t3 24 l90 944h162zM776 1575l-110 33l244 354l136 -35z" />
<glyph unicode="&#xdb;" horiz-adv-x="1241" d="M404 1390l-86 -934q-2 -20 -3 -43t-1 -45q0 -58 18 -102t53.5 -75t88 -46.5t120.5 -15.5q78 0 137 23t100 65.5t65 101.5t30 133l88 938h156l-88 -940q-10 -106 -49 -191.5t-103 -145t-152 -91.5t-196 -32q-109 0 -190.5 25t-135.5 72t-81 114t-27 151v25v22t1 23t3 24 l90 944h162zM824 1956l167 -356l-129 -13l-114 246l-162 -248l-117 15l248 356h107z" />
<glyph unicode="&#xdc;" horiz-adv-x="1241" d="M404 1390l-86 -934q-2 -20 -3 -43t-1 -45q0 -58 18 -102t53.5 -75t88 -46.5t120.5 -15.5q78 0 137 23t100 65.5t65 101.5t30 133l88 938h156l-88 -940q-10 -106 -49 -191.5t-103 -145t-152 -91.5t-196 -32q-109 0 -190.5 25t-135.5 72t-81 114t-27 151v25v22t1 23t3 24 l90 944h162zM442 1624l21 190h145l-18 -190h-148zM858 1624l20 190h146l-18 -190h-148z" />
<glyph unicode="&#xdd;" horiz-adv-x="981" d="M518 0h-164l56 618l-316 772h172l252 -628l402 628h157l-503 -772zM668 1571l-111 33l244 354l137 -35z" />
<glyph unicode="&#xde;" horiz-adv-x="1022" d="M813 821q0 56 -14.5 102.5t-47.5 79t-87 50.5t-134 18h-143l-53 -606q18 -4 43 -6.5t52 -4.5t52 -3t45 -1q74 0 128.5 28t90 78t52 117.5t16.5 147.5zM252 1409l166 11l-18 -222h165q108 0 184.5 -23t126 -68t72.5 -112t23 -153q0 -114 -30.5 -208t-90 -162t-146 -105 t-196.5 -37h-47t-50 1.5t-49 3.5t-42 5l-34 -340h-161z" />
<glyph unicode="&#xdf;" horiz-adv-x="1020" d="M190 864q12 146 38 253t72 176t114 102t164 33q48 0 91 -10t79 -26t65 -39t49 -49t30.5 -54t10.5 -56q0 -32 -5.5 -60t-19.5 -58.5t-40 -68t-66 -89.5q-29 -37 -48.5 -65.5t-31 -51t-16 -40.5t-4.5 -34q0 -23 4 -41t14 -36.5t28 -39t46 -49.5l67.5 -71.5t49.5 -58.5 t34.5 -51t21 -46t10.5 -45t3 -47q0 -57 -19 -104t-55 -80.5t-88 -51.5t-118 -18q-72 0 -141 17t-127 51l44 120q26 -14 54.5 -24.5t57.5 -18t57.5 -11t54.5 -3.5q34 0 59 8.5t42 24t24.5 37t7.5 45.5t-6.5 44t-21.5 44t-42 53l-67 69q-38 39 -66 72t-45 63.5t-25 61.5t-8 65 q0 26 5.5 50t20 53t39 65t62.5 86q34 44 54.5 74t31.5 52t14 39t3 34q0 24 -15 49.5t-40 45.5t-60 32t-76 12q-32 0 -58 -6.5t-47.5 -24t-38.5 -49t-30.5 -80.5t-24 -117.5t-18.5 -162.5l-108 -1239l-152 -12z" />
<glyph unicode="&#xe0;" horiz-adv-x="962" d="M794 4l-147 -4l-4 200l-81 -76q-36 -32 -65 -55.5t-53 -38t-46 -23.5t-43.5 -12t-45.5 -3q-44 0 -82.5 17.5t-66.5 56t-45 100.5t-17 152q0 153 31 273.5t88 204.5t139 128t186 44q34 0 73 -3t79 -9t80 -15t76 -19l-60 -610zM692 819l-42 8.5t-43.5 7.5t-43 5t-39.5 2 q-67 0 -117.5 -34t-84.5 -99t-51 -159t-17 -216q0 -54 8 -92.5t21 -62.5t32 -35t41 -11q20 0 43.5 9.5t56 33.5t78.5 66l111 104zM536 1134l-210 353l128 35l193 -354z" />
<glyph unicode="&#xe1;" horiz-adv-x="962" d="M794 4l-147 -4l-4 200l-81 -76q-36 -32 -65 -55.5t-53 -38t-46 -23.5t-43.5 -12t-45.5 -3q-44 0 -82.5 17.5t-66.5 56t-45 100.5t-17 152q0 153 31 273.5t88 204.5t139 128t186 44q34 0 73 -3t79 -9t80 -15t76 -19l-60 -610zM692 819l-42 8.5t-43.5 7.5t-43 5t-39.5 2 q-67 0 -117.5 -34t-84.5 -99t-51 -159t-17 -216q0 -54 8 -92.5t21 -62.5t32 -35t41 -11q20 0 43.5 9.5t56 33.5t78.5 66l111 104zM635 1134l-111 34l244 354l137 -35z" />
<glyph unicode="&#xe2;" horiz-adv-x="962" d="M794 4l-147 -4l-4 200l-81 -76q-36 -32 -65 -55.5t-53 -38t-46 -23.5t-43.5 -12t-45.5 -3q-44 0 -82.5 17.5t-66.5 56t-45 100.5t-17 152q0 153 31 273.5t88 204.5t139 128t186 44q34 0 73 -3t79 -9t80 -15t76 -19l-60 -610zM692 819l-42 8.5t-43.5 7.5t-43 5t-39.5 2 q-67 0 -117.5 -34t-84.5 -99t-51 -159t-17 -216q0 -54 8 -92.5t21 -62.5t32 -35t41 -11q20 0 43.5 9.5t56 33.5t78.5 66l111 104zM670 1516l168 -357l-130 -12l-114 245l-162 -247l-116 14l247 357h107z" />
<glyph unicode="&#xe3;" horiz-adv-x="962" d="M794 4l-147 -4l-4 200l-81 -76q-36 -32 -65 -55.5t-53 -38t-46 -23.5t-43.5 -12t-45.5 -3q-44 0 -82.5 17.5t-66.5 56t-45 100.5t-17 152q0 153 31 273.5t88 204.5t139 128t186 44q34 0 73 -3t79 -9t80 -15t76 -19l-60 -610zM692 819l-42 8.5t-43.5 7.5t-43 5t-39.5 2 q-67 0 -117.5 -34t-84.5 -99t-51 -159t-17 -216q0 -54 8 -92.5t21 -62.5t32 -35t41 -11q20 0 43.5 9.5t56 33.5t78.5 66l111 104zM910 1466q-10 -59 -28.5 -101.5t-44 -69.5t-59.5 -39.5t-76 -12.5q-27 0 -57.5 2.5l-62.5 5l-61.5 5t-53.5 2.5q-18 0 -31 -6t-23.5 -20 t-20.5 -38t-20 -62l-102 21q10 58 26 100.5t39 70.5t55 42t75 14q26 0 56.5 -2l60.5 -4l58 -4q28 -2 50 -2t38 6t29 20t23.5 38t20.5 61z" />
<glyph unicode="&#xe4;" horiz-adv-x="962" d="M794 4l-147 -4l-4 200l-81 -76q-36 -32 -65 -55.5t-53 -38t-46 -23.5t-43.5 -12t-45.5 -3q-44 0 -82.5 17.5t-66.5 56t-45 100.5t-17 152q0 153 31 273.5t88 204.5t139 128t186 44q34 0 73 -3t79 -9t80 -15t76 -19l-60 -610zM692 819l-42 8.5t-43.5 7.5t-43 5t-39.5 2 q-67 0 -117.5 -34t-84.5 -99t-51 -159t-17 -216q0 -54 8 -92.5t21 -62.5t32 -35t41 -11q20 0 43.5 9.5t56 33.5t78.5 66l111 104zM289 1184l20 190h145l-18 -190h-147zM704 1184l21 190h145l-18 -190h-148z" />
<glyph unicode="&#xe5;" horiz-adv-x="962" d="M794 4l-147 -4l-4 200l-81 -76q-36 -32 -65 -55.5t-53 -38t-46 -23.5t-43.5 -12t-45.5 -3q-44 0 -82.5 17.5t-66.5 56t-45 100.5t-17 152q0 153 31 273.5t88 204.5t139 128t186 44q34 0 73 -3t79 -9t80 -15t76 -19l-60 -610zM692 819l-42 8.5t-43.5 7.5t-43 5t-39.5 2 q-67 0 -117.5 -34t-84.5 -99t-51 -159t-17 -216q0 -54 8 -92.5t21 -62.5t32 -35t41 -11q20 0 43.5 9.5t56 33.5t78.5 66l111 104zM414 1268q0 42 13 77.5t38 62t59.5 41.5t77.5 15q42 0 74 -11t54 -31t33 -49t11 -63q0 -42 -13 -77t-37 -62t-60 -42t-82 -15q-82 0 -125 41 t-43 113zM518 1276q0 -39 17 -58.5t55 -19.5t60 26t22 76q0 16 -4.5 30t-13.5 24t-23 16t-33 6q-38 0 -59 -27t-21 -73z" />
<glyph unicode="&#xe6;" horiz-adv-x="1409" d="M637 545q6 38 15.5 73.5t21.5 69.5q-4 39 -18.5 69t-37 50.5t-51.5 30.5t-65 10q-26 0 -54.5 -5.5t-62 -19.5t-72.5 -38.5t-87 -61.5l-68 96q56 43 103 73.5t93 50t92.5 28t100.5 8.5q38 0 71.5 -9.5t61.5 -25.5t50 -39t38 -51q51 59 117.5 91t148.5 32q66 0 115 -17 t81 -49.5t47 -79.5t15 -108q0 -20 -2 -49.5t-6 -63.5t-10 -70t-14 -67l-480 -29q-2 -18 -2 -34v-29q0 -76 12 -126t34 -80.5t55 -43t75 -12.5q27 0 58.5 4.5t70.5 15.5t85.5 30t103.5 48l43 -117q-60 -30 -111.5 -51.5t-98.5 -35t-91 -19.5t-90 -6q-92 0 -159 37t-103 115 q-48 -39 -89 -67.5t-80 -46.5t-78 -27t-83 -9q-52 0 -94 14t-72 43.5t-46 76t-16 112.5q0 41 9 76.5t31.5 65.5t61 56t97.5 46.5t141 36.5t191 28h2zM387 116q24 0 52.5 10t59.5 27t63 43t66 58q-6 48 -6 106v36t2 36q-78 -9 -136 -20t-99 -24t-68 -28t-42 -32.5t-21 -37.5 t-6 -42q0 -33 7 -57.5t23.5 -41.5t42.5 -25t62 -8zM1136 584q3 17 5.5 35t4.5 34.5t2.5 31.5t0.5 23q0 76 -33.5 112t-99.5 36q-44 0 -80.5 -20t-64 -58t-46.5 -92.5t-31 -124.5z" />
<glyph unicode="&#xe7;" horiz-adv-x="790" d="M733 82l-65 -32q-30 -14 -58 -24t-53 -17t-51 -11q7 -24 12.5 -50t9 -50t5 -47t1.5 -43q0 -28 -6 -56t-22 -52t-41 -44t-63 -35t-90 -24t-120 -11l-16 107q67 4 108.5 13.5t64.5 23.5t30.5 32t7.5 40q0 13 -1.5 33t-4 45t-7 53.5t-8.5 56.5q-59 4 -108 27t-84.5 68 t-55.5 113t-20 162q0 146 29 261t84.5 194t135 120.5t179.5 41.5q24 0 53 -2.5t56 -6.5t51.5 -9.5t40.5 -12.5l-25 -122q-22 4 -48 7l-53 7q-27 4 -54 6t-49 2q-62 0 -107 -35t-75 -96t-45 -145t-15 -181q0 -73 10.5 -123t32 -81t54.5 -44.5t77 -13.5q27 0 56 4t61.5 13 t69.5 23.5t81 35.5z" />
<glyph unicode="&#xe8;" horiz-adv-x="884" d="M612 584q3 17 5.5 35t4 34.5t2 31.5t0.5 23q0 76 -33 112t-99 36q-44 0 -81 -20t-64 -58t-47 -92.5t-30 -124.5zM256 444q-2 -18 -2 -34v-29q0 -76 12 -126t34 -80.5t55 -43t75 -12.5q27 0 58.5 4.5t70.5 15.5t85 30t104 48l42 -117q-60 -30 -111 -51.5t-98 -35 t-92 -19.5t-89 -6q-72 0 -128 22t-94.5 68t-59 116t-20.5 166q0 91 13 172.5t37 150t59 123t81 92.5t101.5 58.5t120.5 20.5q66 0 114.5 -17t80.5 -49.5t47.5 -79.5t15.5 -108q0 -20 -2 -49.5t-6.5 -63.5t-11 -70t-13.5 -67zM490 1134l-212 353l130 35l192 -354z" />
<glyph unicode="&#xe9;" horiz-adv-x="884" d="M612 584q3 17 5.5 35t4 34.5t2 31.5t0.5 23q0 76 -33 112t-99 36q-44 0 -81 -20t-64 -58t-47 -92.5t-30 -124.5zM256 444q-2 -18 -2 -34v-29q0 -76 12 -126t34 -80.5t55 -43t75 -12.5q27 0 58.5 4.5t70.5 15.5t85 30t104 48l42 -117q-60 -30 -111 -51.5t-98 -35 t-92 -19.5t-89 -6q-72 0 -128 22t-94.5 68t-59 116t-20.5 166q0 91 13 172.5t37 150t59 123t81 92.5t101.5 58.5t120.5 20.5q66 0 114.5 -17t80.5 -49.5t47.5 -79.5t15.5 -108q0 -20 -2 -49.5t-6.5 -63.5t-11 -70t-13.5 -67zM561 1134l-111 34l244 354l138 -35z" />
<glyph unicode="&#xea;" horiz-adv-x="884" d="M612 584q3 17 5.5 35t4 34.5t2 31.5t0.5 23q0 76 -33 112t-99 36q-44 0 -81 -20t-64 -58t-47 -92.5t-30 -124.5zM256 444q-2 -18 -2 -34v-29q0 -76 12 -126t34 -80.5t55 -43t75 -12.5q27 0 58.5 4.5t70.5 15.5t85 30t104 48l42 -117q-60 -30 -111 -51.5t-98 -35 t-92 -19.5t-89 -6q-72 0 -128 22t-94.5 68t-59 116t-20.5 166q0 91 13 172.5t37 150t59 123t81 92.5t101.5 58.5t120.5 20.5q66 0 114.5 -17t80.5 -49.5t47.5 -79.5t15.5 -108q0 -20 -2 -49.5t-6.5 -63.5t-11 -70t-13.5 -67zM616 1516l168 -357l-128 -12l-116 245l-161 -247 l-117 14l248 357h106z" />
<glyph unicode="&#xeb;" horiz-adv-x="884" d="M612 584q3 17 5.5 35t4 34.5t2 31.5t0.5 23q0 76 -33 112t-99 36q-44 0 -81 -20t-64 -58t-47 -92.5t-30 -124.5zM256 444q-2 -18 -2 -34v-29q0 -76 12 -126t34 -80.5t55 -43t75 -12.5q27 0 58.5 4.5t70.5 15.5t85 30t104 48l42 -117q-60 -30 -111 -51.5t-98 -35 t-92 -19.5t-89 -6q-72 0 -128 22t-94.5 68t-59 116t-20.5 166q0 91 13 172.5t37 150t59 123t81 92.5t101.5 58.5t120.5 20.5q66 0 114.5 -17t80.5 -49.5t47.5 -79.5t15.5 -108q0 -20 -2 -49.5t-6.5 -63.5t-11 -70t-13.5 -67zM238 1184l20 190h146l-19 -190h-147zM654 1184 l20 190h145l-18 -190h-147z" />
<glyph unicode="&#xec;" horiz-adv-x="459" d="M260 0h-152l97 952h149zM254 1134l-211 353l129 35l192 -354z" />
<glyph unicode="&#xed;" horiz-adv-x="459" d="M260 0h-152l97 952h149zM348 1134l-110 34l244 354l136 -35z" />
<glyph unicode="&#xee;" horiz-adv-x="459" d="M260 0h-152l97 952h149zM391 1516l168 -357l-129 -12l-114 245l-162 -247l-117 14l247 357h107z" />
<glyph unicode="&#xef;" horiz-adv-x="459" d="M33 1184l20 190h145l-18 -190h-147zM408 1184l20 190h146l-19 -190h-147zM260 0h-152l97 952h149z" />
<glyph unicode="&#xf0;" horiz-adv-x="954" d="M568 1542q58 -51 102 -110.5t74 -123.5l192 72l35 -106l-185 -72q18 -52 31 -105t21 -105t12 -101t4 -93q0 -142 -17 -258t-47 -206t-72 -156t-93 -109t-109 -63t-120 -20q-68 0 -126 20t-99 64t-64 113t-23 165q0 124 26 221.5t74 164t117 101.5t155 35q54 0 116 -16 t128 -49q0 36 -4 80t-11 90.5t-18 91.5t-26 82l-254 -97l-35 107l246 95q-14 29 -31.5 58.5t-37 56.5t-40.5 52t-41 45zM694 678q-39 18 -70.5 30.5t-59.5 21t-53 12.5t-52 4q-56 0 -97.5 -26t-69 -74.5t-41 -119t-13.5 -160.5q0 -70 13 -118t36.5 -77.5t56 -43t72.5 -13.5 q56 0 103 40t84 113t60.5 177.5t30.5 233.5z" />
<glyph unicode="&#xf1;" horiz-adv-x="983" d="M348 950l-14 -190l95 76q41 32 73.5 55t58 38t48.5 23t44 11t45 3q38 0 69 -8t53 -29t34 -56t12 -89q0 -9 -0.5 -21.5t-1.5 -26.5l-2 -28q-1 -14 -2 -26l-64 -682h-151l57 658q2 23 3 45.5t1 40.5q0 42 -15.5 59.5t-49.5 17.5q-21 0 -45.5 -10t-61 -34.5t-88.5 -64.5 l-126 -104l-56 -608h-154l93 950h145zM889 1466q-10 -59 -28.5 -101.5t-44 -69.5t-59 -39.5t-75.5 -12.5q-27 0 -58 2.5l-62.5 5l-61.5 5t-54 2.5q-18 0 -31 -6t-23.5 -20t-20 -38t-19.5 -62l-102 21q10 58 25.5 100.5t39 70.5t55.5 42t74 14q26 0 57 -2l61 -4l58 -4 q28 -2 50 -2t38 6t29 20t23 38t20 61z" />
<glyph unicode="&#xf2;" d="M854 574q0 -80 -12 -155t-34.5 -140t-57 -119t-82 -92t-107 -59t-133.5 -21q-82 0 -144 22t-103.5 70.5t-63 127t-21.5 190.5q0 130 29 237t84 183t135 117.5t182 41.5q88 0 150 -25.5t102 -76.5t58 -126t18 -175zM696 555q0 70 -9 125t-31.5 92.5t-58.5 56.5t-89 19 q-54 0 -101 -25t-81 -78.5t-54 -136t-20 -196.5q0 -82 11.5 -138.5t35 -92t59.5 -51.5t86 -16q60 0 107.5 30t79.5 87t48.5 138.5t16.5 185.5zM500 1134l-211 353l129 35l192 -354z" />
<glyph unicode="&#xf3;" d="M854 574q0 -80 -12 -155t-34.5 -140t-57 -119t-82 -92t-107 -59t-133.5 -21q-82 0 -144 22t-103.5 70.5t-63 127t-21.5 190.5q0 130 29 237t84 183t135 117.5t182 41.5q88 0 150 -25.5t102 -76.5t58 -126t18 -175zM696 555q0 70 -9 125t-31.5 92.5t-58.5 56.5t-89 19 q-54 0 -101 -25t-81 -78.5t-54 -136t-20 -196.5q0 -82 11.5 -138.5t35 -92t59.5 -51.5t86 -16q60 0 107.5 30t79.5 87t48.5 138.5t16.5 185.5zM592 1134l-110 34l243 354l137 -35z" />
<glyph unicode="&#xf4;" d="M854 574q0 -80 -12 -155t-34.5 -140t-57 -119t-82 -92t-107 -59t-133.5 -21q-82 0 -144 22t-103.5 70.5t-63 127t-21.5 190.5q0 130 29 237t84 183t135 117.5t182 41.5q88 0 150 -25.5t102 -76.5t58 -126t18 -175zM696 555q0 70 -9 125t-31.5 92.5t-58.5 56.5t-89 19 q-54 0 -101 -25t-81 -78.5t-54 -136t-20 -196.5q0 -82 11.5 -138.5t35 -92t59.5 -51.5t86 -16q60 0 107.5 30t79.5 87t48.5 138.5t16.5 185.5zM639 1516l168 -357l-129 -12l-115 245l-161 -247l-118 14l248 357h107z" />
<glyph unicode="&#xf5;" d="M854 574q0 -80 -12 -155t-34.5 -140t-57 -119t-82 -92t-107 -59t-133.5 -21q-82 0 -144 22t-103.5 70.5t-63 127t-21.5 190.5q0 130 29 237t84 183t135 117.5t182 41.5q88 0 150 -25.5t102 -76.5t58 -126t18 -175zM696 555q0 70 -9 125t-31.5 92.5t-58.5 56.5t-89 19 q-54 0 -101 -25t-81 -78.5t-54 -136t-20 -196.5q0 -82 11.5 -138.5t35 -92t59.5 -51.5t86 -16q60 0 107.5 30t79.5 87t48.5 138.5t16.5 185.5zM872 1466q-10 -59 -28 -101.5t-44 -69.5t-59 -39.5t-75 -12.5q-27 0 -58.5 2.5l-62.5 5l-61 5t-54 2.5q-18 0 -31 -6t-24 -20 t-20 -38t-19 -62l-102 21q10 58 25 100.5t38.5 70.5t55.5 42t75 14q26 0 56.5 -2l60.5 -4l59 -4q28 -2 50 -2t38 6t28.5 20t23 38t20.5 61z" />
<glyph unicode="&#xf6;" d="M854 574q0 -80 -12 -155t-34.5 -140t-57 -119t-82 -92t-107 -59t-133.5 -21q-82 0 -144 22t-103.5 70.5t-63 127t-21.5 190.5q0 130 29 237t84 183t135 117.5t182 41.5q88 0 150 -25.5t102 -76.5t58 -126t18 -175zM696 555q0 70 -9 125t-31.5 92.5t-58.5 56.5t-89 19 q-54 0 -101 -25t-81 -78.5t-54 -136t-20 -196.5q0 -82 11.5 -138.5t35 -92t59.5 -51.5t86 -16q60 0 107.5 30t79.5 87t48.5 138.5t16.5 185.5zM262 1184l20 190h146l-18 -190h-148zM678 1184l20 190h146l-18 -190h-148z" />
<glyph unicode="&#xf7;" horiz-adv-x="1124" d="M672 844q0 -24 -9 -43t-24 -35q-16 -17 -35.5 -25t-42.5 -8t-42 8t-35 25q-17 16 -25.5 35t-8.5 43q0 23 8 42.5t26 35.5q16 17 35 24.5t42 7.5q24 0 43.5 -8t34.5 -24q16 -16 24.5 -35.5t8.5 -42.5zM1088 576v-99h-1051v99h1051zM674 205q0 -24 -9 -43.5t-24 -36.5 q-17 -16 -37 -24.5t-43 -8.5t-42 9t-35 24q-16 17 -25 37t-9 43t9 42t25 35q33 34 77 34q47 0 80 -34q16 -17 24.5 -35.5t8.5 -41.5z" />
<glyph unicode="&#xf8;" d="M854 574q0 -80 -12 -155t-34.5 -140t-57 -119t-82 -92t-107 -59t-133.5 -21q-42 0 -78 5t-68 15l-104 -172l-127 24l131 218q-43 49 -64.5 127.5t-21.5 192.5q0 130 29 237t84 183t135 117.5t182 41.5q51 0 92.5 -9t75.5 -26l104 174l128 -24l-136 -230l-6 2 q36 -52 53 -123t17 -167zM252 412q0 -57 5 -100.5t15 -77.5l348 579q-22 17 -49 26t-63 9q-54 0 -101 -25t-81 -78.5t-54 -136t-20 -196.5zM696 555q0 37 -3 70t-7 61l-332 -555q18 -9 41 -13t49 -4q60 0 107.5 30t79.5 87t48.5 138.5t16.5 185.5z" />
<glyph unicode="&#xf9;" horiz-adv-x="985" d="M668 200l-98 -79q-43 -34 -77 -58t-61 -39.5t-50.5 -24.5t-45.5 -12t-47 -3q-38 0 -68.5 8t-53 29t-34.5 56.5t-12 88.5q0 9 1 22l1 27l2 27.5t2 25.5l63 682h152l-58 -657q-2 -24 -3 -46.5t-1 -39.5q0 -42 16 -60t50 -18q21 0 45.5 10t60.5 34.5t88 65.5l128 103l55 608 h155l-63 -638l4 -310l-145 -2zM504 1134l-211 353l129 35l192 -354z" />
<glyph unicode="&#xfa;" horiz-adv-x="985" d="M668 200l-98 -79q-43 -34 -77 -58t-61 -39.5t-50.5 -24.5t-45.5 -12t-47 -3q-38 0 -68.5 8t-53 29t-34.5 56.5t-12 88.5q0 9 1 22l1 27l2 27.5t2 25.5l63 682h152l-58 -657q-2 -24 -3 -46.5t-1 -39.5q0 -42 16 -60t50 -18q21 0 45.5 10t60.5 34.5t88 65.5l128 103l55 608 h155l-63 -638l4 -310l-145 -2zM600 1134l-110 34l243 354l137 -35z" />
<glyph unicode="&#xfb;" horiz-adv-x="985" d="M668 200l-98 -79q-43 -34 -77 -58t-61 -39.5t-50.5 -24.5t-45.5 -12t-47 -3q-38 0 -68.5 8t-53 29t-34.5 56.5t-12 88.5q0 9 1 22l1 27l2 27.5t2 25.5l63 682h152l-58 -657q-2 -24 -3 -46.5t-1 -39.5q0 -42 16 -60t50 -18q21 0 45.5 10t60.5 34.5t88 65.5l128 103l55 608 h155l-63 -638l4 -310l-145 -2zM656 1516l168 -357l-130 -12l-114 245l-162 -247l-117 14l248 357h107z" />
<glyph unicode="&#xfc;" horiz-adv-x="985" d="M668 200l-98 -79q-43 -34 -77 -58t-61 -39.5t-50.5 -24.5t-45.5 -12t-47 -3q-38 0 -68.5 8t-53 29t-34.5 56.5t-12 88.5q0 9 1 22l1 27l2 27.5t2 25.5l63 682h152l-58 -657q-2 -24 -3 -46.5t-1 -39.5q0 -42 16 -60t50 -18q21 0 45.5 10t60.5 34.5t88 65.5l128 103l55 608 h155l-63 -638l4 -310l-145 -2zM274 1184l21 190h145l-18 -190h-148zM690 1184l20 190h146l-18 -190h-148z" />
<glyph unicode="&#xfd;" horiz-adv-x="868" d="M414 272q5 -18 5.5 -34t-1.5 -35q2 18 6 34.5t14 36.5l283 676h143l-588 -1350h-153l199 447l-232 903h158zM551 1134l-111 34l244 354l137 -35z" />
<glyph unicode="&#xfe;" horiz-adv-x="979" d="M383 1268l-49 -502l78 74q34 32 62 54t51 36t44.5 22t43 11t45.5 3q44 0 82 -17t67 -56t45 -101t16 -151q0 -154 -31 -274.5t-89 -204.5t-141 -128t-187 -44q-40 0 -79 4t-83 12l-41 -395l-151 -13l166 1660zM272 140q38 -11 83 -17.5t83 -6.5q68 0 119 34t86 98.5 t52 159t17 216.5q0 54 -7.5 93t-21 63t-32.5 35t-41 11q-21 0 -44 -10t-55.5 -34t-78.5 -65l-112 -105z" />
<glyph unicode="&#xff;" horiz-adv-x="868" d="M414 272q5 -18 5.5 -34t-1.5 -35q2 18 6 34.5t14 36.5l283 676h143l-588 -1350h-153l199 447l-232 903h158zM223 1184l21 190h145l-19 -190h-147zM639 1184l21 190h145l-19 -190h-147z" />
<glyph unicode="&#x152;" horiz-adv-x="1820" d="M1736 129l-12 -129h-812l8 92q-35 -27 -73.5 -47.5t-81.5 -33.5t-92 -20t-108 -7q-106 0 -191.5 32t-145.5 104t-93 187t-33 281q0 190 41 342t119 259t193 164.5t262 57.5q53 0 98 -7.5t84 -21.5t72.5 -33t62.5 -43l8 84h728l-15 -126h-563l-47 -506h497l-14 -127h-494 l-48 -502h650zM616 125q49 0 96.5 11.5t88.5 31.5t76 47t61 57l78 842q-22 34 -53 62.5t-71 49t-88 32.5t-104 12q-95 0 -174.5 -39t-136.5 -120.5t-89 -207t-32 -299.5q0 -138 22 -230t66 -147.5t109 -78.5t151 -23z" />
<glyph unicode="&#x153;" horiz-adv-x="1409" d="M780 444q-2 -18 -2 -34v-29q0 -76 12 -126t34 -80.5t55 -43t75 -12.5q27 0 58.5 4.5t70.5 15.5t85.5 30t103.5 48l43 -117q-60 -30 -111.5 -51.5t-98.5 -35t-91 -19.5t-90 -6q-76 0 -134 23.5t-96 74.5q-58 -50 -123 -74t-143 -24q-82 0 -144 22t-103.5 70.5t-63 127 t-21.5 190.5q0 130 29 237t84 183t135 117.5t182 41.5q45 0 83 -7.5t69.5 -22.5t56 -35t43.5 -46q50 52 114 81.5t142 29.5q66 0 115 -17t81 -49.5t47 -79.5t15 -108q0 -20 -2 -49.5t-6 -63.5t-10 -70t-14 -67zM444 119q26 0 53 6t52 18.5t47 30.5t41 43q-8 31 -11.5 66 t-3.5 77q0 107 17 199.5t49 167.5q-10 27 -27 49t-40 38t-51 25t-62 9q-54 0 -101 -25t-81 -78.5t-54 -136t-20 -196.5q0 -82 12 -138t35.5 -90t59.5 -49.5t85 -15.5zM1136 584q3 17 5.5 35t4.5 34.5t2.5 31.5t0.5 23q0 76 -33.5 112t-99.5 36q-44 0 -80.5 -20t-64 -58 t-46.5 -92.5t-31 -124.5z" />
<glyph unicode="&#x178;" horiz-adv-x="981" d="M518 0h-164l56 618l-316 772h172l252 -628l402 628h157l-503 -772zM328 1620l20 190h146l-19 -190h-147zM744 1620l20 190h146l-19 -190h-147z" />
<glyph unicode="&#x2c6;" horiz-adv-x="755" d="M469 1516l168 -357l-129 -12l-115 245l-161 -247l-118 14l248 357h107z" />
<glyph unicode="&#x2dc;" horiz-adv-x="760" d="M696 1466q-10 -59 -28 -101.5t-44 -69.5t-59 -39.5t-75 -12.5q-27 0 -58.5 2.5l-62.5 5l-61 5t-54 2.5q-18 0 -31 -6t-24 -20t-20 -38t-19 -62l-102 21q10 58 25 100.5t38.5 70.5t55.5 42t75 14q26 0 56.5 -2l60.5 -4l59 -4q28 -2 49 -2q22 0 38 6t29 20t23.5 38t20.5 61 z" />
<glyph unicode="&#x2000;" horiz-adv-x="981" />
<glyph unicode="&#x2001;" horiz-adv-x="1962" />
<glyph unicode="&#x2002;" horiz-adv-x="981" />
<glyph unicode="&#x2003;" horiz-adv-x="1962" />
<glyph unicode="&#x2004;" horiz-adv-x="654" />
<glyph unicode="&#x2005;" horiz-adv-x="490" />
<glyph unicode="&#x2006;" horiz-adv-x="327" />
<glyph unicode="&#x2007;" horiz-adv-x="327" />
<glyph unicode="&#x2008;" horiz-adv-x="245" />
<glyph unicode="&#x2009;" horiz-adv-x="392" />
<glyph unicode="&#x200a;" horiz-adv-x="109" />
<glyph unicode="&#x2010;" horiz-adv-x="698" d="M614 461h-540l10 113h540z" />
<glyph unicode="&#x2011;" horiz-adv-x="698" d="M614 461h-540l10 113h540z" />
<glyph unicode="&#x2012;" horiz-adv-x="698" d="M614 461h-540l10 113h540z" />
<glyph unicode="&#x2013;" horiz-adv-x="1126" d="M1046 454h-980l12 111h979z" />
<glyph unicode="&#x2014;" horiz-adv-x="2242" d="M2248 454h-2266l12 111h2267z" />
<glyph unicode="&#x2018;" horiz-adv-x="510" d="M482 1352l-70 -67l-51 -51t-34 -39t-20 -31t-9.5 -27t-2.5 -27q0 -17 3 -42t8.5 -56.5l12.5 -68.5l15 -77l-131 -24q-31 70 -45 129t-14 102q0 28 3 51.5t13 47.5t28 50t47 56l69 68l96 84z" />
<glyph unicode="&#x2019;" horiz-adv-x="510" d="M127 910l69 66q29 29 49.5 51.5t33.5 39.5t20 32t10 27.5t3 26.5q0 16 -3 40.5t-8 56t-12 68t-17 76.5l134 26q30 -70 43.5 -129.5t13.5 -102.5q0 -27 -3.5 -51t-13.5 -47.5t-28 -49.5t-46.5 -56.5t-69 -68t-95.5 -83.5z" />
<glyph unicode="&#x201a;" horiz-adv-x="506" d="M20 -301l70 67q30 29 51 51.5t34 39.5t20 31.5t9.5 27t2.5 26.5q0 17 -3 42.5t-8.5 56.5t-12.5 67l-15 76l133 27q30 -70 43.5 -129.5t13.5 -101.5q0 -28 -3 -52t-13.5 -48.5t-28 -50t-46.5 -56.5t-69 -68t-96 -84z" />
<glyph unicode="&#x201c;" horiz-adv-x="946" d="M914 1352l-70 -67l-49.5 -51t-33.5 -39t-20 -31t-9.5 -27t-2.5 -27q0 -17 2.5 -42t7.5 -56.5t12.5 -68.5t16.5 -77l-133 -24q-30 70 -43.5 129t-13.5 102q0 28 3 51.5t13.5 47.5t28 50t46.5 56l69 68l96 84zM482 1352l-70 -67l-51 -51t-34 -39t-20 -31t-9.5 -27t-2.5 -27 q0 -17 3 -42t8.5 -56.5l12.5 -68.5l15 -77l-131 -24q-31 70 -45 129t-14 102q0 28 3 51.5t13 47.5t28 50t47 56l69 68l96 84z" />
<glyph unicode="&#x201d;" horiz-adv-x="946" d="M127 910l69 66q29 29 49.5 51.5t33.5 39.5t20 32t10 27.5t3 26.5q0 16 -3 40.5t-8 56t-12 68t-17 76.5l134 26q30 -70 43.5 -129.5t13.5 -102.5q0 -27 -3.5 -51t-13.5 -47.5t-28 -49.5t-46.5 -56.5t-69 -68t-95.5 -83.5zM559 910l70 66q30 29 50.5 51.5t33.5 39.5t20 32 t10 27.5t3 26.5q0 16 -3 40.5t-8.5 56t-13 68l-15.5 76.5l132 26q31 -70 45 -129.5t14 -102.5q0 -27 -3.5 -51t-13.5 -47.5t-28 -49.5t-46.5 -56.5t-69 -68t-95.5 -83.5z" />
<glyph unicode="&#x201e;" horiz-adv-x="936" d="M20 -301l70 67q30 29 51 51.5t34 39.5t20 31.5t9.5 27t2.5 26.5q0 17 -3 42.5t-8.5 56.5t-12.5 67l-15 76l133 27q30 -70 43.5 -129.5t13.5 -101.5q0 -28 -3 -52t-13.5 -48.5t-28 -50t-46.5 -56.5t-69 -68t-96 -84zM452 -301l70 67q30 29 50.5 51.5t33 39.5t19.5 31.5 t9.5 27t2.5 26.5q0 17 -2.5 42.5t-7.5 56.5t-12.5 67l-16.5 76l133 27q30 -70 44.5 -129.5t14.5 -101.5q0 -28 -3.5 -52t-14 -48.5t-28.5 -50t-47 -56.5t-69 -68l-96 -84z" />
<glyph unicode="&#x2022;" horiz-adv-x="659" d="M207 348l29 272h212l-28 -272h-213z" />
<glyph unicode="&#x2026;" horiz-adv-x="1693" d="M190 0l21 196h157l-22 -196h-156zM750 0l20 196h156l-21 -196h-155zM1321 0l21 196h155l-21 -196h-155z" />
<glyph unicode="&#x202f;" horiz-adv-x="392" />
<glyph unicode="&#x2039;" horiz-adv-x="717" d="M484 119l-142 -43l-223 383l354 419l143 -34l-317 -379z" />
<glyph unicode="&#x203a;" horiz-adv-x="717" d="M236 836l141 42l223 -380l-352 -422l-148 36l320 380z" />
<glyph unicode="&#x205f;" horiz-adv-x="490" />
<glyph unicode="&#x20ac;" horiz-adv-x="1018" d="M297 672q24 76 61.5 134.5t86.5 99t109 62t130 21.5q24 0 53 -2.5t56 -6.5t51 -9t40 -13l-24 -122q-22 4 -48 8t-53 7t-54 5t-49 2q-37 0 -68 -13t-56.5 -37.5t-45.5 -59t-34 -76.5h346l-6 -100h-366q-6 -38 -10 -76t-4 -80h370l-6 -100h-360q4 -52 17 -88.5t34 -59 t51 -32t68 -9.5q27 0 55.5 4t61.5 13t70 23.5t81 35.5l35 -121q-53 -27 -97 -45.5t-83 -29t-77.5 -15t-80.5 -4.5q-62 0 -113.5 18t-90.5 58t-63 102t-30 150h-192l10 100h182q2 84 18 156h-194l8 100h211z" />
<glyph unicode="&#x2122;" horiz-adv-x="1493" d="M596 1302h-196l-50 -518h-108l49 518h-193l10 88h494zM727 1390h105l159 -464l254 464h99l-29 -606h-107l23 416l-217 -404h-78l-144 406l-50 -418h-95z" />
<glyph unicode="&#xe000;" d="M0 950h950v-950h-950v950z" />
<glyph unicode="&#xfb01;" horiz-adv-x="979" d="M746 1321q-30 9 -63 17t-65 13t-61 8t-53 3q-28 0 -47.5 -10t-33 -33.5t-22.5 -62t-14 -95.5l-21 -211h500l-92 -950h-152l84 830h-350l-110 -1211l-152 -12l109 1225l-125 4l10 104l125 10l21 203q8 92 28.5 156t54 104.5t79.5 59t106 18.5q37 0 73.5 -4.5t72.5 -11.5 t69 -17t63 -20z" />
<glyph unicode="&#xfb02;" horiz-adv-x="999" d="M782 0h-156l130 1280q-27 9 -56.5 16.5t-58.5 12.5t-57 7.5t-54 2.5q-33 0 -58.5 -10t-43.5 -33.5t-30 -62t-17 -95.5l-15 -168h214l-12 -120h-212l-110 -1211l-152 -12l109 1225l-125 4l10 104l125 10l17 160q9 93 32.5 157.5t61.5 104.5t89 58t115 18q30 0 62 -3 t63 -8.5t60.5 -13.5t56.5 -18l14 131l150 12z" />
<glyph unicode="&#xfb03;" horiz-adv-x="1528" d="M1329 0h-152l97 952h149zM1297 1182l18 192h154l-19 -192h-153zM1198 1342l-45 8t-44 6.5t-39 4t-32 1.5q-28 0 -48 -10t-34.5 -33.5t-23 -62t-13.5 -95.5l-19 -211h222l-12 -120h-220l-110 -1211l-152 -12l109 1225l-125 4l10 104l125 10l19 203q8 92 28.5 156t54 104.5 t80.5 59t107 18.5q51 0 96.5 -7.5t91.5 -21.5zM664 1342l-45 8t-44 6.5t-39 4t-32 1.5q-28 0 -48 -10t-34.5 -33.5t-23 -62t-13.5 -95.5l-19 -211h222l-12 -120h-220l-110 -1211l-152 -12l109 1225l-125 4l10 104l125 10l19 203q8 92 28.5 156t54 104.5t80.5 59t107 18.5 q51 0 96.5 -7.5t91.5 -21.5z" />
<glyph unicode="&#xfb04;" horiz-adv-x="1538" d="M1333 0h-156l146 1452l154 10zM1198 1342l-45 8t-44 6.5t-39 4t-32 1.5q-28 0 -48 -10t-34.5 -33.5t-23 -62t-13.5 -95.5l-19 -211h222l-12 -120h-220l-110 -1211l-152 -12l109 1225l-125 4l10 104l125 10l19 203q8 92 28.5 156t54 104.5t80.5 59t107 18.5 q51 0 96.5 -7.5t91.5 -21.5zM664 1342l-45 8t-44 6.5t-39 4t-32 1.5q-28 0 -48 -10t-34.5 -33.5t-23 -62t-13.5 -95.5l-19 -211h222l-12 -120h-220l-110 -1211l-152 -12l109 1225l-125 4l10 104l125 10l19 203q8 92 28.5 156t54 104.5t80.5 59t107 18.5q51 0 96.5 -7.5 t91.5 -21.5z" />
</font>
</defs>
</svg>
