<?xml version="1.0" standalone="no"?>
<!DOCTYPE svg PUBLIC "-//W3C//DTD SVG 1.1//EN" "http://www.w3.org/Graphics/SVG/1.1/DTD/svg11.dtd" >
<svg xmlns="http://www.w3.org/2000/svg">
<metadata>
This is a custom SVG webfont generated by Font Squirrel.
Designer    : httpwwwunderwarenl
Foundry URL : httpwwwunderwarenl
</metadata>
<defs>
<font id="webfont6zkyJMxT" horiz-adv-x="1427" >
<font-face units-per-em="2048" ascent="1577" descent="-471" />
<missing-glyph horiz-adv-x="407" />
<glyph unicode=" "  horiz-adv-x="407" />
<glyph unicode="&#x09;" horiz-adv-x="407" />
<glyph unicode="&#xa0;" horiz-adv-x="407" />
<glyph unicode="!" horiz-adv-x="631" d="M184 0v246h283v-246h-283zM436 456h-225l-25 1006h275z" />
<glyph unicode="&#x22;" horiz-adv-x="930" d="M570 826v587h210v-573zM150 826v587h210v-573z" />
<glyph unicode="#" horiz-adv-x="1181" d="M1050 1036h-178l-48 -190h159l-8 -138h-187l-61 -233h-168l61 233h-190l-64 -233h-166l62 233h-150l11 138h178l49 190h-164l10 140h189l63 237h170l-63 -237h189l63 237h168l-63 -237h147zM516 1036l-49 -190h191l48 190h-190z" />
<glyph unicode="$" horiz-adv-x="1040" d="M950 444q0 -67 -20 -127t-61 -109.5t-102 -85.5t-141 -54l2 -298h-214l2 281q-96 4 -187 25.5t-173 56.5l67 209q39 -18 87 -33t98 -26t99 -17t89 -6q60 0 99.5 15.5t63.5 39t33.5 50.5t9.5 51q0 31 -8 56.5t-29 46.5t-57 38t-92 29q-72 16 -130.5 34t-104 41t-78.5 52 t-54.5 68t-32 87.5t-10.5 110.5q0 70 21 131.5t61 110.5t98.5 84t135.5 51l-2 296h213l-2 -286q88 -6 163.5 -26t133.5 -46l-33 -98l-31 -96q-30 12 -68 23t-77.5 19t-77 12.5t-65.5 4.5q-58 0 -100 -11t-68.5 -31t-39 -47.5t-12.5 -61.5t8 -60t27 -46.5t51 -36t82 -27.5 q85 -22 149.5 -46t112.5 -50t79 -57t50 -67t27 -79.5t8 -94.5z" />
<glyph unicode="%" horiz-adv-x="1904" d="M600 0h-211l917 1413h208zM738 1046q0 -92 -21 -167t-62 -129t-102 -83.5t-141 -29.5q-70 0 -126 20.5t-94 66.5t-58 119t-20 179q0 92 20.5 167t61 129t101.5 84t143 30q149 0 223.5 -94t74.5 -292zM565 1038q0 129 -31.5 192.5t-101.5 63.5q-74 0 -111 -64t-37 -196 q0 -73 9 -122.5t26 -80.5t43 -44t62 -13q72 0 106.5 63.5t34.5 200.5zM1790 393q0 -92 -20.5 -167.5t-61 -129.5t-101.5 -83t-141 -29q-72 0 -127 20t-93 66t-58 119t-20 177q0 92 20.5 167.5t61 129t101.5 83.5t142 30q74 0 130 -23t93 -70t55.5 -119.5t18.5 -170.5z M1620 385q0 128 -33 191t-100 63q-76 0 -111.5 -63.5t-35.5 -194.5q0 -74 8 -123.5t25 -80t43 -43.5t60 -13q72 0 108 64t36 200z" />
<glyph unicode="&#x26;" horiz-adv-x="1579" d="M658 1456q88 0 153 -19.5t108 -56t64 -88.5t21 -118q0 -54 -15 -105t-50.5 -101.5t-94 -103t-144.5 -110.5l128 -196l126 -194q26 30 47.5 70.5t38.5 87.5t29.5 98t18.5 101h434q-4 -44 -10 -87.5t-9 -86.5h-253q-13 -48 -30.5 -95.5t-40.5 -91.5t-51 -85t-63 -75l67 -97 l48 -66.5t35 -42.5t27 -23.5t24 -9.5t26 -2q12 0 28.5 1t34.5 3.5t36.5 5.5t32.5 7l32 -187q-24 -9 -52 -17t-57 -14t-57.5 -9t-54.5 -3q-38 0 -68.5 6t-58 19.5t-54 37t-55.5 58.5t-63 83l-78 112q-34 -18 -77 -32.5t-89 -24t-93 -14.5t-89 -5q-105 0 -187 23.5t-138.5 69 t-85.5 112.5t-29 153q0 43 7 80.5t22 71.5t40.5 66.5t62 66t85.5 68.5t111 75q-39 56 -65 101.5t-41.5 84t-21.5 72.5t-6 68q0 74 25 139.5t74 114t123 76.5t172 28zM778 1138q0 62 -34 98t-99 36q-34 0 -60 -11t-44 -30t-27.5 -46t-9.5 -59q0 -26 4 -48t15 -47.5t29.5 -58 t47.5 -77.5q49 36 83 66t55 58.5t30.5 57.5t9.5 61zM500 616q-49 -33 -84 -63.5t-56.5 -60.5t-31.5 -61t-10 -65q0 -45 16.5 -80.5t47 -59.5t72.5 -37t93 -13q24 0 52 4t55.5 10t53.5 15t44 21z" />
<glyph unicode="'" horiz-adv-x="510" d="M150 826v587h210v-573z" />
<glyph unicode="(" horiz-adv-x="694" d="M592 -508q-76 15 -141 42.5t-119 77t-96 124t-71 183.5t-44 255.5t-15 339.5t14.5 339.5t42.5 255.5t69.5 184t95.5 125t120 79t144 45l47 -166q-38 -18 -71.5 -37t-61.5 -44.5t-52 -59t-43 -79t-33 -105t-23 -137.5t-14 -175t-5 -219t5 -220.5t14 -176.5t23 -137.5 t33 -105.5t43 -79t53 -58.5t62 -44.5t72 -36z" />
<glyph unicode=")" horiz-adv-x="694" d="M104 1544q56 -11 107 -29t96 -46.5t83 -69.5t69 -98t55 -131t40.5 -170t25 -214.5t8.5 -263.5q0 -144 -8 -262t-24 -214t-39 -170t-54 -131t-69 -98.5t-83 -71t-97 -48.5t-110 -31l-48 168q38 17 71 36t61 44.5t52 58.5t43 79t33 105t23.5 137t14 175t4.5 219t-4.5 220.5 t-14 176.5t-23.5 138t-33 105.5t-43 79t-52 59t-61 44.5t-71 35z" />
<glyph unicode="*" horiz-adv-x="1102" d="M688 968l186 -288l-188 -90l-154 301l-227 -254l-159 131l254 238l-312 118l90 176l285 -145l35 334l212 -23l-54 -336l317 72l43 -190z" />
<glyph unicode="+" horiz-adv-x="1143" d="M1002 608h-338v-319l-201 -9v328h-330l11 168h319v324l201 10v-334h346z" />
<glyph unicode="," horiz-adv-x="598" d="M465 -8q0 -70 -24 -126.5t-72 -103t-119.5 -84.5t-167.5 -71l-74 147q67 30 108.5 55t64.5 48t31.5 46t8.5 52q0 12 -2 30.5t-5.5 41.5t-9 48.5l-11.5 51.5t-13 51.5t-14 47.5l206 36q21 -23 38.5 -55.5t29.5 -68.5t18.5 -74t6.5 -72z" />
<glyph unicode="-" horiz-adv-x="762" d="M678 426h-602l10 168h600z" />
<glyph unicode="." horiz-adv-x="588" d="M150 0v248h288v-248h-288z" />
<glyph unicode="/" horiz-adv-x="813" d="M234 0h-232l578 1413h231z" />
<glyph unicode="0" horiz-adv-x="1323" d="M1216 729q0 -106 -14 -202.5t-44 -180t-76 -151t-110 -115.5t-147 -74t-186 -26q-134 0 -233.5 39t-166.5 123t-100 217.5t-33 322.5q0 112 16 211t47 182.5t79 149.5t112 112t146 70.5t180 24.5q136 0 236 -41t165 -127t97 -218.5t32 -316.5zM944 717q0 136 -18 232 t-52 156.5t-85 88.5t-117 28q-75 0 -130.5 -31.5t-91.5 -96t-53.5 -161.5t-17.5 -229q0 -144 16.5 -242t50.5 -158t86 -87t124 -27q70 0 123.5 30t90 93t55.5 163.5t19 240.5z" />
<glyph unicode="1" horiz-adv-x="946" d="M656 188l241 -16v-172h-829v172l321 16v1008h-291v188l558 42v-1238z" />
<glyph unicode="2" horiz-adv-x="1077" d="M979 0h-887l-18 180l446 486l78 86q33 38 55.5 70t37.5 58.5t23.5 51t11.5 47.5t3 49q0 38 -14 70.5t-40.5 56.5t-66 37.5t-90.5 13.5q-72 0 -151 -25t-167 -83l-112 172q60 43 119 74.5t119 51.5t123 30t129 10q100 0 178 -27t132 -73.5t83 -111t29 -138.5 q0 -59 -10 -111.5t-34 -105.5t-67 -111t-109 -130l-393 -423h609z" />
<glyph unicode="3" horiz-adv-x="1102" d="M966 1100q0 -30 -3.5 -59t-12 -57t-23.5 -57t-36.5 -62t-51 -70t-67.5 -80q70 -28 116 -62.5t73 -73.5t38 -82t11 -89q0 -96 -38 -175.5t-110 -136t-176 -86.5t-234 -30q-50 0 -104 5t-107 15t-102 25t-86 35l57 186q40 -14 87 -25t95 -19t95 -12t88 -4q67 0 116 15 t82 40.5t49 61t16 76.5q0 28 -10 52t-32 44.5t-58 37.5t-89 31t-124 27t-165 23l29 198l69.5 -4.5t75 -6t71 -7.5t58.5 -8q37 48 62.5 87t41 72t22.5 63t7 62t-12 61t-36 50t-58 33t-78 12q-33 0 -68 -5t-73.5 -17.5t-80.5 -33t-90 -52.5l-110 172q61 44 119.5 75t117.5 51 t120 30t127 10q99 0 172.5 -25t122.5 -70t73 -106.5t24 -134.5z" />
<glyph unicode="4" horiz-adv-x="1192" d="M1130 299h-196v-299h-254v299h-622l-25 180l663 932h238v-921h211zM680 1104l-416 -616h416v616z" />
<glyph unicode="5" horiz-adv-x="1087" d="M284 622h-31.5t-36 -1t-36.5 -1t-32 -2v793h806l-18 -207h-564v-366q122 -2 216 -17t163 -42t116.5 -64t76 -81t41.5 -95t13 -105q0 -66 -18 -125t-51 -109.5t-81.5 -91t-110 -69.5t-134.5 -44t-157 -15q-52 0 -105 4.5t-104.5 14t-98 24.5t-82.5 35l30 98l33 98 q38 -14 79.5 -26t86 -20t89.5 -13t89 -5q72 0 123 17t83.5 46t47 67t14.5 82q0 28 -8 55t-27.5 52t-52.5 45.5t-82.5 36t-118 23.5t-158.5 8z" />
<glyph unicode="6" horiz-adv-x="1169" d="M1042 1161q-84 26 -164 42.5t-157 16.5q-74 0 -133.5 -22t-103.5 -67t-72 -115t-37 -164q133 -2 236 -15.5t179.5 -38t129 -60.5t84.5 -82t46.5 -103t14.5 -123q0 -60 -13.5 -116.5t-40 -107t-66.5 -92t-93.5 -71.5t-119.5 -46.5t-146 -16.5q-116 0 -206 37t-152 112.5 t-94 191t-32 273.5q0 199 37.5 354.5t115 263t196.5 164t282 56.5q102 0 195.5 -19t171.5 -55zM815 418q0 35 -8.5 65.5t-28 56.5t-52.5 46.5t-83 35t-118.5 23.5t-158.5 11v-66q0 -94 14 -169t43 -127t74.5 -80t108.5 -28q54 0 93 17t65 47.5t38.5 73t12.5 94.5z" />
<glyph unicode="7" horiz-adv-x="1046" d="M383 0h-264l616 1206h-673l16 207h918l16 -174z" />
<glyph unicode="8" horiz-adv-x="1200" d="M178 1075q0 83 32.5 150t92 114t143.5 73t187 26q102 0 181.5 -23t134.5 -67t84.5 -109t29.5 -147q0 -40 -9.5 -82t-31.5 -88t-59 -99t-93 -115q72 -50 117.5 -93t71 -82t34.5 -76t9 -76q0 -56 -15.5 -107.5t-45.5 -96.5t-73.5 -82t-100 -63t-124.5 -40t-147 -14 q-118 0 -211 24t-156.5 72t-97 119t-33.5 165q0 34 4.5 65t15 61t28.5 62t44 67.5t62 77t84 91.5q-39 33 -68.5 66.5t-49.5 69t-30 74.5t-10 83zM350 372q0 -44 18.5 -80t52 -62t79.5 -40t100 -14t97 14t73 38.5t46 59t16 76.5q0 26 -9.5 47.5t-28.5 43t-48 44.5t-68 50 q-80 58 -190 129q-43 -59 -70.5 -103.5t-42.5 -80.5t-20 -65t-5 -57zM828 1067q0 38 -14 69.5t-39 54.5t-61 35.5t-81 12.5q-47 0 -83.5 -11.5t-62 -32.5t-38.5 -50t-13 -65q0 -23 7 -44.5t22 -43.5t39 -44t59 -47l73 -47l83 -51q32 44 52.5 81.5t33 69.5t18 59.5t5.5 53.5z " />
<glyph unicode="9" horiz-adv-x="1169" d="M125 250q84 -26 163.5 -43t157.5 -17q74 0 134 22.5t104 68t72 114.5t36 164q-133 2 -235.5 15.5t-179.5 38.5t-129 60.5t-84.5 82t-47 102.5t-14.5 123q0 60 13.5 116.5t40 106.5t66.5 92t93 72t120 47t147 17q116 0 206 -37t151.5 -113t93.5 -192t32 -273 q0 -199 -37.5 -355t-114.5 -263t-196 -163t-283 -56q-102 0 -195 19t-171 54zM352 994q0 -36 8.5 -67t28 -56.5t52.5 -46t83 -35t118.5 -23t158.5 -10.5v65q0 94 -13.5 169t-43 127.5t-75 79.5t-108.5 27q-54 0 -93 -16.5t-64.5 -47t-38.5 -72.5t-13 -94z" />
<glyph unicode=":" horiz-adv-x="588" d="M150 641v248h288v-248h-288zM150 74v246h288v-246h-288z" />
<glyph unicode=";" horiz-adv-x="590" d="M148 641v248h286v-248h-286zM465 -8q0 -70 -24 -126.5t-72 -103t-119.5 -84.5t-167.5 -71l-74 147q67 30 108.5 55t64.5 48t31.5 46t8.5 52q0 12 -2 30.5t-5.5 41.5t-9 48.5l-11.5 51.5t-13 51.5t-14 47.5l206 36q21 -23 38.5 -55.5t29.5 -68.5t18.5 -74t6.5 -72z" />
<glyph unicode="&#x3c;" horiz-adv-x="1050" d="M876 964l-501 -260l495 -264l-18 -212l-731 384l19 174l753 392z" />
<glyph unicode="=" horiz-adv-x="1089" d="M946 817h-811l11 170h808zM946 402h-811l11 168h808z" />
<glyph unicode="&#x3e;" horiz-adv-x="1061" d="M176 438l500 260l-496 264l20 216l732 -388l-18 -172l-756 -390z" />
<glyph unicode="?" horiz-adv-x="878" d="M221 0v246h283v-246h-283zM830 1086q0 -64 -13 -112t-44 -85t-83 -66t-129 -57q-52 -18 -83.5 -32t-47.5 -26t-21 -25t-5 -31t2 -42t5 -49t7 -50t8 -46l-203 -23q-10 27 -18.5 59.5t-15 64.5t-10 61t-3.5 51q0 28 3.5 50t13.5 40t28.5 33.5t47.5 30.5t71 30.5t100 34.5 q45 14 74.5 29.5t46 33.5t23 38t6.5 44q0 52 -22 92.5t-71 68t-127 41.5t-188 14h-20q-10 0 -21 -0.5t-24 -1t-29 -0.5l22 208q39 4 84.5 8t98.5 4q134 0 234.5 -28.5t167.5 -80t101 -123.5t34 -158z" />
<glyph unicode="@" horiz-adv-x="1915" d="M1059 150l-65 -57q-28 -24 -51 -41.5t-43 -28t-39 -17t-38 -8.5t-43 -2q-48 0 -88 18.5t-69 57t-45.5 98.5t-16.5 144q0 149 31.5 262.5t90 190t142 116t187.5 39.5q32 0 73 -4t84 -11t87 -16t82 -21l-52 -526l-4 -47l-4 -50l-3 -47q-2 -22 -3 -40q58 10 108 36t92 65 t75 89t55.5 108t34 123t11.5 134q0 122 -39.5 215.5t-117.5 158.5t-193.5 98t-265.5 33q-110 0 -209.5 -27t-184 -78.5t-152.5 -126t-115 -169.5t-73 -210t-26 -245q0 -160 28 -273t81 -184t130 -104t177 -33q33 0 71.5 4t79.5 11.5t84 18t83 22.5l42 -142 q-38 -19 -83 -34.5t-94 -27t-99 -18t-100 -6.5q-90 0 -169 16t-145.5 52t-119 93t-89.5 140.5t-56 195t-19 253.5q0 163 35 303.5t99 255.5t154 204.5t199.5 150.5t235.5 92.5t262 31.5q200 0 345.5 -47t241 -133t141.5 -208t46 -273q0 -97 -21.5 -189.5t-62.5 -174.5 t-99 -150.5t-131 -118.5t-159 -77t-184 -27q-36 0 -59 9t-36 29t-17.5 51t-4.5 73zM786 346q0 -83 25 -122.5t73 -39.5q14 0 30.5 6t37 19t47.5 34l64 52l43 428q-31 8 -64.5 12.5t-60.5 4.5q-52 0 -88.5 -29t-60 -81t-35 -124t-11.5 -160z" />
<glyph unicode="A" horiz-adv-x="1286" d="M994 0l-128 377h-473l-137 -377h-252l520 1413h248l504 -1413h-282zM448 549h363l-155 475q-11 31 -15 59.5t-4 48.5q0 -20 -6 -49q-7 -29 -17 -59z" />
<glyph unicode="B" horiz-adv-x="1183" d="M1110 438q0 -100 -36.5 -181t-107 -138t-174.5 -88t-237 -31h-418v1413h439q118 0 201 -24.5t135.5 -69.5t77 -109t24.5 -143q0 -77 -36 -152t-100 -155q62 -22 106 -54.5t72 -74t41 -90.5t13 -103zM764 1032q0 46 -13 81t-41 59.5t-74 37.5q-46 12 -110 12h-137v-411 h301q21 34 35 63.5t22.5 55.5t12.5 51t4 51zM848 424q0 46 -14.5 83t-44 64t-73.5 41t-102 14h-225v-434h187q73 0 124.5 17t84.5 47t48 73t15 95z" />
<glyph unicode="C" horiz-adv-x="1233" d="M870 1194q-21 6 -37.5 9t-33 5.5t-33 3t-35.5 0.5q-88 0 -157.5 -31t-117.5 -95t-74 -160q-26 -98 -26 -228q0 -98 13.5 -172.5t38 -129.5t57.5 -92t74 -59.5t87 -32t95 -9.5q50 0 99.5 7.5t97 22t92.5 34.5q46 21 88 45l70 -191q-53 -32 -107.5 -57.5t-115 -42.5 t-128 -26t-147.5 -9q-144 0 -253.5 40t-183 125t-111.5 215t-38 310q0 174 43 312.5t125 236t202 149.5t273 52q68 0 123 -5t101.5 -14t88.5 -23q40 -14 82 -34l-26 -428l-220 -12z" />
<glyph unicode="D" horiz-adv-x="1345" d="M1262 738q0 -178 -44 -315.5t-129.5 -231t-213 -142.5t-295.5 -49h-443v1413h481q102 0 190 -15.5t159 -48.5t126 -86t92.5 -128t57 -173t19.5 -224zM393 1214v-1018h187q108 0 186 33t130 98.5t77 163t25 226.5q0 128 -24 221.5t-75 154.5t-130 91t-189 30h-187z" />
<glyph unicode="E" horiz-adv-x="1114" d="M140 0v1413h886l-16 -197h-614v-392h548v-198h-548v-430h616l18 -196h-890z" />
<glyph unicode="F" horiz-adv-x="1044" d="M979 1216h-583v-422h532l-16 -194h-516v-600h-256v1413h858z" />
<glyph unicode="G" horiz-adv-x="1327" d="M1206 127q-50 -32 -110 -57.5t-127 -44.5t-141 -29t-150 -10q-143 0 -253.5 38.5t-186.5 122t-115 213.5t-39 314q0 176 43 315t125 236t201 149t270 52q73 0 131 -4.5t108 -14t97.5 -25.5t99.5 -38l-67 -201q-85 37 -175.5 54t-185.5 17q-89 0 -159 -32t-119 -96 t-75 -160q-26 -98 -26 -226q0 -144 28 -241.5t78 -157.5t120 -86.5t155 -26.5q32 0 60 3t54.5 9t52.5 15t54 21v284h-260l14 184h498v-577z" />
<glyph unicode="H" horiz-adv-x="1431" d="M1032 0v616h-634v-616h-258v1413h258v-592h634v592h260v-1413h-260z" />
<glyph unicode="I" horiz-adv-x="864" d="M768 1237l-196 -13v-1044l200 -8v-172h-660v172l202 8v1044l-195 13v176h649v-176z" />
<glyph unicode="J" horiz-adv-x="721" d="M-16 -131q22 -6 46.5 -10.5t49 -7.5t46.5 -5t38 -2q39 0 65.5 9t43 27.5t23.5 48t7 69.5v1226l-221 13v176h626v-176l-145 -10v-1184q0 -96 -25.5 -170t-74.5 -125t-121 -77.5t-166 -26.5q-28 0 -59 3t-62.5 8t-61.5 13q-31 8 -55 16z" />
<glyph unicode="K" horiz-adv-x="1235" d="M928 0l-418 643l-121 -133v-510h-249v1413h249v-631l529 631h266l-484 -592l545 -821h-317z" />
<glyph unicode="L" horiz-adv-x="1032" d="M140 0v1413h258v-1217h573l16 -196h-847z" />
<glyph unicode="M" horiz-adv-x="1741" d="M1358 0l-6 998q-4 -26 -11 -50.5t-20 -52.5l-381 -867h-172l-364 836q-7 15 -12.5 28.5t-9 25.5t-6.5 24q-2 12 -4 26l-14 -968h-223l25 1413h250l460 -1047l476 1047h248l16 -1413h-252z" />
<glyph unicode="N" horiz-adv-x="1450" d="M1088 0l-658 905q-18 25 -31.5 47t-19.5 42v-994h-239v1413h224l654 -919q24 -34 37.5 -57t19.5 -39v1015h238v-1413h-225z" />
<glyph unicode="O" d="M1342 729q0 -104 -18 -200t-55 -178.5t-91 -150.5t-127 -116t-164 -74t-201 -26q-145 0 -257 37.5t-188.5 121t-115.5 216.5t-39 323q0 114 20 214t58 182.5t94 147t128.5 109t160.5 67.5q89 24 191 24q145 0 257.5 -38.5t189.5 -122t117 -216t40 -320.5zM1067 717 q0 120 -18.5 213.5t-59.5 158.5t-105 99t-157 34q-87 0 -155 -34t-115 -100t-72 -162q-25 -98 -25 -222q0 -134 20 -230.5t62 -159.5t107 -93.5t153 -30.5q89 0 157.5 35.5t114.5 103t69.5 165.5t23.5 223z" />
<glyph unicode="P" horiz-adv-x="1112" d="M1050 971q0 -76 -16 -145t-47 -127.5t-75.5 -106t-101 -81t-124.5 -51.5t-146 -18q-12 0 -33.5 1t-44 1.5t-41.5 2t-25 3.5v-450h-256v1413h450q122 0 209 -33t143 -92t82 -140t26 -177zM796 950q0 52 -11 100.5t-38.5 85t-74 58.5t-117.5 22h-159v-577q4 -1 14 -2 t23.5 -2t29 -2t30.5 -1t28 -0.5t21 -0.5q70 0 119 26.5t79 70.5t43 101.5t13 120.5z" />
<glyph unicode="Q" d="M1342 729q0 -113 -22 -216t-65 -191t-107 -156.5t-150 -112.5q22 -64 39 -104.5t37 -62.5t46 -30t62 -8q17 0 41 2t51.5 6t56.5 9t55 10l27 -191q-30 -12 -66.5 -20t-73.5 -14t-71 -9q-36 -3 -62 -3q-48 0 -87 5t-71 20t-58.5 40t-49.5 64t-43.5 94.5t-42.5 130.5 q-25 -4 -50.5 -6t-51.5 -2q-145 0 -257 37.5t-188.5 121t-115.5 216.5t-39 323q0 114 20 214t58 182.5t94 147t128.5 109t160.5 67.5q89 24 191 24q145 0 257.5 -38.5t189.5 -122t117 -216t40 -320.5zM1067 717q0 120 -18.5 213.5t-59.5 158.5t-105 99t-157 34 q-87 0 -155 -34t-115 -100t-72 -162q-25 -98 -25 -222q0 -134 20 -230.5t62 -159.5t107 -93.5t153 -30.5q89 0 157.5 35.5t114.5 103t69.5 165.5t23.5 223z" />
<glyph unicode="R" horiz-adv-x="1188" d="M864 0l-268 534h-200v-534h-256v1413h440q126 0 216 -24.5t149 -73.5t87.5 -122.5t28.5 -172.5q0 -51 -12.5 -100.5t-40.5 -100.5t-72 -105t-106 -114l325 -600h-291zM809 1008q0 53 -15 92t-46.5 65t-80.5 38.5t-116 12.5h-155v-495h282q36 42 61 79t40.5 71.5t22.5 68 t7 68.5z" />
<glyph unicode="S" horiz-adv-x="1116" d="M1028 416q0 -90 -34 -169t-101 -138t-167 -92q-98 -33 -230 -33q-64 0 -121.5 5t-110.5 17t-103.5 29t-102.5 41l67 215q43 -20 92 -35.5t100.5 -27.5t102.5 -18.5t98 -6.5q61 0 107.5 12.5t77.5 35.5t47 54t16 67q0 39 -10 69.5t-38.5 55t-78.5 46.5t-129 45 q-70 20 -127 41t-101 46t-77 56t-54 70.5t-32 89t-11 113.5q0 90 31 168.5t91 136.5t150 91q90 34 206 34q126 0 230 -23t184 -63l-64 -199q-38 16 -82 28.5t-89 21t-87 13t-76 4.5q-60 0 -104 -11t-71.5 -33.5t-41 -55t-13.5 -76.5q0 -38 9 -67t33.5 -54t69.5 -47 q45 -20 118 -42q88 -26 153.5 -52t113 -55t78.5 -61t49 -70t25 -81t7 -95z" />
<glyph unicode="T" horiz-adv-x="1149" d="M1118 1216h-414v-1216h-256v1216h-434l16 197h1104z" />
<glyph unicode="U" horiz-adv-x="1378" d="M1252 557q0 -128 -36 -233.5t-108 -180.5t-181 -116t-255 -41t-250 34t-169.5 103t-95.5 173t-30 244v873h258v-873q0 -90 16 -156t52 -108t93.5 -63t141.5 -21q89 0 149.5 23t98 68.5t54 113t16.5 156.5v860h246v-856z" />
<glyph unicode="V" horiz-adv-x="1227" d="M987 1413h248l-527 -1413h-243l-473 1413h290l314 -999q8 -28 12 -57t4 -50q0 20 6 49.5t15 57.5z" />
<glyph unicode="W" horiz-adv-x="1812" d="M616 0h-274l-322 1413h277l199 -991q6 -32 8 -59t2 -47q0 20 6 48t14 58l266 916h248l252 -916q8 -30 12 -58t4 -48q0 20 5 47.5t12 58.5l225 991h242l-342 -1413h-276l-264 916q-8 28 -12.5 56t-4.5 48q0 -20 -4.5 -48t-12.5 -56z" />
<glyph unicode="X" horiz-adv-x="1192" d="M748 725l428 -725h-298l-292 504l-302 -504h-278l434 696l-416 717h294l284 -499l310 499h268z" />
<glyph unicode="Y" horiz-adv-x="1175" d="M696 610v-610h-258v604l-450 809h296l306 -557l342 557h256z" />
<glyph unicode="Z" horiz-adv-x="1085" d="M1048 1254l-704 -1058h684l-12 -196h-954l-19 186l674 1030h-635l14 197h942z" />
<glyph unicode="[" horiz-adv-x="682" d="M616 1327h-256v-1616h266l-12 -176h-474v1966h491z" />
<glyph unicode="\" horiz-adv-x="825" d="M580 0l-578 1413h234l579 -1413h-235z" />
<glyph unicode="]" horiz-adv-x="680" d="M51 -465l15 176h256v1616h-266l12 174h474v-1966h-491z" />
<glyph unicode="^" horiz-adv-x="981" d="M506 1214l-17 51q-7 21 -11 39t-5.5 34t-1.5 34q0 -18 -1.5 -34t-5.5 -34t-11 -39l-17 -51l-137 -405h-221l322 799h210l295 -799h-256z" />
<glyph unicode="_" horiz-adv-x="764" d="M706 0h-665l12 144h664z" />
<glyph unicode="`" horiz-adv-x="643" d="M379 1130l-283 373l193 43l253 -380z" />
<glyph unicode="a" horiz-adv-x="1044" d="M631 406q-98 -7 -160.5 -17t-99 -24.5t-50.5 -34.5t-14 -48q0 -29 8.5 -52.5t24.5 -39.5t39 -25t53 -9t59 8t55 21t48 30t37 35v156zM880 -10q-53 0 -93.5 8t-69.5 23t-47 38t-27 51q-62 -68 -136.5 -97t-166.5 -29q-56 0 -105 19t-86 55.5t-58 90t-21 123.5q0 34 8 65.5 t30.5 58.5t62 50t102.5 41.5t151 32.5t209 22q2 38 2 71.5v70.5q0 33 -6 55.5t-18.5 36.5t-32.5 20.5t-48 6.5q-39 0 -80.5 -7.5t-83 -22.5t-81.5 -36t-76 -47l-99 152q52 38 105.5 66t112 48t123.5 30t139 10q86 0 142.5 -22t90 -63t46.5 -101t13 -136v-402q0 -27 4 -43.5 t17.5 -26.5t41.5 -16t77 -12l-41 -182q-28 -2 -53.5 -2h-47.5z" />
<glyph unicode="b" horiz-adv-x="1112" d="M383 870q64 58 136.5 91t158.5 33q82 0 147 -27.5t111 -85t71 -145.5t25 -212q0 -129 -34 -229.5t-98 -169t-157 -104t-213 -35.5q-48 0 -100 4.5t-103 14.5t-100 25.5t-92 37.5v1402l248 17v-617zM778 498q0 69 -12 123.5t-36.5 92t-61 57t-84.5 19.5q-52 0 -102 -25 t-97 -67v-510q36 -14 74.5 -21t80.5 -7q117 0 177.5 84t60.5 254z" />
<glyph unicode="c" horiz-adv-x="876" d="M764 768q-50 16 -98 22t-86 6q-65 0 -112.5 -19t-78.5 -60t-45 -103t-14 -147q0 -70 12.5 -123.5t40 -88.5t69.5 -53t101 -18q60 0 117.5 15t113.5 41l64 -174q-72 -38 -157 -59t-189 -21q-103 0 -181.5 25t-132.5 81t-81 144t-27 212q0 136 36 238.5t99 170t151 101 t191 33.5q73 0 137 -9t121 -34z" />
<glyph unicode="d" horiz-adv-x="1108" d="M748 -10q-4 10 -7.5 24t-6 30t-4 33t-1.5 33q-28 -27 -59 -49.5t-66.5 -39.5t-74.5 -26t-83 -9q-102 0 -171.5 32t-113 93t-62.5 149q-19 86 -19 196q0 128 33 227t93 167t145 102.5t187 34.5q54 0 99 -6.5t84 -24.5v514l250 17v-1479zM721 776q-71 31 -158 31 q-52 0 -94 -18.5t-72 -58t-46.5 -103t-16.5 -154.5q0 -85 13 -142t38 -91.5t62 -49t83 -14.5q28 0 56 7t52 17t45.5 23.5t37.5 26.5v526z" />
<glyph unicode="e" horiz-adv-x="1018" d="M938 100q-42 -27 -91 -48t-101.5 -36t-108 -22.5t-113.5 -7.5q-106 0 -188 25t-139 80.5t-87 142t-30 208.5q0 125 32 226.5t94 172.5t152.5 109.5t206.5 38.5q98 0 166 -31t109.5 -88.5t60.5 -140t19 -184.5q0 -20 -1 -46t-5 -65h-588q0 -65 13 -114t42 -81.5t73 -48.5 t105 -16q38 0 79.5 7t82.5 20t81 29.5t76 35.5zM696 584q0 116 -40 169.5t-118 53.5q-42 0 -77 -14t-61 -41.5t-43 -69.5t-23 -98h362z" />
<glyph unicode="f" horiz-adv-x="647" d="M633 1278q-16 4 -35.5 7.5t-38.5 6.5t-37 4.5t-32 1.5q-26 0 -43 -4.5t-27 -16t-14 -30.5t-4 -49v-232h204l-14 -180h-190v-786h-248v786l-126 8l15 168l111 4v202q0 82 16.5 142t52 99.5t91.5 58.5t134 19q32 0 63 -2.5t59 -7.5t54 -11q26 -7 46 -14z" />
<glyph unicode="g" horiz-adv-x="1083" d="M1065 899l-67 7.5t-52 3.5q-16 0 -27 -4t-20 -13t-17 -25t-18 -38q14 -16 25 -38.5t19 -47.5t13 -51t5 -50q0 -84 -32 -148.5t-88 -108.5t-134 -66.5t-172 -22.5h-52q-6 -8 -10 -19t-6.5 -22.5t-4 -22.5t-1.5 -20q0 -16 3 -26.5t8.5 -16.5t14.5 -8t21 -2h207 q88 0 150 -13.5t100 -42t56 -73t18 -107.5q0 -48 -18 -95t-51 -89t-81.5 -77.5t-111 -61.5t-137.5 -40.5t-163 -14.5q-200 0 -304.5 56t-104.5 172q0 41 12.5 76t38.5 67t64 63.5t90 64.5q-12 14 -18.5 34t-6.5 42q0 20 4 41.5t13.5 45t25.5 51t41 61.5q-47 12 -86 36 t-67 60t-44 84t-16 108q0 90 33 160t91 118t138 73.5t174 25.5q37 0 69.5 -4.5t60.5 -11.5t52 -17t44 -20q17 58 33.5 96.5t37.5 61t49 31.5t66 9q17 0 36.5 -1t39.5 -4t39 -8t37 -11zM684 639q0 38 -10.5 69.5t-32 53.5t-53.5 34.5t-76 12.5q-95 0 -140.5 -47.5 t-45.5 -139.5q0 -44 11.5 -76t34 -52t55.5 -30t75 -10q40 0 73.5 11t57.5 33.5t37.5 57.5t13.5 83zM782 -112q0 22 -7 37t-23.5 26t-44.5 16t-70 5h-301q-42 -34 -59 -66q-17 -34 -17 -64t13 -51t39 -35t68 -21t99 -7q76 0 132.5 15t94.5 38t57 52t19 55z" />
<glyph unicode="h" horiz-adv-x="1097" d="M717 0v672q0 26 -4.5 46t-15.5 34.5t-29 21.5q-20 8 -48 8q-24 0 -52 -8t-58.5 -24t-62 -39t-62.5 -53v-658h-250v1470l248 15v-645q90 78 173 114.5t163 36.5q68 0 115.5 -16.5t77.5 -50.5t43 -85t13 -120v-719h-251z" />
<glyph unicode="i" horiz-adv-x="514" d="M135 0v964l246 15v-979h-246zM129 1157v221h252v-221h-252z" />
<glyph unicode="j" horiz-adv-x="522" d="M135 1157v221h252v-221h-252zM385 -28q0 -112 -25 -188t-76 -123.5t-128.5 -72t-183.5 -32.5l-36 188q62 8 101 20t61 31t29.5 47t7.5 68v1054l250 15v-1007z" />
<glyph unicode="k" horiz-adv-x="1030" d="M702 966h273l-363 -432l400 -534h-324l-303 432v-432h-250v1470l250 15v-909z" />
<glyph unicode="l" horiz-adv-x="561" d="M133 1470l246 15v-1217q0 -26 1.5 -42t7.5 -25t18 -13t32 -4q12 0 30.5 1t49.5 3l6 -174q-17 -6 -40.5 -10t-50 -7t-55 -5t-56.5 -2q-48 0 -83.5 10.5t-59 33t-35 58.5t-11.5 88v1290z" />
<glyph unicode="m" horiz-adv-x="1644" d="M1272 672q0 26 -5 47t-17 35.5t-31 22t-47 7.5q-46 0 -104 -30t-120 -88v-666h-242v674q0 26 -4 46.5t-15 35t-29 21.5q-20 7 -48 7q-23 0 -50.5 -8t-57.5 -25t-61 -40t-62 -53v-658h-244v968l213 17q4 -12 8 -28.5t7 -36.5t5 -42l4 -44q90 80 174 120q82 40 164 40 q54 0 94 -11t67.5 -31.5t44 -50t24.5 -65.5q38 36 78 64.5t81 49t83 32.5t84 12q72 0 119.5 -17t76.5 -50.5t41.5 -83t12.5 -114.5v-729h-244v672z" />
<glyph unicode="n" horiz-adv-x="1097" d="M717 0v672q0 26 -4.5 46t-15.5 34.5t-29 21.5q-20 8 -48 8q-24 0 -51.5 -8t-58 -24t-62.5 -39t-63 -53v-658h-250v968l217 15q4 -10 8 -26.5t7 -36.5l6 -42t4 -44q86 79 173.5 118t168.5 39q68 0 115.5 -16.5t77.5 -50.5t43 -85t13 -120v-719h-251z" />
<glyph unicode="o" horiz-adv-x="1100" d="M1020 508q0 -114 -31.5 -210.5t-93.5 -166t-153.5 -108.5t-211.5 -39q-227 0 -338.5 120t-111.5 365q0 117 34 213t97 165t154 106.5t205 37.5t198 -28.5t140 -87.5t84 -150.5t28 -216.5zM762 496q0 78 -11.5 137t-36.5 98.5t-64.5 59.5t-94.5 20q-50 0 -90.5 -20.5 t-68.5 -61t-43 -101t-15 -138.5q0 -92 13.5 -155t40 -101.5t65.5 -55t90 -16.5q56 0 96.5 21.5t66.5 64t39 104.5t13 144z" />
<glyph unicode="p" horiz-adv-x="1112" d="M1032 516q0 -71 -11.5 -137.5t-36 -124.5t-63.5 -106t-92.5 -82t-123 -53t-156.5 -19q-20 0 -42.5 1t-44.5 4t-41.5 7t-33.5 10v-420l-252 -14v1386l217 17q9 -23 15.5 -55t9.5 -66q64 62 139 96t162 34q80 0 146 -27.5t112 -86t71 -148.5t25 -216zM778 498 q0 69 -12 123.5t-36.5 92t-61 57t-84.5 19.5q-28 0 -55 -7t-52 -19t-47 -28q-23 -18 -43 -36v-504q16 -7 34.5 -12.5t39 -10t42 -7t42.5 -2.5q114 0 173.5 82t59.5 252z" />
<glyph unicode="q" horiz-adv-x="1108" d="M721 -418v516q-24 -22 -54.5 -42t-65.5 -36t-75 -25t-84 -9q-71 0 -125.5 16t-94.5 46t-67.5 72.5t-44 95t-23.5 113.5t-7 127q0 129 33 228.5t93.5 166.5t146.5 101.5t192 34.5q58 0 109 -7q52 -8 94 -20l225 23v-1387zM723 782q-34 10 -74.5 17.5t-83.5 7.5 q-52 0 -94 -18.5t-72 -58t-46.5 -103t-16.5 -154.5q0 -85 13 -142t38 -91.5t62 -49t83 -14.5q24 0 49 5t50 15t48 23.5t44 30.5v532z" />
<glyph unicode="r" horiz-adv-x="712" d="M682 760l-41 3q-18 1 -37 1q-22 0 -39 -2t-32 -9t-30 -20t-32.5 -35t-38.5 -53l-49 -75v-570h-248v968l197 17q6 -12 10 -34.5t8 -51.5t6 -63l4 -68q34 69 62 111.5t54.5 66t54 31.5t61.5 8q32 0 63 -4t53 -10z" />
<glyph unicode="s" horiz-adv-x="897" d="M824 289q0 -64 -24.5 -120.5t-74 -97.5t-125 -64t-178.5 -23q-99 0 -188.5 19t-171.5 59l46 184q40 -18 84 -33t87 -25.5t85 -15.5q40 -6 76 -6q40 0 68.5 7t46.5 20t26.5 29.5t8.5 35.5t-5 35.5t-21 30.5t-46 28t-80 29q-70 20 -122.5 41t-90 43.5t-61.5 46.5t-37.5 51 t-19 57.5t-5.5 65.5q0 69 27.5 125.5t77 97.5t118.5 63t152 22q46 0 88.5 -4t83.5 -13t81 -23q41 -12 81 -32l-61 -180q-26 13 -60.5 23.5t-71 18.5t-72.5 12.5t-64 4.5q-38 0 -65 -7.5t-43 -19.5t-23 -29t-7 -37q0 -23 6 -39.5t25 -31.5t55 -29t96 -32q90 -28 148 -57 t91 -63.5t46 -75.5t13 -91z" />
<glyph unicode="t" horiz-adv-x="745" d="M712 47q-54 -30 -129 -46.5t-171 -16.5q-64 0 -113 14t-81 44t-48 77t-16 113v556l-124 6l15 168l115 4l28 302l218 18v-320h286l-14 -180h-272v-542q0 -40 16 -56t55 -16q20 0 44.5 3t49.5 8t51 12.5t48 17.5z" />
<glyph unicode="u" horiz-adv-x="1093" d="M740 -8q-4 10 -9 27.5t-8 37t-5 39.5t-3 37q-42 -38 -85 -66.5t-85.5 -46.5t-84 -27t-81.5 -9q-70 0 -117.5 18t-77.5 52.5t-42.5 86t-12.5 119.5v704l252 11v-674q0 -26 5.5 -46.5t17.5 -34.5t31 -22t47 -8q46 0 103 27.5t121 87.5v657l252 13v-971z" />
<glyph unicode="v" horiz-adv-x="968" d="M473 360q11 -31 15 -55.5t4 -44.5q0 20 4 46t14 54l225 606h229l-380 -966h-224l-356 966h260z" />
<glyph unicode="w" horiz-adv-x="1464" d="M504 0h-203l-281 966h244l154 -594q8 -30 13 -55t5 -45q0 20 6 46q4 26 12 54l179 588l211 13l170 -601q18 -60 18 -100q0 20 6 46q4 26 12 54l172 594h216l-306 -966h-218l-179 602q-9 28 -12.5 55t-3.5 47q0 -20 -5.5 -46t-15.5 -56z" />
<glyph unicode="x" horiz-adv-x="979" d="M637 494l315 -494h-284l-205 330l-195 -330h-246l316 494l-303 472h285l190 -319l196 319h242z" />
<glyph unicode="y" horiz-adv-x="968" d="M473 362q11 -31 15 -56.5t4 -45.5q0 20 4 46q3 26 14 56l221 604h227l-466 -1175q-23 -58 -55 -99.5t-78.5 -69.5t-110.5 -43t-152 -19l-38 180q62 7 102.5 16.5t67.5 24t43.5 34.5t27.5 48l59 145l-346 958h252z" />
<glyph unicode="z" horiz-adv-x="919" d="M834 819l-443 -639h453l-18 -180h-730l-16 158l452 630h-430l21 178h696z" />
<glyph unicode="{" horiz-adv-x="768" d="M723 1358q-56 -14 -97.5 -27t-71 -27.5t-48.5 -31t-30 -37.5t-15.5 -47t-4.5 -62q0 -40 5.5 -87l11.5 -95.5l11.5 -96t5.5 -89.5q0 -38 -10.5 -74t-32 -67t-55.5 -55t-80 -40q46 -19 79.5 -46.5t55 -61t31.5 -72t10 -78.5q0 -46 -5 -94l-10 -93l-9 -88q-4 -42 -5 -79 q0 -34 4 -61t14.5 -48t29.5 -38t48 -31t70.5 -27t97.5 -27l-53 -172q-83 10 -147.5 26t-112.5 40.5t-81.5 57.5t-54 75.5t-29.5 95.5t-9 117q0 43 4.5 85.5t10 83l10.5 79t5 72.5q0 38 -10.5 66t-37 48t-70.5 34t-113 22l14 170q66 7 108.5 20t67.5 33.5t34 48.5t9 64 q0 40 -5 87t-12 96.5t-12 101t-5 103.5q0 92 25 160t79 116t137 77t197 41z" />
<glyph unicode="|" horiz-adv-x="721" d="M266 -416v2008h188v-2008h-188z" />
<glyph unicode="}" horiz-adv-x="768" d="M719 452q-66 -7 -108.5 -19.5t-67.5 -32.5t-34 -48t-9 -66q0 -40 5 -86.5t12 -96t12 -101.5t5 -102q0 -96 -25 -165t-79 -115.5t-137 -74t-197 -41.5l-49 168q56 14 96.5 27t70.5 27.5t48.5 31t29.5 37.5t15.5 47t4.5 62q0 41 -5 88.5t-11 96t-11 96t-5 87.5 q0 38 10 74.5t31.5 68t55 55.5t79.5 40q-48 18 -81 45t-53.5 61t-30 72t-9.5 80q0 47 4.5 93.5t9.5 92.5l9 88q4 42 4 80q0 34 -4 61t-14.5 48t-29.5 38t-48 31t-70 27t-96 25l51 174q116 -16 199 -42.5t136 -70.5t77 -108t24 -154q0 -44 -5 -91.5t-11 -93.5t-11 -90t-5 -84 q0 -35 10 -62.5t36 -48t71 -35t114 -22.5z" />
<glyph unicode="~" horiz-adv-x="913" d="M838 1470q-10 -77 -31 -130.5t-51 -87.5t-67 -49t-81 -15q-36 0 -75 6l-79 12l-77 13q-37 5 -65 5q-17 0 -29.5 -5t-22 -18t-18 -35t-16.5 -58l-158 28q10 74 29.5 127t49 87t67.5 50.5t85 16.5q37 0 75 -5.5t75 -11.5l70 -12q35 -6 63 -6q18 0 31 5t24 18t20 36t19 60z " />
<glyph unicode="&#xa1;" horiz-adv-x="631" d="M446 966v-245h-282v245h282zM194 510h226l24 -1006h-274z" />
<glyph unicode="&#xa2;" horiz-adv-x="958" d="M895 297q-30 -22 -60.5 -38.5t-63.5 -29t-70 -21t-77 -14.5l2 -276h-196l2 274q-87 7 -153.5 39.5t-111.5 91.5t-68 145t-23 202t26 209t72.5 161.5t112 112t145.5 59.5l-2 285h198l-2 -275q70 -3 129 -18.5t107 -37.5l-59 -185q-54 23 -113.5 35t-113.5 12 q-66 0 -113.5 -21t-78 -64t-44.5 -107.5t-14 -151.5q0 -72 13 -128t40 -94.5t70 -58.5t102 -20q72 0 140.5 20.5t138.5 57.5z" />
<glyph unicode="&#xa3;" horiz-adv-x="1198" d="M1164 217q-26 -60 -57 -103.5t-70 -71.5t-86 -41t-105 -13h-84l-111 3q-60 1 -128.5 3t-139.5 3l-142 2t-137 1l-14 188q50 2 100 5l101 5q6 25 11 58.5t5 73.5q0 28 -0.5 55t-1.5 55.5t-3.5 62t-6.5 73.5h-187l15 166h157l-7 93.5t-5 76t-3 62.5t-1 52q0 92 25 167 t78 128t135 82t196 29q94 0 178 -21t162 -65l-72 -178q-70 28 -137 43.5t-127 15.5q-48 0 -82.5 -10.5t-56.5 -31.5t-32.5 -52t-10.5 -72q0 -36 1 -70t3 -71.5t5 -80.5l7 -97h392l-16 -166h-363q2 -12 3 -30l3 -38q2 -20 3 -43l3 -44q1 -21 1.5 -40t0.5 -33 q0 -43 -4.5 -82.5t-11.5 -69.5q60 -2 113 -2l46 -2h46q22 0 41 -1t31 -1q32 0 55.5 5t43.5 19t38.5 39t38.5 63z" />
<glyph unicode="&#xa4;" horiz-adv-x="1245" d="M854 1218q-64 0 -117.5 -16.5t-96 -51t-73.5 -86.5t-49 -124h484l-17 -162h-491q-2 -20 -2 -40v-40v-49t2 -45h495l-14 -162h-455q14 -70 40 -119t63 -80t86 -45t110 -14q76 0 151.5 17t153.5 49l50 -190q-88 -38 -185.5 -56t-214.5 -18q-226 0 -357 111t-173 345h-203 l12 162h170v66v25q0 12 0.5 25t1.5 27t3 31h-179l15 162h188q26 112 76 202t123.5 153t170 97t214.5 34q63 0 112.5 -5t91.5 -13t78.5 -19.5t73.5 -24.5l-58 -190q-36 12 -70 20t-68 13.5t-69 8t-73 2.5z" />
<glyph unicode="&#xa5;" horiz-adv-x="1200" d="M461 723v45l-397 643h296l252 -424l281 424h254l-432 -645v-43h354l-17 -164h-337v-161h350l-15 -166h-335v-232h-254v232h-363l12 166h351v161h-361l14 164h347z" />
<glyph unicode="&#xa6;" horiz-adv-x="721" d="M266 735v857h188v-857h-188zM266 -416v860h188v-860h-188z" />
<glyph unicode="&#xa7;" horiz-adv-x="1042" d="M682 172q44 30 67 74t23 98q0 52 -15.5 105t-41 106t-58.5 106l-69 109l-72 112q-36 57 -66 116t-52 120.5t-32 126.5q-24 -14 -42.5 -33.5t-31 -42.5t-18.5 -48t-6 -52q0 -52 16 -104.5t42 -105.5t60 -107l71 -108l73 -112q36 -56 67 -115t53.5 -120t31.5 -125zM518 131 q-8 66 -30 126.5t-52 117.5t-66 111l-73 108l-70 108q-34 54 -60.5 109.5t-42.5 114t-16 122.5q0 87 32.5 160t92.5 126t145.5 82.5t191.5 29.5q52 0 102 -7t96.5 -20t87.5 -32t74 -41l-56 -138q-32 14 -70 28t-79 24.5t-83 17t-81 6.5h-19t-20 -2q8 -66 30 -126.5 t52 -117.5t66 -111l73 -108l71 -108q34 -54 60 -109.5t42 -114.5t16 -123q0 -87 -32 -159.5t-92 -125.5t-145.5 -82.5t-191.5 -29.5q-52 0 -102.5 7t-96.5 20.5t-87 31.5t-75 42l56 137q32 -14 70 -28t79.5 -24.5t83.5 -17t80 -6.5h20t19 2z" />
<glyph unicode="&#xa8;" horiz-adv-x="960" d="M594 1168v200h232v-200h-232zM162 1168v200h234v-200h-234z" />
<glyph unicode="&#xa9;" horiz-adv-x="1446" d="M1308 508q0 -80 -17.5 -155t-52 -141t-86 -122t-118.5 -96t-149.5 -62t-180.5 -22q-284 0 -427.5 140t-143.5 413q0 96 22 177.5t62 148.5t96 117.5t124.5 85t147.5 52t165 17.5q138 0 242.5 -39.5t175 -112t105.5 -174.5t35 -227zM1178 498q0 109 -29.5 193.5t-86 142.5 t-138.5 88t-186 30q-109 0 -197.5 -30.5t-150 -90t-95 -146.5t-33.5 -199q0 -120 28.5 -208.5t85 -146t141.5 -85.5t198 -28q104 0 189.5 32.5t146.5 94t94 150.5t33 203zM944 244q-42 -29 -101 -46.5t-133 -17.5q-62 0 -109.5 16t-80 51t-49.5 88t-17 128q0 78 22 137 t59.5 98.5t90 59.5t112.5 20q57 0 103.5 -9t84.5 -27l-42 -114q-30 14 -66 20t-66 6q-35 0 -60.5 -11t-42.5 -33t-25 -57t-8 -82q0 -85 30 -125.5t94 -40.5q40 0 81 11.5t84 33.5z" />
<glyph unicode="&#xaa;" horiz-adv-x="751" d="M442 1096q-64 -4 -101 -12t-55 -18t-23 -23t-5 -29t4 -30t11 -24t19 -16t26 -6q17 0 34 4.5t33.5 12t30.5 18.5t26 25v98zM454 903q-40 -42 -86 -59.5t-92 -17.5q-44 0 -77 15t-54 41t-32 62t-11 78q2 21 9 40t21.5 35.5t39 30.5t62 25.5t89 20t119.5 12.5v55 q0 32 -15 46.5t-46 14.5q-48 0 -95.5 -14t-99.5 -47l-61 103q34 23 68 39.5t69.5 27.5t73.5 17t82 6q54 0 91 -14t59.5 -39.5t32 -61t9.5 -78.5v-233q0 -18 2 -28t9 -16t20 -9t35 -5l-16 -112q-25 -3 -49 -5.5t-46 -2.5q-28 0 -47.5 4t-32.5 13.5t-20 23.5t-11 32z" />
<glyph unicode="&#xab;" horiz-adv-x="1253" d="M860 482l220 -366l-224 -54l-266 407l305 441l221 -48zM364 482l218 -366l-222 -54l-266 407l306 441l220 -48z" />
<glyph unicode="&#xac;" horiz-adv-x="1097" d="M748 248v360h-615l11 168h796v-520z" />
<glyph unicode="&#xad;" horiz-adv-x="762" d="M678 426h-602l10 168h600z" />
<glyph unicode="&#xae;" horiz-adv-x="1249" d="M1130 1126q0 -68 -15 -132t-45 -121t-74 -104.5t-101 -82t-128 -53.5t-155 -19q-125 0 -217.5 32t-153.5 93t-90.5 149t-29.5 202q0 82 18.5 151t52.5 125.5t82 100t107 72.5t127 44t141 15q114 0 203.5 -33t151.5 -93.5t94 -148t32 -197.5zM1020 1116q0 92 -25 164.5 t-73 122.5t-119 76.5t-164 26.5q-94 0 -170 -26.5t-129.5 -77t-82.5 -125t-29 -171.5q0 -400 392 -400q90 0 164 27.5t126 79.5t81 128.5t29 174.5zM719 856l-99 188h-63v-188h-98v498h195q38 0 66 -11t46.5 -29t27.5 -42t9 -52q0 -43 -22.5 -80t-65.5 -71l125 -213h-121z M700 1206q0 16 -4 30.5t-13.5 25t-24 16.5t-32.5 6h-69v-170h101q22 22 32 44t10 48z" />
<glyph unicode="&#xaf;" horiz-adv-x="819" d="M731 1206h-655l12 168h656z" />
<glyph unicode="&#xb0;" horiz-adv-x="819" d="M717 1080q0 -64 -22.5 -118.5t-68.5 -99.5q-44 -44 -98 -67t-118 -23t-118 23t-100 67q-46 45 -68 99.5t-22 118.5t22 118t68 98q90 90 218 90t216 -90q45 -45 68 -98.5t23 -117.5zM633 1080q0 46 -16.5 85t-48.5 72q-32 34 -72 49.5t-86 15.5t-86 -15.5t-72 -49.5 q-34 -32 -50 -71.5t-16 -85.5t16 -86t50 -72q32 -32 72 -49t86 -17t86 17t72 49q66 66 65 158z" />
<glyph unicode="&#xb1;" horiz-adv-x="1124" d="M612 1270v-480h476v-96h-476v-475h-98v475h-477v96h477v480h98zM1088 98v-98h-1051v98h1051z" />
<glyph unicode="&#xb2;" horiz-adv-x="768" d="M643 656h-518l-15 124l250 238q32 31 52 54.5t30 42.5t13.5 36t3.5 35q0 38 -26.5 60t-72.5 22q-35 0 -76.5 -14t-95.5 -50l-74 125q72 53 145 77t147 24q56 0 100.5 -16t76 -44t48 -65t16.5 -81q0 -36 -6.5 -65.5t-22.5 -59t-42 -62.5t-66 -73l-160 -161h302z" />
<glyph unicode="&#xb3;" horiz-adv-x="774" d="M622 1245q0 -24 -5 -46.5t-16 -45.5t-30 -48t-47 -55q39 -18 64.5 -37t39.5 -40t20 -44t6 -49q0 -52 -22.5 -95.5t-65 -75t-104.5 -49t-140 -17.5q-28 0 -59 3.5t-61 9.5t-57 15t-49 19l37 125q53 -17 105 -26t96 -9q36 0 61.5 6t42 17t24 27t7.5 36t-10.5 36t-38 27.5 t-75 20t-122.5 16.5l19 130q16 0 36 -1l40 -2t39 -3t32 -4l24.5 36t16.5 30t8 27t2 27t-4.5 28t-15 24t-26.5 16t-40 6q-18 0 -37 -2t-39.5 -9t-44 -18t-51.5 -29l-66 116q36 26 70.5 44t68.5 29t69.5 16t75.5 5q56 0 97 -14t69 -39t42 -59.5t14 -74.5z" />
<glyph unicode="&#xb4;" horiz-adv-x="643" d="M264 1130l-164 36l252 380l195 -43z" />
<glyph unicode="&#xb5;" horiz-adv-x="1179" d="M950 314q0 -60 2 -103t8 -65q4 -17 12 -29.5t15 -20.5q10 -8 19 -11t20 -3q26 0 47 24t31 99h41q-8 -68 -24.5 -114.5t-40.5 -70.5q-25 -26 -56.5 -38t-69.5 -12t-66 10t-50 34q-23 22 -36.5 61t-17.5 95q-51 -58 -99.5 -96t-94.5 -62q-45 -22 -84.5 -33.5t-73.5 -11.5 q-23 0 -44.5 4.5t-43.5 14.5t-43 22t-41 29q-4 -146 24 -252q18 -79 19 -109q0 -28 -6.5 -49t-20.5 -37q-27 -32 -63 -32q-17 0 -32 7t-25 21q-16 18 -23.5 42t-7.5 52q0 14 2 32t8 38q14 48 23 89t12 75q6 62 9 112.5t3 92.5v797h168v-576q0 -104 18 -148q8 -23 23 -40 t37 -31q24 -12 45 -19.5t43 -7.5q26 0 57 8t66 25q37 16 72 40.5t73 58.5v690h166v-602z" />
<glyph unicode="&#xb6;" horiz-adv-x="1462" d="M1282 792h-194v-1194l-216 -14v1382h422zM727 240q-24 -20 -53.5 -37.5t-63 -29.5t-70 -18.5t-75.5 -6.5q-80 0 -142 25t-103.5 74t-63 121t-21.5 166q0 110 27.5 194.5t78.5 141t123 85t160 28.5q51 0 103.5 -5.5t99.5 -13.5v-724z" />
<glyph unicode="&#xb7;" horiz-adv-x="610" d="M160 375v233h272v-233h-272z" />
<glyph unicode="&#xb8;" horiz-adv-x="610" d="M432 76q12 -34 21 -69t15.5 -69t10 -64t3.5 -56q0 -52 -20 -97t-67 -78t-125 -52.5t-194 -22.5l-27 154q68 4 110.5 13t65.5 22t31 29t8 36q0 16 -2 42.5t-6 59.5t-10 69.5l-12 72.5z" />
<glyph unicode="&#xb9;" horiz-adv-x="708" d="M475 794l145 -8v-130h-516v130l187 8v470h-162v141l346 25v-636z" />
<glyph unicode="&#xba;" horiz-adv-x="719" d="M649 1140q0 -68 -20.5 -124.5t-60 -98t-96 -64.5t-126.5 -23q-140 0 -208 73t-68 221q0 69 21.5 126.5t61 98.5t94.5 64t123 23q66 0 118 -16.5t88 -52t54.5 -91.5t18.5 -136zM479 1132q0 96 -28.5 139.5t-86.5 43.5t-92 -44.5t-34 -134.5q0 -54 7 -90t22 -58t37 -32 t52 -10q62 0 92.5 45t30.5 141z" />
<glyph unicode="&#xbb;" horiz-adv-x="1253" d="M854 62l-221 46l258 382l-221 364l223 56l266 -408zM358 62l-223 46l256 382l-217 364l222 56l266 -408z" />
<glyph unicode="&#xbc;" horiz-adv-x="1845" d="M563 0h-207l916 1413h206zM1747 152h-121v-152h-184v152h-330l-22 124l354 496h182v-486h129zM1442 576l-195 -290h195v290zM475 794l145 -8v-130h-516v130l187 8v470h-162v141l346 25v-636z" />
<glyph unicode="&#xbd;" horiz-adv-x="1835" d="M563 0h-207l916 1413h206zM1698 0h-516l-14 127l247 237q32 31 51 54.5t29.5 43t14.5 36t4 34.5q0 37 -26 58.5t-73 21.5q-18 0 -36.5 -3t-39.5 -10t-45 -19t-51 -29l-73 125q71 52 143.5 76t148.5 24q56 0 101 -16t76 -43.5t48 -65t17 -79.5q0 -37 -7 -67.5t-23.5 -60 t-43 -61t-66.5 -71.5l-159 -162h303zM475 794l145 -8v-130h-516v130l187 8v470h-162v141l346 25v-636z" />
<glyph unicode="&#xbe;" horiz-adv-x="1874" d="M586 0h-209l915 1413h207zM1759 152h-119v-152h-184v152h-332l-20 124l354 496h182v-486h130zM1456 576l-194 -290h194v290zM622 1245q0 -24 -5 -46.5t-16 -45.5t-30 -48t-47 -55q39 -18 64.5 -37t39.5 -40t20 -44t6 -49q0 -52 -22.5 -95.5t-65 -75t-104.5 -49 t-140 -17.5q-28 0 -59 3.5t-61 9.5t-57 15t-49 19l37 125q53 -17 105 -26t96 -9q36 0 61.5 6t42 17t24 27t7.5 36t-10.5 36t-38 27.5t-75 20t-122.5 16.5l19 130q16 0 36 -1l40 -2t39 -3t32 -4l24.5 36t16.5 30t8 27t2 27t-4.5 28t-15 24t-26.5 16t-40 6q-18 0 -37 -2 t-39.5 -9t-44 -18t-51.5 -29l-66 116q36 26 70.5 44t68.5 29t69.5 16t75.5 5q56 0 97 -14t69 -39t42 -59.5t14 -74.5z" />
<glyph unicode="&#xbf;" horiz-adv-x="878" d="M658 966v-245h-283v245h283zM49 -119q0 64 12.5 112t43.5 84.5t83 65.5t130 57q52 18 83 32t47.5 27t21.5 26t5 31t-2 41t-5.5 48t-7.5 50t-8 47l204 22q10 -27 18 -59t15 -64t10 -61.5t3 -50.5q0 -28 -3 -49.5t-13 -40t-28.5 -34t-48 -30.5t-71.5 -31t-100 -34 q-46 -14 -74.5 -30t-45 -33t-23 -38t-6.5 -45q0 -52 22.5 -92t71 -67.5t126 -41.5t187.5 -14h21q10 0 21 0.5t23.5 0.5t28.5 1l-22 -209q-38 -5 -84 -8.5t-98 -3.5q-134 0 -234.5 29t-168 81t-101 123.5t-33.5 157.5z" />
<glyph unicode="&#xc0;" horiz-adv-x="1286" d="M994 0l-128 377h-473l-137 -377h-252l520 1413h248l504 -1413h-282zM448 549h363l-155 475q-11 31 -15 59.5t-4 48.5q0 -20 -6.5 -49t-16.5 -59zM568 1575l-284 373l193 42l254 -380z" />
<glyph unicode="&#xc1;" horiz-adv-x="1286" d="M994 0l-128 377h-473l-137 -377h-252l520 1413h248l504 -1413h-282zM448 549h363l-155 475q-11 31 -15 59.5t-4 48.5q0 -20 -6.5 -49t-16.5 -59zM717 1575l-164 35l252 380l195 -42z" />
<glyph unicode="&#xc2;" horiz-adv-x="1286" d="M994 0l-128 377h-473l-137 -377h-252l520 1413h248l504 -1413h-282zM448 549h363l-155 475q-11 31 -15 59.5t-4 48.5q0 -20 -6.5 -49t-16.5 -59zM770 1579l-129 235l-141 -235l-166 21l246 388h158l222 -388z" />
<glyph unicode="&#xc3;" horiz-adv-x="1286" d="M994 0l-128 377h-473l-137 -377h-252l520 1413h248l504 -1413h-282zM448 549h363l-155 475q-11 31 -15 59.5t-4 48.5q0 -20 -6.5 -49t-16.5 -59zM996 1929q-10 -73 -30 -124t-48 -83t-64 -46.5t-78 -14.5q-30 0 -61.5 3.5l-63 7l-61.5 7t-58 3.5q-16 0 -27.5 -5t-21 -17 t-17.5 -34t-16 -57l-151 31q10 70 29 120.5t47 83t64.5 47.5t80.5 15q32 0 62.5 -4l60 -8l57.5 -7.5t54 -3.5q17 0 29.5 5t22.5 17.5t19 35.5t19 57z" />
<glyph unicode="&#xc4;" horiz-adv-x="1286" d="M994 0l-128 377h-473l-137 -377h-252l520 1413h248l504 -1413h-282zM448 549h363l-155 475q-11 31 -15 59.5t-4 48.5q0 -20 -6.5 -49t-16.5 -59zM744 1577v201h231v-201h-231zM312 1577v201h233v-201h-233z" />
<glyph unicode="&#xc5;" horiz-adv-x="1286" d="M994 0l-128 377h-473l-137 -377h-252l520 1413h248l504 -1413h-282zM448 549h363l-155 475q-11 31 -15 59.5t-4 48.5q0 -20 -6.5 -49t-16.5 -59zM866 1766q0 -48 -15 -86t-44.5 -65t-71 -42t-94.5 -15q-50 0 -89.5 12t-66.5 36t-41 60t-14 83q0 43 15.5 80t44.5 65 t70.5 44t93.5 16q105 0 158.5 -47.5t53.5 -140.5zM729 1759q0 39 -18.5 61.5t-58.5 22.5q-39 0 -61.5 -22.5t-22.5 -69.5q0 -42 20 -63t57 -21q23 0 39 6.5t26 18.5t14.5 28.5t4.5 38.5z" />
<glyph unicode="&#xc6;" horiz-adv-x="1947" d="M494 377l-252 -377h-272l976 1413h904l-19 -197h-611v-392h548l-4 -198h-544v-430h615l19 -196h-892v377h-468zM962 549v541l-358 -539z" />
<glyph unicode="&#xc7;" horiz-adv-x="1233" d="M870 1194q-21 6 -37.5 9t-33 5.5t-33 3t-35.5 0.5q-88 0 -157.5 -31t-117.5 -95t-74 -161t-26 -227q0 -98 13.5 -172.5t38 -129.5t57.5 -92t74 -59.5t87 -32t95 -9.5q50 0 99.5 7.5t97 22t93 35t87.5 44.5l70 -191q-42 -26 -85 -47t-89 -37.5t-95 -28t-105 -16.5 q11 -48 18 -93t7 -81q0 -52 -19.5 -97t-66.5 -78t-125 -52.5t-194 -22.5l-27 154q68 4 110.5 13t65.5 22t31 29t8 36q0 12 -1.5 29.5t-4 40l-5.5 47.5t-7 51q-123 10 -216.5 57t-156.5 131t-95 208t-32 290q0 174 43 312.5t125 236t202 149.5t273 52q68 0 123 -5t101.5 -14 t87.5 -23t83 -34l-26 -428l-220 -12z" />
<glyph unicode="&#xc8;" horiz-adv-x="1114" d="M140 0v1413h886l-16 -197h-614v-392h548v-198h-548v-430h616l18 -196h-890zM510 1575l-282 373l192 42l254 -380z" />
<glyph unicode="&#xc9;" horiz-adv-x="1114" d="M140 0v1413h886l-16 -197h-614v-392h548v-198h-548v-430h616l18 -196h-890zM660 1575l-164 35l252 380l194 -42z" />
<glyph unicode="&#xca;" horiz-adv-x="1114" d="M140 0v1413h886l-16 -197h-614v-392h548v-198h-548v-430h616l18 -196h-890zM706 1579l-128 235l-142 -235l-166 21l246 388h158l223 -388z" />
<glyph unicode="&#xcb;" horiz-adv-x="1114" d="M140 0v1413h886l-16 -197h-614v-392h548v-198h-548v-430h616l18 -196h-890zM684 1612v200h232v-200h-232zM252 1612v200h234v-200h-234z" />
<glyph unicode="&#xcc;" horiz-adv-x="864" d="M768 1237l-196 -13v-1044l200 -8v-172h-660v172l202 8v1044l-195 13v176h649v-176zM362 1577l-282 373l192 42l254 -380z" />
<glyph unicode="&#xcd;" horiz-adv-x="864" d="M768 1237l-196 -13v-1044l200 -8v-172h-660v172l202 8v1044l-195 13v176h649v-176zM510 1577l-164 35l252 380l194 -42z" />
<glyph unicode="&#xce;" horiz-adv-x="864" d="M768 1237l-196 -13v-1044l200 -8v-172h-660v172l202 8v1044l-195 13v176h649v-176zM563 1581l-129 235l-141 -235l-166 21l245 388h158l224 -388z" />
<glyph unicode="&#xcf;" horiz-adv-x="864" d="M768 1237l-196 -13v-1044l200 -8v-172h-660v172l202 8v1044l-195 13v176h649v-176zM538 1614v200h232v-200h-232zM106 1614v200h234v-200h-234z" />
<glyph unicode="&#xd0;" horiz-adv-x="1403" d="M637 196q108 0 186.5 33t129.5 98.5t76 163t25 226.5q0 128 -24 221.5t-74.5 154.5t-129.5 91t-189 30h-185v-422l265 9l-7 -160l-258 -6v-439h185zM194 0v626l-210 -8l6 158l204 8v629h482q102 0 190 -15.5t159 -48.5t126 -86t92 -128t56.5 -173t19.5 -224 q0 -178 -43.5 -315.5t-129.5 -231t-213.5 -142.5t-295.5 -49h-443z" />
<glyph unicode="&#xd1;" horiz-adv-x="1450" d="M1088 0l-658 905q-18 25 -31.5 47t-19.5 42v-994h-239v1413h224l654 -919q24 -34 37.5 -57t19.5 -39v1015h238v-1413h-225zM1059 1929q-10 -73 -29.5 -124t-47.5 -83t-64 -46.5t-78 -14.5q-30 0 -62 3.5l-63 7l-61.5 7t-57.5 3.5q-16 0 -28 -5t-21 -17t-17 -34t-16 -57 l-152 31q10 70 29 120.5t47 83t65 47.5t81 15q32 0 62 -4l59.5 -8l57.5 -7.5t54 -3.5q17 0 30 5t23 17.5t19 35.5t19 57z" />
<glyph unicode="&#xd2;" d="M1342 729q0 -104 -18 -200t-55 -178.5t-91 -150.5t-127 -116t-164 -74t-201 -26q-145 0 -257 37.5t-188.5 121t-115.5 216.5t-39 323q0 114 20 214t58 182.5t94 147t128.5 109t161 68t190.5 23.5q145 0 257.5 -38.5t189.5 -122t117 -216t40 -320.5zM1067 717 q0 120 -18.5 213.5t-59.5 158.5t-105 99t-157 34q-87 0 -155 -34t-115 -100t-72 -163t-25 -221q0 -134 20 -230.5t62 -159.5t107 -93.5t153 -30.5q89 0 157.5 35.5t114.5 103t69.5 165.5t23.5 223zM656 1575l-284 373l193 42l254 -380z" />
<glyph unicode="&#xd3;" d="M1342 729q0 -104 -18 -200t-55 -178.5t-91 -150.5t-127 -116t-164 -74t-201 -26q-145 0 -257 37.5t-188.5 121t-115.5 216.5t-39 323q0 114 20 214t58 182.5t94 147t128.5 109t161 68t190.5 23.5q145 0 257.5 -38.5t189.5 -122t117 -216t40 -320.5zM1067 717 q0 120 -18.5 213.5t-59.5 158.5t-105 99t-157 34q-87 0 -155 -34t-115 -100t-72 -163t-25 -221q0 -134 20 -230.5t62 -159.5t107 -93.5t153 -30.5q89 0 157.5 35.5t114.5 103t69.5 165.5t23.5 223zM805 1575l-164 35l252 380l195 -42z" />
<glyph unicode="&#xd4;" d="M1342 729q0 -104 -18 -200t-55 -178.5t-91 -150.5t-127 -116t-164 -74t-201 -26q-145 0 -257 37.5t-188.5 121t-115.5 216.5t-39 323q0 114 20 214t58 182.5t94 147t128.5 109t161 68t190.5 23.5q145 0 257.5 -38.5t189.5 -122t117 -216t40 -320.5zM1067 717 q0 120 -18.5 213.5t-59.5 158.5t-105 99t-157 34q-87 0 -155 -34t-115 -100t-72 -163t-25 -221q0 -134 20 -230.5t62 -159.5t107 -93.5t153 -30.5q89 0 157.5 35.5t114.5 103t69.5 165.5t23.5 223zM856 1579l-129 235l-141 -235l-166 21l246 388h158l222 -388z" />
<glyph unicode="&#xd5;" d="M1342 729q0 -104 -18 -200t-55 -178.5t-91 -150.5t-127 -116t-164 -74t-201 -26q-145 0 -257 37.5t-188.5 121t-115.5 216.5t-39 323q0 114 20 214t58 182.5t94 147t128.5 109t161 68t190.5 23.5q145 0 257.5 -38.5t189.5 -122t117 -216t40 -320.5zM1067 717 q0 120 -18.5 213.5t-59.5 158.5t-105 99t-157 34q-87 0 -155 -34t-115 -100t-72 -163t-25 -221q0 -134 20 -230.5t62 -159.5t107 -93.5t153 -30.5q89 0 157.5 35.5t114.5 103t69.5 165.5t23.5 223zM1082 1929q-10 -73 -30 -124t-48 -83t-64 -46.5t-78 -14.5q-30 0 -61.5 3.5 l-63 7l-61.5 7t-58 3.5q-16 0 -27.5 -5t-21 -17t-17.5 -34t-16 -57l-151 31q10 70 29 120.5t47 83t64.5 47.5t80.5 15q32 0 62.5 -4l60 -8l57.5 -7.5t54 -3.5q17 0 29.5 5t22.5 17.5t19 35.5t19 57z" />
<glyph unicode="&#xd6;" d="M1342 729q0 -104 -18 -200t-55 -178.5t-91 -150.5t-127 -116t-164 -74t-201 -26q-145 0 -257 37.5t-188.5 121t-115.5 216.5t-39 323q0 114 20 214t58 182.5t94 147t128.5 109t161 68t190.5 23.5q145 0 257.5 -38.5t189.5 -122t117 -216t40 -320.5zM1067 717 q0 120 -18.5 213.5t-59.5 158.5t-105 99t-157 34q-87 0 -155 -34t-115 -100t-72 -163t-25 -221q0 -134 20 -230.5t62 -159.5t107 -93.5t153 -30.5q89 0 157.5 35.5t114.5 103t69.5 165.5t23.5 223zM830 1612v200h231v-200h-231zM398 1612v200h233v-200h-233z" />
<glyph unicode="&#xd7;" horiz-adv-x="1009" d="M512 828l230 268l153 -115l-258 -289l258 -288l-162 -113l-233 264l-232 -264l-152 111l261 286l-263 297l164 111z" />
<glyph unicode="&#xd8;" d="M1342 721q0 -102 -18 -195.5t-54 -175.5t-90 -150t-127 -116t-165 -74t-202 -26q-62 0 -114 9t-99 27l-107 -220h-174l128 276q-57 40 -100.5 94.5t-73.5 128t-45 168.5t-15 217q0 173 44.5 310.5t128.5 233.5t205.5 147t275.5 51q58 0 111 -9t101 -27l102 218h181 l-127 -279q60 -40 104 -97t73 -131.5t43 -169t14 -210.5zM1073 723q0 58 -4.5 110.5t-13.5 99.5t-24 88t-35 73l-441 -879q57 -31 145 -31q188 0 280.5 136.5t92.5 402.5zM868 1194q-26 16 -60.5 24.5t-76.5 8.5q-90 0 -160.5 -33.5t-119.5 -99.5t-75 -163t-26 -225 q0 -127 20 -224.5t60 -161.5z" />
<glyph unicode="&#xd9;" horiz-adv-x="1378" d="M1252 557q0 -128 -36 -233.5t-108 -180.5t-181 -116t-255 -41t-250 34t-169.5 103t-95.5 173t-30 244v873h258v-873q0 -90 16 -156t52 -108t93.5 -63t141.5 -21q89 0 149.5 23t98 68.5t54 113t16.5 156.5v860h246v-856zM614 1575l-282 373l192 42l254 -380z" />
<glyph unicode="&#xda;" horiz-adv-x="1378" d="M1252 557q0 -128 -36 -233.5t-108 -180.5t-181 -116t-255 -41t-250 34t-169.5 103t-95.5 173t-30 244v873h258v-873q0 -90 16 -156t52 -108t93.5 -63t141.5 -21q89 0 149.5 23t98 68.5t54 113t16.5 156.5v860h246v-856zM764 1575l-164 35l252 380l194 -42z" />
<glyph unicode="&#xdb;" horiz-adv-x="1378" d="M1252 557q0 -128 -36 -233.5t-108 -180.5t-181 -116t-255 -41t-250 34t-169.5 103t-95.5 173t-30 244v873h258v-873q0 -90 16 -156t52 -108t93.5 -63t141.5 -21q89 0 149.5 23t98 68.5t54 113t16.5 156.5v860h246v-856zM819 1579l-129 235l-141 -235l-166 21l245 388h158 l224 -388z" />
<glyph unicode="&#xdc;" horiz-adv-x="1378" d="M1252 557q0 -128 -36 -233.5t-108 -180.5t-181 -116t-255 -41t-250 34t-169.5 103t-95.5 173t-30 244v873h258v-873q0 -90 16 -156t52 -108t93.5 -63t141.5 -21q89 0 149.5 23t98 68.5t54 113t16.5 156.5v860h246v-856zM788 1612v200h232v-200h-232zM356 1612v200h234 v-200h-234z" />
<glyph unicode="&#xdd;" horiz-adv-x="1175" d="M696 610v-610h-258v604l-450 809h296l306 -557l342 557h256zM668 1575l-164 35l252 380l194 -42z" />
<glyph unicode="&#xde;" horiz-adv-x="1112" d="M590 1237q120 0 207 -32.5t143 -91.5t82 -140t26 -179q0 -76 -16 -144t-47 -127t-75 -106.5t-101 -81t-124 -51.5t-145 -18q-42 0 -78 3t-66 5v-274h-256v1460h256v-223h194zM796 774q0 52 -11 100t-39 85t-74.5 59t-116.5 22h-159v-575q29 -3 66.5 -6t79.5 -3 q70 0 119 26t79 70t43 101.5t13 120.5z" />
<glyph unicode="&#xdf;" horiz-adv-x="1276" d="M1218 307q0 -68 -25 -127.5t-76 -102.5t-126.5 -68t-175.5 -25q-52 0 -100.5 5.5t-93.5 16t-86 24.5t-79 32l50 186q40 -18 84 -33t88 -25.5t85 -16t75 -5.5q36 0 62 8t44 21t27.5 30t9.5 35q0 22 -7 40t-24.5 33.5t-47.5 31t-76 33.5q-64 24 -113 46t-84 43t-57 43 t-36 47t-19 54t-5 63q0 26 5 51t17 55t34 66t54 84l44 65q18 28 29.5 50.5t16.5 42.5t5 43q0 27 -8.5 50.5t-27.5 41t-51 27.5t-79 10q-85 0 -130.5 -50t-45.5 -142v-1090h-250v1038q0 106 30 187t87.5 134.5t140.5 80t189 26.5q99 0 171 -19t119 -55.5t69.5 -89 t22.5 -120.5q0 -33 -6 -63.5t-21 -63.5t-40 -71.5t-63 -88.5q-20 -27 -33.5 -47t-21 -35t-10.5 -28t-3 -25q0 -22 5 -38t21 -29t44.5 -27t74.5 -31q94 -36 155.5 -71.5t97.5 -74.5t50 -83.5t14 -98.5z" />
<glyph unicode="&#xe0;" horiz-adv-x="1044" d="M631 406q-98 -7 -160.5 -17t-99 -24.5t-50.5 -34.5t-14 -48q0 -29 8.5 -52.5t24.5 -39.5t39 -25t53 -9t59 8t55 21t48 30t37 35v156zM880 -10q-53 0 -93.5 8t-69.5 23t-47 38t-27 51q-62 -68 -136.5 -97t-166.5 -29q-56 0 -105 19t-86 55.5t-58 90t-21 123.5q0 34 8 65.5 t30.5 58.5t62 50t102.5 41.5t151 32.5t209 22q2 38 2 71.5v70.5q0 33 -6 55.5t-18.5 36.5t-32.5 20.5t-48 6.5q-39 0 -80.5 -7.5t-83 -22.5t-81.5 -36t-76 -47l-99 152q52 38 105.5 66t112 48t123.5 30t139 10q86 0 142.5 -22t90 -63t46.5 -101t13 -136v-402q0 -27 4 -43.5 t17.5 -26.5t41.5 -16t77 -12l-41 -182q-28 -2 -53.5 -2h-47.5zM473 1130l-283 373l193 43l254 -380z" />
<glyph unicode="&#xe1;" horiz-adv-x="1044" d="M631 406q-98 -7 -160.5 -17t-99 -24.5t-50.5 -34.5t-14 -48q0 -29 8.5 -52.5t24.5 -39.5t39 -25t53 -9t59 8t55 21t48 30t37 35v156zM880 -10q-53 0 -93.5 8t-69.5 23t-47 38t-27 51q-62 -68 -136.5 -97t-166.5 -29q-56 0 -105 19t-86 55.5t-58 90t-21 123.5q0 34 8 65.5 t30.5 58.5t62 50t102.5 41.5t151 32.5t209 22q2 38 2 71.5v70.5q0 33 -6 55.5t-18.5 36.5t-32.5 20.5t-48 6.5q-39 0 -80.5 -7.5t-83 -22.5t-81.5 -36t-76 -47l-99 152q52 38 105.5 66t112 48t123.5 30t139 10q86 0 142.5 -22t90 -63t46.5 -101t13 -136v-402q0 -27 4 -43.5 t17.5 -26.5t41.5 -16t77 -12l-41 -182q-28 -2 -53.5 -2h-47.5zM620 1130l-164 36l252 380l195 -43z" />
<glyph unicode="&#xe2;" horiz-adv-x="1044" d="M631 406q-98 -7 -160.5 -17t-99 -24.5t-50.5 -34.5t-14 -48q0 -29 8.5 -52.5t24.5 -39.5t39 -25t53 -9t59 8t55 21t48 30t37 35v156zM880 -10q-53 0 -93.5 8t-69.5 23t-47 38t-27 51q-62 -68 -136.5 -97t-166.5 -29q-56 0 -105 19t-86 55.5t-58 90t-21 123.5q0 34 8 65.5 t30.5 58.5t62 50t102.5 41.5t151 32.5t209 22q2 38 2 71.5v70.5q0 33 -6 55.5t-18.5 36.5t-32.5 20.5t-48 6.5q-39 0 -80.5 -7.5t-83 -22.5t-81.5 -36t-76 -47l-99 152q52 38 105.5 66t112 48t123.5 30t139 10q86 0 142.5 -22t90 -63t46.5 -101t13 -136v-402q0 -27 4 -43.5 t17.5 -26.5t41.5 -16t77 -12l-41 -182q-28 -2 -53.5 -2h-47.5zM654 1134l-130 236l-141 -236l-166 21l246 389h157l224 -389z" />
<glyph unicode="&#xe3;" horiz-adv-x="1044" d="M631 406q-98 -7 -160.5 -17t-99 -24.5t-50.5 -34.5t-14 -48q0 -29 8.5 -52.5t24.5 -39.5t39 -25t53 -9t59 8t55 21t48 30t37 35v156zM880 -10q-53 0 -93.5 8t-69.5 23t-47 38t-27 51q-62 -68 -136.5 -97t-166.5 -29q-56 0 -105 19t-86 55.5t-58 90t-21 123.5q0 34 8 65.5 t30.5 58.5t62 50t102.5 41.5t151 32.5t209 22q2 38 2 71.5v70.5q0 33 -6 55.5t-18.5 36.5t-32.5 20.5t-48 6.5q-39 0 -80.5 -7.5t-83 -22.5t-81.5 -36t-76 -47l-99 152q52 38 105.5 66t112 48t123.5 30t139 10q86 0 142.5 -22t90 -63t46.5 -101t13 -136v-402q0 -27 4 -43.5 t17.5 -26.5t41.5 -16t77 -12l-41 -182q-28 -2 -53.5 -2h-47.5zM895 1485q-10 -73 -29.5 -124t-47.5 -83t-64 -47t-78 -15q-30 0 -62 3.5l-63 7l-61.5 7t-57.5 3.5q-16 0 -28 -4.5t-21 -17t-17 -35t-16 -56.5l-152 31q10 70 29.5 120.5t47 83t64.5 48t81 15.5q32 0 62 -4 l60 -8l58 -7.5t54 -3.5q17 0 29.5 5t22.5 17.5t19 35.5t19 57z" />
<glyph unicode="&#xe4;" horiz-adv-x="1044" d="M631 406q-98 -7 -160.5 -17t-99 -24.5t-50.5 -34.5t-14 -48q0 -29 8.5 -52.5t24.5 -39.5t39 -25t53 -9t59 8t55 21t48 30t37 35v156zM880 -10q-53 0 -93.5 8t-69.5 23t-47 38t-27 51q-62 -68 -136.5 -97t-166.5 -29q-56 0 -105 19t-86 55.5t-58 90t-21 123.5q0 34 8 65.5 t30.5 58.5t62 50t102.5 41.5t151 32.5t209 22q2 38 2 71.5v70.5q0 33 -6 55.5t-18.5 36.5t-32.5 20.5t-48 6.5q-39 0 -80.5 -7.5t-83 -22.5t-81.5 -36t-76 -47l-99 152q52 38 105.5 66t112 48t123.5 30t139 10q86 0 142.5 -22t90 -63t46.5 -101t13 -136v-402q0 -27 4 -43.5 t17.5 -26.5t41.5 -16t77 -12l-41 -182q-28 -2 -53.5 -2h-47.5zM641 1168v200h231v-200h-231zM209 1168v200h233v-200h-233z" />
<glyph unicode="&#xe5;" horiz-adv-x="1044" d="M631 406q-98 -7 -160.5 -17t-99 -24.5t-50.5 -34.5t-14 -48q0 -29 8.5 -52.5t24.5 -39.5t39 -25t53 -9t59 8t55 21t48 30t37 35v156zM880 -10q-53 0 -93.5 8t-69.5 23t-47 38t-27 51q-62 -68 -136.5 -97t-166.5 -29q-56 0 -105 19t-86 55.5t-58 90t-21 123.5q0 34 8 65.5 t30.5 58.5t62 50t102.5 41.5t151 32.5t209 22q2 38 2 71.5v70.5q0 33 -6 55.5t-18.5 36.5t-32.5 20.5t-48 6.5q-39 0 -80.5 -7.5t-83 -22.5t-81.5 -36t-76 -47l-99 152q52 38 105.5 66t112 48t123.5 30t139 10q86 0 142.5 -22t90 -63t46.5 -101t13 -136v-402q0 -27 4 -43.5 t17.5 -26.5t41.5 -16t77 -12l-41 -182q-28 -2 -53.5 -2h-47.5zM752 1321q0 -48 -16 -86t-45 -65t-71 -41.5t-94 -14.5q-102 0 -156 48t-54 142q0 43 15 80.5t44 65.5t70 44t93 16q106 0 160 -48t54 -141zM614 1315q0 38 -19 61t-59 23q-38 0 -61 -23.5t-23 -69.5 q0 -42 21 -63t57 -21q23 0 39.5 6.5t26.5 18.5t14 29t4 39z" />
<glyph unicode="&#xe6;" horiz-adv-x="1521" d="M620 236q-7 21 -11.5 40t-7.5 39t-5 41.5t-4 47.5q-84 -8 -138.5 -18t-87 -24t-45 -33t-12.5 -47q0 -29 8 -52.5t24 -39.5t39.5 -25t55.5 -9q26 0 52 6.5t50.5 18t45 25.5t36.5 30zM1034 -14q-57 0 -107.5 7t-94.5 22t-80 39t-64 56q-32 -32 -71 -56t-82 -39.5t-88 -23 t-89 -7.5q-65 0 -118.5 20t-91 57.5t-58 89.5t-20.5 115q0 38 8 70t30 59t59.5 49t96 40t139.5 32t191 24q6 56 20 104t33 89q-12 36 -43.5 53t-73.5 17q-39 0 -80.5 -7.5t-82.5 -22.5t-80.5 -36t-75.5 -47l-99 152q52 38 105 66t111 48t123 30t139 10q152 0 217 -80 q54 37 121.5 55t146.5 18q98 0 166 -31t109.5 -88.5t60.5 -140t19 -184.5q0 -20 -1 -46t-5 -65h-588q0 -65 13 -114t41.5 -81.5t73 -48.5t105.5 -16q38 0 79.5 7t82.5 20t81 29.5t76 35.5l60 -166q-42 -27 -91 -48t-101.5 -36t-108.5 -22.5t-113 -7.5zM1206 584 q0 116 -40 169.5t-118 53.5q-42 0 -77 -14t-61 -41.5t-43 -69.5t-23 -98h362z" />
<glyph unicode="&#xe7;" horiz-adv-x="876" d="M764 768q-50 16 -98 22t-86 6q-65 0 -112.5 -19t-78.5 -60t-45 -103t-14 -147q0 -70 12.5 -123.5t40 -88.5t69.5 -53t101 -18q60 0 117.5 15t113.5 41l64 -174q-48 -26 -101.5 -44t-113.5 -26q12 -50 18.5 -95t6.5 -83q0 -52 -20 -97t-67 -78t-125 -52.5t-194 -22.5 l-26 154q68 4 110 13t65 22t31 29t8 36q0 12 -1 29.5t-3 40t-6 47.5l-8 51q-84 8 -148 38.5t-107 86t-65 138.5t-22 195q0 136 36 238.5t99 170t151 101t191 33.5q73 0 137 -9t121 -34z" />
<glyph unicode="&#xe8;" horiz-adv-x="1018" d="M938 100q-42 -27 -91 -48t-101.5 -36t-108 -22.5t-113.5 -7.5q-106 0 -188 25t-139 80.5t-87 142t-30 208.5q0 125 32 226.5t94 172.5t152.5 109.5t206.5 38.5q98 0 166 -31t109.5 -88.5t60.5 -140t19 -184.5q0 -20 -1 -46t-5 -65h-588q0 -65 13 -114t42 -81.5t73 -48.5 t105 -16q38 0 79.5 7t82.5 20t81 29.5t76 35.5zM696 584q0 116 -40 169.5t-118 53.5q-42 0 -77 -14t-61 -41.5t-43 -69.5t-23 -98h362zM471 1130l-283 373l193 43l254 -380z" />
<glyph unicode="&#xe9;" horiz-adv-x="1018" d="M938 100q-42 -27 -91 -48t-101.5 -36t-108 -22.5t-113.5 -7.5q-106 0 -188 25t-139 80.5t-87 142t-30 208.5q0 125 32 226.5t94 172.5t152.5 109.5t206.5 38.5q98 0 166 -31t109.5 -88.5t60.5 -140t19 -184.5q0 -20 -1 -46t-5 -65h-588q0 -65 13 -114t42 -81.5t73 -48.5 t105 -16q38 0 79.5 7t82.5 20t81 29.5t76 35.5zM696 584q0 116 -40 169.5t-118 53.5q-42 0 -77 -14t-61 -41.5t-43 -69.5t-23 -98h362zM618 1130l-164 36l252 380l195 -43z" />
<glyph unicode="&#xea;" horiz-adv-x="1018" d="M938 100q-42 -27 -91 -48t-101.5 -36t-108 -22.5t-113.5 -7.5q-106 0 -188 25t-139 80.5t-87 142t-30 208.5q0 125 32 226.5t94 172.5t152.5 109.5t206.5 38.5q98 0 166 -31t109.5 -88.5t60.5 -140t19 -184.5q0 -20 -1 -46t-5 -65h-588q0 -65 13 -114t42 -81.5t73 -48.5 t105 -16q38 0 79.5 7t82.5 20t81 29.5t76 35.5zM696 584q0 116 -40 169.5t-118 53.5q-42 0 -77 -14t-61 -41.5t-43 -69.5t-23 -98h362zM664 1134l-130 236l-141 -236l-165 21l245 389h158l223 -389z" />
<glyph unicode="&#xeb;" horiz-adv-x="1018" d="M938 100q-42 -27 -91 -48t-101.5 -36t-108 -22.5t-113.5 -7.5q-106 0 -188 25t-139 80.5t-87 142t-30 208.5q0 125 32 226.5t94 172.5t152.5 109.5t206.5 38.5q98 0 166 -31t109.5 -88.5t60.5 -140t19 -184.5q0 -20 -1 -46t-5 -65h-588q0 -65 13 -114t42 -81.5t73 -48.5 t105 -16q38 0 79.5 7t82.5 20t81 29.5t76 35.5zM696 584q0 116 -40 169.5t-118 53.5q-42 0 -77 -14t-61 -41.5t-43 -69.5t-23 -98h362zM645 1168v200h231v-200h-231zM213 1168v200h233v-200h-233z" />
<glyph unicode="&#xec;" horiz-adv-x="514" d="M135 0v964l246 15v-979h-246zM182 1130l-282 373l192 43l254 -380z" />
<glyph unicode="&#xed;" horiz-adv-x="514" d="M135 0v964l246 15v-979h-246zM320 1130l-164 36l252 380l194 -43z" />
<glyph unicode="&#xee;" horiz-adv-x="514" d="M140 0v964l245 15v-979h-245zM385 1134l-129 236l-142 -236l-165 21l245 389h158l224 -389z" />
<glyph unicode="&#xef;" horiz-adv-x="514" d="M340 1168v200h232v-200h-232zM-51 1168v200h233v-200h-233zM140 0v964l245 15v-979h-245z" />
<glyph unicode="&#xf0;" horiz-adv-x="1061" d="M832 1188q27 -56 48.5 -120t36.5 -131t23 -135t8 -132q0 -176 -32.5 -305t-94 -213t-150 -125t-200.5 -41q-100 0 -174 26t-122 78.5t-71.5 130t-23.5 181.5q0 118 30 208.5t84 152t130 93t168 31.5q50 0 97 -8.5t93 -26.5q-4 34 -12 69t-19 69t-24 66.5t-27 61.5 l-223 -86l-41 142l198 76l-29 42q-16 22 -33 42l-34 40q-16 19 -34 35l188 123q50 -44 95 -96t81 -107l168 61l45 -147zM690 674q-18 8 -39.5 14t-43.5 10t-43.5 6t-41.5 2q-52 0 -88 -19t-58.5 -55t-33 -89.5t-10.5 -122.5q0 -65 10 -111.5t30 -76.5t49 -44t67 -14 q50 0 88 24t63 78t38 143t13 220v35z" />
<glyph unicode="&#xf1;" horiz-adv-x="1097" d="M717 0v672q0 26 -4.5 46t-15.5 34.5t-30 22t-47 7.5q-24 0 -51.5 -8t-58 -24t-62.5 -39t-63 -53v-658h-250v968l217 15q4 -10 8 -26.5t7 -36.5l6 -42t4 -44q86 79 173.5 118t168.5 39q68 0 115.5 -16.5t77.5 -50.5t43 -85t13 -120v-719h-251zM908 1485q-10 -73 -30 -124 t-48 -83t-64 -47t-78 -15q-30 0 -61.5 3.5l-63 7l-61.5 7t-58 3.5q-16 0 -27.5 -4.5t-21 -17t-17.5 -35t-16 -56.5l-151 31q10 70 29 120.5t47 83t64.5 48t80.5 15.5q32 0 62.5 -4l60 -8l57.5 -7.5t54 -3.5q17 0 29.5 5t22.5 17.5t19 35.5t19 57z" />
<glyph unicode="&#xf2;" horiz-adv-x="1100" d="M1020 508q0 -114 -31.5 -210.5t-93.5 -166t-153.5 -108.5t-211.5 -39q-227 0 -338.5 120t-111.5 365q0 117 34 213t97 165t154 106.5t205 37.5t198 -28.5t140 -87.5t84 -150.5t28 -216.5zM762 496q0 78 -11.5 137t-36.5 98.5t-64.5 59.5t-94.5 20q-50 0 -90.5 -20.5 t-68.5 -61t-43 -101t-15 -138.5q0 -92 13.5 -155t40 -101.5t65.5 -55t90 -16.5q56 0 96.5 21.5t66.5 64t39 104.5t13 144zM479 1130l-283 373l193 43l254 -380z" />
<glyph unicode="&#xf3;" horiz-adv-x="1100" d="M1020 508q0 -114 -31.5 -210.5t-93.5 -166t-153.5 -108.5t-211.5 -39q-227 0 -338.5 120t-111.5 365q0 117 34 213t97 165t154 106.5t205 37.5t198 -28.5t140 -87.5t84 -150.5t28 -216.5zM762 496q0 78 -11.5 137t-36.5 98.5t-64.5 59.5t-94.5 20q-50 0 -90.5 -20.5 t-68.5 -61t-43 -101t-15 -138.5q0 -92 13.5 -155t40 -101.5t65.5 -55t90 -16.5q56 0 96.5 21.5t66.5 64t39 104.5t13 144zM626 1130l-163 36l252 380l195 -43z" />
<glyph unicode="&#xf4;" horiz-adv-x="1100" d="M1020 508q0 -114 -31.5 -210.5t-93.5 -166t-153.5 -108.5t-211.5 -39q-227 0 -338.5 120t-111.5 365q0 117 34 213t97 165t154 106.5t205 37.5t198 -28.5t140 -87.5t84 -150.5t28 -216.5zM762 496q0 78 -11.5 137t-36.5 98.5t-64.5 59.5t-94.5 20q-50 0 -90.5 -20.5 t-68.5 -61t-43 -101t-15 -138.5q0 -92 13.5 -155t40 -101.5t65.5 -55t90 -16.5q56 0 96.5 21.5t66.5 64t39 104.5t13 144zM696 1134l-128 236l-142 -236l-166 21l246 389h158l223 -389z" />
<glyph unicode="&#xf5;" horiz-adv-x="1100" d="M1020 508q0 -114 -31.5 -210.5t-93.5 -166t-153.5 -108.5t-211.5 -39q-227 0 -338.5 120t-111.5 365q0 117 34 213t97 165t154 106.5t205 37.5t198 -28.5t140 -87.5t84 -150.5t28 -216.5zM762 496q0 78 -11.5 137t-36.5 98.5t-64.5 59.5t-94.5 20q-50 0 -90.5 -20.5 t-68.5 -61t-43 -101t-15 -138.5q0 -92 13.5 -155t40 -101.5t65.5 -55t90 -16.5q56 0 96.5 21.5t66.5 64t39 104.5t13 144zM924 1485q-10 -73 -30 -124t-48 -83t-64 -47t-78 -15q-30 0 -61 3.5t-63 7.5l-62 7q-30 3 -57 3q-16 0 -27.5 -4.5t-21 -17t-17 -35t-16.5 -56.5 l-151 31q10 70 29 120.5t46.5 83t64 48t80.5 15.5q32 0 63 -4l60 -8l57 -7.5t54 -3.5q17 0 29.5 5t23 17.5t19.5 35.5t18 57z" />
<glyph unicode="&#xf6;" horiz-adv-x="1100" d="M1020 508q0 -114 -31.5 -210.5t-93.5 -166t-153.5 -108.5t-211.5 -39q-227 0 -338.5 120t-111.5 365q0 117 34 213t97 165t154 106.5t205 37.5t198 -28.5t140 -87.5t84 -150.5t28 -216.5zM762 496q0 78 -11.5 137t-36.5 98.5t-64.5 59.5t-94.5 20q-50 0 -90.5 -20.5 t-68.5 -61t-43 -101t-15 -138.5q0 -92 13.5 -155t40 -101.5t65.5 -55t90 -16.5q56 0 96.5 21.5t66.5 64t39 104.5t13 144zM662 1168v200h231v-200h-231zM230 1168v200h233v-200h-233z" />
<glyph unicode="&#xf7;" horiz-adv-x="1124" d="M672 844q0 -24 -9 -43t-24 -35q-16 -17 -35.5 -25t-42.5 -8t-42 8t-35 25q-17 16 -25.5 35t-8.5 43q0 23 8 42.5t26 35.5q16 17 35 24.5t42 7.5q24 0 43.5 -8t34.5 -24q16 -16 24.5 -35.5t8.5 -42.5zM1088 576v-99h-1051v99h1051zM674 205q0 -24 -9 -43.5t-24 -36.5 q-17 -16 -37 -24.5t-43 -8.5t-42 9t-35 24q-16 17 -25 37t-9 43t9 42t25 35q33 34 77 34q47 0 80 -34q16 -17 24.5 -35.5t8.5 -41.5z" />
<glyph unicode="&#xf8;" horiz-adv-x="1100" d="M830 936q96 -54 143 -159.5t47 -268.5q0 -114 -31.5 -210.5t-93.5 -166t-153.5 -108.5t-211.5 -39q-31 0 -58.5 2t-53.5 6l-84 -197h-164l104 242q-99 54 -146.5 161.5t-47.5 270.5q0 117 34 213t97 165t154 106.5t205 37.5q31 0 59.5 -2.5t56.5 -7.5l98 227h164z M338 490q0 -76 10 -135t27 -97l237 547q-12 3 -27.5 4.5t-29.5 1.5q-50 0 -90.5 -20.5t-68.5 -61t-43 -100.5t-15 -139zM762 496q0 65 -10 118.5t-27 91.5l-235 -540q12 -2 27.5 -3t29.5 -1q56 0 96.5 21.5t66.5 64t39 104.5t13 144z" />
<glyph unicode="&#xf9;" horiz-adv-x="1093" d="M740 -8q-4 10 -9 27.5t-8 37t-5 39.5t-3 37q-42 -38 -85 -66.5t-85.5 -46.5t-84 -27t-81.5 -9q-70 0 -117.5 18t-77.5 52.5t-42.5 86t-12.5 119.5v704l252 11v-674q0 -26 5.5 -46.5t17.5 -34.5t31 -22t47 -8q46 0 103 27.5t121 87.5v657l252 13v-971zM467 1130l-283 373 l193 43l254 -380z" />
<glyph unicode="&#xfa;" horiz-adv-x="1093" d="M740 -8q-4 10 -9 27.5t-8 37t-5 39.5t-3 37q-42 -38 -85 -66.5t-85.5 -46.5t-84 -27t-81.5 -9q-70 0 -117.5 18t-77.5 52.5t-42.5 86t-12.5 119.5v704l252 11v-674q0 -26 5.5 -46.5t17.5 -34.5t31 -22t47 -8q46 0 103 27.5t121 87.5v657l252 13v-971zM616 1130l-164 36 l252 380l195 -43z" />
<glyph unicode="&#xfb;" horiz-adv-x="1093" d="M740 -8q-4 10 -9 27.5t-8 37t-5 39.5t-3 37q-42 -38 -85 -66.5t-85.5 -46.5t-84 -27t-81.5 -9q-70 0 -117.5 18t-77.5 52.5t-42.5 86t-12.5 119.5v704l252 11v-674q0 -26 5.5 -46.5t17.5 -34.5t31 -22t47 -8q46 0 103 27.5t121 87.5v657l252 13v-971zM666 1134l-130 236 l-140 -236l-166 21l245 389h158l223 -389z" />
<glyph unicode="&#xfc;" horiz-adv-x="1093" d="M740 -8q-4 10 -9 27.5t-8 37t-5 39.5t-3 37q-42 -38 -85 -66.5t-85.5 -46.5t-84 -27t-81.5 -9q-70 0 -117.5 18t-77.5 52.5t-42.5 86t-12.5 119.5v704l252 11v-674q0 -26 5.5 -46.5t17.5 -34.5t31 -22t47 -8q46 0 103 27.5t121 87.5v657l252 13v-971zM649 1168v200h231 v-200h-231zM217 1168v200h233v-200h-233z" />
<glyph unicode="&#xfd;" horiz-adv-x="968" d="M473 362q11 -31 15 -56.5t4 -45.5q0 20 3.5 46t14.5 56l221 604h227l-466 -1175q-23 -58 -55 -99.5t-78.5 -69.5t-110.5 -43t-152 -19l-38 180q62 7 102.5 16.5t67.5 24t43.5 34.5t27.5 48l59 145l-346 958h252zM565 1130l-163 36l252 380l194 -43z" />
<glyph unicode="&#xfe;" horiz-adv-x="1106" d="M379 870q64 58 136.5 91t156.5 33q81 0 146.5 -27.5t111.5 -85t71 -145.5t25 -212q0 -74 -12 -142.5t-36.5 -127.5t-63 -107t-92 -82t-122.5 -52.5t-155 -18.5q-20 0 -42.5 1t-44.5 4t-41.5 7t-33.5 10v-420l-252 -14v1712l248 14v-438zM772 498q0 69 -12 123t-36 91.5 t-59 56.5t-83 19q-29 0 -56.5 -7t-52.5 -20t-47.5 -29t-42.5 -34v-500q32 -14 73.5 -23t83.5 -9q116 0 174 81t58 251z" />
<glyph unicode="&#xff;" horiz-adv-x="968" d="M473 362q11 -31 15 -56.5t4 -45.5q0 20 3.5 46t14.5 56l221 604h227l-466 -1175q-23 -58 -55 -99.5t-78.5 -69.5t-110.5 -43t-152 -19l-38 180q62 7 102.5 16.5t67.5 24t43.5 34.5t27.5 48l59 145l-346 958h252zM594 1168v200h232v-200h-232zM162 1168v200h234v-200h-234 z" />
<glyph unicode="&#x152;" horiz-adv-x="1988" d="M706 188q46 0 89 8t82 23t74 38t63 55v794q-48 54 -122 84t-165 30q-87 0 -155 -34t-115 -99t-72 -161t-25 -220q0 -134 20 -232t62 -161t107 -94t157 -31zM1014 0v66q-30 -18 -66.5 -33t-78 -26t-87.5 -17t-94 -6q-146 0 -258 38t-189 121t-116 216t-39 323 q0 114 20 214t58 182.5t94 147t129 109t161 68t192 23.5q86 0 153 -15t121 -45v47h886l-16 -197h-614v-392h548v-198h-548v-430h616l18 -196h-890z" />
<glyph unicode="&#x153;" horiz-adv-x="1638" d="M1558 100q-42 -27 -90.5 -48t-101 -36t-108.5 -22.5t-113 -7.5q-102 0 -181.5 22.5t-135.5 73.5q-28 -22 -60 -40t-68 -31t-78 -20t-92 -7q-116 0 -201 30t-140 91t-82 152t-27 212q0 117 34 213t97 165t154 106.5t205 37.5q53 0 95.5 -7t78.5 -21t67 -34.5t59 -46.5 q60 52 139 79.5t177 27.5t166 -31t109.5 -88.5t60 -140t18.5 -184.5q0 -20 -1 -46t-5 -65h-588q0 -65 13.5 -114t42 -81.5t72.5 -48.5t106 -16q38 0 79 7t82.5 20t81.5 29.5t76 35.5zM547 162q32 0 58.5 6.5t48.5 18t39.5 27.5t31.5 36q-12 40 -18.5 88t-6.5 104 q0 71 11 134.5t31 119.5q-30 57 -77 86t-110 29q-106 0 -161.5 -82.5t-55.5 -238.5q0 -92 13 -154.5t39.5 -101t65.5 -55.5t91 -17zM1317 584q0 116 -40.5 169.5t-117.5 53.5q-84 0 -138.5 -55.5t-66.5 -167.5h363z" />
<glyph unicode="&#x178;" horiz-adv-x="1175" d="M696 610v-610h-258v604l-450 809h296l306 -557l342 557h256zM692 1612v200h232v-200h-232zM260 1612v200h234v-200h-234z" />
<glyph unicode="&#x2c6;" horiz-adv-x="745" d="M498 1134l-130 236l-140 -236l-166 21l245 389h158l223 -389z" />
<glyph unicode="&#x2dc;" horiz-adv-x="807" d="M750 1485q-10 -73 -30 -124t-48 -83t-64 -47t-78 -15q-30 0 -61.5 3.5l-63 7l-61.5 7t-58 3.5q-16 0 -27.5 -4.5t-20.5 -17t-16.5 -35t-16.5 -56.5l-152 31q10 70 29.5 120.5t47 83t64 48t80.5 15.5q32 0 63 -4l60 -8l57 -7.5t54 -3.5q17 0 29.5 5t23 17.5t19.5 35.5 t18 57z" />
<glyph unicode="&#x2000;" horiz-adv-x="996" />
<glyph unicode="&#x2001;" horiz-adv-x="1992" />
<glyph unicode="&#x2002;" horiz-adv-x="996" />
<glyph unicode="&#x2003;" horiz-adv-x="1992" />
<glyph unicode="&#x2004;" horiz-adv-x="664" />
<glyph unicode="&#x2005;" horiz-adv-x="498" />
<glyph unicode="&#x2006;" horiz-adv-x="332" />
<glyph unicode="&#x2007;" horiz-adv-x="332" />
<glyph unicode="&#x2008;" horiz-adv-x="249" />
<glyph unicode="&#x2009;" horiz-adv-x="398" />
<glyph unicode="&#x200a;" horiz-adv-x="110" />
<glyph unicode="&#x2010;" horiz-adv-x="762" d="M678 426h-602l10 168h600z" />
<glyph unicode="&#x2011;" horiz-adv-x="762" d="M678 426h-602l10 168h600z" />
<glyph unicode="&#x2012;" horiz-adv-x="762" d="M678 426h-602l10 168h600z" />
<glyph unicode="&#x2013;" horiz-adv-x="1159" d="M1080 428h-1008l10 156h1006z" />
<glyph unicode="&#x2014;" horiz-adv-x="2320" d="M2322 428h-2336l12 156h2334z" />
<glyph unicode="&#x2018;" horiz-adv-x="581" d="M94 1088q0 69 24 125t71.5 102.5t119 84.5t166.5 70l76 -147q-67 -30 -108.5 -54.5t-65 -47.5t-31.5 -46t-8 -53q0 -18 4.5 -50t12 -70t17 -77.5t19.5 -72.5l-207 -37q-21 23 -37.5 55t-28.5 69t-18 75.5t-6 73.5z" />
<glyph unicode="&#x2019;" horiz-adv-x="581" d="M514 1196q0 -70 -24 -126t-71.5 -103t-119 -85t-166.5 -73l-73 149q44 20 77 38t57 34t39 31t24 30t12 32t3 36q0 18 -5 50.5t-12.5 70.5t-17.5 77t-20 73l207 36q20 -23 37 -54.5t29 -67.5t18 -74t6 -74z" />
<glyph unicode="&#x201a;" horiz-adv-x="581" d="M469 -8q0 -70 -24 -126.5t-72 -103t-119.5 -84.5t-165.5 -71l-76 147q68 30 110 55t65.5 48t32 46t8.5 52q0 12 -2.5 30.5t-6.5 41.5t-9.5 48.5t-12 51.5l-13.5 51.5t-14 47.5l209 36q20 -23 36.5 -55.5t28.5 -68.5t18.5 -74t6.5 -72z" />
<glyph unicode="&#x201c;" horiz-adv-x="1075" d="M94 1088q0 69 24 125t71.5 102.5t119 84.5t166.5 70l76 -147q-67 -30 -108.5 -54.5t-65 -47.5t-31.5 -46t-8 -53q0 -18 4.5 -50t12 -70t17 -77.5t19.5 -72.5l-207 -37q-21 23 -37.5 55t-28.5 69t-18 75.5t-6 73.5zM586 1088q0 69 23.5 125t71 102.5t119.5 84.5t166 70 l76 -147q-66 -30 -108 -54.5t-66 -47.5t-32 -46t-8 -53q0 -18 5 -50t13 -70t18 -77.5t20 -72.5l-208 -37q-20 23 -37 55t-29 69t-18 75.5t-6 73.5z" />
<glyph unicode="&#x201d;" horiz-adv-x="1075" d="M514 1196q0 -70 -24 -126t-71.5 -103t-119 -85t-166.5 -73l-73 149q44 20 77 38t57 34t39 31t24 30t12 32t3 36q0 18 -5 50.5t-12.5 70.5t-17.5 77t-20 73l207 36q20 -23 37 -54.5t29 -67.5t18 -74t6 -74zM1010 1196q0 -70 -24 -126t-72 -103t-120 -85t-168 -73l-73 149 q44 20 77.5 38t57 34t39 31t24 30t12 32t3.5 36q0 18 -4.5 50.5t-12 70.5t-17.5 77t-22 73l208 36q21 -23 37.5 -54.5t28.5 -67.5t19 -74t7 -74z" />
<glyph unicode="&#x201e;" horiz-adv-x="1075" d="M469 -8q0 -70 -24 -126.5t-72 -103t-119.5 -84.5t-165.5 -71l-76 147q68 30 110 55t65.5 48t32 46t8.5 52q0 12 -2.5 30.5t-6.5 41.5t-9.5 48.5t-12 51.5l-13.5 51.5t-14 47.5l209 36q20 -23 36.5 -55.5t28.5 -68.5t18.5 -74t6.5 -72zM964 -8q0 -70 -23.5 -126.5 t-71 -103t-118.5 -84.5t-167 -71l-74 147q67 30 108.5 55t64.5 48t31.5 46t8.5 52q0 18 -4.5 50.5t-12.5 70.5t-18 77t-20 73l208 36q20 -23 36.5 -55.5t28 -68.5t17.5 -74t6 -72z" />
<glyph unicode="&#x2022;" horiz-adv-x="739" d="M196 336v316h346v-316h-346z" />
<glyph unicode="&#x2026;" horiz-adv-x="1949" d="M1478 0v248h288v-248h-288zM832 0v248h286v-248h-286zM184 0v248h287v-248h-287z" />
<glyph unicode="&#x202f;" horiz-adv-x="398" />
<glyph unicode="&#x2039;" horiz-adv-x="760" d="M366 482l220 -366l-226 -54l-264 407l306 441l222 -48z" />
<glyph unicode="&#x203a;" horiz-adv-x="760" d="M350 62l-221 46l256 382l-217 364l221 56l267 -408z" />
<glyph unicode="&#x205f;" horiz-adv-x="498" />
<glyph unicode="&#x20ac;" horiz-adv-x="1245" d="M854 1218q-64 0 -117.5 -16.5t-96 -51t-73.5 -86.5t-49 -124h484l-17 -162h-491q-2 -20 -2 -40v-40v-49t2 -45h495l-14 -162h-455q14 -70 40 -119t63 -80t86 -45t110 -14q76 0 151.5 17t153.5 49l50 -190q-88 -38 -185.5 -56t-214.5 -18q-226 0 -357 111t-173 345h-203 l12 162h170v66v25q0 12 0.5 25t1.5 27t3 31h-179l15 162h188q26 112 76 202t123.5 153t170 97t214.5 34q63 0 112.5 -5t91.5 -13t78.5 -19.5t73.5 -24.5l-58 -190q-36 12 -70 20t-68 13.5t-69 8t-73 2.5z" />
<glyph unicode="&#x2122;" horiz-adv-x="1507" d="M1233 794l-4 378l-170 -367h-107l-162 369l-6 -380h-122l12 619h158l188 -434l204 434h142l4 -619h-137zM580 1298h-187v-504h-143v504h-197l9 115h528z" />
<glyph unicode="&#xe000;" horiz-adv-x="965" d="M0 965h965v-965h-965v965z" />
<glyph unicode="&#xfb01;" horiz-adv-x="1159" d="M770 1157v221h252v-221h-252zM772 0v966l250 15v-981h-250zM633 1286q-16 4 -34.5 7t-37.5 5t-36 3t-31 1q-26 0 -44 -6t-29 -20t-15 -36t-4 -54v-220h204l-14 -180h-190v-786h-248v786l-126 8l15 168l111 4v202q0 82 16.5 142t52 99.5t91.5 58.5t134 19q28 0 59 -2.5 t61 -7.5t57 -10t45 -11z" />
<glyph unicode="&#xfb02;" horiz-adv-x="1208" d="M633 1278q-16 4 -35.5 7.5t-38.5 6.5t-37 4.5t-32 1.5q-26 0 -43 -4.5t-27 -16t-14 -30.5t-4 -49v-232h204l-14 -180h-190v-786h-248v786l-126 8l15 168l111 4v202q0 82 16.5 142t52 99.5t91.5 58.5t134 19q32 0 63 -2.5t59 -7.5t54 -11.5t46 -13.5zM780 1470l246 15 v-1217q0 -26 1.5 -42t7.5 -25t17.5 -13t33.5 -4q12 0 30 1t50 3l6 -174q-17 -6 -40.5 -10t-50.5 -7t-56 -5t-57 -2q-48 0 -83 10.5t-58 33t-35 58.5t-12 88v1290z" />
<glyph unicode="&#xfb03;" horiz-adv-x="1808" d="M1429 0v964l246 15v-979h-246zM1423 1157v221h252v-221h-252zM1280 1278q-16 4 -35.5 7.5t-38.5 6.5t-37 4.5t-32 1.5q-26 0 -43 -4.5t-27 -16t-14 -30.5t-4 -49v-232h204l-14 -180h-190v-786h-248v786l-126 8l15 168l111 4v202q0 82 16.5 142t52 99.5t91.5 58.5t134 19 q32 0 63 -2.5t59 -7.5t54 -11q26 -7 46 -14zM633 1278q-16 4 -35.5 7.5t-38.5 6.5t-37 4.5t-32 1.5q-26 0 -43 -4.5t-27 -16t-14 -30.5t-4 -49v-232h204l-14 -180h-190v-786h-248v786l-126 8l15 168l111 4v202q0 82 16.5 142t52 99.5t91.5 58.5t134 19q32 0 63 -2.5t59 -7.5 t54 -11q26 -7 46 -14z" />
<glyph unicode="&#xfb04;" horiz-adv-x="1855" d="M1427 1470l246 15v-1217q0 -26 1.5 -42t7.5 -25t18 -13t32 -4q12 0 30.5 1t49.5 3l6 -174q-17 -6 -40.5 -10t-50 -7t-55 -5t-56.5 -2q-48 0 -83.5 10.5t-59 33t-35 58.5t-11.5 88v1290zM1280 1278q-16 4 -35.5 7.5t-38.5 6.5t-37 4.5t-32 1.5q-26 0 -43 -4.5t-27 -16 t-14 -30.5t-4 -49v-232h204l-14 -180h-190v-786h-248v786l-126 8l15 168l111 4v202q0 82 16.5 142t52 99.5t91.5 58.5t134 19q32 0 63 -2.5t59 -7.5t54 -11q26 -7 46 -14zM633 1278q-16 4 -35.5 7.5t-38.5 6.5t-37 4.5t-32 1.5q-26 0 -43 -4.5t-27 -16t-14 -30.5t-4 -49 v-232h204l-14 -180h-190v-786h-248v786l-126 8l15 168l111 4v202q0 82 16.5 142t52 99.5t91.5 58.5t134 19q32 0 63 -2.5t59 -7.5t54 -11q26 -7 46 -14z" />
</font>
</defs>
</svg>
